<svg viewBox="-500 -500 1024 768" xmlns="http://www.w3.org/2000/svg">
	<line x1="0" y1="0" x2="0.0" y2="-3.0" stroke-width="1" stroke="black" />
	<line x1="0.0" y1="-3.0" x2="1.29" y2="-5.7" stroke-width="1" stroke="black" />
	<line x1="0.0" y1="-3.0" x2="0.0" y2="-6.0" stroke-width="1" stroke="black" />
	<line x1="0.0" y1="-6.0" x2="-1.29" y2="-8.7" stroke-width="1" stroke="black" />
	<line x1="0.0" y1="-6.0" x2="0.0" y2="-9.0" stroke-width="1" stroke="black" />
	<line x1="0.0" y1="-9.0" x2="1.29" y2="-11.7" stroke-width="1" stroke="black" />
	<line x1="1.29" y1="-11.7" x2="3.63" y2="-13.559999999999999" stroke-width="1" stroke="black" />
	<line x1="1.29" y1="-11.7" x2="2.58" y2="-14.399999999999999" stroke-width="1" stroke="black" />
	<line x1="2.58" y1="-14.399999999999999" x2="2.58" y2="-17.4" stroke-width="1" stroke="black" />
	<line x1="2.58" y1="-14.399999999999999" x2="3.87" y2="-17.099999999999998" stroke-width="1" stroke="black" />
	<line x1="0.0" y1="-9.0" x2="0.0" y2="-12.0" stroke-width="1" stroke="black" />
	<line x1="0.0" y1="-12.0" x2="1.29" y2="-14.7" stroke-width="1" stroke="black" />
	<line x1="0.0" y1="-12.0" x2="0.0" y2="-15.0" stroke-width="1" stroke="black" />
	<line x1="0.0" y1="-15.0" x2="-1.29" y2="-17.7" stroke-width="1" stroke="black" />
	<line x1="0.0" y1="-15.0" x2="0.0" y2="-18.0" stroke-width="1" stroke="black" />
	<line x1="0.0" y1="-18.0" x2="-1.29" y2="-20.7" stroke-width="1" stroke="black" />
	<line x1="-1.29" y1="-20.7" x2="-1.29" y2="-23.7" stroke-width="1" stroke="black" />
	<line x1="-1.29" y1="-20.7" x2="-2.58" y2="-23.4" stroke-width="1" stroke="black" />
	<line x1="-2.58" y1="-23.4" x2="-4.92" y2="-25.259999999999998" stroke-width="1" stroke="black" />
	<line x1="-2.58" y1="-23.4" x2="-3.87" y2="-26.099999999999998" stroke-width="1" stroke="black" />
	<line x1="0.0" y1="-18.0" x2="0.0" y2="-21.0" stroke-width="1" stroke="black" />
	<line x1="0.0" y1="-21.0" x2="1.29" y2="-23.7" stroke-width="1" stroke="black" />
	<line x1="0.0" y1="-21.0" x2="0.0" y2="-24.0" stroke-width="1" stroke="black" />
	<line x1="0.0" y1="-24.0" x2="-1.29" y2="-26.7" stroke-width="1" stroke="black" />
	<line x1="0.0" y1="-24.0" x2="0.0" y2="-27.0" stroke-width="1" stroke="black" />
	<line x1="0.0" y1="-27.0" x2="1.29" y2="-29.7" stroke-width="1" stroke="black" />
	<line x1="1.29" y1="-29.7" x2="3.63" y2="-31.56" stroke-width="1" stroke="black" />
	<line x1="1.29" y1="-29.7" x2="2.58" y2="-32.4" stroke-width="1" stroke="black" />
	<line x1="2.58" y1="-32.4" x2="2.58" y2="-35.4" stroke-width="1" stroke="black" />
	<line x1="2.58" y1="-32.4" x2="3.87" y2="-35.1" stroke-width="1" stroke="black" />
	<line x1="3.87" y1="-35.1" x2="6.21" y2="-36.96" stroke-width="1" stroke="black" />
	<line x1="6.21" y1="-36.96" x2="9.120000000000001" y2="-37.62" stroke-width="1" stroke="black" />
	<line x1="6.21" y1="-36.96" x2="8.55" y2="-38.82" stroke-width="1" stroke="black" />
	<line x1="8.55" y1="-38.82" x2="9.84" y2="-41.52" stroke-width="1" stroke="black" />
	<line x1="8.55" y1="-38.82" x2="10.89" y2="-40.68" stroke-width="1" stroke="black" />
	<line x1="3.87" y1="-35.1" x2="5.16" y2="-37.800000000000004" stroke-width="1" stroke="black" />
	<line x1="5.16" y1="-37.800000000000004" x2="7.5" y2="-39.660000000000004" stroke-width="1" stroke="black" />
	<line x1="5.16" y1="-37.800000000000004" x2="6.45" y2="-40.50000000000001" stroke-width="1" stroke="black" />
	<line x1="6.45" y1="-40.50000000000001" x2="6.45" y2="-43.50000000000001" stroke-width="1" stroke="black" />
	<line x1="6.45" y1="-40.50000000000001" x2="7.74" y2="-43.20000000000001" stroke-width="1" stroke="black" />
	<line x1="7.74" y1="-43.20000000000001" x2="7.74" y2="-46.20000000000001" stroke-width="1" stroke="black" />
	<line x1="7.74" y1="-46.20000000000001" x2="9.030000000000001" y2="-48.90000000000001" stroke-width="1" stroke="black" />
	<line x1="7.74" y1="-46.20000000000001" x2="7.74" y2="-49.20000000000001" stroke-width="1" stroke="black" />
	<line x1="7.74" y1="-49.20000000000001" x2="6.45" y2="-51.90000000000001" stroke-width="1" stroke="black" />
	<line x1="7.74" y1="-49.20000000000001" x2="7.74" y2="-52.20000000000001" stroke-width="1" stroke="black" />
	<line x1="7.74" y1="-43.20000000000001" x2="9.030000000000001" y2="-45.90000000000001" stroke-width="1" stroke="black" />
	<line x1="9.030000000000001" y1="-45.90000000000001" x2="11.370000000000001" y2="-47.76000000000001" stroke-width="1" stroke="black" />
	<line x1="9.030000000000001" y1="-45.90000000000001" x2="10.32" y2="-48.600000000000016" stroke-width="1" stroke="black" />
	<line x1="10.32" y1="-48.600000000000016" x2="10.32" y2="-51.600000000000016" stroke-width="1" stroke="black" />
	<line x1="10.32" y1="-48.600000000000016" x2="11.61" y2="-51.30000000000002" stroke-width="1" stroke="black" />
	<line x1="0.0" y1="-27.0" x2="0.0" y2="-30.0" stroke-width="1" stroke="black" />
	<line x1="0.0" y1="-30.0" x2="1.29" y2="-32.7" stroke-width="1" stroke="black" />
	<line x1="0.0" y1="-30.0" x2="0.0" y2="-33.0" stroke-width="1" stroke="black" />
	<line x1="0.0" y1="-33.0" x2="-1.29" y2="-35.7" stroke-width="1" stroke="black" />
	<line x1="0.0" y1="-33.0" x2="0.0" y2="-36.0" stroke-width="1" stroke="black" />
	<line x1="0.0" y1="-36.0" x2="1.29" y2="-38.7" stroke-width="1" stroke="black" />
	<line x1="1.29" y1="-38.7" x2="3.63" y2="-40.56" stroke-width="1" stroke="black" />
	<line x1="1.29" y1="-38.7" x2="2.58" y2="-41.400000000000006" stroke-width="1" stroke="black" />
	<line x1="2.58" y1="-41.400000000000006" x2="2.58" y2="-44.400000000000006" stroke-width="1" stroke="black" />
	<line x1="2.58" y1="-41.400000000000006" x2="3.87" y2="-44.10000000000001" stroke-width="1" stroke="black" />
	<line x1="0.0" y1="-36.0" x2="0.0" y2="-39.0" stroke-width="1" stroke="black" />
	<line x1="0.0" y1="-39.0" x2="1.29" y2="-41.7" stroke-width="1" stroke="black" />
	<line x1="0.0" y1="-39.0" x2="0.0" y2="-42.0" stroke-width="1" stroke="black" />
	<line x1="0.0" y1="-42.0" x2="-1.29" y2="-44.7" stroke-width="1" stroke="black" />
	<line x1="0.0" y1="-42.0" x2="0.0" y2="-45.0" stroke-width="1" stroke="black" />
	<line x1="0.0" y1="-45.0" x2="-1.29" y2="-47.7" stroke-width="1" stroke="black" />
	<line x1="-1.29" y1="-47.7" x2="-1.29" y2="-50.7" stroke-width="1" stroke="black" />
	<line x1="-1.29" y1="-47.7" x2="-2.58" y2="-50.400000000000006" stroke-width="1" stroke="black" />
	<line x1="-2.58" y1="-50.400000000000006" x2="-4.92" y2="-52.260000000000005" stroke-width="1" stroke="black" />
	<line x1="-2.58" y1="-50.400000000000006" x2="-3.87" y2="-53.10000000000001" stroke-width="1" stroke="black" />
	<line x1="0.0" y1="-45.0" x2="0.0" y2="-48.0" stroke-width="1" stroke="black" />
	<line x1="0.0" y1="-48.0" x2="1.29" y2="-50.7" stroke-width="1" stroke="black" />
	<line x1="0.0" y1="-48.0" x2="0.0" y2="-51.0" stroke-width="1" stroke="black" />
	<line x1="0.0" y1="-51.0" x2="-1.29" y2="-53.7" stroke-width="1" stroke="black" />
	<line x1="0.0" y1="-51.0" x2="0.0" y2="-54.0" stroke-width="1" stroke="black" />
	<line x1="0.0" y1="-54.0" x2="-1.29" y2="-56.7" stroke-width="1" stroke="black" />
	<line x1="-1.29" y1="-56.7" x2="-1.29" y2="-59.7" stroke-width="1" stroke="black" />
	<line x1="-1.29" y1="-56.7" x2="-2.58" y2="-59.400000000000006" stroke-width="1" stroke="black" />
	<line x1="-2.58" y1="-59.400000000000006" x2="-4.92" y2="-61.260000000000005" stroke-width="1" stroke="black" />
	<line x1="-2.58" y1="-59.400000000000006" x2="-3.87" y2="-62.10000000000001" stroke-width="1" stroke="black" />
	<line x1="-3.87" y1="-62.10000000000001" x2="-3.87" y2="-65.10000000000001" stroke-width="1" stroke="black" />
	<line x1="-3.87" y1="-65.10000000000001" x2="-2.58" y2="-67.80000000000001" stroke-width="1" stroke="black" />
	<line x1="-3.87" y1="-65.10000000000001" x2="-3.87" y2="-68.10000000000001" stroke-width="1" stroke="black" />
	<line x1="-3.87" y1="-68.10000000000001" x2="-5.16" y2="-70.80000000000001" stroke-width="1" stroke="black" />
	<line x1="-3.87" y1="-68.10000000000001" x2="-3.87" y2="-71.10000000000001" stroke-width="1" stroke="black" />
	<line x1="-3.87" y1="-62.10000000000001" x2="-5.16" y2="-64.80000000000001" stroke-width="1" stroke="black" />
	<line x1="-5.16" y1="-64.80000000000001" x2="-5.16" y2="-67.80000000000001" stroke-width="1" stroke="black" />
	<line x1="-5.16" y1="-64.80000000000001" x2="-6.45" y2="-67.50000000000001" stroke-width="1" stroke="black" />
	<line x1="-6.45" y1="-67.50000000000001" x2="-8.79" y2="-69.36000000000001" stroke-width="1" stroke="black" />
	<line x1="-6.45" y1="-67.50000000000001" x2="-7.74" y2="-70.20000000000002" stroke-width="1" stroke="black" />
	<line x1="-7.74" y1="-70.20000000000002" x2="-10.08" y2="-72.06000000000002" stroke-width="1" stroke="black" />
	<line x1="-10.08" y1="-72.06000000000002" x2="-11.370000000000001" y2="-74.76000000000002" stroke-width="1" stroke="black" />
	<line x1="-10.08" y1="-72.06000000000002" x2="-12.42" y2="-73.92000000000002" stroke-width="1" stroke="black" />
	<line x1="-12.42" y1="-73.92000000000002" x2="-15.33" y2="-74.58000000000001" stroke-width="1" stroke="black" />
	<line x1="-12.42" y1="-73.92000000000002" x2="-14.76" y2="-75.78000000000002" stroke-width="1" stroke="black" />
	<line x1="-7.74" y1="-70.20000000000002" x2="-9.030000000000001" y2="-72.90000000000002" stroke-width="1" stroke="black" />
	<line x1="-9.030000000000001" y1="-72.90000000000002" x2="-9.030000000000001" y2="-75.90000000000002" stroke-width="1" stroke="black" />
	<line x1="-9.030000000000001" y1="-72.90000000000002" x2="-10.32" y2="-75.60000000000002" stroke-width="1" stroke="black" />
	<line x1="-10.32" y1="-75.60000000000002" x2="-12.66" y2="-77.46000000000002" stroke-width="1" stroke="black" />
	<line x1="-10.32" y1="-75.60000000000002" x2="-11.61" y2="-78.30000000000003" stroke-width="1" stroke="black" />
	<line x1="0.0" y1="-54.0" x2="0.0" y2="-57.0" stroke-width="1" stroke="black" />
	<line x1="0.0" y1="-57.0" x2="1.29" y2="-59.7" stroke-width="1" stroke="black" />
	<line x1="0.0" y1="-57.0" x2="0.0" y2="-60.0" stroke-width="1" stroke="black" />
	<line x1="0.0" y1="-60.0" x2="-1.29" y2="-62.7" stroke-width="1" stroke="black" />
	<line x1="0.0" y1="-60.0" x2="0.0" y2="-63.0" stroke-width="1" stroke="black" />
	<line x1="0.0" y1="-63.0" x2="1.29" y2="-65.7" stroke-width="1" stroke="black" />
	<line x1="1.29" y1="-65.7" x2="3.63" y2="-67.56" stroke-width="1" stroke="black" />
	<line x1="1.29" y1="-65.7" x2="2.58" y2="-68.4" stroke-width="1" stroke="black" />
	<line x1="2.58" y1="-68.4" x2="2.58" y2="-71.4" stroke-width="1" stroke="black" />
	<line x1="2.58" y1="-68.4" x2="3.87" y2="-71.10000000000001" stroke-width="1" stroke="black" />
	<line x1="0.0" y1="-63.0" x2="0.0" y2="-66.0" stroke-width="1" stroke="black" />
	<line x1="0.0" y1="-66.0" x2="1.29" y2="-68.7" stroke-width="1" stroke="black" />
	<line x1="0.0" y1="-66.0" x2="0.0" y2="-69.0" stroke-width="1" stroke="black" />
	<line x1="0.0" y1="-69.0" x2="-1.29" y2="-71.7" stroke-width="1" stroke="black" />
	<line x1="0.0" y1="-69.0" x2="0.0" y2="-72.0" stroke-width="1" stroke="black" />
	<line x1="0.0" y1="-72.0" x2="-1.29" y2="-74.7" stroke-width="1" stroke="black" />
	<line x1="-1.29" y1="-74.7" x2="-1.29" y2="-77.7" stroke-width="1" stroke="black" />
	<line x1="-1.29" y1="-74.7" x2="-2.58" y2="-77.4" stroke-width="1" stroke="black" />
	<line x1="-2.58" y1="-77.4" x2="-4.92" y2="-79.26" stroke-width="1" stroke="black" />
	<line x1="-2.58" y1="-77.4" x2="-3.87" y2="-80.10000000000001" stroke-width="1" stroke="black" />
	<line x1="0.0" y1="-72.0" x2="0.0" y2="-75.0" stroke-width="1" stroke="black" />
	<line x1="0.0" y1="-75.0" x2="1.29" y2="-77.7" stroke-width="1" stroke="black" />
	<line x1="0.0" y1="-75.0" x2="0.0" y2="-78.0" stroke-width="1" stroke="black" />
	<line x1="0.0" y1="-78.0" x2="-1.29" y2="-80.7" stroke-width="1" stroke="black" />
	<line x1="0.0" y1="-78.0" x2="0.0" y2="-81.0" stroke-width="1" stroke="black" />
	<line x1="0.0" y1="-81.0" x2="1.29" y2="-83.7" stroke-width="1" stroke="black" />
	<line x1="1.29" y1="-83.7" x2="3.63" y2="-85.56" stroke-width="1" stroke="black" />
	<line x1="1.29" y1="-83.7" x2="2.58" y2="-86.4" stroke-width="1" stroke="black" />
	<line x1="2.58" y1="-86.4" x2="2.58" y2="-89.4" stroke-width="1" stroke="black" />
	<line x1="2.58" y1="-86.4" x2="3.87" y2="-89.10000000000001" stroke-width="1" stroke="black" />
	<line x1="3.87" y1="-89.10000000000001" x2="6.21" y2="-90.96000000000001" stroke-width="1" stroke="black" />
	<line x1="6.21" y1="-90.96000000000001" x2="9.120000000000001" y2="-91.62" stroke-width="1" stroke="black" />
	<line x1="6.21" y1="-90.96000000000001" x2="8.55" y2="-92.82000000000001" stroke-width="1" stroke="black" />
	<line x1="8.55" y1="-92.82000000000001" x2="9.84" y2="-95.52000000000001" stroke-width="1" stroke="black" />
	<line x1="8.55" y1="-92.82000000000001" x2="10.89" y2="-94.68" stroke-width="1" stroke="black" />
	<line x1="3.87" y1="-89.10000000000001" x2="5.16" y2="-91.80000000000001" stroke-width="1" stroke="black" />
	<line x1="5.16" y1="-91.80000000000001" x2="7.5" y2="-93.66000000000001" stroke-width="1" stroke="black" />
	<line x1="5.16" y1="-91.80000000000001" x2="6.45" y2="-94.50000000000001" stroke-width="1" stroke="black" />
	<line x1="6.45" y1="-94.50000000000001" x2="6.45" y2="-97.50000000000001" stroke-width="1" stroke="black" />
	<line x1="6.45" y1="-94.50000000000001" x2="7.74" y2="-97.20000000000002" stroke-width="1" stroke="black" />
	<line x1="7.74" y1="-97.20000000000002" x2="7.74" y2="-100.20000000000002" stroke-width="1" stroke="black" />
	<line x1="7.74" y1="-100.20000000000002" x2="9.030000000000001" y2="-102.90000000000002" stroke-width="1" stroke="black" />
	<line x1="7.74" y1="-100.20000000000002" x2="7.74" y2="-103.20000000000002" stroke-width="1" stroke="black" />
	<line x1="7.74" y1="-103.20000000000002" x2="6.45" y2="-105.90000000000002" stroke-width="1" stroke="black" />
	<line x1="7.74" y1="-103.20000000000002" x2="7.74" y2="-106.20000000000002" stroke-width="1" stroke="black" />
	<line x1="7.74" y1="-97.20000000000002" x2="9.030000000000001" y2="-99.90000000000002" stroke-width="1" stroke="black" />
	<line x1="9.030000000000001" y1="-99.90000000000002" x2="11.370000000000001" y2="-101.76000000000002" stroke-width="1" stroke="black" />
	<line x1="9.030000000000001" y1="-99.90000000000002" x2="10.32" y2="-102.60000000000002" stroke-width="1" stroke="black" />
	<line x1="10.32" y1="-102.60000000000002" x2="10.32" y2="-105.60000000000002" stroke-width="1" stroke="black" />
	<line x1="10.32" y1="-102.60000000000002" x2="11.61" y2="-105.30000000000003" stroke-width="1" stroke="black" />
	<line x1="11.61" y1="-105.30000000000003" x2="13.95" y2="-107.16000000000003" stroke-width="1" stroke="black" />
	<line x1="13.95" y1="-107.16000000000003" x2="16.86" y2="-107.82000000000002" stroke-width="1" stroke="black" />
	<line x1="13.95" y1="-107.16000000000003" x2="16.29" y2="-109.02000000000002" stroke-width="1" stroke="black" />
	<line x1="16.29" y1="-109.02000000000002" x2="17.58" y2="-111.72000000000003" stroke-width="1" stroke="black" />
	<line x1="16.29" y1="-109.02000000000002" x2="18.63" y2="-110.88000000000002" stroke-width="1" stroke="black" />
	<line x1="18.63" y1="-110.88000000000002" x2="21.54" y2="-111.54000000000002" stroke-width="1" stroke="black" />
	<line x1="21.54" y1="-111.54000000000002" x2="24.48" y2="-110.88000000000002" stroke-width="1" stroke="black" />
	<line x1="21.54" y1="-111.54000000000002" x2="24.45" y2="-112.20000000000002" stroke-width="1" stroke="black" />
	<line x1="24.45" y1="-112.20000000000002" x2="26.79" y2="-114.06000000000002" stroke-width="1" stroke="black" />
	<line x1="24.45" y1="-112.20000000000002" x2="27.36" y2="-112.86000000000001" stroke-width="1" stroke="black" />
	<line x1="18.63" y1="-110.88000000000002" x2="20.97" y2="-112.74000000000002" stroke-width="1" stroke="black" />
	<line x1="20.97" y1="-112.74000000000002" x2="23.88" y2="-113.40000000000002" stroke-width="1" stroke="black" />
	<line x1="20.97" y1="-112.74000000000002" x2="23.31" y2="-114.60000000000002" stroke-width="1" stroke="black" />
	<line x1="23.31" y1="-114.60000000000002" x2="24.599999999999998" y2="-117.30000000000003" stroke-width="1" stroke="black" />
	<line x1="23.31" y1="-114.60000000000002" x2="25.65" y2="-116.46000000000002" stroke-width="1" stroke="black" />
	<line x1="25.65" y1="-116.46000000000002" x2="26.939999999999998" y2="-119.16000000000003" stroke-width="1" stroke="black" />
	<line x1="26.939999999999998" y1="-119.16000000000003" x2="29.279999999999998" y2="-121.02000000000002" stroke-width="1" stroke="black" />
	<line x1="26.939999999999998" y1="-119.16000000000003" x2="28.229999999999997" y2="-121.86000000000003" stroke-width="1" stroke="black" />
	<line x1="28.229999999999997" y1="-121.86000000000003" x2="28.229999999999997" y2="-124.86000000000003" stroke-width="1" stroke="black" />
	<line x1="28.229999999999997" y1="-121.86000000000003" x2="29.519999999999996" y2="-124.56000000000003" stroke-width="1" stroke="black" />
	<line x1="25.65" y1="-116.46000000000002" x2="27.99" y2="-118.32000000000002" stroke-width="1" stroke="black" />
	<line x1="27.99" y1="-118.32000000000002" x2="30.9" y2="-118.98000000000002" stroke-width="1" stroke="black" />
	<line x1="27.99" y1="-118.32000000000002" x2="30.33" y2="-120.18000000000002" stroke-width="1" stroke="black" />
	<line x1="30.33" y1="-120.18000000000002" x2="31.619999999999997" y2="-122.88000000000002" stroke-width="1" stroke="black" />
	<line x1="30.33" y1="-120.18000000000002" x2="32.67" y2="-122.04000000000002" stroke-width="1" stroke="black" />
	<line x1="11.61" y1="-105.30000000000003" x2="12.899999999999999" y2="-108.00000000000003" stroke-width="1" stroke="black" />
	<line x1="12.899999999999999" y1="-108.00000000000003" x2="15.239999999999998" y2="-109.86000000000003" stroke-width="1" stroke="black" />
	<line x1="12.899999999999999" y1="-108.00000000000003" x2="14.189999999999998" y2="-110.70000000000003" stroke-width="1" stroke="black" />
	<line x1="14.189999999999998" y1="-110.70000000000003" x2="14.189999999999998" y2="-113.70000000000003" stroke-width="1" stroke="black" />
	<line x1="14.189999999999998" y1="-110.70000000000003" x2="15.479999999999997" y2="-113.40000000000003" stroke-width="1" stroke="black" />
	<line x1="15.479999999999997" y1="-113.40000000000003" x2="17.819999999999997" y2="-115.26000000000003" stroke-width="1" stroke="black" />
	<line x1="17.819999999999997" y1="-115.26000000000003" x2="20.729999999999997" y2="-115.92000000000003" stroke-width="1" stroke="black" />
	<line x1="17.819999999999997" y1="-115.26000000000003" x2="20.159999999999997" y2="-117.12000000000003" stroke-width="1" stroke="black" />
	<line x1="20.159999999999997" y1="-117.12000000000003" x2="21.449999999999996" y2="-119.82000000000004" stroke-width="1" stroke="black" />
	<line x1="20.159999999999997" y1="-117.12000000000003" x2="22.499999999999996" y2="-118.98000000000003" stroke-width="1" stroke="black" />
	<line x1="15.479999999999997" y1="-113.40000000000003" x2="16.769999999999996" y2="-116.10000000000004" stroke-width="1" stroke="black" />
	<line x1="16.769999999999996" y1="-116.10000000000004" x2="19.109999999999996" y2="-117.96000000000004" stroke-width="1" stroke="black" />
	<line x1="16.769999999999996" y1="-116.10000000000004" x2="18.059999999999995" y2="-118.80000000000004" stroke-width="1" stroke="black" />
	<line x1="18.059999999999995" y1="-118.80000000000004" x2="18.059999999999995" y2="-121.80000000000004" stroke-width="1" stroke="black" />
	<line x1="18.059999999999995" y1="-118.80000000000004" x2="19.349999999999994" y2="-121.50000000000004" stroke-width="1" stroke="black" />
	<line x1="19.349999999999994" y1="-121.50000000000004" x2="19.349999999999994" y2="-124.50000000000004" stroke-width="1" stroke="black" />
	<line x1="19.349999999999994" y1="-124.50000000000004" x2="20.639999999999993" y2="-127.20000000000005" stroke-width="1" stroke="black" />
	<line x1="19.349999999999994" y1="-124.50000000000004" x2="19.349999999999994" y2="-127.50000000000004" stroke-width="1" stroke="black" />
	<line x1="19.349999999999994" y1="-127.50000000000004" x2="18.059999999999995" y2="-130.20000000000005" stroke-width="1" stroke="black" />
	<line x1="19.349999999999994" y1="-127.50000000000004" x2="19.349999999999994" y2="-130.50000000000006" stroke-width="1" stroke="black" />
	<line x1="19.349999999999994" y1="-121.50000000000004" x2="20.639999999999993" y2="-124.20000000000005" stroke-width="1" stroke="black" />
	<line x1="20.639999999999993" y1="-124.20000000000005" x2="22.979999999999993" y2="-126.06000000000004" stroke-width="1" stroke="black" />
	<line x1="20.639999999999993" y1="-124.20000000000005" x2="21.929999999999993" y2="-126.90000000000005" stroke-width="1" stroke="black" />
	<line x1="21.929999999999993" y1="-126.90000000000005" x2="21.929999999999993" y2="-129.90000000000003" stroke-width="1" stroke="black" />
	<line x1="21.929999999999993" y1="-126.90000000000005" x2="23.21999999999999" y2="-129.60000000000005" stroke-width="1" stroke="black" />
	<line x1="23.21999999999999" y1="-129.60000000000005" x2="23.21999999999999" y2="-132.60000000000005" stroke-width="1" stroke="black" />
	<line x1="23.21999999999999" y1="-132.60000000000005" x2="24.50999999999999" y2="-135.30000000000004" stroke-width="1" stroke="black" />
	<line x1="23.21999999999999" y1="-132.60000000000005" x2="23.21999999999999" y2="-135.60000000000005" stroke-width="1" stroke="black" />
	<line x1="23.21999999999999" y1="-135.60000000000005" x2="21.929999999999993" y2="-138.30000000000004" stroke-width="1" stroke="black" />
	<line x1="23.21999999999999" y1="-135.60000000000005" x2="23.21999999999999" y2="-138.60000000000005" stroke-width="1" stroke="black" />
	<line x1="23.21999999999999" y1="-138.60000000000005" x2="24.50999999999999" y2="-141.30000000000004" stroke-width="1" stroke="black" />
	<line x1="24.50999999999999" y1="-141.30000000000004" x2="26.84999999999999" y2="-143.16000000000005" stroke-width="1" stroke="black" />
	<line x1="24.50999999999999" y1="-141.30000000000004" x2="25.79999999999999" y2="-144.00000000000003" stroke-width="1" stroke="black" />
	<line x1="25.79999999999999" y1="-144.00000000000003" x2="25.79999999999999" y2="-147.00000000000003" stroke-width="1" stroke="black" />
	<line x1="25.79999999999999" y1="-144.00000000000003" x2="27.08999999999999" y2="-146.70000000000002" stroke-width="1" stroke="black" />
	<line x1="23.21999999999999" y1="-138.60000000000005" x2="23.21999999999999" y2="-141.60000000000005" stroke-width="1" stroke="black" />
	<line x1="23.21999999999999" y1="-141.60000000000005" x2="24.50999999999999" y2="-144.30000000000004" stroke-width="1" stroke="black" />
	<line x1="23.21999999999999" y1="-141.60000000000005" x2="23.21999999999999" y2="-144.60000000000005" stroke-width="1" stroke="black" />
	<line x1="23.21999999999999" y1="-144.60000000000005" x2="21.929999999999993" y2="-147.30000000000004" stroke-width="1" stroke="black" />
	<line x1="23.21999999999999" y1="-144.60000000000005" x2="23.21999999999999" y2="-147.60000000000005" stroke-width="1" stroke="black" />
	<line x1="23.21999999999999" y1="-147.60000000000005" x2="21.929999999999993" y2="-150.30000000000004" stroke-width="1" stroke="black" />
	<line x1="21.929999999999993" y1="-150.30000000000004" x2="21.929999999999993" y2="-153.30000000000004" stroke-width="1" stroke="black" />
	<line x1="21.929999999999993" y1="-150.30000000000004" x2="20.639999999999993" y2="-153.00000000000003" stroke-width="1" stroke="black" />
	<line x1="20.639999999999993" y1="-153.00000000000003" x2="18.299999999999994" y2="-154.86000000000004" stroke-width="1" stroke="black" />
	<line x1="20.639999999999993" y1="-153.00000000000003" x2="19.349999999999994" y2="-155.70000000000002" stroke-width="1" stroke="black" />
	<line x1="23.21999999999999" y1="-147.60000000000005" x2="23.21999999999999" y2="-150.60000000000005" stroke-width="1" stroke="black" />
	<line x1="23.21999999999999" y1="-150.60000000000005" x2="24.50999999999999" y2="-153.30000000000004" stroke-width="1" stroke="black" />
	<line x1="23.21999999999999" y1="-150.60000000000005" x2="23.21999999999999" y2="-153.60000000000005" stroke-width="1" stroke="black" />
	<line x1="23.21999999999999" y1="-153.60000000000005" x2="21.929999999999993" y2="-156.30000000000004" stroke-width="1" stroke="black" />
	<line x1="23.21999999999999" y1="-153.60000000000005" x2="23.21999999999999" y2="-156.60000000000005" stroke-width="1" stroke="black" />
	<line x1="23.21999999999999" y1="-129.60000000000005" x2="24.50999999999999" y2="-132.30000000000004" stroke-width="1" stroke="black" />
	<line x1="24.50999999999999" y1="-132.30000000000004" x2="26.84999999999999" y2="-134.16000000000005" stroke-width="1" stroke="black" />
	<line x1="24.50999999999999" y1="-132.30000000000004" x2="25.79999999999999" y2="-135.00000000000003" stroke-width="1" stroke="black" />
	<line x1="25.79999999999999" y1="-135.00000000000003" x2="25.79999999999999" y2="-138.00000000000003" stroke-width="1" stroke="black" />
	<line x1="25.79999999999999" y1="-135.00000000000003" x2="27.08999999999999" y2="-137.70000000000002" stroke-width="1" stroke="black" />
	<line x1="27.08999999999999" y1="-137.70000000000002" x2="29.42999999999999" y2="-139.56000000000003" stroke-width="1" stroke="black" />
	<line x1="29.42999999999999" y1="-139.56000000000003" x2="32.33999999999999" y2="-140.22000000000003" stroke-width="1" stroke="black" />
	<line x1="29.42999999999999" y1="-139.56000000000003" x2="31.76999999999999" y2="-141.42000000000004" stroke-width="1" stroke="black" />
	<line x1="31.76999999999999" y1="-141.42000000000004" x2="33.05999999999999" y2="-144.12000000000003" stroke-width="1" stroke="black" />
	<line x1="31.76999999999999" y1="-141.42000000000004" x2="34.109999999999985" y2="-143.28000000000006" stroke-width="1" stroke="black" />
	<line x1="27.08999999999999" y1="-137.70000000000002" x2="28.37999999999999" y2="-140.4" stroke-width="1" stroke="black" />
	<line x1="28.37999999999999" y1="-140.4" x2="30.719999999999988" y2="-142.26000000000002" stroke-width="1" stroke="black" />
	<line x1="28.37999999999999" y1="-140.4" x2="29.669999999999987" y2="-143.1" stroke-width="1" stroke="black" />
	<line x1="29.669999999999987" y1="-143.1" x2="29.669999999999987" y2="-146.1" stroke-width="1" stroke="black" />
	<line x1="29.669999999999987" y1="-143.1" x2="30.959999999999987" y2="-145.79999999999998" stroke-width="1" stroke="black" />
	<line x1="30.959999999999987" y1="-145.79999999999998" x2="30.959999999999987" y2="-148.79999999999998" stroke-width="1" stroke="black" />
	<line x1="30.959999999999987" y1="-148.79999999999998" x2="32.249999999999986" y2="-151.49999999999997" stroke-width="1" stroke="black" />
	<line x1="30.959999999999987" y1="-148.79999999999998" x2="30.959999999999987" y2="-151.79999999999998" stroke-width="1" stroke="black" />
	<line x1="30.959999999999987" y1="-151.79999999999998" x2="29.669999999999987" y2="-154.49999999999997" stroke-width="1" stroke="black" />
	<line x1="30.959999999999987" y1="-151.79999999999998" x2="30.959999999999987" y2="-154.79999999999998" stroke-width="1" stroke="black" />
	<line x1="30.959999999999987" y1="-145.79999999999998" x2="32.249999999999986" y2="-148.49999999999997" stroke-width="1" stroke="black" />
	<line x1="32.249999999999986" y1="-148.49999999999997" x2="34.58999999999999" y2="-150.35999999999999" stroke-width="1" stroke="black" />
	<line x1="32.249999999999986" y1="-148.49999999999997" x2="33.539999999999985" y2="-151.19999999999996" stroke-width="1" stroke="black" />
	<line x1="33.539999999999985" y1="-151.19999999999996" x2="33.539999999999985" y2="-154.19999999999996" stroke-width="1" stroke="black" />
	<line x1="33.539999999999985" y1="-151.19999999999996" x2="34.829999999999984" y2="-153.89999999999995" stroke-width="1" stroke="black" />
	<line x1="0.0" y1="-81.0" x2="0.0" y2="-84.0" stroke-width="1" stroke="black" />
	<line x1="0.0" y1="-84.0" x2="1.29" y2="-86.7" stroke-width="1" stroke="black" />
	<line x1="0.0" y1="-84.0" x2="0.0" y2="-87.0" stroke-width="1" stroke="black" />
	<line x1="0.0" y1="-87.0" x2="-1.29" y2="-89.7" stroke-width="1" stroke="black" />
	<line x1="0.0" y1="-87.0" x2="0.0" y2="-90.0" stroke-width="1" stroke="black" />
	<line x1="0.0" y1="-90.0" x2="1.29" y2="-92.7" stroke-width="1" stroke="black" />
	<line x1="1.29" y1="-92.7" x2="3.63" y2="-94.56" stroke-width="1" stroke="black" />
	<line x1="1.29" y1="-92.7" x2="2.58" y2="-95.4" stroke-width="1" stroke="black" />
	<line x1="2.58" y1="-95.4" x2="2.58" y2="-98.4" stroke-width="1" stroke="black" />
	<line x1="2.58" y1="-95.4" x2="3.87" y2="-98.10000000000001" stroke-width="1" stroke="black" />
	<line x1="0.0" y1="-90.0" x2="0.0" y2="-93.0" stroke-width="1" stroke="black" />
	<line x1="0.0" y1="-93.0" x2="1.29" y2="-95.7" stroke-width="1" stroke="black" />
	<line x1="0.0" y1="-93.0" x2="0.0" y2="-96.0" stroke-width="1" stroke="black" />
	<line x1="0.0" y1="-96.0" x2="-1.29" y2="-98.7" stroke-width="1" stroke="black" />
	<line x1="0.0" y1="-96.0" x2="0.0" y2="-99.0" stroke-width="1" stroke="black" />
	<line x1="0.0" y1="-99.0" x2="-1.29" y2="-101.7" stroke-width="1" stroke="black" />
	<line x1="-1.29" y1="-101.7" x2="-1.29" y2="-104.7" stroke-width="1" stroke="black" />
	<line x1="-1.29" y1="-101.7" x2="-2.58" y2="-104.4" stroke-width="1" stroke="black" />
	<line x1="-2.58" y1="-104.4" x2="-4.92" y2="-106.26" stroke-width="1" stroke="black" />
	<line x1="-2.58" y1="-104.4" x2="-3.87" y2="-107.10000000000001" stroke-width="1" stroke="black" />
	<line x1="0.0" y1="-99.0" x2="0.0" y2="-102.0" stroke-width="1" stroke="black" />
	<line x1="0.0" y1="-102.0" x2="1.29" y2="-104.7" stroke-width="1" stroke="black" />
	<line x1="0.0" y1="-102.0" x2="0.0" y2="-105.0" stroke-width="1" stroke="black" />
	<line x1="0.0" y1="-105.0" x2="-1.29" y2="-107.7" stroke-width="1" stroke="black" />
	<line x1="0.0" y1="-105.0" x2="0.0" y2="-108.0" stroke-width="1" stroke="black" />
	<line x1="0.0" y1="-108.0" x2="1.29" y2="-110.7" stroke-width="1" stroke="black" />
	<line x1="1.29" y1="-110.7" x2="3.63" y2="-112.56" stroke-width="1" stroke="black" />
	<line x1="1.29" y1="-110.7" x2="2.58" y2="-113.4" stroke-width="1" stroke="black" />
	<line x1="2.58" y1="-113.4" x2="2.58" y2="-116.4" stroke-width="1" stroke="black" />
	<line x1="2.58" y1="-113.4" x2="3.87" y2="-116.10000000000001" stroke-width="1" stroke="black" />
	<line x1="3.87" y1="-116.10000000000001" x2="6.21" y2="-117.96000000000001" stroke-width="1" stroke="black" />
	<line x1="6.21" y1="-117.96000000000001" x2="9.120000000000001" y2="-118.62" stroke-width="1" stroke="black" />
	<line x1="6.21" y1="-117.96000000000001" x2="8.55" y2="-119.82000000000001" stroke-width="1" stroke="black" />
	<line x1="8.55" y1="-119.82000000000001" x2="9.84" y2="-122.52000000000001" stroke-width="1" stroke="black" />
	<line x1="8.55" y1="-119.82000000000001" x2="10.89" y2="-121.68" stroke-width="1" stroke="black" />
	<line x1="3.87" y1="-116.10000000000001" x2="5.16" y2="-118.80000000000001" stroke-width="1" stroke="black" />
	<line x1="5.16" y1="-118.80000000000001" x2="7.5" y2="-120.66000000000001" stroke-width="1" stroke="black" />
	<line x1="5.16" y1="-118.80000000000001" x2="6.45" y2="-121.50000000000001" stroke-width="1" stroke="black" />
	<line x1="6.45" y1="-121.50000000000001" x2="6.45" y2="-124.50000000000001" stroke-width="1" stroke="black" />
	<line x1="6.45" y1="-121.50000000000001" x2="7.74" y2="-124.20000000000002" stroke-width="1" stroke="black" />
	<line x1="7.74" y1="-124.20000000000002" x2="7.74" y2="-127.20000000000002" stroke-width="1" stroke="black" />
	<line x1="7.74" y1="-127.20000000000002" x2="9.030000000000001" y2="-129.9" stroke-width="1" stroke="black" />
	<line x1="7.74" y1="-127.20000000000002" x2="7.74" y2="-130.20000000000002" stroke-width="1" stroke="black" />
	<line x1="7.74" y1="-130.20000000000002" x2="6.45" y2="-132.9" stroke-width="1" stroke="black" />
	<line x1="7.74" y1="-130.20000000000002" x2="7.74" y2="-133.20000000000002" stroke-width="1" stroke="black" />
	<line x1="7.74" y1="-124.20000000000002" x2="9.030000000000001" y2="-126.90000000000002" stroke-width="1" stroke="black" />
	<line x1="9.030000000000001" y1="-126.90000000000002" x2="11.370000000000001" y2="-128.76000000000002" stroke-width="1" stroke="black" />
	<line x1="9.030000000000001" y1="-126.90000000000002" x2="10.32" y2="-129.60000000000002" stroke-width="1" stroke="black" />
	<line x1="10.32" y1="-129.60000000000002" x2="10.32" y2="-132.60000000000002" stroke-width="1" stroke="black" />
	<line x1="10.32" y1="-129.60000000000002" x2="11.61" y2="-132.3" stroke-width="1" stroke="black" />
	<line x1="0.0" y1="-108.0" x2="0.0" y2="-111.0" stroke-width="1" stroke="black" />
	<line x1="0.0" y1="-111.0" x2="1.29" y2="-113.7" stroke-width="1" stroke="black" />
	<line x1="0.0" y1="-111.0" x2="0.0" y2="-114.0" stroke-width="1" stroke="black" />
	<line x1="0.0" y1="-114.0" x2="-1.29" y2="-116.7" stroke-width="1" stroke="black" />
	<line x1="0.0" y1="-114.0" x2="0.0" y2="-117.0" stroke-width="1" stroke="black" />
	<line x1="0.0" y1="-117.0" x2="1.29" y2="-119.7" stroke-width="1" stroke="black" />
	<line x1="1.29" y1="-119.7" x2="3.63" y2="-121.56" stroke-width="1" stroke="black" />
	<line x1="1.29" y1="-119.7" x2="2.58" y2="-122.4" stroke-width="1" stroke="black" />
	<line x1="2.58" y1="-122.4" x2="2.58" y2="-125.4" stroke-width="1" stroke="black" />
	<line x1="2.58" y1="-122.4" x2="3.87" y2="-125.10000000000001" stroke-width="1" stroke="black" />
	<line x1="0.0" y1="-117.0" x2="0.0" y2="-120.0" stroke-width="1" stroke="black" />
	<line x1="0.0" y1="-120.0" x2="1.29" y2="-122.7" stroke-width="1" stroke="black" />
	<line x1="0.0" y1="-120.0" x2="0.0" y2="-123.0" stroke-width="1" stroke="black" />
	<line x1="0.0" y1="-123.0" x2="-1.29" y2="-125.7" stroke-width="1" stroke="black" />
	<line x1="0.0" y1="-123.0" x2="0.0" y2="-126.0" stroke-width="1" stroke="black" />
	<line x1="0.0" y1="-126.0" x2="-1.29" y2="-128.7" stroke-width="1" stroke="black" />
	<line x1="-1.29" y1="-128.7" x2="-1.29" y2="-131.7" stroke-width="1" stroke="black" />
	<line x1="-1.29" y1="-128.7" x2="-2.58" y2="-131.39999999999998" stroke-width="1" stroke="black" />
	<line x1="-2.58" y1="-131.39999999999998" x2="-4.92" y2="-133.26" stroke-width="1" stroke="black" />
	<line x1="-2.58" y1="-131.39999999999998" x2="-3.87" y2="-134.09999999999997" stroke-width="1" stroke="black" />
	<line x1="0.0" y1="-126.0" x2="0.0" y2="-129.0" stroke-width="1" stroke="black" />
	<line x1="0.0" y1="-129.0" x2="1.29" y2="-131.7" stroke-width="1" stroke="black" />
	<line x1="0.0" y1="-129.0" x2="0.0" y2="-132.0" stroke-width="1" stroke="black" />
	<line x1="0.0" y1="-132.0" x2="-1.29" y2="-134.7" stroke-width="1" stroke="black" />
	<line x1="0.0" y1="-132.0" x2="0.0" y2="-135.0" stroke-width="1" stroke="black" />
	<line x1="0.0" y1="-135.0" x2="-1.29" y2="-137.7" stroke-width="1" stroke="black" />
	<line x1="-1.29" y1="-137.7" x2="-1.29" y2="-140.7" stroke-width="1" stroke="black" />
	<line x1="-1.29" y1="-137.7" x2="-2.58" y2="-140.39999999999998" stroke-width="1" stroke="black" />
	<line x1="-2.58" y1="-140.39999999999998" x2="-4.92" y2="-142.26" stroke-width="1" stroke="black" />
	<line x1="-2.58" y1="-140.39999999999998" x2="-3.87" y2="-143.09999999999997" stroke-width="1" stroke="black" />
	<line x1="-3.87" y1="-143.09999999999997" x2="-3.87" y2="-146.09999999999997" stroke-width="1" stroke="black" />
	<line x1="-3.87" y1="-146.09999999999997" x2="-2.58" y2="-148.79999999999995" stroke-width="1" stroke="black" />
	<line x1="-3.87" y1="-146.09999999999997" x2="-3.87" y2="-149.09999999999997" stroke-width="1" stroke="black" />
	<line x1="-3.87" y1="-149.09999999999997" x2="-5.16" y2="-151.79999999999995" stroke-width="1" stroke="black" />
	<line x1="-3.87" y1="-149.09999999999997" x2="-3.87" y2="-152.09999999999997" stroke-width="1" stroke="black" />
	<line x1="-3.87" y1="-143.09999999999997" x2="-5.16" y2="-145.79999999999995" stroke-width="1" stroke="black" />
	<line x1="-5.16" y1="-145.79999999999995" x2="-5.16" y2="-148.79999999999995" stroke-width="1" stroke="black" />
	<line x1="-5.16" y1="-145.79999999999995" x2="-6.45" y2="-148.49999999999994" stroke-width="1" stroke="black" />
	<line x1="-6.45" y1="-148.49999999999994" x2="-8.79" y2="-150.35999999999996" stroke-width="1" stroke="black" />
	<line x1="-6.45" y1="-148.49999999999994" x2="-7.74" y2="-151.19999999999993" stroke-width="1" stroke="black" />
	<line x1="-7.74" y1="-151.19999999999993" x2="-10.08" y2="-153.05999999999995" stroke-width="1" stroke="black" />
	<line x1="-10.08" y1="-153.05999999999995" x2="-11.370000000000001" y2="-155.75999999999993" stroke-width="1" stroke="black" />
	<line x1="-10.08" y1="-153.05999999999995" x2="-12.42" y2="-154.91999999999996" stroke-width="1" stroke="black" />
	<line x1="-12.42" y1="-154.91999999999996" x2="-15.33" y2="-155.57999999999996" stroke-width="1" stroke="black" />
	<line x1="-12.42" y1="-154.91999999999996" x2="-14.76" y2="-156.77999999999997" stroke-width="1" stroke="black" />
	<line x1="-7.74" y1="-151.19999999999993" x2="-9.030000000000001" y2="-153.89999999999992" stroke-width="1" stroke="black" />
	<line x1="-9.030000000000001" y1="-153.89999999999992" x2="-9.030000000000001" y2="-156.89999999999992" stroke-width="1" stroke="black" />
	<line x1="-9.030000000000001" y1="-153.89999999999992" x2="-10.32" y2="-156.5999999999999" stroke-width="1" stroke="black" />
	<line x1="-10.32" y1="-156.5999999999999" x2="-12.66" y2="-158.45999999999992" stroke-width="1" stroke="black" />
	<line x1="-10.32" y1="-156.5999999999999" x2="-11.61" y2="-159.2999999999999" stroke-width="1" stroke="black" />
	<line x1="0.0" y1="-135.0" x2="0.0" y2="-138.0" stroke-width="1" stroke="black" />
	<line x1="0.0" y1="-138.0" x2="1.29" y2="-140.7" stroke-width="1" stroke="black" />
	<line x1="0.0" y1="-138.0" x2="0.0" y2="-141.0" stroke-width="1" stroke="black" />
	<line x1="0.0" y1="-141.0" x2="-1.29" y2="-143.7" stroke-width="1" stroke="black" />
	<line x1="0.0" y1="-141.0" x2="0.0" y2="-144.0" stroke-width="1" stroke="black" />
	<line x1="0.0" y1="-144.0" x2="1.29" y2="-146.7" stroke-width="1" stroke="black" />
	<line x1="1.29" y1="-146.7" x2="3.63" y2="-148.56" stroke-width="1" stroke="black" />
	<line x1="1.29" y1="-146.7" x2="2.58" y2="-149.39999999999998" stroke-width="1" stroke="black" />
	<line x1="2.58" y1="-149.39999999999998" x2="2.58" y2="-152.39999999999998" stroke-width="1" stroke="black" />
	<line x1="2.58" y1="-149.39999999999998" x2="3.87" y2="-152.09999999999997" stroke-width="1" stroke="black" />
	<line x1="0.0" y1="-144.0" x2="0.0" y2="-147.0" stroke-width="1" stroke="black" />
	<line x1="0.0" y1="-147.0" x2="1.29" y2="-149.7" stroke-width="1" stroke="black" />
	<line x1="0.0" y1="-147.0" x2="0.0" y2="-150.0" stroke-width="1" stroke="black" />
	<line x1="0.0" y1="-150.0" x2="-1.29" y2="-152.7" stroke-width="1" stroke="black" />
	<line x1="0.0" y1="-150.0" x2="0.0" y2="-153.0" stroke-width="1" stroke="black" />
	<line x1="0.0" y1="-153.0" x2="-1.29" y2="-155.7" stroke-width="1" stroke="black" />
	<line x1="-1.29" y1="-155.7" x2="-1.29" y2="-158.7" stroke-width="1" stroke="black" />
	<line x1="-1.29" y1="-155.7" x2="-2.58" y2="-158.39999999999998" stroke-width="1" stroke="black" />
	<line x1="-2.58" y1="-158.39999999999998" x2="-4.92" y2="-160.26" stroke-width="1" stroke="black" />
	<line x1="-2.58" y1="-158.39999999999998" x2="-3.87" y2="-161.09999999999997" stroke-width="1" stroke="black" />
	<line x1="0.0" y1="-153.0" x2="0.0" y2="-156.0" stroke-width="1" stroke="black" />
	<line x1="0.0" y1="-156.0" x2="1.29" y2="-158.7" stroke-width="1" stroke="black" />
	<line x1="0.0" y1="-156.0" x2="0.0" y2="-159.0" stroke-width="1" stroke="black" />
	<line x1="0.0" y1="-159.0" x2="-1.29" y2="-161.7" stroke-width="1" stroke="black" />
	<line x1="0.0" y1="-159.0" x2="0.0" y2="-162.0" stroke-width="1" stroke="black" />
	<line x1="0.0" y1="-162.0" x2="-1.29" y2="-164.7" stroke-width="1" stroke="black" />
	<line x1="-1.29" y1="-164.7" x2="-1.29" y2="-167.7" stroke-width="1" stroke="black" />
	<line x1="-1.29" y1="-164.7" x2="-2.58" y2="-167.39999999999998" stroke-width="1" stroke="black" />
	<line x1="-2.58" y1="-167.39999999999998" x2="-4.92" y2="-169.26" stroke-width="1" stroke="black" />
	<line x1="-2.58" y1="-167.39999999999998" x2="-3.87" y2="-170.09999999999997" stroke-width="1" stroke="black" />
	<line x1="-3.87" y1="-170.09999999999997" x2="-3.87" y2="-173.09999999999997" stroke-width="1" stroke="black" />
	<line x1="-3.87" y1="-173.09999999999997" x2="-2.58" y2="-175.79999999999995" stroke-width="1" stroke="black" />
	<line x1="-3.87" y1="-173.09999999999997" x2="-3.87" y2="-176.09999999999997" stroke-width="1" stroke="black" />
	<line x1="-3.87" y1="-176.09999999999997" x2="-5.16" y2="-178.79999999999995" stroke-width="1" stroke="black" />
	<line x1="-3.87" y1="-176.09999999999997" x2="-3.87" y2="-179.09999999999997" stroke-width="1" stroke="black" />
	<line x1="-3.87" y1="-170.09999999999997" x2="-5.16" y2="-172.79999999999995" stroke-width="1" stroke="black" />
	<line x1="-5.16" y1="-172.79999999999995" x2="-5.16" y2="-175.79999999999995" stroke-width="1" stroke="black" />
	<line x1="-5.16" y1="-172.79999999999995" x2="-6.45" y2="-175.49999999999994" stroke-width="1" stroke="black" />
	<line x1="-6.45" y1="-175.49999999999994" x2="-8.79" y2="-177.35999999999996" stroke-width="1" stroke="black" />
	<line x1="-6.45" y1="-175.49999999999994" x2="-7.74" y2="-178.19999999999993" stroke-width="1" stroke="black" />
	<line x1="-7.74" y1="-178.19999999999993" x2="-10.08" y2="-180.05999999999995" stroke-width="1" stroke="black" />
	<line x1="-10.08" y1="-180.05999999999995" x2="-11.370000000000001" y2="-182.75999999999993" stroke-width="1" stroke="black" />
	<line x1="-10.08" y1="-180.05999999999995" x2="-12.42" y2="-181.91999999999996" stroke-width="1" stroke="black" />
	<line x1="-12.42" y1="-181.91999999999996" x2="-15.33" y2="-182.57999999999996" stroke-width="1" stroke="black" />
	<line x1="-12.42" y1="-181.91999999999996" x2="-14.76" y2="-183.77999999999997" stroke-width="1" stroke="black" />
	<line x1="-7.74" y1="-178.19999999999993" x2="-9.030000000000001" y2="-180.89999999999992" stroke-width="1" stroke="black" />
	<line x1="-9.030000000000001" y1="-180.89999999999992" x2="-9.030000000000001" y2="-183.89999999999992" stroke-width="1" stroke="black" />
	<line x1="-9.030000000000001" y1="-180.89999999999992" x2="-10.32" y2="-183.5999999999999" stroke-width="1" stroke="black" />
	<line x1="-10.32" y1="-183.5999999999999" x2="-12.66" y2="-185.45999999999992" stroke-width="1" stroke="black" />
	<line x1="-10.32" y1="-183.5999999999999" x2="-11.61" y2="-186.2999999999999" stroke-width="1" stroke="black" />
	<line x1="-11.61" y1="-186.2999999999999" x2="-11.61" y2="-189.2999999999999" stroke-width="1" stroke="black" />
	<line x1="-11.61" y1="-189.2999999999999" x2="-10.32" y2="-191.9999999999999" stroke-width="1" stroke="black" />
	<line x1="-11.61" y1="-189.2999999999999" x2="-11.61" y2="-192.2999999999999" stroke-width="1" stroke="black" />
	<line x1="-11.61" y1="-192.2999999999999" x2="-12.899999999999999" y2="-194.9999999999999" stroke-width="1" stroke="black" />
	<line x1="-11.61" y1="-192.2999999999999" x2="-11.61" y2="-195.2999999999999" stroke-width="1" stroke="black" />
	<line x1="-11.61" y1="-195.2999999999999" x2="-10.32" y2="-197.9999999999999" stroke-width="1" stroke="black" />
	<line x1="-10.32" y1="-197.9999999999999" x2="-7.98" y2="-199.8599999999999" stroke-width="1" stroke="black" />
	<line x1="-10.32" y1="-197.9999999999999" x2="-9.030000000000001" y2="-200.69999999999987" stroke-width="1" stroke="black" />
	<line x1="-9.030000000000001" y1="-200.69999999999987" x2="-9.030000000000001" y2="-203.69999999999987" stroke-width="1" stroke="black" />
	<line x1="-9.030000000000001" y1="-200.69999999999987" x2="-7.740000000000001" y2="-203.39999999999986" stroke-width="1" stroke="black" />
	<line x1="-11.61" y1="-195.2999999999999" x2="-11.61" y2="-198.2999999999999" stroke-width="1" stroke="black" />
	<line x1="-11.61" y1="-198.2999999999999" x2="-10.32" y2="-200.9999999999999" stroke-width="1" stroke="black" />
	<line x1="-11.61" y1="-198.2999999999999" x2="-11.61" y2="-201.2999999999999" stroke-width="1" stroke="black" />
	<line x1="-11.61" y1="-201.2999999999999" x2="-12.899999999999999" y2="-203.9999999999999" stroke-width="1" stroke="black" />
	<line x1="-11.61" y1="-201.2999999999999" x2="-11.61" y2="-204.2999999999999" stroke-width="1" stroke="black" />
	<line x1="-11.61" y1="-204.2999999999999" x2="-12.899999999999999" y2="-206.9999999999999" stroke-width="1" stroke="black" />
	<line x1="-12.899999999999999" y1="-206.9999999999999" x2="-12.899999999999999" y2="-209.9999999999999" stroke-width="1" stroke="black" />
	<line x1="-12.899999999999999" y1="-206.9999999999999" x2="-14.189999999999998" y2="-209.69999999999987" stroke-width="1" stroke="black" />
	<line x1="-14.189999999999998" y1="-209.69999999999987" x2="-16.529999999999998" y2="-211.5599999999999" stroke-width="1" stroke="black" />
	<line x1="-14.189999999999998" y1="-209.69999999999987" x2="-15.479999999999997" y2="-212.39999999999986" stroke-width="1" stroke="black" />
	<line x1="-11.61" y1="-204.2999999999999" x2="-11.61" y2="-207.2999999999999" stroke-width="1" stroke="black" />
	<line x1="-11.61" y1="-207.2999999999999" x2="-10.32" y2="-209.9999999999999" stroke-width="1" stroke="black" />
	<line x1="-11.61" y1="-207.2999999999999" x2="-11.61" y2="-210.2999999999999" stroke-width="1" stroke="black" />
	<line x1="-11.61" y1="-210.2999999999999" x2="-12.899999999999999" y2="-212.9999999999999" stroke-width="1" stroke="black" />
	<line x1="-11.61" y1="-210.2999999999999" x2="-11.61" y2="-213.2999999999999" stroke-width="1" stroke="black" />
	<line x1="-11.61" y1="-186.2999999999999" x2="-12.899999999999999" y2="-188.9999999999999" stroke-width="1" stroke="black" />
	<line x1="-12.899999999999999" y1="-188.9999999999999" x2="-12.899999999999999" y2="-191.9999999999999" stroke-width="1" stroke="black" />
	<line x1="-12.899999999999999" y1="-188.9999999999999" x2="-14.189999999999998" y2="-191.69999999999987" stroke-width="1" stroke="black" />
	<line x1="-14.189999999999998" y1="-191.69999999999987" x2="-16.529999999999998" y2="-193.5599999999999" stroke-width="1" stroke="black" />
	<line x1="-14.189999999999998" y1="-191.69999999999987" x2="-15.479999999999997" y2="-194.39999999999986" stroke-width="1" stroke="black" />
	<line x1="-15.479999999999997" y1="-194.39999999999986" x2="-15.479999999999997" y2="-197.39999999999986" stroke-width="1" stroke="black" />
	<line x1="-15.479999999999997" y1="-197.39999999999986" x2="-14.189999999999998" y2="-200.09999999999985" stroke-width="1" stroke="black" />
	<line x1="-15.479999999999997" y1="-197.39999999999986" x2="-15.479999999999997" y2="-200.39999999999986" stroke-width="1" stroke="black" />
	<line x1="-15.479999999999997" y1="-200.39999999999986" x2="-16.769999999999996" y2="-203.09999999999985" stroke-width="1" stroke="black" />
	<line x1="-15.479999999999997" y1="-200.39999999999986" x2="-15.479999999999997" y2="-203.39999999999986" stroke-width="1" stroke="black" />
	<line x1="-15.479999999999997" y1="-194.39999999999986" x2="-16.769999999999996" y2="-197.09999999999985" stroke-width="1" stroke="black" />
	<line x1="-16.769999999999996" y1="-197.09999999999985" x2="-16.769999999999996" y2="-200.09999999999985" stroke-width="1" stroke="black" />
	<line x1="-16.769999999999996" y1="-197.09999999999985" x2="-18.059999999999995" y2="-199.79999999999984" stroke-width="1" stroke="black" />
	<line x1="-18.059999999999995" y1="-199.79999999999984" x2="-20.399999999999995" y2="-201.65999999999985" stroke-width="1" stroke="black" />
	<line x1="-18.059999999999995" y1="-199.79999999999984" x2="-19.349999999999994" y2="-202.49999999999983" stroke-width="1" stroke="black" />
	<line x1="-19.349999999999994" y1="-202.49999999999983" x2="-21.689999999999994" y2="-204.35999999999984" stroke-width="1" stroke="black" />
	<line x1="-21.689999999999994" y1="-204.35999999999984" x2="-22.979999999999993" y2="-207.05999999999983" stroke-width="1" stroke="black" />
	<line x1="-21.689999999999994" y1="-204.35999999999984" x2="-24.029999999999994" y2="-206.21999999999986" stroke-width="1" stroke="black" />
	<line x1="-24.029999999999994" y1="-206.21999999999986" x2="-26.939999999999994" y2="-206.87999999999985" stroke-width="1" stroke="black" />
	<line x1="-24.029999999999994" y1="-206.21999999999986" x2="-26.369999999999994" y2="-208.07999999999987" stroke-width="1" stroke="black" />
	<line x1="-19.349999999999994" y1="-202.49999999999983" x2="-20.639999999999993" y2="-205.19999999999982" stroke-width="1" stroke="black" />
	<line x1="-20.639999999999993" y1="-205.19999999999982" x2="-20.639999999999993" y2="-208.19999999999982" stroke-width="1" stroke="black" />
	<line x1="-20.639999999999993" y1="-205.19999999999982" x2="-21.929999999999993" y2="-207.8999999999998" stroke-width="1" stroke="black" />
	<line x1="-21.929999999999993" y1="-207.8999999999998" x2="-24.269999999999992" y2="-209.75999999999982" stroke-width="1" stroke="black" />
	<line x1="-21.929999999999993" y1="-207.8999999999998" x2="-23.21999999999999" y2="-210.5999999999998" stroke-width="1" stroke="black" />
	<line x1="-23.21999999999999" y1="-210.5999999999998" x2="-25.55999999999999" y2="-212.4599999999998" stroke-width="1" stroke="black" />
	<line x1="-25.55999999999999" y1="-212.4599999999998" x2="-26.84999999999999" y2="-215.1599999999998" stroke-width="1" stroke="black" />
	<line x1="-25.55999999999999" y1="-212.4599999999998" x2="-27.89999999999999" y2="-214.31999999999982" stroke-width="1" stroke="black" />
	<line x1="-27.89999999999999" y1="-214.31999999999982" x2="-30.80999999999999" y2="-214.97999999999982" stroke-width="1" stroke="black" />
	<line x1="-27.89999999999999" y1="-214.31999999999982" x2="-30.23999999999999" y2="-216.17999999999984" stroke-width="1" stroke="black" />
	<line x1="-30.23999999999999" y1="-216.17999999999984" x2="-31.52999999999999" y2="-218.87999999999982" stroke-width="1" stroke="black" />
	<line x1="-31.52999999999999" y1="-218.87999999999982" x2="-31.52999999999999" y2="-221.87999999999982" stroke-width="1" stroke="black" />
	<line x1="-31.52999999999999" y1="-218.87999999999982" x2="-32.81999999999999" y2="-221.5799999999998" stroke-width="1" stroke="black" />
	<line x1="-32.81999999999999" y1="-221.5799999999998" x2="-35.16" y2="-223.43999999999983" stroke-width="1" stroke="black" />
	<line x1="-32.81999999999999" y1="-221.5799999999998" x2="-34.10999999999999" y2="-224.2799999999998" stroke-width="1" stroke="black" />
	<line x1="-30.23999999999999" y1="-216.17999999999984" x2="-32.57999999999999" y2="-218.03999999999985" stroke-width="1" stroke="black" />
	<line x1="-32.57999999999999" y1="-218.03999999999985" x2="-33.86999999999999" y2="-220.73999999999984" stroke-width="1" stroke="black" />
	<line x1="-32.57999999999999" y1="-218.03999999999985" x2="-34.91999999999999" y2="-219.89999999999986" stroke-width="1" stroke="black" />
	<line x1="-34.91999999999999" y1="-219.89999999999986" x2="-37.829999999999984" y2="-220.55999999999986" stroke-width="1" stroke="black" />
	<line x1="-34.91999999999999" y1="-219.89999999999986" x2="-37.25999999999999" y2="-221.75999999999988" stroke-width="1" stroke="black" />
	<line x1="-37.25999999999999" y1="-221.75999999999988" x2="-40.16999999999999" y2="-222.41999999999987" stroke-width="1" stroke="black" />
	<line x1="-40.16999999999999" y1="-222.41999999999987" x2="-42.50999999999999" y2="-224.2799999999999" stroke-width="1" stroke="black" />
	<line x1="-40.16999999999999" y1="-222.41999999999987" x2="-43.079999999999984" y2="-223.07999999999987" stroke-width="1" stroke="black" />
	<line x1="-43.079999999999984" y1="-223.07999999999987" x2="-46.01999999999998" y2="-222.41999999999987" stroke-width="1" stroke="black" />
	<line x1="-43.079999999999984" y1="-223.07999999999987" x2="-45.98999999999998" y2="-223.73999999999987" stroke-width="1" stroke="black" />
	<line x1="-37.25999999999999" y1="-221.75999999999988" x2="-39.599999999999994" y2="-223.6199999999999" stroke-width="1" stroke="black" />
	<line x1="-39.599999999999994" y1="-223.6199999999999" x2="-40.88999999999999" y2="-226.31999999999988" stroke-width="1" stroke="black" />
	<line x1="-39.599999999999994" y1="-223.6199999999999" x2="-41.94" y2="-225.4799999999999" stroke-width="1" stroke="black" />
	<line x1="-41.94" y1="-225.4799999999999" x2="-44.849999999999994" y2="-226.1399999999999" stroke-width="1" stroke="black" />
	<line x1="-41.94" y1="-225.4799999999999" x2="-44.28" y2="-227.33999999999992" stroke-width="1" stroke="black" />
	<line x1="-23.21999999999999" y1="-210.5999999999998" x2="-24.50999999999999" y2="-213.29999999999978" stroke-width="1" stroke="black" />
	<line x1="-24.50999999999999" y1="-213.29999999999978" x2="-24.50999999999999" y2="-216.29999999999978" stroke-width="1" stroke="black" />
	<line x1="-24.50999999999999" y1="-213.29999999999978" x2="-25.79999999999999" y2="-215.99999999999977" stroke-width="1" stroke="black" />
	<line x1="-25.79999999999999" y1="-215.99999999999977" x2="-28.13999999999999" y2="-217.8599999999998" stroke-width="1" stroke="black" />
	<line x1="-25.79999999999999" y1="-215.99999999999977" x2="-27.08999999999999" y2="-218.69999999999976" stroke-width="1" stroke="black" />
	<line x1="-27.08999999999999" y1="-218.69999999999976" x2="-27.08999999999999" y2="-221.69999999999976" stroke-width="1" stroke="black" />
	<line x1="-27.08999999999999" y1="-221.69999999999976" x2="-25.79999999999999" y2="-224.39999999999975" stroke-width="1" stroke="black" />
	<line x1="-27.08999999999999" y1="-221.69999999999976" x2="-27.08999999999999" y2="-224.69999999999976" stroke-width="1" stroke="black" />
	<line x1="-27.08999999999999" y1="-224.69999999999976" x2="-28.37999999999999" y2="-227.39999999999975" stroke-width="1" stroke="black" />
	<line x1="-27.08999999999999" y1="-224.69999999999976" x2="-27.08999999999999" y2="-227.69999999999976" stroke-width="1" stroke="black" />
	<line x1="-27.08999999999999" y1="-218.69999999999976" x2="-28.37999999999999" y2="-221.39999999999975" stroke-width="1" stroke="black" />
	<line x1="-28.37999999999999" y1="-221.39999999999975" x2="-28.37999999999999" y2="-224.39999999999975" stroke-width="1" stroke="black" />
	<line x1="-28.37999999999999" y1="-221.39999999999975" x2="-29.669999999999987" y2="-224.09999999999974" stroke-width="1" stroke="black" />
	<line x1="-29.669999999999987" y1="-224.09999999999974" x2="-32.00999999999999" y2="-225.95999999999975" stroke-width="1" stroke="black" />
	<line x1="-29.669999999999987" y1="-224.09999999999974" x2="-30.959999999999987" y2="-226.79999999999973" stroke-width="1" stroke="black" />
	<line x1="-30.959999999999987" y1="-226.79999999999973" x2="-33.29999999999998" y2="-228.65999999999974" stroke-width="1" stroke="black" />
	<line x1="-33.29999999999998" y1="-228.65999999999974" x2="-34.58999999999998" y2="-231.35999999999973" stroke-width="1" stroke="black" />
	<line x1="-33.29999999999998" y1="-228.65999999999974" x2="-35.639999999999986" y2="-230.51999999999975" stroke-width="1" stroke="black" />
	<line x1="-35.639999999999986" y1="-230.51999999999975" x2="-38.54999999999998" y2="-231.17999999999975" stroke-width="1" stroke="black" />
	<line x1="-35.639999999999986" y1="-230.51999999999975" x2="-37.97999999999999" y2="-232.37999999999977" stroke-width="1" stroke="black" />
	<line x1="-30.959999999999987" y1="-226.79999999999973" x2="-32.249999999999986" y2="-229.49999999999972" stroke-width="1" stroke="black" />
	<line x1="-32.249999999999986" y1="-229.49999999999972" x2="-32.249999999999986" y2="-232.49999999999972" stroke-width="1" stroke="black" />
	<line x1="-32.249999999999986" y1="-229.49999999999972" x2="-33.539999999999985" y2="-232.1999999999997" stroke-width="1" stroke="black" />
	<line x1="-33.539999999999985" y1="-232.1999999999997" x2="-35.87999999999998" y2="-234.05999999999972" stroke-width="1" stroke="black" />
	<line x1="-33.539999999999985" y1="-232.1999999999997" x2="-34.829999999999984" y2="-234.8999999999997" stroke-width="1" stroke="black" />
	<line x1="0.0" y1="-162.0" x2="0.0" y2="-165.0" stroke-width="1" stroke="black" />
	<line x1="0.0" y1="-165.0" x2="1.29" y2="-167.7" stroke-width="1" stroke="black" />
	<line x1="0.0" y1="-165.0" x2="0.0" y2="-168.0" stroke-width="1" stroke="black" />
	<line x1="0.0" y1="-168.0" x2="-1.29" y2="-170.7" stroke-width="1" stroke="black" />
	<line x1="0.0" y1="-168.0" x2="0.0" y2="-171.0" stroke-width="1" stroke="black" />
	<line x1="0.0" y1="-171.0" x2="1.29" y2="-173.7" stroke-width="1" stroke="black" />
	<line x1="1.29" y1="-173.7" x2="3.63" y2="-175.56" stroke-width="1" stroke="black" />
	<line x1="1.29" y1="-173.7" x2="2.58" y2="-176.39999999999998" stroke-width="1" stroke="black" />
	<line x1="2.58" y1="-176.39999999999998" x2="2.58" y2="-179.39999999999998" stroke-width="1" stroke="black" />
	<line x1="2.58" y1="-176.39999999999998" x2="3.87" y2="-179.09999999999997" stroke-width="1" stroke="black" />
	<line x1="0.0" y1="-171.0" x2="0.0" y2="-174.0" stroke-width="1" stroke="black" />
	<line x1="0.0" y1="-174.0" x2="1.29" y2="-176.7" stroke-width="1" stroke="black" />
	<line x1="0.0" y1="-174.0" x2="0.0" y2="-177.0" stroke-width="1" stroke="black" />
	<line x1="0.0" y1="-177.0" x2="-1.29" y2="-179.7" stroke-width="1" stroke="black" />
	<line x1="0.0" y1="-177.0" x2="0.0" y2="-180.0" stroke-width="1" stroke="black" />
	<line x1="0.0" y1="-180.0" x2="-1.29" y2="-182.7" stroke-width="1" stroke="black" />
	<line x1="-1.29" y1="-182.7" x2="-1.29" y2="-185.7" stroke-width="1" stroke="black" />
	<line x1="-1.29" y1="-182.7" x2="-2.58" y2="-185.39999999999998" stroke-width="1" stroke="black" />
	<line x1="-2.58" y1="-185.39999999999998" x2="-4.92" y2="-187.26" stroke-width="1" stroke="black" />
	<line x1="-2.58" y1="-185.39999999999998" x2="-3.87" y2="-188.09999999999997" stroke-width="1" stroke="black" />
	<line x1="0.0" y1="-180.0" x2="0.0" y2="-183.0" stroke-width="1" stroke="black" />
	<line x1="0.0" y1="-183.0" x2="1.29" y2="-185.7" stroke-width="1" stroke="black" />
	<line x1="0.0" y1="-183.0" x2="0.0" y2="-186.0" stroke-width="1" stroke="black" />
	<line x1="0.0" y1="-186.0" x2="-1.29" y2="-188.7" stroke-width="1" stroke="black" />
	<line x1="0.0" y1="-186.0" x2="0.0" y2="-189.0" stroke-width="1" stroke="black" />
	<line x1="0.0" y1="-189.0" x2="1.29" y2="-191.7" stroke-width="1" stroke="black" />
	<line x1="1.29" y1="-191.7" x2="3.63" y2="-193.56" stroke-width="1" stroke="black" />
	<line x1="1.29" y1="-191.7" x2="2.58" y2="-194.39999999999998" stroke-width="1" stroke="black" />
	<line x1="2.58" y1="-194.39999999999998" x2="2.58" y2="-197.39999999999998" stroke-width="1" stroke="black" />
	<line x1="2.58" y1="-194.39999999999998" x2="3.87" y2="-197.09999999999997" stroke-width="1" stroke="black" />
	<line x1="3.87" y1="-197.09999999999997" x2="6.21" y2="-198.95999999999998" stroke-width="1" stroke="black" />
	<line x1="6.21" y1="-198.95999999999998" x2="9.120000000000001" y2="-199.61999999999998" stroke-width="1" stroke="black" />
	<line x1="6.21" y1="-198.95999999999998" x2="8.55" y2="-200.82" stroke-width="1" stroke="black" />
	<line x1="8.55" y1="-200.82" x2="9.84" y2="-203.51999999999998" stroke-width="1" stroke="black" />
	<line x1="8.55" y1="-200.82" x2="10.89" y2="-202.68" stroke-width="1" stroke="black" />
	<line x1="3.87" y1="-197.09999999999997" x2="5.16" y2="-199.79999999999995" stroke-width="1" stroke="black" />
	<line x1="5.16" y1="-199.79999999999995" x2="7.5" y2="-201.65999999999997" stroke-width="1" stroke="black" />
	<line x1="5.16" y1="-199.79999999999995" x2="6.45" y2="-202.49999999999994" stroke-width="1" stroke="black" />
	<line x1="6.45" y1="-202.49999999999994" x2="6.45" y2="-205.49999999999994" stroke-width="1" stroke="black" />
	<line x1="6.45" y1="-202.49999999999994" x2="7.74" y2="-205.19999999999993" stroke-width="1" stroke="black" />
	<line x1="7.74" y1="-205.19999999999993" x2="7.74" y2="-208.19999999999993" stroke-width="1" stroke="black" />
	<line x1="7.74" y1="-208.19999999999993" x2="9.030000000000001" y2="-210.89999999999992" stroke-width="1" stroke="black" />
	<line x1="7.74" y1="-208.19999999999993" x2="7.74" y2="-211.19999999999993" stroke-width="1" stroke="black" />
	<line x1="7.74" y1="-211.19999999999993" x2="6.45" y2="-213.89999999999992" stroke-width="1" stroke="black" />
	<line x1="7.74" y1="-211.19999999999993" x2="7.74" y2="-214.19999999999993" stroke-width="1" stroke="black" />
	<line x1="7.74" y1="-205.19999999999993" x2="9.030000000000001" y2="-207.89999999999992" stroke-width="1" stroke="black" />
	<line x1="9.030000000000001" y1="-207.89999999999992" x2="11.370000000000001" y2="-209.75999999999993" stroke-width="1" stroke="black" />
	<line x1="9.030000000000001" y1="-207.89999999999992" x2="10.32" y2="-210.5999999999999" stroke-width="1" stroke="black" />
	<line x1="10.32" y1="-210.5999999999999" x2="10.32" y2="-213.5999999999999" stroke-width="1" stroke="black" />
	<line x1="10.32" y1="-210.5999999999999" x2="11.61" y2="-213.2999999999999" stroke-width="1" stroke="black" />
	<line x1="0.0" y1="-189.0" x2="0.0" y2="-192.0" stroke-width="1" stroke="black" />
	<line x1="0.0" y1="-192.0" x2="1.29" y2="-194.7" stroke-width="1" stroke="black" />
	<line x1="0.0" y1="-192.0" x2="0.0" y2="-195.0" stroke-width="1" stroke="black" />
	<line x1="0.0" y1="-195.0" x2="-1.29" y2="-197.7" stroke-width="1" stroke="black" />
	<line x1="0.0" y1="-195.0" x2="0.0" y2="-198.0" stroke-width="1" stroke="black" />
	<line x1="0.0" y1="-198.0" x2="1.29" y2="-200.7" stroke-width="1" stroke="black" />
	<line x1="1.29" y1="-200.7" x2="3.63" y2="-202.56" stroke-width="1" stroke="black" />
	<line x1="1.29" y1="-200.7" x2="2.58" y2="-203.39999999999998" stroke-width="1" stroke="black" />
	<line x1="2.58" y1="-203.39999999999998" x2="2.58" y2="-206.39999999999998" stroke-width="1" stroke="black" />
	<line x1="2.58" y1="-203.39999999999998" x2="3.87" y2="-206.09999999999997" stroke-width="1" stroke="black" />
	<line x1="0.0" y1="-198.0" x2="0.0" y2="-201.0" stroke-width="1" stroke="black" />
	<line x1="0.0" y1="-201.0" x2="1.29" y2="-203.7" stroke-width="1" stroke="black" />
	<line x1="0.0" y1="-201.0" x2="0.0" y2="-204.0" stroke-width="1" stroke="black" />
	<line x1="0.0" y1="-204.0" x2="-1.29" y2="-206.7" stroke-width="1" stroke="black" />
	<line x1="0.0" y1="-204.0" x2="0.0" y2="-207.0" stroke-width="1" stroke="black" />
	<line x1="0.0" y1="-207.0" x2="-1.29" y2="-209.7" stroke-width="1" stroke="black" />
	<line x1="-1.29" y1="-209.7" x2="-1.29" y2="-212.7" stroke-width="1" stroke="black" />
	<line x1="-1.29" y1="-209.7" x2="-2.58" y2="-212.39999999999998" stroke-width="1" stroke="black" />
	<line x1="-2.58" y1="-212.39999999999998" x2="-4.92" y2="-214.26" stroke-width="1" stroke="black" />
	<line x1="-2.58" y1="-212.39999999999998" x2="-3.87" y2="-215.09999999999997" stroke-width="1" stroke="black" />
	<line x1="0.0" y1="-207.0" x2="0.0" y2="-210.0" stroke-width="1" stroke="black" />
	<line x1="0.0" y1="-210.0" x2="1.29" y2="-212.7" stroke-width="1" stroke="black" />
	<line x1="0.0" y1="-210.0" x2="0.0" y2="-213.0" stroke-width="1" stroke="black" />
	<line x1="0.0" y1="-213.0" x2="-1.29" y2="-215.7" stroke-width="1" stroke="black" />
	<line x1="0.0" y1="-213.0" x2="0.0" y2="-216.0" stroke-width="1" stroke="black" />
	<line x1="0.0" y1="-216.0" x2="-1.29" y2="-218.7" stroke-width="1" stroke="black" />
	<line x1="-1.29" y1="-218.7" x2="-1.29" y2="-221.7" stroke-width="1" stroke="black" />
	<line x1="-1.29" y1="-218.7" x2="-2.58" y2="-221.39999999999998" stroke-width="1" stroke="black" />
	<line x1="-2.58" y1="-221.39999999999998" x2="-4.92" y2="-223.26" stroke-width="1" stroke="black" />
	<line x1="-2.58" y1="-221.39999999999998" x2="-3.87" y2="-224.09999999999997" stroke-width="1" stroke="black" />
	<line x1="-3.87" y1="-224.09999999999997" x2="-3.87" y2="-227.09999999999997" stroke-width="1" stroke="black" />
	<line x1="-3.87" y1="-227.09999999999997" x2="-2.58" y2="-229.79999999999995" stroke-width="1" stroke="black" />
	<line x1="-3.87" y1="-227.09999999999997" x2="-3.87" y2="-230.09999999999997" stroke-width="1" stroke="black" />
	<line x1="-3.87" y1="-230.09999999999997" x2="-5.16" y2="-232.79999999999995" stroke-width="1" stroke="black" />
	<line x1="-3.87" y1="-230.09999999999997" x2="-3.87" y2="-233.09999999999997" stroke-width="1" stroke="black" />
	<line x1="-3.87" y1="-224.09999999999997" x2="-5.16" y2="-226.79999999999995" stroke-width="1" stroke="black" />
	<line x1="-5.16" y1="-226.79999999999995" x2="-5.16" y2="-229.79999999999995" stroke-width="1" stroke="black" />
	<line x1="-5.16" y1="-226.79999999999995" x2="-6.45" y2="-229.49999999999994" stroke-width="1" stroke="black" />
	<line x1="-6.45" y1="-229.49999999999994" x2="-8.79" y2="-231.35999999999996" stroke-width="1" stroke="black" />
	<line x1="-6.45" y1="-229.49999999999994" x2="-7.74" y2="-232.19999999999993" stroke-width="1" stroke="black" />
	<line x1="-7.74" y1="-232.19999999999993" x2="-10.08" y2="-234.05999999999995" stroke-width="1" stroke="black" />
	<line x1="-10.08" y1="-234.05999999999995" x2="-11.370000000000001" y2="-236.75999999999993" stroke-width="1" stroke="black" />
	<line x1="-10.08" y1="-234.05999999999995" x2="-12.42" y2="-235.91999999999996" stroke-width="1" stroke="black" />
	<line x1="-12.42" y1="-235.91999999999996" x2="-15.33" y2="-236.57999999999996" stroke-width="1" stroke="black" />
	<line x1="-12.42" y1="-235.91999999999996" x2="-14.76" y2="-237.77999999999997" stroke-width="1" stroke="black" />
	<line x1="-7.74" y1="-232.19999999999993" x2="-9.030000000000001" y2="-234.89999999999992" stroke-width="1" stroke="black" />
	<line x1="-9.030000000000001" y1="-234.89999999999992" x2="-9.030000000000001" y2="-237.89999999999992" stroke-width="1" stroke="black" />
	<line x1="-9.030000000000001" y1="-234.89999999999992" x2="-10.32" y2="-237.5999999999999" stroke-width="1" stroke="black" />
	<line x1="-10.32" y1="-237.5999999999999" x2="-12.66" y2="-239.45999999999992" stroke-width="1" stroke="black" />
	<line x1="-10.32" y1="-237.5999999999999" x2="-11.61" y2="-240.2999999999999" stroke-width="1" stroke="black" />
	<line x1="0.0" y1="-216.0" x2="0.0" y2="-219.0" stroke-width="1" stroke="black" />
	<line x1="0.0" y1="-219.0" x2="1.29" y2="-221.7" stroke-width="1" stroke="black" />
	<line x1="0.0" y1="-219.0" x2="0.0" y2="-222.0" stroke-width="1" stroke="black" />
	<line x1="0.0" y1="-222.0" x2="-1.29" y2="-224.7" stroke-width="1" stroke="black" />
	<line x1="0.0" y1="-222.0" x2="0.0" y2="-225.0" stroke-width="1" stroke="black" />
	<line x1="0.0" y1="-225.0" x2="1.29" y2="-227.7" stroke-width="1" stroke="black" />
	<line x1="1.29" y1="-227.7" x2="3.63" y2="-229.56" stroke-width="1" stroke="black" />
	<line x1="1.29" y1="-227.7" x2="2.58" y2="-230.39999999999998" stroke-width="1" stroke="black" />
	<line x1="2.58" y1="-230.39999999999998" x2="2.58" y2="-233.39999999999998" stroke-width="1" stroke="black" />
	<line x1="2.58" y1="-230.39999999999998" x2="3.87" y2="-233.09999999999997" stroke-width="1" stroke="black" />
	<line x1="0.0" y1="-225.0" x2="0.0" y2="-228.0" stroke-width="1" stroke="black" />
	<line x1="0.0" y1="-228.0" x2="1.29" y2="-230.7" stroke-width="1" stroke="black" />
	<line x1="0.0" y1="-228.0" x2="0.0" y2="-231.0" stroke-width="1" stroke="black" />
	<line x1="0.0" y1="-231.0" x2="-1.29" y2="-233.7" stroke-width="1" stroke="black" />
	<line x1="0.0" y1="-231.0" x2="0.0" y2="-234.0" stroke-width="1" stroke="black" />
	<line x1="0.0" y1="-234.0" x2="-1.29" y2="-236.7" stroke-width="1" stroke="black" />
	<line x1="-1.29" y1="-236.7" x2="-1.29" y2="-239.7" stroke-width="1" stroke="black" />
	<line x1="-1.29" y1="-236.7" x2="-2.58" y2="-239.39999999999998" stroke-width="1" stroke="black" />
	<line x1="-2.58" y1="-239.39999999999998" x2="-4.92" y2="-241.26" stroke-width="1" stroke="black" />
	<line x1="-2.58" y1="-239.39999999999998" x2="-3.87" y2="-242.09999999999997" stroke-width="1" stroke="black" />
	<line x1="0.0" y1="-234.0" x2="0.0" y2="-237.0" stroke-width="1" stroke="black" />
	<line x1="0.0" y1="-237.0" x2="1.29" y2="-239.7" stroke-width="1" stroke="black" />
	<line x1="0.0" y1="-237.0" x2="0.0" y2="-240.0" stroke-width="1" stroke="black" />
	<line x1="0.0" y1="-240.0" x2="-1.29" y2="-242.7" stroke-width="1" stroke="black" />
	<line x1="0.0" y1="-240.0" x2="0.0" y2="-243.0" stroke-width="1" stroke="black" />
</svg>
