<svg viewBox="-500 -500 1024 768" xmlns="http://www.w3.org/2000/svg">
	<line x1="0" y1="0" x2="2.13" y2="-2.13" stroke-width="1" stroke="black" />
	<line x1="2.13" y1="-2.13" x2="4.26" y2="0.0" stroke-width="1" stroke="black" />
	<line x1="4.26" y1="0.0" x2="7.26" y2="0.0" stroke-width="1" stroke="black" />
	<line x1="7.26" y1="0.0" x2="7.26" y2="-3.0" stroke-width="1" stroke="black" />
	<line x1="7.26" y1="-3.0" x2="7.26" y2="-6.0" stroke-width="1" stroke="black" />
	<line x1="7.26" y1="-6.0" x2="5.13" y2="-8.129999999999999" stroke-width="1" stroke="black" />
	<line x1="5.13" y1="-8.129999999999999" x2="5.13" y2="-11.129999999999999" stroke-width="1" stroke="black" />
	<line x1="5.13" y1="-11.129999999999999" x2="7.26" y2="-13.259999999999998" stroke-width="1" stroke="black" />
	<line x1="7.26" y1="-13.259999999999998" x2="9.39" y2="-15.389999999999997" stroke-width="1" stroke="black" />
	<line x1="9.39" y1="-15.389999999999997" x2="11.52" y2="-13.259999999999998" stroke-width="1" stroke="black" />
	<line x1="11.52" y1="-13.259999999999998" x2="11.52" y2="-10.259999999999998" stroke-width="1" stroke="black" />
	<line x1="11.52" y1="-10.259999999999998" x2="14.52" y2="-10.259999999999998" stroke-width="1" stroke="black" />
	<line x1="14.52" y1="-10.259999999999998" x2="16.65" y2="-12.389999999999997" stroke-width="1" stroke="black" />
	<line x1="16.65" y1="-12.389999999999997" x2="18.779999999999998" y2="-14.519999999999996" stroke-width="1" stroke="black" />
	<line x1="18.779999999999998" y1="-14.519999999999996" x2="21.779999999999998" y2="-14.519999999999996" stroke-width="1" stroke="black" />
	<line x1="21.779999999999998" y1="-14.519999999999996" x2="23.909999999999997" y2="-12.389999999999997" stroke-width="1" stroke="black" />
	<line x1="23.909999999999997" y1="-12.389999999999997" x2="26.039999999999996" y2="-10.259999999999998" stroke-width="1" stroke="black" />
	<line x1="26.039999999999996" y1="-10.259999999999998" x2="23.909999999999997" y2="-8.129999999999999" stroke-width="1" stroke="black" />
	<line x1="23.909999999999997" y1="-8.129999999999999" x2="20.909999999999997" y2="-8.129999999999999" stroke-width="1" stroke="black" />
	<line x1="20.909999999999997" y1="-8.129999999999999" x2="20.909999999999997" y2="-5.129999999999999" stroke-width="1" stroke="black" />
	<line x1="20.909999999999997" y1="-5.129999999999999" x2="23.039999999999996" y2="-2.999999999999999" stroke-width="1" stroke="black" />
	<line x1="23.039999999999996" y1="-2.999999999999999" x2="25.169999999999995" y2="-0.8699999999999992" stroke-width="1" stroke="black" />
	<line x1="25.169999999999995" y1="-0.8699999999999992" x2="28.169999999999995" y2="-0.8699999999999992" stroke-width="1" stroke="black" />
	<line x1="28.169999999999995" y1="-0.8699999999999992" x2="30.299999999999994" y2="1.2600000000000007" stroke-width="1" stroke="black" />
	<line x1="30.299999999999994" y1="1.2600000000000007" x2="28.169999999999995" y2="3.3900000000000006" stroke-width="1" stroke="black" />
	<line x1="28.169999999999995" y1="3.3900000000000006" x2="28.169999999999995" y2="6.390000000000001" stroke-width="1" stroke="black" />
	<line x1="28.169999999999995" y1="6.390000000000001" x2="31.169999999999995" y2="6.390000000000001" stroke-width="1" stroke="black" />
	<line x1="31.169999999999995" y1="6.390000000000001" x2="34.169999999999995" y2="6.390000000000001" stroke-width="1" stroke="black" />
	<line x1="34.169999999999995" y1="6.390000000000001" x2="36.3" y2="4.260000000000001" stroke-width="1" stroke="black" />
	<line x1="36.3" y1="4.260000000000001" x2="36.3" y2="1.2600000000000007" stroke-width="1" stroke="black" />
	<line x1="36.3" y1="1.2600000000000007" x2="38.43" y2="-0.8699999999999992" stroke-width="1" stroke="black" />
	<line x1="38.43" y1="-0.8699999999999992" x2="40.56" y2="1.2600000000000007" stroke-width="1" stroke="black" />
	<line x1="40.56" y1="1.2600000000000007" x2="43.56" y2="1.2600000000000007" stroke-width="1" stroke="black" />
	<line x1="43.56" y1="1.2600000000000007" x2="43.56" y2="-1.7399999999999993" stroke-width="1" stroke="black" />
	<line x1="43.56" y1="-1.7399999999999993" x2="43.56" y2="-4.739999999999999" stroke-width="1" stroke="black" />
	<line x1="43.56" y1="-4.739999999999999" x2="41.43" y2="-6.869999999999999" stroke-width="1" stroke="black" />
	<line x1="41.43" y1="-6.869999999999999" x2="41.43" y2="-9.87" stroke-width="1" stroke="black" />
	<line x1="41.43" y1="-9.87" x2="43.56" y2="-12.0" stroke-width="1" stroke="black" />
	<line x1="43.56" y1="-12.0" x2="45.690000000000005" y2="-9.870000000000001" stroke-width="1" stroke="black" />
	<line x1="45.690000000000005" y1="-9.870000000000001" x2="48.690000000000005" y2="-9.870000000000001" stroke-width="1" stroke="black" />
	<line x1="48.690000000000005" y1="-9.870000000000001" x2="48.690000000000005" y2="-12.870000000000001" stroke-width="1" stroke="black" />
	<line x1="48.690000000000005" y1="-12.870000000000001" x2="48.690000000000005" y2="-15.870000000000001" stroke-width="1" stroke="black" />
	<line x1="48.690000000000005" y1="-15.870000000000001" x2="46.56" y2="-18.0" stroke-width="1" stroke="black" />
	<line x1="46.56" y1="-18.0" x2="43.56" y2="-18.0" stroke-width="1" stroke="black" />
	<line x1="43.56" y1="-18.0" x2="41.43" y2="-20.13" stroke-width="1" stroke="black" />
	<line x1="41.43" y1="-20.13" x2="39.3" y2="-22.259999999999998" stroke-width="1" stroke="black" />
	<line x1="39.3" y1="-22.259999999999998" x2="41.43" y2="-24.389999999999997" stroke-width="1" stroke="black" />
	<line x1="41.43" y1="-24.389999999999997" x2="44.43" y2="-24.389999999999997" stroke-width="1" stroke="black" />
	<line x1="44.43" y1="-24.389999999999997" x2="44.43" y2="-27.389999999999997" stroke-width="1" stroke="black" />
	<line x1="44.43" y1="-27.389999999999997" x2="42.3" y2="-29.519999999999996" stroke-width="1" stroke="black" />
	<line x1="42.3" y1="-29.519999999999996" x2="40.169999999999995" y2="-31.649999999999995" stroke-width="1" stroke="black" />
	<line x1="40.169999999999995" y1="-31.649999999999995" x2="42.3" y2="-33.779999999999994" stroke-width="1" stroke="black" />
	<line x1="42.3" y1="-33.779999999999994" x2="44.43" y2="-31.649999999999995" stroke-width="1" stroke="black" />
	<line x1="44.43" y1="-31.649999999999995" x2="47.43" y2="-31.649999999999995" stroke-width="1" stroke="black" />
	<line x1="47.43" y1="-31.649999999999995" x2="47.43" y2="-34.64999999999999" stroke-width="1" stroke="black" />
	<line x1="47.43" y1="-34.64999999999999" x2="47.43" y2="-37.64999999999999" stroke-width="1" stroke="black" />
	<line x1="47.43" y1="-37.64999999999999" x2="45.3" y2="-39.779999999999994" stroke-width="1" stroke="black" />
	<line x1="45.3" y1="-39.779999999999994" x2="48.3" y2="-39.779999999999994" stroke-width="1" stroke="black" />
	<line x1="48.3" y1="-39.779999999999994" x2="48.3" y2="-36.779999999999994" stroke-width="1" stroke="black" />
	<line x1="48.3" y1="-36.779999999999994" x2="50.43" y2="-34.64999999999999" stroke-width="1" stroke="black" />
	<line x1="50.43" y1="-34.64999999999999" x2="52.56" y2="-36.779999999999994" stroke-width="1" stroke="black" />
	<line x1="52.56" y1="-36.779999999999994" x2="54.690000000000005" y2="-38.91" stroke-width="1" stroke="black" />
	<line x1="54.690000000000005" y1="-38.91" x2="54.690000000000005" y2="-41.91" stroke-width="1" stroke="black" />
	<line x1="54.690000000000005" y1="-41.91" x2="56.82000000000001" y2="-44.04" stroke-width="1" stroke="black" />
	<line x1="56.82000000000001" y1="-44.04" x2="59.82000000000001" y2="-44.04" stroke-width="1" stroke="black" />
	<line x1="59.82000000000001" y1="-44.04" x2="62.82000000000001" y2="-44.04" stroke-width="1" stroke="black" />
	<line x1="62.82000000000001" y1="-44.04" x2="62.82000000000001" y2="-41.04" stroke-width="1" stroke="black" />
	<line x1="62.82000000000001" y1="-41.04" x2="60.690000000000005" y2="-38.91" stroke-width="1" stroke="black" />
	<line x1="60.690000000000005" y1="-38.91" x2="62.82000000000001" y2="-36.779999999999994" stroke-width="1" stroke="black" />
	<line x1="62.82000000000001" y1="-36.779999999999994" x2="65.82000000000001" y2="-36.779999999999994" stroke-width="1" stroke="black" />
	<line x1="65.82000000000001" y1="-36.779999999999994" x2="68.82000000000001" y2="-36.779999999999994" stroke-width="1" stroke="black" />
	<line x1="68.82000000000001" y1="-36.779999999999994" x2="70.95" y2="-34.64999999999999" stroke-width="1" stroke="black" />
	<line x1="70.95" y1="-34.64999999999999" x2="70.95" y2="-31.64999999999999" stroke-width="1" stroke="black" />
	<line x1="70.95" y1="-31.64999999999999" x2="70.95" y2="-28.64999999999999" stroke-width="1" stroke="black" />
	<line x1="70.95" y1="-28.64999999999999" x2="67.95" y2="-28.64999999999999" stroke-width="1" stroke="black" />
	<line x1="67.95" y1="-28.64999999999999" x2="65.82000000000001" y2="-30.77999999999999" stroke-width="1" stroke="black" />
	<line x1="65.82000000000001" y1="-30.77999999999999" x2="63.690000000000005" y2="-28.64999999999999" stroke-width="1" stroke="black" />
	<line x1="63.690000000000005" y1="-28.64999999999999" x2="63.690000000000005" y2="-25.64999999999999" stroke-width="1" stroke="black" />
	<line x1="63.690000000000005" y1="-25.64999999999999" x2="63.690000000000005" y2="-22.64999999999999" stroke-width="1" stroke="black" />
	<line x1="63.690000000000005" y1="-22.64999999999999" x2="65.82000000000001" y2="-20.519999999999992" stroke-width="1" stroke="black" />
	<line x1="65.82000000000001" y1="-20.519999999999992" x2="65.82000000000001" y2="-17.519999999999992" stroke-width="1" stroke="black" />
	<line x1="65.82000000000001" y1="-17.519999999999992" x2="62.82000000000001" y2="-17.519999999999992" stroke-width="1" stroke="black" />
	<line x1="62.82000000000001" y1="-17.519999999999992" x2="60.690000000000005" y2="-15.389999999999993" stroke-width="1" stroke="black" />
	<line x1="60.690000000000005" y1="-15.389999999999993" x2="62.82000000000001" y2="-13.259999999999994" stroke-width="1" stroke="black" />
	<line x1="62.82000000000001" y1="-13.259999999999994" x2="64.95" y2="-11.129999999999995" stroke-width="1" stroke="black" />
	<line x1="64.95" y1="-11.129999999999995" x2="67.95" y2="-11.129999999999995" stroke-width="1" stroke="black" />
	<line x1="67.95" y1="-11.129999999999995" x2="70.08" y2="-13.259999999999994" stroke-width="1" stroke="black" />
	<line x1="70.08" y1="-13.259999999999994" x2="73.08" y2="-13.259999999999994" stroke-width="1" stroke="black" />
	<line x1="73.08" y1="-13.259999999999994" x2="73.08" y2="-10.259999999999994" stroke-width="1" stroke="black" />
	<line x1="73.08" y1="-10.259999999999994" x2="75.21" y2="-8.129999999999995" stroke-width="1" stroke="black" />
	<line x1="75.21" y1="-8.129999999999995" x2="77.33999999999999" y2="-10.259999999999994" stroke-width="1" stroke="black" />
	<line x1="77.33999999999999" y1="-10.259999999999994" x2="79.46999999999998" y2="-12.389999999999993" stroke-width="1" stroke="black" />
	<line x1="79.46999999999998" y1="-12.389999999999993" x2="79.46999999999998" y2="-15.389999999999993" stroke-width="1" stroke="black" />
	<line x1="79.46999999999998" y1="-15.389999999999993" x2="81.59999999999998" y2="-17.519999999999992" stroke-width="1" stroke="black" />
	<line x1="81.59999999999998" y1="-17.519999999999992" x2="84.59999999999998" y2="-17.519999999999992" stroke-width="1" stroke="black" />
	<line x1="84.59999999999998" y1="-17.519999999999992" x2="84.59999999999998" y2="-14.519999999999992" stroke-width="1" stroke="black" />
	<line x1="84.59999999999998" y1="-14.519999999999992" x2="86.72999999999998" y2="-12.389999999999993" stroke-width="1" stroke="black" />
	<line x1="86.72999999999998" y1="-12.389999999999993" x2="88.85999999999997" y2="-14.519999999999992" stroke-width="1" stroke="black" />
	<line x1="88.85999999999997" y1="-14.519999999999992" x2="90.98999999999997" y2="-16.64999999999999" stroke-width="1" stroke="black" />
	<line x1="90.98999999999997" y1="-16.64999999999999" x2="90.98999999999997" y2="-19.64999999999999" stroke-width="1" stroke="black" />
	<line x1="90.98999999999997" y1="-19.64999999999999" x2="88.85999999999997" y2="-21.77999999999999" stroke-width="1" stroke="black" />
	<line x1="88.85999999999997" y1="-21.77999999999999" x2="88.85999999999997" y2="-24.77999999999999" stroke-width="1" stroke="black" />
	<line x1="88.85999999999997" y1="-24.77999999999999" x2="88.85999999999997" y2="-27.77999999999999" stroke-width="1" stroke="black" />
	<line x1="88.85999999999997" y1="-27.77999999999999" x2="91.85999999999997" y2="-27.77999999999999" stroke-width="1" stroke="black" />
	<line x1="91.85999999999997" y1="-27.77999999999999" x2="93.98999999999997" y2="-25.64999999999999" stroke-width="1" stroke="black" />
	<line x1="93.98999999999997" y1="-25.64999999999999" x2="96.11999999999996" y2="-27.77999999999999" stroke-width="1" stroke="black" />
	<line x1="96.11999999999996" y1="-27.77999999999999" x2="96.11999999999996" y2="-30.77999999999999" stroke-width="1" stroke="black" />
	<line x1="96.11999999999996" y1="-30.77999999999999" x2="96.11999999999996" y2="-33.77999999999999" stroke-width="1" stroke="black" />
	<line x1="96.11999999999996" y1="-33.77999999999999" x2="99.11999999999996" y2="-33.77999999999999" stroke-width="1" stroke="black" />
	<line x1="99.11999999999996" y1="-33.77999999999999" x2="99.11999999999996" y2="-30.779999999999987" stroke-width="1" stroke="black" />
	<line x1="99.11999999999996" y1="-30.779999999999987" x2="101.24999999999996" y2="-28.649999999999988" stroke-width="1" stroke="black" />
	<line x1="101.24999999999996" y1="-28.649999999999988" x2="103.37999999999995" y2="-30.779999999999987" stroke-width="1" stroke="black" />
	<line x1="103.37999999999995" y1="-30.779999999999987" x2="105.50999999999995" y2="-32.90999999999999" stroke-width="1" stroke="black" />
	<line x1="105.50999999999995" y1="-32.90999999999999" x2="105.50999999999995" y2="-35.90999999999999" stroke-width="1" stroke="black" />
	<line x1="105.50999999999995" y1="-35.90999999999999" x2="107.63999999999994" y2="-33.77999999999999" stroke-width="1" stroke="black" />
	<line x1="107.63999999999994" y1="-33.77999999999999" x2="105.50999999999995" y2="-31.649999999999988" stroke-width="1" stroke="black" />
	<line x1="105.50999999999995" y1="-31.649999999999988" x2="105.50999999999995" y2="-28.649999999999988" stroke-width="1" stroke="black" />
	<line x1="105.50999999999995" y1="-28.649999999999988" x2="108.50999999999995" y2="-28.649999999999988" stroke-width="1" stroke="black" />
	<line x1="108.50999999999995" y1="-28.649999999999988" x2="111.50999999999995" y2="-28.649999999999988" stroke-width="1" stroke="black" />
	<line x1="111.50999999999995" y1="-28.649999999999988" x2="113.63999999999994" y2="-30.779999999999987" stroke-width="1" stroke="black" />
	<line x1="113.63999999999994" y1="-30.779999999999987" x2="116.63999999999994" y2="-30.779999999999987" stroke-width="1" stroke="black" />
	<line x1="116.63999999999994" y1="-30.779999999999987" x2="118.76999999999994" y2="-28.649999999999988" stroke-width="1" stroke="black" />
	<line x1="118.76999999999994" y1="-28.649999999999988" x2="120.89999999999993" y2="-26.51999999999999" stroke-width="1" stroke="black" />
	<line x1="120.89999999999993" y1="-26.51999999999999" x2="118.76999999999994" y2="-24.38999999999999" stroke-width="1" stroke="black" />
	<line x1="118.76999999999994" y1="-24.38999999999999" x2="115.76999999999994" y2="-24.38999999999999" stroke-width="1" stroke="black" />
	<line x1="115.76999999999994" y1="-24.38999999999999" x2="115.76999999999994" y2="-21.38999999999999" stroke-width="1" stroke="black" />
	<line x1="115.76999999999994" y1="-21.38999999999999" x2="117.89999999999993" y2="-19.25999999999999" stroke-width="1" stroke="black" />
	<line x1="117.89999999999993" y1="-19.25999999999999" x2="120.02999999999993" y2="-17.129999999999992" stroke-width="1" stroke="black" />
	<line x1="120.02999999999993" y1="-17.129999999999992" x2="120.02999999999993" y2="-14.129999999999992" stroke-width="1" stroke="black" />
	<line x1="120.02999999999993" y1="-14.129999999999992" x2="117.89999999999993" y2="-11.999999999999993" stroke-width="1" stroke="black" />
	<line x1="117.89999999999993" y1="-11.999999999999993" x2="115.76999999999994" y2="-9.869999999999994" stroke-width="1" stroke="black" />
	<line x1="115.76999999999994" y1="-9.869999999999994" x2="113.63999999999994" y2="-11.999999999999993" stroke-width="1" stroke="black" />
	<line x1="113.63999999999994" y1="-11.999999999999993" x2="113.63999999999994" y2="-14.999999999999993" stroke-width="1" stroke="black" />
	<line x1="113.63999999999994" y1="-14.999999999999993" x2="110.63999999999994" y2="-14.999999999999993" stroke-width="1" stroke="black" />
	<line x1="110.63999999999994" y1="-14.999999999999993" x2="108.50999999999995" y2="-12.869999999999994" stroke-width="1" stroke="black" />
	<line x1="108.50999999999995" y1="-12.869999999999994" x2="106.37999999999995" y2="-10.739999999999995" stroke-width="1" stroke="black" />
	<line x1="106.37999999999995" y1="-10.739999999999995" x2="106.37999999999995" y2="-7.739999999999995" stroke-width="1" stroke="black" />
	<line x1="106.37999999999995" y1="-7.739999999999995" x2="104.24999999999996" y2="-5.609999999999995" stroke-width="1" stroke="black" />
	<line x1="104.24999999999996" y1="-5.609999999999995" x2="102.11999999999996" y2="-7.739999999999995" stroke-width="1" stroke="black" />
	<line x1="102.11999999999996" y1="-7.739999999999995" x2="99.11999999999996" y2="-7.739999999999995" stroke-width="1" stroke="black" />
	<line x1="99.11999999999996" y1="-7.739999999999995" x2="99.11999999999996" y2="-4.739999999999995" stroke-width="1" stroke="black" />
	<line x1="99.11999999999996" y1="-4.739999999999995" x2="99.11999999999996" y2="-1.7399999999999949" stroke-width="1" stroke="black" />
	<line x1="99.11999999999996" y1="-1.7399999999999949" x2="101.24999999999996" y2="0.390000000000005" stroke-width="1" stroke="black" />
	<line x1="101.24999999999996" y1="0.390000000000005" x2="104.24999999999996" y2="0.390000000000005" stroke-width="1" stroke="black" />
	<line x1="104.24999999999996" y1="0.390000000000005" x2="106.37999999999995" y2="2.520000000000005" stroke-width="1" stroke="black" />
	<line x1="106.37999999999995" y1="2.520000000000005" x2="104.24999999999996" y2="4.650000000000005" stroke-width="1" stroke="black" />
	<line x1="104.24999999999996" y1="4.650000000000005" x2="104.24999999999996" y2="7.650000000000005" stroke-width="1" stroke="black" />
	<line x1="104.24999999999996" y1="7.650000000000005" x2="107.24999999999996" y2="7.650000000000005" stroke-width="1" stroke="black" />
	<line x1="107.24999999999996" y1="7.650000000000005" x2="110.24999999999996" y2="7.650000000000005" stroke-width="1" stroke="black" />
	<line x1="110.24999999999996" y1="7.650000000000005" x2="112.37999999999995" y2="5.520000000000005" stroke-width="1" stroke="black" />
	<line x1="112.37999999999995" y1="5.520000000000005" x2="115.37999999999995" y2="5.520000000000005" stroke-width="1" stroke="black" />
	<line x1="115.37999999999995" y1="5.520000000000005" x2="117.50999999999995" y2="7.650000000000005" stroke-width="1" stroke="black" />
	<line x1="117.50999999999995" y1="7.650000000000005" x2="115.37999999999995" y2="9.780000000000005" stroke-width="1" stroke="black" />
	<line x1="115.37999999999995" y1="9.780000000000005" x2="115.37999999999995" y2="12.780000000000005" stroke-width="1" stroke="black" />
	<line x1="115.37999999999995" y1="12.780000000000005" x2="118.37999999999995" y2="12.780000000000005" stroke-width="1" stroke="black" />
	<line x1="118.37999999999995" y1="12.780000000000005" x2="121.37999999999995" y2="12.780000000000005" stroke-width="1" stroke="black" />
	<line x1="121.37999999999995" y1="12.780000000000005" x2="123.50999999999995" y2="10.650000000000006" stroke-width="1" stroke="black" />
	<line x1="123.50999999999995" y1="10.650000000000006" x2="123.50999999999995" y2="7.650000000000006" stroke-width="1" stroke="black" />
	<line x1="123.50999999999995" y1="7.650000000000006" x2="125.63999999999994" y2="5.520000000000006" stroke-width="1" stroke="black" />
	<line x1="125.63999999999994" y1="5.520000000000006" x2="127.76999999999994" y2="3.390000000000006" stroke-width="1" stroke="black" />
	<line x1="127.76999999999994" y1="3.390000000000006" x2="129.89999999999995" y2="5.520000000000006" stroke-width="1" stroke="black" />
	<line x1="129.89999999999995" y1="5.520000000000006" x2="129.89999999999995" y2="8.520000000000007" stroke-width="1" stroke="black" />
	<line x1="129.89999999999995" y1="8.520000000000007" x2="132.89999999999995" y2="8.520000000000007" stroke-width="1" stroke="black" />
	<line x1="132.89999999999995" y1="8.520000000000007" x2="135.02999999999994" y2="6.390000000000007" stroke-width="1" stroke="black" />
	<line x1="135.02999999999994" y1="6.390000000000007" x2="137.15999999999994" y2="4.260000000000007" stroke-width="1" stroke="black" />
	<line x1="137.15999999999994" y1="4.260000000000007" x2="139.28999999999994" y2="6.390000000000007" stroke-width="1" stroke="black" />
	<line x1="139.28999999999994" y1="6.390000000000007" x2="137.15999999999994" y2="8.520000000000007" stroke-width="1" stroke="black" />
	<line x1="137.15999999999994" y1="8.520000000000007" x2="137.15999999999994" y2="11.520000000000007" stroke-width="1" stroke="black" />
	<line x1="137.15999999999994" y1="11.520000000000007" x2="140.15999999999994" y2="11.520000000000007" stroke-width="1" stroke="black" />
	<line x1="140.15999999999994" y1="11.520000000000007" x2="143.15999999999994" y2="11.520000000000007" stroke-width="1" stroke="black" />
	<line x1="143.15999999999994" y1="11.520000000000007" x2="145.28999999999994" y2="9.390000000000008" stroke-width="1" stroke="black" />
	<line x1="145.28999999999994" y1="9.390000000000008" x2="145.28999999999994" y2="12.390000000000008" stroke-width="1" stroke="black" />
	<line x1="145.28999999999994" y1="12.390000000000008" x2="142.28999999999994" y2="12.390000000000008" stroke-width="1" stroke="black" />
	<line x1="142.28999999999994" y1="12.390000000000008" x2="140.15999999999994" y2="14.520000000000007" stroke-width="1" stroke="black" />
	<line x1="140.15999999999994" y1="14.520000000000007" x2="142.28999999999994" y2="16.650000000000006" stroke-width="1" stroke="black" />
	<line x1="142.28999999999994" y1="16.650000000000006" x2="144.41999999999993" y2="18.780000000000005" stroke-width="1" stroke="black" />
	<line x1="144.41999999999993" y1="18.780000000000005" x2="147.41999999999993" y2="18.780000000000005" stroke-width="1" stroke="black" />
	<line x1="147.41999999999993" y1="18.780000000000005" x2="149.54999999999993" y2="20.910000000000004" stroke-width="1" stroke="black" />
	<line x1="149.54999999999993" y1="20.910000000000004" x2="149.54999999999993" y2="23.910000000000004" stroke-width="1" stroke="black" />
	<line x1="149.54999999999993" y1="23.910000000000004" x2="149.54999999999993" y2="26.910000000000004" stroke-width="1" stroke="black" />
	<line x1="149.54999999999993" y1="26.910000000000004" x2="146.54999999999993" y2="26.910000000000004" stroke-width="1" stroke="black" />
	<line x1="146.54999999999993" y1="26.910000000000004" x2="144.41999999999993" y2="24.780000000000005" stroke-width="1" stroke="black" />
	<line x1="144.41999999999993" y1="24.780000000000005" x2="142.28999999999994" y2="26.910000000000004" stroke-width="1" stroke="black" />
	<line x1="142.28999999999994" y1="26.910000000000004" x2="142.28999999999994" y2="29.910000000000004" stroke-width="1" stroke="black" />
	<line x1="142.28999999999994" y1="29.910000000000004" x2="142.28999999999994" y2="32.910000000000004" stroke-width="1" stroke="black" />
	<line x1="142.28999999999994" y1="32.910000000000004" x2="140.15999999999994" y2="35.040000000000006" stroke-width="1" stroke="black" />
	<line x1="140.15999999999994" y1="35.040000000000006" x2="137.15999999999994" y2="35.040000000000006" stroke-width="1" stroke="black" />
	<line x1="137.15999999999994" y1="35.040000000000006" x2="134.15999999999994" y2="35.040000000000006" stroke-width="1" stroke="black" />
	<line x1="134.15999999999994" y1="35.040000000000006" x2="134.15999999999994" y2="32.040000000000006" stroke-width="1" stroke="black" />
	<line x1="134.15999999999994" y1="32.040000000000006" x2="136.28999999999994" y2="29.910000000000007" stroke-width="1" stroke="black" />
	<line x1="136.28999999999994" y1="29.910000000000007" x2="134.15999999999994" y2="27.78000000000001" stroke-width="1" stroke="black" />
	<line x1="134.15999999999994" y1="27.78000000000001" x2="131.15999999999994" y2="27.78000000000001" stroke-width="1" stroke="black" />
	<line x1="131.15999999999994" y1="27.78000000000001" x2="128.15999999999994" y2="27.78000000000001" stroke-width="1" stroke="black" />
	<line x1="128.15999999999994" y1="27.78000000000001" x2="126.02999999999994" y2="29.910000000000007" stroke-width="1" stroke="black" />
	<line x1="126.02999999999994" y1="29.910000000000007" x2="123.02999999999994" y2="29.910000000000007" stroke-width="1" stroke="black" />
	<line x1="123.02999999999994" y1="29.910000000000007" x2="123.02999999999994" y2="26.910000000000007" stroke-width="1" stroke="black" />
	<line x1="123.02999999999994" y1="26.910000000000007" x2="120.89999999999995" y2="24.78000000000001" stroke-width="1" stroke="black" />
	<line x1="120.89999999999995" y1="24.78000000000001" x2="118.76999999999995" y2="26.910000000000007" stroke-width="1" stroke="black" />
	<line x1="118.76999999999995" y1="26.910000000000007" x2="116.63999999999996" y2="29.040000000000006" stroke-width="1" stroke="black" />
	<line x1="116.63999999999996" y1="29.040000000000006" x2="116.63999999999996" y2="32.040000000000006" stroke-width="1" stroke="black" />
	<line x1="116.63999999999996" y1="32.040000000000006" x2="118.76999999999995" y2="34.17000000000001" stroke-width="1" stroke="black" />
	<line x1="118.76999999999995" y1="34.17000000000001" x2="118.76999999999995" y2="37.17000000000001" stroke-width="1" stroke="black" />
	<line x1="118.76999999999995" y1="37.17000000000001" x2="115.76999999999995" y2="37.17000000000001" stroke-width="1" stroke="black" />
	<line x1="115.76999999999995" y1="37.17000000000001" x2="113.63999999999996" y2="39.30000000000001" stroke-width="1" stroke="black" />
	<line x1="113.63999999999996" y1="39.30000000000001" x2="115.76999999999995" y2="41.430000000000014" stroke-width="1" stroke="black" />
	<line x1="115.76999999999995" y1="41.430000000000014" x2="117.89999999999995" y2="43.56000000000002" stroke-width="1" stroke="black" />
	<line x1="117.89999999999995" y1="43.56000000000002" x2="120.89999999999995" y2="43.56000000000002" stroke-width="1" stroke="black" />
	<line x1="120.89999999999995" y1="43.56000000000002" x2="123.02999999999994" y2="45.69000000000002" stroke-width="1" stroke="black" />
	<line x1="123.02999999999994" y1="45.69000000000002" x2="123.02999999999994" y2="48.69000000000002" stroke-width="1" stroke="black" />
	<line x1="123.02999999999994" y1="48.69000000000002" x2="120.02999999999994" y2="48.69000000000002" stroke-width="1" stroke="black" />
	<line x1="120.02999999999994" y1="48.69000000000002" x2="117.89999999999995" y2="50.82000000000002" stroke-width="1" stroke="black" />
	<line x1="117.89999999999995" y1="50.82000000000002" x2="120.02999999999994" y2="52.950000000000024" stroke-width="1" stroke="black" />
	<line x1="120.02999999999994" y1="52.950000000000024" x2="122.15999999999994" y2="55.08000000000003" stroke-width="1" stroke="black" />
	<line x1="122.15999999999994" y1="55.08000000000003" x2="125.15999999999994" y2="55.08000000000003" stroke-width="1" stroke="black" />
	<line x1="125.15999999999994" y1="55.08000000000003" x2="127.28999999999994" y2="52.950000000000024" stroke-width="1" stroke="black" />
	<line x1="127.28999999999994" y1="52.950000000000024" x2="130.28999999999994" y2="52.950000000000024" stroke-width="1" stroke="black" />
	<line x1="130.28999999999994" y1="52.950000000000024" x2="133.28999999999994" y2="52.950000000000024" stroke-width="1" stroke="black" />
	<line x1="133.28999999999994" y1="52.950000000000024" x2="133.28999999999994" y2="55.950000000000024" stroke-width="1" stroke="black" />
	<line x1="133.28999999999994" y1="55.950000000000024" x2="131.15999999999994" y2="58.08000000000003" stroke-width="1" stroke="black" />
	<line x1="131.15999999999994" y1="58.08000000000003" x2="133.28999999999994" y2="60.21000000000003" stroke-width="1" stroke="black" />
	<line x1="133.28999999999994" y1="60.21000000000003" x2="136.28999999999994" y2="60.21000000000003" stroke-width="1" stroke="black" />
	<line x1="136.28999999999994" y1="60.21000000000003" x2="139.28999999999994" y2="60.21000000000003" stroke-width="1" stroke="black" />
	<line x1="139.28999999999994" y1="60.21000000000003" x2="139.28999999999994" y2="63.21000000000003" stroke-width="1" stroke="black" />
	<line x1="139.28999999999994" y1="63.21000000000003" x2="136.28999999999994" y2="63.21000000000003" stroke-width="1" stroke="black" />
	<line x1="136.28999999999994" y1="63.21000000000003" x2="134.15999999999994" y2="65.34000000000003" stroke-width="1" stroke="black" />
	<line x1="134.15999999999994" y1="65.34000000000003" x2="136.28999999999994" y2="67.47000000000003" stroke-width="1" stroke="black" />
	<line x1="136.28999999999994" y1="67.47000000000003" x2="138.41999999999993" y2="69.60000000000002" stroke-width="1" stroke="black" />
	<line x1="138.41999999999993" y1="69.60000000000002" x2="141.41999999999993" y2="69.60000000000002" stroke-width="1" stroke="black" />
	<line x1="141.41999999999993" y1="69.60000000000002" x2="139.28999999999994" y2="71.73000000000002" stroke-width="1" stroke="black" />
	<line x1="139.28999999999994" y1="71.73000000000002" x2="137.15999999999994" y2="69.60000000000002" stroke-width="1" stroke="black" />
	<line x1="137.15999999999994" y1="69.60000000000002" x2="134.15999999999994" y2="69.60000000000002" stroke-width="1" stroke="black" />
	<line x1="134.15999999999994" y1="69.60000000000002" x2="134.15999999999994" y2="72.60000000000002" stroke-width="1" stroke="black" />
	<line x1="134.15999999999994" y1="72.60000000000002" x2="134.15999999999994" y2="75.60000000000002" stroke-width="1" stroke="black" />
	<line x1="134.15999999999994" y1="75.60000000000002" x2="136.28999999999994" y2="77.73000000000002" stroke-width="1" stroke="black" />
	<line x1="136.28999999999994" y1="77.73000000000002" x2="136.28999999999994" y2="80.73000000000002" stroke-width="1" stroke="black" />
	<line x1="136.28999999999994" y1="80.73000000000002" x2="134.15999999999994" y2="82.86000000000001" stroke-width="1" stroke="black" />
	<line x1="134.15999999999994" y1="82.86000000000001" x2="132.02999999999994" y2="84.99000000000001" stroke-width="1" stroke="black" />
	<line x1="132.02999999999994" y1="84.99000000000001" x2="129.89999999999995" y2="82.86000000000001" stroke-width="1" stroke="black" />
	<line x1="129.89999999999995" y1="82.86000000000001" x2="129.89999999999995" y2="79.86000000000001" stroke-width="1" stroke="black" />
	<line x1="129.89999999999995" y1="79.86000000000001" x2="126.89999999999995" y2="79.86000000000001" stroke-width="1" stroke="black" />
	<line x1="126.89999999999995" y1="79.86000000000001" x2="124.76999999999995" y2="81.99000000000001" stroke-width="1" stroke="black" />
	<line x1="124.76999999999995" y1="81.99000000000001" x2="122.63999999999996" y2="84.12" stroke-width="1" stroke="black" />
	<line x1="122.63999999999996" y1="84.12" x2="119.63999999999996" y2="84.12" stroke-width="1" stroke="black" />
	<line x1="119.63999999999996" y1="84.12" x2="117.50999999999996" y2="81.99000000000001" stroke-width="1" stroke="black" />
	<line x1="117.50999999999996" y1="81.99000000000001" x2="115.37999999999997" y2="79.86000000000001" stroke-width="1" stroke="black" />
	<line x1="115.37999999999997" y1="79.86000000000001" x2="117.50999999999996" y2="77.73000000000002" stroke-width="1" stroke="black" />
	<line x1="117.50999999999996" y1="77.73000000000002" x2="120.50999999999996" y2="77.73000000000002" stroke-width="1" stroke="black" />
	<line x1="120.50999999999996" y1="77.73000000000002" x2="120.50999999999996" y2="74.73000000000002" stroke-width="1" stroke="black" />
	<line x1="120.50999999999996" y1="74.73000000000002" x2="118.37999999999997" y2="72.60000000000002" stroke-width="1" stroke="black" />
	<line x1="118.37999999999997" y1="72.60000000000002" x2="116.24999999999997" y2="70.47000000000003" stroke-width="1" stroke="black" />
	<line x1="116.24999999999997" y1="70.47000000000003" x2="113.24999999999997" y2="70.47000000000003" stroke-width="1" stroke="black" />
	<line x1="113.24999999999997" y1="70.47000000000003" x2="111.11999999999998" y2="68.34000000000003" stroke-width="1" stroke="black" />
	<line x1="111.11999999999998" y1="68.34000000000003" x2="113.24999999999997" y2="66.21000000000004" stroke-width="1" stroke="black" />
	<line x1="113.24999999999997" y1="66.21000000000004" x2="113.24999999999997" y2="63.210000000000036" stroke-width="1" stroke="black" />
	<line x1="113.24999999999997" y1="63.210000000000036" x2="110.24999999999997" y2="63.210000000000036" stroke-width="1" stroke="black" />
	<line x1="110.24999999999997" y1="63.210000000000036" x2="107.24999999999997" y2="63.210000000000036" stroke-width="1" stroke="black" />
	<line x1="107.24999999999997" y1="63.210000000000036" x2="105.11999999999998" y2="65.34000000000003" stroke-width="1" stroke="black" />
	<line x1="105.11999999999998" y1="65.34000000000003" x2="105.11999999999998" y2="68.34000000000003" stroke-width="1" stroke="black" />
	<line x1="105.11999999999998" y1="68.34000000000003" x2="102.98999999999998" y2="70.47000000000003" stroke-width="1" stroke="black" />
	<line x1="102.98999999999998" y1="70.47000000000003" x2="100.85999999999999" y2="68.34000000000003" stroke-width="1" stroke="black" />
	<line x1="100.85999999999999" y1="68.34000000000003" x2="97.85999999999999" y2="68.34000000000003" stroke-width="1" stroke="black" />
	<line x1="97.85999999999999" y1="68.34000000000003" x2="97.85999999999999" y2="71.34000000000003" stroke-width="1" stroke="black" />
	<line x1="97.85999999999999" y1="71.34000000000003" x2="97.85999999999999" y2="74.34000000000003" stroke-width="1" stroke="black" />
	<line x1="97.85999999999999" y1="74.34000000000003" x2="99.98999999999998" y2="76.47000000000003" stroke-width="1" stroke="black" />
	<line x1="99.98999999999998" y1="76.47000000000003" x2="99.98999999999998" y2="79.47000000000003" stroke-width="1" stroke="black" />
	<line x1="99.98999999999998" y1="79.47000000000003" x2="97.85999999999999" y2="81.60000000000002" stroke-width="1" stroke="black" />
	<line x1="97.85999999999999" y1="81.60000000000002" x2="95.72999999999999" y2="79.47000000000003" stroke-width="1" stroke="black" />
	<line x1="95.72999999999999" y1="79.47000000000003" x2="92.72999999999999" y2="79.47000000000003" stroke-width="1" stroke="black" />
	<line x1="92.72999999999999" y1="79.47000000000003" x2="92.72999999999999" y2="82.47000000000003" stroke-width="1" stroke="black" />
	<line x1="92.72999999999999" y1="82.47000000000003" x2="92.72999999999999" y2="85.47000000000003" stroke-width="1" stroke="black" />
	<line x1="92.72999999999999" y1="85.47000000000003" x2="94.85999999999999" y2="87.60000000000002" stroke-width="1" stroke="black" />
	<line x1="94.85999999999999" y1="87.60000000000002" x2="97.85999999999999" y2="87.60000000000002" stroke-width="1" stroke="black" />
	<line x1="97.85999999999999" y1="87.60000000000002" x2="99.98999999999998" y2="89.73000000000002" stroke-width="1" stroke="black" />
	<line x1="99.98999999999998" y1="89.73000000000002" x2="102.11999999999998" y2="91.86000000000001" stroke-width="1" stroke="black" />
	<line x1="102.11999999999998" y1="91.86000000000001" x2="99.98999999999998" y2="93.99000000000001" stroke-width="1" stroke="black" />
	<line x1="99.98999999999998" y1="93.99000000000001" x2="96.98999999999998" y2="93.99000000000001" stroke-width="1" stroke="black" />
	<line x1="96.98999999999998" y1="93.99000000000001" x2="96.98999999999998" y2="96.99000000000001" stroke-width="1" stroke="black" />
	<line x1="96.98999999999998" y1="96.99000000000001" x2="99.11999999999998" y2="99.12" stroke-width="1" stroke="black" />
	<line x1="99.11999999999998" y1="99.12" x2="101.24999999999997" y2="101.25" stroke-width="1" stroke="black" />
	<line x1="101.24999999999997" y1="101.25" x2="99.11999999999998" y2="103.38" stroke-width="1" stroke="black" />
	<line x1="99.11999999999998" y1="103.38" x2="96.98999999999998" y2="101.25" stroke-width="1" stroke="black" />
	<line x1="96.98999999999998" y1="101.25" x2="93.98999999999998" y2="101.25" stroke-width="1" stroke="black" />
	<line x1="93.98999999999998" y1="101.25" x2="93.98999999999998" y2="104.25" stroke-width="1" stroke="black" />
	<line x1="93.98999999999998" y1="104.25" x2="93.98999999999998" y2="107.25" stroke-width="1" stroke="black" />
	<line x1="93.98999999999998" y1="107.25" x2="96.11999999999998" y2="109.38" stroke-width="1" stroke="black" />
	<line x1="96.11999999999998" y1="109.38" x2="93.11999999999998" y2="109.38" stroke-width="1" stroke="black" />
	<line x1="93.11999999999998" y1="109.38" x2="93.11999999999998" y2="106.38" stroke-width="1" stroke="black" />
	<line x1="93.11999999999998" y1="106.38" x2="90.98999999999998" y2="104.25" stroke-width="1" stroke="black" />
	<line x1="90.98999999999998" y1="104.25" x2="88.85999999999999" y2="106.38" stroke-width="1" stroke="black" />
	<line x1="88.85999999999999" y1="106.38" x2="86.72999999999999" y2="108.50999999999999" stroke-width="1" stroke="black" />
	<line x1="86.72999999999999" y1="108.50999999999999" x2="86.72999999999999" y2="111.50999999999999" stroke-width="1" stroke="black" />
	<line x1="86.72999999999999" y1="111.50999999999999" x2="84.6" y2="113.63999999999999" stroke-width="1" stroke="black" />
	<line x1="84.6" y1="113.63999999999999" x2="81.6" y2="113.63999999999999" stroke-width="1" stroke="black" />
	<line x1="81.6" y1="113.63999999999999" x2="78.6" y2="113.63999999999999" stroke-width="1" stroke="black" />
	<line x1="78.6" y1="113.63999999999999" x2="78.6" y2="110.63999999999999" stroke-width="1" stroke="black" />
	<line x1="78.6" y1="110.63999999999999" x2="80.72999999999999" y2="108.50999999999999" stroke-width="1" stroke="black" />
	<line x1="80.72999999999999" y1="108.50999999999999" x2="78.6" y2="106.38" stroke-width="1" stroke="black" />
	<line x1="78.6" y1="106.38" x2="75.6" y2="106.38" stroke-width="1" stroke="black" />
	<line x1="75.6" y1="106.38" x2="72.6" y2="106.38" stroke-width="1" stroke="black" />
	<line x1="72.6" y1="106.38" x2="70.47" y2="104.25" stroke-width="1" stroke="black" />
	<line x1="70.47" y1="104.25" x2="70.47" y2="101.25" stroke-width="1" stroke="black" />
	<line x1="70.47" y1="101.25" x2="70.47" y2="98.25" stroke-width="1" stroke="black" />
	<line x1="70.47" y1="98.25" x2="73.47" y2="98.25" stroke-width="1" stroke="black" />
	<line x1="73.47" y1="98.25" x2="75.6" y2="100.38" stroke-width="1" stroke="black" />
	<line x1="75.6" y1="100.38" x2="77.72999999999999" y2="98.25" stroke-width="1" stroke="black" />
	<line x1="77.72999999999999" y1="98.25" x2="77.72999999999999" y2="95.25" stroke-width="1" stroke="black" />
	<line x1="77.72999999999999" y1="95.25" x2="77.72999999999999" y2="92.25" stroke-width="1" stroke="black" />
	<line x1="77.72999999999999" y1="92.25" x2="75.6" y2="90.12" stroke-width="1" stroke="black" />
	<line x1="75.6" y1="90.12" x2="75.6" y2="87.12" stroke-width="1" stroke="black" />
	<line x1="75.6" y1="87.12" x2="78.6" y2="87.12" stroke-width="1" stroke="black" />
	<line x1="78.6" y1="87.12" x2="80.72999999999999" y2="84.99000000000001" stroke-width="1" stroke="black" />
	<line x1="80.72999999999999" y1="84.99000000000001" x2="78.6" y2="82.86000000000001" stroke-width="1" stroke="black" />
	<line x1="78.6" y1="82.86000000000001" x2="76.47" y2="80.73000000000002" stroke-width="1" stroke="black" />
	<line x1="76.47" y1="80.73000000000002" x2="73.47" y2="80.73000000000002" stroke-width="1" stroke="black" />
	<line x1="73.47" y1="80.73000000000002" x2="71.34" y2="82.86000000000001" stroke-width="1" stroke="black" />
	<line x1="71.34" y1="82.86000000000001" x2="68.34" y2="82.86000000000001" stroke-width="1" stroke="black" />
	<line x1="68.34" y1="82.86000000000001" x2="68.34" y2="79.86000000000001" stroke-width="1" stroke="black" />
	<line x1="68.34" y1="79.86000000000001" x2="66.21000000000001" y2="77.73000000000002" stroke-width="1" stroke="black" />
	<line x1="66.21000000000001" y1="77.73000000000002" x2="64.08000000000001" y2="79.86000000000001" stroke-width="1" stroke="black" />
	<line x1="64.08000000000001" y1="79.86000000000001" x2="61.95000000000001" y2="81.99000000000001" stroke-width="1" stroke="black" />
	<line x1="61.95000000000001" y1="81.99000000000001" x2="61.95000000000001" y2="84.99000000000001" stroke-width="1" stroke="black" />
	<line x1="61.95000000000001" y1="84.99000000000001" x2="59.82000000000001" y2="87.12" stroke-width="1" stroke="black" />
	<line x1="59.82000000000001" y1="87.12" x2="56.82000000000001" y2="87.12" stroke-width="1" stroke="black" />
	<line x1="56.82000000000001" y1="87.12" x2="56.82000000000001" y2="84.12" stroke-width="1" stroke="black" />
	<line x1="56.82000000000001" y1="84.12" x2="54.690000000000005" y2="81.99000000000001" stroke-width="1" stroke="black" />
	<line x1="54.690000000000005" y1="81.99000000000001" x2="52.56" y2="84.12" stroke-width="1" stroke="black" />
	<line x1="52.56" y1="84.12" x2="50.43" y2="86.25" stroke-width="1" stroke="black" />
	<line x1="50.43" y1="86.25" x2="50.43" y2="89.25" stroke-width="1" stroke="black" />
	<line x1="50.43" y1="89.25" x2="52.56" y2="91.38" stroke-width="1" stroke="black" />
	<line x1="52.56" y1="91.38" x2="52.56" y2="94.38" stroke-width="1" stroke="black" />
	<line x1="52.56" y1="94.38" x2="52.56" y2="97.38" stroke-width="1" stroke="black" />
	<line x1="52.56" y1="97.38" x2="49.56" y2="97.38" stroke-width="1" stroke="black" />
	<line x1="49.56" y1="97.38" x2="47.43" y2="95.25" stroke-width="1" stroke="black" />
	<line x1="47.43" y1="95.25" x2="45.3" y2="97.38" stroke-width="1" stroke="black" />
	<line x1="45.3" y1="97.38" x2="45.3" y2="100.38" stroke-width="1" stroke="black" />
	<line x1="45.3" y1="100.38" x2="45.3" y2="103.38" stroke-width="1" stroke="black" />
	<line x1="45.3" y1="103.38" x2="42.3" y2="103.38" stroke-width="1" stroke="black" />
	<line x1="42.3" y1="103.38" x2="42.3" y2="100.38" stroke-width="1" stroke="black" />
	<line x1="42.3" y1="100.38" x2="40.169999999999995" y2="98.25" stroke-width="1" stroke="black" />
	<line x1="40.169999999999995" y1="98.25" x2="38.03999999999999" y2="100.38" stroke-width="1" stroke="black" />
	<line x1="38.03999999999999" y1="100.38" x2="35.90999999999999" y2="102.50999999999999" stroke-width="1" stroke="black" />
	<line x1="35.90999999999999" y1="102.50999999999999" x2="35.90999999999999" y2="105.50999999999999" stroke-width="1" stroke="black" />
	<line x1="35.90999999999999" y1="105.50999999999999" x2="33.77999999999999" y2="103.38" stroke-width="1" stroke="black" />
	<line x1="33.77999999999999" y1="103.38" x2="35.90999999999999" y2="101.25" stroke-width="1" stroke="black" />
	<line x1="35.90999999999999" y1="101.25" x2="35.90999999999999" y2="98.25" stroke-width="1" stroke="black" />
	<line x1="35.90999999999999" y1="98.25" x2="32.90999999999999" y2="98.25" stroke-width="1" stroke="black" />
	<line x1="32.90999999999999" y1="98.25" x2="29.90999999999999" y2="98.25" stroke-width="1" stroke="black" />
	<line x1="29.90999999999999" y1="98.25" x2="27.77999999999999" y2="100.38" stroke-width="1" stroke="black" />
	<line x1="27.77999999999999" y1="100.38" x2="24.77999999999999" y2="100.38" stroke-width="1" stroke="black" />
	<line x1="24.77999999999999" y1="100.38" x2="22.64999999999999" y2="98.25" stroke-width="1" stroke="black" />
	<line x1="22.64999999999999" y1="98.25" x2="20.519999999999992" y2="96.12" stroke-width="1" stroke="black" />
	<line x1="20.519999999999992" y1="96.12" x2="22.64999999999999" y2="93.99000000000001" stroke-width="1" stroke="black" />
	<line x1="22.64999999999999" y1="93.99000000000001" x2="25.64999999999999" y2="93.99000000000001" stroke-width="1" stroke="black" />
	<line x1="25.64999999999999" y1="93.99000000000001" x2="25.64999999999999" y2="90.99000000000001" stroke-width="1" stroke="black" />
	<line x1="25.64999999999999" y1="90.99000000000001" x2="23.519999999999992" y2="88.86000000000001" stroke-width="1" stroke="black" />
	<line x1="23.519999999999992" y1="88.86000000000001" x2="21.389999999999993" y2="86.73000000000002" stroke-width="1" stroke="black" />
	<line x1="21.389999999999993" y1="86.73000000000002" x2="21.389999999999993" y2="83.73000000000002" stroke-width="1" stroke="black" />
	<line x1="21.389999999999993" y1="83.73000000000002" x2="23.519999999999992" y2="81.60000000000002" stroke-width="1" stroke="black" />
	<line x1="23.519999999999992" y1="81.60000000000002" x2="25.64999999999999" y2="79.47000000000003" stroke-width="1" stroke="black" />
	<line x1="25.64999999999999" y1="79.47000000000003" x2="27.77999999999999" y2="81.60000000000002" stroke-width="1" stroke="black" />
	<line x1="27.77999999999999" y1="81.60000000000002" x2="27.77999999999999" y2="84.60000000000002" stroke-width="1" stroke="black" />
	<line x1="27.77999999999999" y1="84.60000000000002" x2="30.77999999999999" y2="84.60000000000002" stroke-width="1" stroke="black" />
	<line x1="30.77999999999999" y1="84.60000000000002" x2="32.90999999999999" y2="82.47000000000003" stroke-width="1" stroke="black" />
	<line x1="32.90999999999999" y1="82.47000000000003" x2="35.03999999999999" y2="80.34000000000003" stroke-width="1" stroke="black" />
	<line x1="35.03999999999999" y1="80.34000000000003" x2="35.03999999999999" y2="77.34000000000003" stroke-width="1" stroke="black" />
	<line x1="35.03999999999999" y1="77.34000000000003" x2="37.169999999999995" y2="75.21000000000004" stroke-width="1" stroke="black" />
	<line x1="37.169999999999995" y1="75.21000000000004" x2="39.3" y2="77.34000000000003" stroke-width="1" stroke="black" />
	<line x1="39.3" y1="77.34000000000003" x2="42.3" y2="77.34000000000003" stroke-width="1" stroke="black" />
	<line x1="42.3" y1="77.34000000000003" x2="42.3" y2="74.34000000000003" stroke-width="1" stroke="black" />
	<line x1="42.3" y1="74.34000000000003" x2="42.3" y2="71.34000000000003" stroke-width="1" stroke="black" />
	<line x1="42.3" y1="71.34000000000003" x2="40.169999999999995" y2="69.21000000000004" stroke-width="1" stroke="black" />
	<line x1="40.169999999999995" y1="69.21000000000004" x2="37.169999999999995" y2="69.21000000000004" stroke-width="1" stroke="black" />
	<line x1="37.169999999999995" y1="69.21000000000004" x2="35.03999999999999" y2="67.08000000000004" stroke-width="1" stroke="black" />
	<line x1="35.03999999999999" y1="67.08000000000004" x2="37.169999999999995" y2="64.95000000000005" stroke-width="1" stroke="black" />
	<line x1="37.169999999999995" y1="64.95000000000005" x2="37.169999999999995" y2="61.950000000000045" stroke-width="1" stroke="black" />
	<line x1="37.169999999999995" y1="61.950000000000045" x2="34.169999999999995" y2="61.950000000000045" stroke-width="1" stroke="black" />
	<line x1="34.169999999999995" y1="61.950000000000045" x2="31.169999999999995" y2="61.950000000000045" stroke-width="1" stroke="black" />
	<line x1="31.169999999999995" y1="61.950000000000045" x2="29.039999999999996" y2="64.08000000000004" stroke-width="1" stroke="black" />
	<line x1="29.039999999999996" y1="64.08000000000004" x2="26.039999999999996" y2="64.08000000000004" stroke-width="1" stroke="black" />
	<line x1="26.039999999999996" y1="64.08000000000004" x2="23.909999999999997" y2="61.95000000000004" stroke-width="1" stroke="black" />
	<line x1="23.909999999999997" y1="61.95000000000004" x2="26.039999999999996" y2="59.820000000000036" stroke-width="1" stroke="black" />
	<line x1="26.039999999999996" y1="59.820000000000036" x2="26.039999999999996" y2="56.820000000000036" stroke-width="1" stroke="black" />
	<line x1="26.039999999999996" y1="56.820000000000036" x2="23.039999999999996" y2="56.820000000000036" stroke-width="1" stroke="black" />
	<line x1="23.039999999999996" y1="56.820000000000036" x2="20.039999999999996" y2="56.820000000000036" stroke-width="1" stroke="black" />
	<line x1="20.039999999999996" y1="56.820000000000036" x2="17.909999999999997" y2="58.95000000000004" stroke-width="1" stroke="black" />
	<line x1="17.909999999999997" y1="58.95000000000004" x2="17.909999999999997" y2="61.95000000000004" stroke-width="1" stroke="black" />
	<line x1="17.909999999999997" y1="61.95000000000004" x2="15.779999999999998" y2="64.08000000000004" stroke-width="1" stroke="black" />
	<line x1="15.779999999999998" y1="64.08000000000004" x2="13.649999999999999" y2="66.21000000000004" stroke-width="1" stroke="black" />
	<line x1="13.649999999999999" y1="66.21000000000004" x2="11.52" y2="64.08000000000004" stroke-width="1" stroke="black" />
	<line x1="11.52" y1="64.08000000000004" x2="11.52" y2="61.08000000000004" stroke-width="1" stroke="black" />
	<line x1="11.52" y1="61.08000000000004" x2="8.52" y2="61.08000000000004" stroke-width="1" stroke="black" />
	<line x1="8.52" y1="61.08000000000004" x2="6.39" y2="63.21000000000004" stroke-width="1" stroke="black" />
	<line x1="6.39" y1="63.21000000000004" x2="4.26" y2="65.34000000000005" stroke-width="1" stroke="black" />
	<line x1="4.26" y1="65.34000000000005" x2="2.13" y2="63.21000000000004" stroke-width="1" stroke="black" />
	<line x1="2.13" y1="63.21000000000004" x2="4.26" y2="61.08000000000004" stroke-width="1" stroke="black" />
	<line x1="4.26" y1="61.08000000000004" x2="4.26" y2="58.08000000000004" stroke-width="1" stroke="black" />
	<line x1="4.26" y1="58.08000000000004" x2="1.2599999999999998" y2="58.08000000000004" stroke-width="1" stroke="black" />
	<line x1="1.2599999999999998" y1="58.08000000000004" x2="-1.7400000000000002" y2="58.08000000000004" stroke-width="1" stroke="black" />
	<line x1="-1.7400000000000002" y1="58.08000000000004" x2="-3.87" y2="60.21000000000004" stroke-width="1" stroke="black" />
	<line x1="-3.87" y1="60.21000000000004" x2="-3.87" y2="57.21000000000004" stroke-width="1" stroke="black" />
	<line x1="-3.87" y1="57.21000000000004" x2="-0.8700000000000001" y2="57.21000000000004" stroke-width="1" stroke="black" />
	<line x1="-0.8700000000000001" y1="57.21000000000004" x2="1.2599999999999998" y2="55.08000000000004" stroke-width="1" stroke="black" />
	<line x1="1.2599999999999998" y1="55.08000000000004" x2="-0.8700000000000001" y2="52.95000000000004" stroke-width="1" stroke="black" />
	<line x1="-0.8700000000000001" y1="52.95000000000004" x2="-3.0" y2="50.820000000000036" stroke-width="1" stroke="black" />
	<line x1="-3.0" y1="50.820000000000036" x2="-6.0" y2="50.820000000000036" stroke-width="1" stroke="black" />
	<line x1="-6.0" y1="50.820000000000036" x2="-8.129999999999999" y2="48.69000000000003" stroke-width="1" stroke="black" />
	<line x1="-8.129999999999999" y1="48.69000000000003" x2="-8.129999999999999" y2="45.69000000000003" stroke-width="1" stroke="black" />
	<line x1="-8.129999999999999" y1="45.69000000000003" x2="-8.129999999999999" y2="42.69000000000003" stroke-width="1" stroke="black" />
	<line x1="-8.129999999999999" y1="42.69000000000003" x2="-5.129999999999999" y2="42.69000000000003" stroke-width="1" stroke="black" />
	<line x1="-5.129999999999999" y1="42.69000000000003" x2="-2.999999999999999" y2="44.820000000000036" stroke-width="1" stroke="black" />
	<line x1="-2.999999999999999" y1="44.820000000000036" x2="-0.8699999999999992" y2="42.69000000000003" stroke-width="1" stroke="black" />
	<line x1="-0.8699999999999992" y1="42.69000000000003" x2="-0.8699999999999992" y2="39.69000000000003" stroke-width="1" stroke="black" />
	<line x1="-0.8699999999999992" y1="39.69000000000003" x2="-0.8699999999999992" y2="36.69000000000003" stroke-width="1" stroke="black" />
	<line x1="-0.8699999999999992" y1="36.69000000000003" x2="1.2600000000000007" y2="34.56000000000003" stroke-width="1" stroke="black" />
	<line x1="1.2600000000000007" y1="34.56000000000003" x2="4.260000000000001" y2="34.56000000000003" stroke-width="1" stroke="black" />
	<line x1="4.260000000000001" y1="34.56000000000003" x2="7.260000000000001" y2="34.56000000000003" stroke-width="1" stroke="black" />
	<line x1="7.260000000000001" y1="34.56000000000003" x2="7.260000000000001" y2="37.56000000000003" stroke-width="1" stroke="black" />
	<line x1="7.260000000000001" y1="37.56000000000003" x2="5.130000000000001" y2="39.69000000000003" stroke-width="1" stroke="black" />
	<line x1="5.130000000000001" y1="39.69000000000003" x2="7.260000000000001" y2="41.820000000000036" stroke-width="1" stroke="black" />
	<line x1="7.260000000000001" y1="41.820000000000036" x2="10.260000000000002" y2="41.820000000000036" stroke-width="1" stroke="black" />
	<line x1="10.260000000000002" y1="41.820000000000036" x2="13.260000000000002" y2="41.820000000000036" stroke-width="1" stroke="black" />
	<line x1="13.260000000000002" y1="41.820000000000036" x2="15.39" y2="39.69000000000003" stroke-width="1" stroke="black" />
	<line x1="15.39" y1="39.69000000000003" x2="18.39" y2="39.69000000000003" stroke-width="1" stroke="black" />
	<line x1="18.39" y1="39.69000000000003" x2="18.39" y2="42.69000000000003" stroke-width="1" stroke="black" />
	<line x1="18.39" y1="42.69000000000003" x2="20.52" y2="44.820000000000036" stroke-width="1" stroke="black" />
	<line x1="20.52" y1="44.820000000000036" x2="22.65" y2="42.69000000000003" stroke-width="1" stroke="black" />
	<line x1="22.65" y1="42.69000000000003" x2="24.779999999999998" y2="40.56000000000003" stroke-width="1" stroke="black" />
	<line x1="24.779999999999998" y1="40.56000000000003" x2="24.779999999999998" y2="37.56000000000003" stroke-width="1" stroke="black" />
	<line x1="24.779999999999998" y1="37.56000000000003" x2="22.65" y2="35.43000000000003" stroke-width="1" stroke="black" />
	<line x1="22.65" y1="35.43000000000003" x2="22.65" y2="32.43000000000003" stroke-width="1" stroke="black" />
	<line x1="22.65" y1="32.43000000000003" x2="25.65" y2="32.43000000000003" stroke-width="1" stroke="black" />
	<line x1="25.65" y1="32.43000000000003" x2="27.779999999999998" y2="30.30000000000003" stroke-width="1" stroke="black" />
	<line x1="27.779999999999998" y1="30.30000000000003" x2="25.65" y2="28.17000000000003" stroke-width="1" stroke="black" />
	<line x1="25.65" y1="28.17000000000003" x2="23.52" y2="26.04000000000003" stroke-width="1" stroke="black" />
	<line x1="23.52" y1="26.04000000000003" x2="20.52" y2="26.04000000000003" stroke-width="1" stroke="black" />
	<line x1="20.52" y1="26.04000000000003" x2="18.39" y2="23.910000000000032" stroke-width="1" stroke="black" />
	<line x1="18.39" y1="23.910000000000032" x2="18.39" y2="20.910000000000032" stroke-width="1" stroke="black" />
	<line x1="18.39" y1="20.910000000000032" x2="21.39" y2="20.910000000000032" stroke-width="1" stroke="black" />
	<line x1="21.39" y1="20.910000000000032" x2="23.52" y2="18.780000000000033" stroke-width="1" stroke="black" />
	<line x1="23.52" y1="18.780000000000033" x2="21.39" y2="16.650000000000034" stroke-width="1" stroke="black" />
	<line x1="21.39" y1="16.650000000000034" x2="19.26" y2="14.520000000000035" stroke-width="1" stroke="black" />
	<line x1="19.26" y1="14.520000000000035" x2="16.26" y2="14.520000000000035" stroke-width="1" stroke="black" />
	<line x1="16.26" y1="14.520000000000035" x2="14.130000000000003" y2="16.650000000000034" stroke-width="1" stroke="black" />
	<line x1="14.130000000000003" y1="16.650000000000034" x2="11.130000000000003" y2="16.650000000000034" stroke-width="1" stroke="black" />
	<line x1="11.130000000000003" y1="16.650000000000034" x2="8.130000000000003" y2="16.650000000000034" stroke-width="1" stroke="black" />
	<line x1="8.130000000000003" y1="16.650000000000034" x2="8.130000000000003" y2="13.650000000000034" stroke-width="1" stroke="black" />
	<line x1="8.130000000000003" y1="13.650000000000034" x2="10.260000000000002" y2="11.520000000000035" stroke-width="1" stroke="black" />
	<line x1="10.260000000000002" y1="11.520000000000035" x2="8.130000000000003" y2="9.390000000000036" stroke-width="1" stroke="black" />
	<line x1="8.130000000000003" y1="9.390000000000036" x2="5.130000000000003" y2="9.390000000000036" stroke-width="1" stroke="black" />
	<line x1="5.130000000000003" y1="9.390000000000036" x2="2.1300000000000026" y2="9.390000000000036" stroke-width="1" stroke="black" />
	<line x1="2.1300000000000026" y1="9.390000000000036" x2="2.1300000000000026" y2="6.390000000000036" stroke-width="1" stroke="black" />
	<line x1="2.1300000000000026" y1="6.390000000000036" x2="5.130000000000003" y2="6.390000000000036" stroke-width="1" stroke="black" />
	<line x1="5.130000000000003" y1="6.390000000000036" x2="7.2600000000000025" y2="4.260000000000036" stroke-width="1" stroke="black" />
	<line x1="7.2600000000000025" y1="4.260000000000036" x2="5.130000000000003" y2="2.1300000000000363" stroke-width="1" stroke="black" />
	<line x1="5.130000000000003" y1="2.1300000000000363" x2="3.0000000000000027" y2="3.6415315207705135e-14" stroke-width="1" stroke="black" />
	<line x1="3.0000000000000027" y1="3.6415315207705135e-14" x2="2.6645352591003757e-15" y2="3.6415315207705135e-14" stroke-width="1" stroke="black" />
</svg>
