<svg viewBox="-500 -500 1024 768" xmlns="http://www.w3.org/2000/svg">
	<line x1="0" y1="0" x2="-2.13" y2="-2.13" stroke-width="1" stroke="black" />
	<line x1="-2.13" y1="-2.13" x2="0.0" y2="-4.26" stroke-width="1" stroke="black" />
	<line x1="0.0" y1="-4.26" x2="2.13" y2="-6.39" stroke-width="1" stroke="black" />
	<line x1="2.13" y1="-6.39" x2="4.26" y2="-4.26" stroke-width="1" stroke="black" />
	<line x1="4.26" y1="-4.26" x2="6.39" y2="-6.39" stroke-width="1" stroke="black" />
	<line x1="6.39" y1="-6.39" x2="8.52" y2="-4.26" stroke-width="1" stroke="black" />
	<line x1="8.52" y1="-4.26" x2="10.649999999999999" y2="-2.13" stroke-width="1" stroke="black" />
	<line x1="10.649999999999999" y1="-2.13" x2="8.52" y2="0.0" stroke-width="1" stroke="black" />
	<line x1="8.52" y1="0.0" x2="10.649999999999999" y2="-2.13" stroke-width="1" stroke="black" />
	<line x1="10.649999999999999" y1="-2.13" x2="12.779999999999998" y2="0.0" stroke-width="1" stroke="black" />
	<line x1="12.779999999999998" y1="0.0" x2="14.909999999999997" y2="2.13" stroke-width="1" stroke="black" />
	<line x1="14.909999999999997" y1="2.13" x2="12.779999999999998" y2="4.26" stroke-width="1" stroke="black" />
	<line x1="12.779999999999998" y1="4.26" x2="14.909999999999997" y2="6.39" stroke-width="1" stroke="black" />
	<line x1="14.909999999999997" y1="6.39" x2="12.779999999999998" y2="8.52" stroke-width="1" stroke="black" />
	<line x1="12.779999999999998" y1="8.52" x2="10.649999999999999" y2="10.649999999999999" stroke-width="1" stroke="black" />
	<line x1="10.649999999999999" y1="10.649999999999999" x2="8.52" y2="8.52" stroke-width="1" stroke="black" />
	<line x1="8.52" y1="8.52" x2="10.649999999999999" y2="6.39" stroke-width="1" stroke="black" />
	<line x1="10.649999999999999" y1="6.39" x2="12.779999999999998" y2="8.52" stroke-width="1" stroke="black" />
	<line x1="12.779999999999998" y1="8.52" x2="14.909999999999997" y2="10.649999999999999" stroke-width="1" stroke="black" />
	<line x1="14.909999999999997" y1="10.649999999999999" x2="12.779999999999998" y2="12.779999999999998" stroke-width="1" stroke="black" />
	<line x1="12.779999999999998" y1="12.779999999999998" x2="14.909999999999997" y2="14.909999999999997" stroke-width="1" stroke="black" />
	<line x1="14.909999999999997" y1="14.909999999999997" x2="12.779999999999998" y2="17.039999999999996" stroke-width="1" stroke="black" />
	<line x1="12.779999999999998" y1="17.039999999999996" x2="10.649999999999999" y2="19.169999999999995" stroke-width="1" stroke="black" />
	<line x1="10.649999999999999" y1="19.169999999999995" x2="8.52" y2="17.039999999999996" stroke-width="1" stroke="black" />
	<line x1="8.52" y1="17.039999999999996" x2="10.649999999999999" y2="19.169999999999995" stroke-width="1" stroke="black" />
	<line x1="10.649999999999999" y1="19.169999999999995" x2="8.52" y2="21.299999999999994" stroke-width="1" stroke="black" />
	<line x1="8.52" y1="21.299999999999994" x2="6.39" y2="23.429999999999993" stroke-width="1" stroke="black" />
	<line x1="6.39" y1="23.429999999999993" x2="4.26" y2="21.299999999999994" stroke-width="1" stroke="black" />
	<line x1="4.26" y1="21.299999999999994" x2="2.13" y2="23.429999999999993" stroke-width="1" stroke="black" />
	<line x1="2.13" y1="23.429999999999993" x2="0.0" y2="21.299999999999994" stroke-width="1" stroke="black" />
	<line x1="0.0" y1="21.299999999999994" x2="-2.13" y2="19.169999999999995" stroke-width="1" stroke="black" />
	<line x1="-2.13" y1="19.169999999999995" x2="0.0" y2="17.039999999999996" stroke-width="1" stroke="black" />
	<line x1="0.0" y1="17.039999999999996" x2="2.13" y2="14.909999999999997" stroke-width="1" stroke="black" />
	<line x1="2.13" y1="14.909999999999997" x2="4.26" y2="17.039999999999996" stroke-width="1" stroke="black" />
	<line x1="4.26" y1="17.039999999999996" x2="6.39" y2="19.169999999999995" stroke-width="1" stroke="black" />
	<line x1="6.39" y1="19.169999999999995" x2="4.26" y2="21.299999999999994" stroke-width="1" stroke="black" />
	<line x1="4.26" y1="21.299999999999994" x2="6.39" y2="23.429999999999993" stroke-width="1" stroke="black" />
	<line x1="6.39" y1="23.429999999999993" x2="4.26" y2="25.55999999999999" stroke-width="1" stroke="black" />
	<line x1="4.26" y1="25.55999999999999" x2="2.13" y2="27.68999999999999" stroke-width="1" stroke="black" />
	<line x1="2.13" y1="27.68999999999999" x2="0.0" y2="25.55999999999999" stroke-width="1" stroke="black" />
	<line x1="0.0" y1="25.55999999999999" x2="2.13" y2="27.68999999999999" stroke-width="1" stroke="black" />
	<line x1="2.13" y1="27.68999999999999" x2="0.0" y2="29.81999999999999" stroke-width="1" stroke="black" />
	<line x1="0.0" y1="29.81999999999999" x2="-2.13" y2="31.94999999999999" stroke-width="1" stroke="black" />
	<line x1="-2.13" y1="31.94999999999999" x2="-4.26" y2="29.81999999999999" stroke-width="1" stroke="black" />
	<line x1="-4.26" y1="29.81999999999999" x2="-6.39" y2="31.94999999999999" stroke-width="1" stroke="black" />
	<line x1="-6.39" y1="31.94999999999999" x2="-8.52" y2="29.81999999999999" stroke-width="1" stroke="black" />
	<line x1="-8.52" y1="29.81999999999999" x2="-10.649999999999999" y2="27.68999999999999" stroke-width="1" stroke="black" />
	<line x1="-10.649999999999999" y1="27.68999999999999" x2="-8.52" y2="25.55999999999999" stroke-width="1" stroke="black" />
	<line x1="-8.52" y1="25.55999999999999" x2="-6.39" y2="27.68999999999999" stroke-width="1" stroke="black" />
	<line x1="-6.39" y1="27.68999999999999" x2="-8.52" y2="29.81999999999999" stroke-width="1" stroke="black" />
	<line x1="-8.52" y1="29.81999999999999" x2="-10.649999999999999" y2="31.94999999999999" stroke-width="1" stroke="black" />
	<line x1="-10.649999999999999" y1="31.94999999999999" x2="-12.779999999999998" y2="29.81999999999999" stroke-width="1" stroke="black" />
	<line x1="-12.779999999999998" y1="29.81999999999999" x2="-14.909999999999997" y2="31.94999999999999" stroke-width="1" stroke="black" />
	<line x1="-14.909999999999997" y1="31.94999999999999" x2="-17.039999999999996" y2="29.81999999999999" stroke-width="1" stroke="black" />
	<line x1="-17.039999999999996" y1="29.81999999999999" x2="-19.169999999999995" y2="27.68999999999999" stroke-width="1" stroke="black" />
	<line x1="-19.169999999999995" y1="27.68999999999999" x2="-17.039999999999996" y2="25.55999999999999" stroke-width="1" stroke="black" />
	<line x1="-17.039999999999996" y1="25.55999999999999" x2="-19.169999999999995" y2="27.68999999999999" stroke-width="1" stroke="black" />
	<line x1="-19.169999999999995" y1="27.68999999999999" x2="-21.299999999999994" y2="25.55999999999999" stroke-width="1" stroke="black" />
	<line x1="-21.299999999999994" y1="25.55999999999999" x2="-23.429999999999993" y2="23.429999999999993" stroke-width="1" stroke="black" />
	<line x1="-23.429999999999993" y1="23.429999999999993" x2="-21.299999999999994" y2="21.299999999999994" stroke-width="1" stroke="black" />
	<line x1="-21.299999999999994" y1="21.299999999999994" x2="-23.429999999999993" y2="19.169999999999995" stroke-width="1" stroke="black" />
	<line x1="-23.429999999999993" y1="19.169999999999995" x2="-21.299999999999994" y2="17.039999999999996" stroke-width="1" stroke="black" />
	<line x1="-21.299999999999994" y1="17.039999999999996" x2="-19.169999999999995" y2="14.909999999999997" stroke-width="1" stroke="black" />
	<line x1="-19.169999999999995" y1="14.909999999999997" x2="-17.039999999999996" y2="17.039999999999996" stroke-width="1" stroke="black" />
	<line x1="-17.039999999999996" y1="17.039999999999996" x2="-14.909999999999997" y2="14.909999999999997" stroke-width="1" stroke="black" />
	<line x1="-14.909999999999997" y1="14.909999999999997" x2="-12.779999999999998" y2="17.039999999999996" stroke-width="1" stroke="black" />
	<line x1="-12.779999999999998" y1="17.039999999999996" x2="-10.649999999999999" y2="19.169999999999995" stroke-width="1" stroke="black" />
	<line x1="-10.649999999999999" y1="19.169999999999995" x2="-12.779999999999998" y2="21.299999999999994" stroke-width="1" stroke="black" />
	<line x1="-12.779999999999998" y1="21.299999999999994" x2="-10.649999999999999" y2="23.429999999999993" stroke-width="1" stroke="black" />
	<line x1="-10.649999999999999" y1="23.429999999999993" x2="-12.779999999999998" y2="25.55999999999999" stroke-width="1" stroke="black" />
	<line x1="-12.779999999999998" y1="25.55999999999999" x2="-14.909999999999997" y2="27.68999999999999" stroke-width="1" stroke="black" />
	<line x1="-14.909999999999997" y1="27.68999999999999" x2="-17.039999999999996" y2="25.55999999999999" stroke-width="1" stroke="black" />
	<line x1="-17.039999999999996" y1="25.55999999999999" x2="-14.909999999999997" y2="27.68999999999999" stroke-width="1" stroke="black" />
	<line x1="-14.909999999999997" y1="27.68999999999999" x2="-17.039999999999996" y2="29.81999999999999" stroke-width="1" stroke="black" />
	<line x1="-17.039999999999996" y1="29.81999999999999" x2="-19.169999999999995" y2="31.94999999999999" stroke-width="1" stroke="black" />
	<line x1="-19.169999999999995" y1="31.94999999999999" x2="-21.299999999999994" y2="29.81999999999999" stroke-width="1" stroke="black" />
	<line x1="-21.299999999999994" y1="29.81999999999999" x2="-23.429999999999993" y2="31.94999999999999" stroke-width="1" stroke="black" />
	<line x1="-23.429999999999993" y1="31.94999999999999" x2="-25.55999999999999" y2="29.81999999999999" stroke-width="1" stroke="black" />
	<line x1="-25.55999999999999" y1="29.81999999999999" x2="-27.68999999999999" y2="27.68999999999999" stroke-width="1" stroke="black" />
	<line x1="-27.68999999999999" y1="27.68999999999999" x2="-25.55999999999999" y2="25.55999999999999" stroke-width="1" stroke="black" />
	<line x1="-25.55999999999999" y1="25.55999999999999" x2="-23.429999999999993" y2="27.68999999999999" stroke-width="1" stroke="black" />
	<line x1="-23.429999999999993" y1="27.68999999999999" x2="-25.55999999999999" y2="29.81999999999999" stroke-width="1" stroke="black" />
	<line x1="-25.55999999999999" y1="29.81999999999999" x2="-27.68999999999999" y2="31.94999999999999" stroke-width="1" stroke="black" />
	<line x1="-27.68999999999999" y1="31.94999999999999" x2="-29.81999999999999" y2="29.81999999999999" stroke-width="1" stroke="black" />
	<line x1="-29.81999999999999" y1="29.81999999999999" x2="-31.94999999999999" y2="31.94999999999999" stroke-width="1" stroke="black" />
	<line x1="-31.94999999999999" y1="31.94999999999999" x2="-34.07999999999999" y2="29.81999999999999" stroke-width="1" stroke="black" />
	<line x1="-34.07999999999999" y1="29.81999999999999" x2="-36.209999999999994" y2="27.68999999999999" stroke-width="1" stroke="black" />
	<line x1="-36.209999999999994" y1="27.68999999999999" x2="-34.07999999999999" y2="25.55999999999999" stroke-width="1" stroke="black" />
	<line x1="-34.07999999999999" y1="25.55999999999999" x2="-36.209999999999994" y2="27.68999999999999" stroke-width="1" stroke="black" />
	<line x1="-36.209999999999994" y1="27.68999999999999" x2="-38.339999999999996" y2="25.55999999999999" stroke-width="1" stroke="black" />
	<line x1="-38.339999999999996" y1="25.55999999999999" x2="-40.47" y2="23.429999999999993" stroke-width="1" stroke="black" />
	<line x1="-40.47" y1="23.429999999999993" x2="-38.339999999999996" y2="21.299999999999994" stroke-width="1" stroke="black" />
	<line x1="-38.339999999999996" y1="21.299999999999994" x2="-40.47" y2="19.169999999999995" stroke-width="1" stroke="black" />
	<line x1="-40.47" y1="19.169999999999995" x2="-38.339999999999996" y2="17.039999999999996" stroke-width="1" stroke="black" />
	<line x1="-38.339999999999996" y1="17.039999999999996" x2="-36.209999999999994" y2="14.909999999999997" stroke-width="1" stroke="black" />
	<line x1="-36.209999999999994" y1="14.909999999999997" x2="-34.07999999999999" y2="17.039999999999996" stroke-width="1" stroke="black" />
	<line x1="-34.07999999999999" y1="17.039999999999996" x2="-31.949999999999992" y2="19.169999999999995" stroke-width="1" stroke="black" />
	<line x1="-31.949999999999992" y1="19.169999999999995" x2="-34.07999999999999" y2="21.299999999999994" stroke-width="1" stroke="black" />
	<line x1="-34.07999999999999" y1="21.299999999999994" x2="-36.209999999999994" y2="23.429999999999993" stroke-width="1" stroke="black" />
	<line x1="-36.209999999999994" y1="23.429999999999993" x2="-38.339999999999996" y2="21.299999999999994" stroke-width="1" stroke="black" />
	<line x1="-38.339999999999996" y1="21.299999999999994" x2="-40.47" y2="23.429999999999993" stroke-width="1" stroke="black" />
	<line x1="-40.47" y1="23.429999999999993" x2="-42.6" y2="21.299999999999994" stroke-width="1" stroke="black" />
	<line x1="-42.6" y1="21.299999999999994" x2="-44.730000000000004" y2="19.169999999999995" stroke-width="1" stroke="black" />
	<line x1="-44.730000000000004" y1="19.169999999999995" x2="-42.6" y2="17.039999999999996" stroke-width="1" stroke="black" />
	<line x1="-42.6" y1="17.039999999999996" x2="-44.730000000000004" y2="19.169999999999995" stroke-width="1" stroke="black" />
	<line x1="-44.730000000000004" y1="19.169999999999995" x2="-46.86000000000001" y2="17.039999999999996" stroke-width="1" stroke="black" />
	<line x1="-46.86000000000001" y1="17.039999999999996" x2="-48.99000000000001" y2="14.909999999999997" stroke-width="1" stroke="black" />
	<line x1="-48.99000000000001" y1="14.909999999999997" x2="-46.86000000000001" y2="12.779999999999998" stroke-width="1" stroke="black" />
	<line x1="-46.86000000000001" y1="12.779999999999998" x2="-48.99000000000001" y2="10.649999999999999" stroke-width="1" stroke="black" />
	<line x1="-48.99000000000001" y1="10.649999999999999" x2="-46.86000000000001" y2="8.52" stroke-width="1" stroke="black" />
	<line x1="-46.86000000000001" y1="8.52" x2="-44.730000000000004" y2="6.39" stroke-width="1" stroke="black" />
	<line x1="-44.730000000000004" y1="6.39" x2="-42.6" y2="8.52" stroke-width="1" stroke="black" />
	<line x1="-42.6" y1="8.52" x2="-44.730000000000004" y2="10.649999999999999" stroke-width="1" stroke="black" />
	<line x1="-44.730000000000004" y1="10.649999999999999" x2="-46.86000000000001" y2="8.52" stroke-width="1" stroke="black" />
	<line x1="-46.86000000000001" y1="8.52" x2="-48.99000000000001" y2="6.39" stroke-width="1" stroke="black" />
	<line x1="-48.99000000000001" y1="6.39" x2="-46.86000000000001" y2="4.26" stroke-width="1" stroke="black" />
	<line x1="-46.86000000000001" y1="4.26" x2="-48.99000000000001" y2="2.13" stroke-width="1" stroke="black" />
	<line x1="-48.99000000000001" y1="2.13" x2="-46.86000000000001" y2="0.0" stroke-width="1" stroke="black" />
	<line x1="-46.86000000000001" y1="0.0" x2="-44.730000000000004" y2="-2.13" stroke-width="1" stroke="black" />
	<line x1="-44.730000000000004" y1="-2.13" x2="-42.6" y2="0.0" stroke-width="1" stroke="black" />
	<line x1="-42.6" y1="0.0" x2="-44.730000000000004" y2="-2.13" stroke-width="1" stroke="black" />
	<line x1="-44.730000000000004" y1="-2.13" x2="-42.6" y2="-4.26" stroke-width="1" stroke="black" />
	<line x1="-42.6" y1="-4.26" x2="-40.47" y2="-6.39" stroke-width="1" stroke="black" />
	<line x1="-40.47" y1="-6.39" x2="-38.339999999999996" y2="-4.26" stroke-width="1" stroke="black" />
	<line x1="-38.339999999999996" y1="-4.26" x2="-36.209999999999994" y2="-6.39" stroke-width="1" stroke="black" />
	<line x1="-36.209999999999994" y1="-6.39" x2="-34.07999999999999" y2="-4.26" stroke-width="1" stroke="black" />
	<line x1="-34.07999999999999" y1="-4.26" x2="-31.949999999999992" y2="-2.13" stroke-width="1" stroke="black" />
	<line x1="-31.949999999999992" y1="-2.13" x2="-34.07999999999999" y2="0.0" stroke-width="1" stroke="black" />
	<line x1="-34.07999999999999" y1="0.0" x2="-31.949999999999992" y2="-2.13" stroke-width="1" stroke="black" />
	<line x1="-31.949999999999992" y1="-2.13" x2="-29.819999999999993" y2="0.0" stroke-width="1" stroke="black" />
	<line x1="-29.819999999999993" y1="0.0" x2="-27.689999999999994" y2="2.13" stroke-width="1" stroke="black" />
	<line x1="-27.689999999999994" y1="2.13" x2="-29.819999999999993" y2="4.26" stroke-width="1" stroke="black" />
	<line x1="-29.819999999999993" y1="4.26" x2="-27.689999999999994" y2="6.39" stroke-width="1" stroke="black" />
	<line x1="-27.689999999999994" y1="6.39" x2="-29.819999999999993" y2="8.52" stroke-width="1" stroke="black" />
	<line x1="-29.819999999999993" y1="8.52" x2="-31.949999999999992" y2="10.649999999999999" stroke-width="1" stroke="black" />
	<line x1="-31.949999999999992" y1="10.649999999999999" x2="-34.07999999999999" y2="8.52" stroke-width="1" stroke="black" />
	<line x1="-34.07999999999999" y1="8.52" x2="-31.949999999999992" y2="10.649999999999999" stroke-width="1" stroke="black" />
	<line x1="-31.949999999999992" y1="10.649999999999999" x2="-34.07999999999999" y2="12.779999999999998" stroke-width="1" stroke="black" />
	<line x1="-34.07999999999999" y1="12.779999999999998" x2="-36.209999999999994" y2="14.909999999999997" stroke-width="1" stroke="black" />
	<line x1="-36.209999999999994" y1="14.909999999999997" x2="-38.339999999999996" y2="12.779999999999998" stroke-width="1" stroke="black" />
	<line x1="-38.339999999999996" y1="12.779999999999998" x2="-40.47" y2="14.909999999999997" stroke-width="1" stroke="black" />
	<line x1="-40.47" y1="14.909999999999997" x2="-42.6" y2="12.779999999999998" stroke-width="1" stroke="black" />
	<line x1="-42.6" y1="12.779999999999998" x2="-44.730000000000004" y2="10.649999999999999" stroke-width="1" stroke="black" />
	<line x1="-44.730000000000004" y1="10.649999999999999" x2="-42.6" y2="8.52" stroke-width="1" stroke="black" />
	<line x1="-42.6" y1="8.52" x2="-40.47" y2="10.649999999999999" stroke-width="1" stroke="black" />
	<line x1="-40.47" y1="10.649999999999999" x2="-42.6" y2="12.779999999999998" stroke-width="1" stroke="black" />
	<line x1="-42.6" y1="12.779999999999998" x2="-44.730000000000004" y2="14.909999999999997" stroke-width="1" stroke="black" />
	<line x1="-44.730000000000004" y1="14.909999999999997" x2="-46.86000000000001" y2="12.779999999999998" stroke-width="1" stroke="black" />
	<line x1="-46.86000000000001" y1="12.779999999999998" x2="-48.99000000000001" y2="14.909999999999997" stroke-width="1" stroke="black" />
	<line x1="-48.99000000000001" y1="14.909999999999997" x2="-51.12000000000001" y2="12.779999999999998" stroke-width="1" stroke="black" />
	<line x1="-51.12000000000001" y1="12.779999999999998" x2="-53.250000000000014" y2="10.649999999999999" stroke-width="1" stroke="black" />
	<line x1="-53.250000000000014" y1="10.649999999999999" x2="-51.12000000000001" y2="8.52" stroke-width="1" stroke="black" />
	<line x1="-51.12000000000001" y1="8.52" x2="-53.250000000000014" y2="10.649999999999999" stroke-width="1" stroke="black" />
	<line x1="-53.250000000000014" y1="10.649999999999999" x2="-55.38000000000002" y2="8.52" stroke-width="1" stroke="black" />
	<line x1="-55.38000000000002" y1="8.52" x2="-57.51000000000002" y2="6.39" stroke-width="1" stroke="black" />
	<line x1="-57.51000000000002" y1="6.39" x2="-55.38000000000002" y2="4.26" stroke-width="1" stroke="black" />
	<line x1="-55.38000000000002" y1="4.26" x2="-57.51000000000002" y2="2.13" stroke-width="1" stroke="black" />
	<line x1="-57.51000000000002" y1="2.13" x2="-55.38000000000002" y2="0.0" stroke-width="1" stroke="black" />
	<line x1="-55.38000000000002" y1="0.0" x2="-53.250000000000014" y2="-2.13" stroke-width="1" stroke="black" />
	<line x1="-53.250000000000014" y1="-2.13" x2="-51.12000000000001" y2="0.0" stroke-width="1" stroke="black" />
	<line x1="-51.12000000000001" y1="0.0" x2="-48.99000000000001" y2="2.13" stroke-width="1" stroke="black" />
	<line x1="-48.99000000000001" y1="2.13" x2="-51.12000000000001" y2="4.26" stroke-width="1" stroke="black" />
	<line x1="-51.12000000000001" y1="4.26" x2="-53.250000000000014" y2="6.39" stroke-width="1" stroke="black" />
	<line x1="-53.250000000000014" y1="6.39" x2="-55.38000000000002" y2="4.26" stroke-width="1" stroke="black" />
	<line x1="-55.38000000000002" y1="4.26" x2="-57.51000000000002" y2="6.39" stroke-width="1" stroke="black" />
	<line x1="-57.51000000000002" y1="6.39" x2="-59.64000000000002" y2="4.26" stroke-width="1" stroke="black" />
	<line x1="-59.64000000000002" y1="4.26" x2="-61.770000000000024" y2="2.13" stroke-width="1" stroke="black" />
	<line x1="-61.770000000000024" y1="2.13" x2="-59.64000000000002" y2="0.0" stroke-width="1" stroke="black" />
	<line x1="-59.64000000000002" y1="0.0" x2="-61.770000000000024" y2="2.13" stroke-width="1" stroke="black" />
	<line x1="-61.770000000000024" y1="2.13" x2="-63.90000000000003" y2="0.0" stroke-width="1" stroke="black" />
	<line x1="-63.90000000000003" y1="0.0" x2="-66.03000000000003" y2="-2.13" stroke-width="1" stroke="black" />
	<line x1="-66.03000000000003" y1="-2.13" x2="-63.90000000000003" y2="-4.26" stroke-width="1" stroke="black" />
	<line x1="-63.90000000000003" y1="-4.26" x2="-66.03000000000003" y2="-6.39" stroke-width="1" stroke="black" />
	<line x1="-66.03000000000003" y1="-6.39" x2="-63.90000000000003" y2="-8.52" stroke-width="1" stroke="black" />
	<line x1="-63.90000000000003" y1="-8.52" x2="-61.770000000000024" y2="-10.649999999999999" stroke-width="1" stroke="black" />
	<line x1="-61.770000000000024" y1="-10.649999999999999" x2="-59.64000000000002" y2="-8.52" stroke-width="1" stroke="black" />
	<line x1="-59.64000000000002" y1="-8.52" x2="-61.770000000000024" y2="-6.39" stroke-width="1" stroke="black" />
	<line x1="-61.770000000000024" y1="-6.39" x2="-63.90000000000003" y2="-8.52" stroke-width="1" stroke="black" />
	<line x1="-63.90000000000003" y1="-8.52" x2="-66.03000000000003" y2="-10.649999999999999" stroke-width="1" stroke="black" />
	<line x1="-66.03000000000003" y1="-10.649999999999999" x2="-63.90000000000003" y2="-12.779999999999998" stroke-width="1" stroke="black" />
	<line x1="-63.90000000000003" y1="-12.779999999999998" x2="-66.03000000000003" y2="-14.909999999999997" stroke-width="1" stroke="black" />
	<line x1="-66.03000000000003" y1="-14.909999999999997" x2="-63.90000000000003" y2="-17.039999999999996" stroke-width="1" stroke="black" />
	<line x1="-63.90000000000003" y1="-17.039999999999996" x2="-61.770000000000024" y2="-19.169999999999995" stroke-width="1" stroke="black" />
	<line x1="-61.770000000000024" y1="-19.169999999999995" x2="-59.64000000000002" y2="-17.039999999999996" stroke-width="1" stroke="black" />
	<line x1="-59.64000000000002" y1="-17.039999999999996" x2="-61.770000000000024" y2="-19.169999999999995" stroke-width="1" stroke="black" />
	<line x1="-61.770000000000024" y1="-19.169999999999995" x2="-59.64000000000002" y2="-21.299999999999994" stroke-width="1" stroke="black" />
	<line x1="-59.64000000000002" y1="-21.299999999999994" x2="-57.51000000000002" y2="-23.429999999999993" stroke-width="1" stroke="black" />
	<line x1="-57.51000000000002" y1="-23.429999999999993" x2="-55.38000000000002" y2="-21.299999999999994" stroke-width="1" stroke="black" />
	<line x1="-55.38000000000002" y1="-21.299999999999994" x2="-53.250000000000014" y2="-23.429999999999993" stroke-width="1" stroke="black" />
	<line x1="-53.250000000000014" y1="-23.429999999999993" x2="-51.12000000000001" y2="-21.299999999999994" stroke-width="1" stroke="black" />
	<line x1="-51.12000000000001" y1="-21.299999999999994" x2="-48.99000000000001" y2="-19.169999999999995" stroke-width="1" stroke="black" />
	<line x1="-48.99000000000001" y1="-19.169999999999995" x2="-51.12000000000001" y2="-17.039999999999996" stroke-width="1" stroke="black" />
	<line x1="-51.12000000000001" y1="-17.039999999999996" x2="-48.99000000000001" y2="-14.909999999999997" stroke-width="1" stroke="black" />
	<line x1="-48.99000000000001" y1="-14.909999999999997" x2="-51.12000000000001" y2="-12.779999999999998" stroke-width="1" stroke="black" />
	<line x1="-51.12000000000001" y1="-12.779999999999998" x2="-53.250000000000014" y2="-10.649999999999999" stroke-width="1" stroke="black" />
	<line x1="-53.250000000000014" y1="-10.649999999999999" x2="-55.38000000000002" y2="-12.779999999999998" stroke-width="1" stroke="black" />
	<line x1="-55.38000000000002" y1="-12.779999999999998" x2="-57.51000000000002" y2="-10.649999999999999" stroke-width="1" stroke="black" />
	<line x1="-57.51000000000002" y1="-10.649999999999999" x2="-59.64000000000002" y2="-12.779999999999998" stroke-width="1" stroke="black" />
	<line x1="-59.64000000000002" y1="-12.779999999999998" x2="-61.770000000000024" y2="-14.909999999999997" stroke-width="1" stroke="black" />
	<line x1="-61.770000000000024" y1="-14.909999999999997" x2="-59.64000000000002" y2="-17.039999999999996" stroke-width="1" stroke="black" />
	<line x1="-59.64000000000002" y1="-17.039999999999996" x2="-61.770000000000024" y2="-14.909999999999997" stroke-width="1" stroke="black" />
	<line x1="-61.770000000000024" y1="-14.909999999999997" x2="-63.90000000000003" y2="-17.039999999999996" stroke-width="1" stroke="black" />
	<line x1="-63.90000000000003" y1="-17.039999999999996" x2="-66.03000000000003" y2="-19.169999999999995" stroke-width="1" stroke="black" />
	<line x1="-66.03000000000003" y1="-19.169999999999995" x2="-63.90000000000003" y2="-21.299999999999994" stroke-width="1" stroke="black" />
	<line x1="-63.90000000000003" y1="-21.299999999999994" x2="-66.03000000000003" y2="-23.429999999999993" stroke-width="1" stroke="black" />
	<line x1="-66.03000000000003" y1="-23.429999999999993" x2="-63.90000000000003" y2="-25.55999999999999" stroke-width="1" stroke="black" />
	<line x1="-63.90000000000003" y1="-25.55999999999999" x2="-61.770000000000024" y2="-27.68999999999999" stroke-width="1" stroke="black" />
	<line x1="-61.770000000000024" y1="-27.68999999999999" x2="-59.64000000000002" y2="-25.55999999999999" stroke-width="1" stroke="black" />
	<line x1="-59.64000000000002" y1="-25.55999999999999" x2="-61.770000000000024" y2="-23.429999999999993" stroke-width="1" stroke="black" />
	<line x1="-61.770000000000024" y1="-23.429999999999993" x2="-63.90000000000003" y2="-25.55999999999999" stroke-width="1" stroke="black" />
	<line x1="-63.90000000000003" y1="-25.55999999999999" x2="-66.03000000000003" y2="-27.68999999999999" stroke-width="1" stroke="black" />
	<line x1="-66.03000000000003" y1="-27.68999999999999" x2="-63.90000000000003" y2="-29.81999999999999" stroke-width="1" stroke="black" />
	<line x1="-63.90000000000003" y1="-29.81999999999999" x2="-66.03000000000003" y2="-31.94999999999999" stroke-width="1" stroke="black" />
	<line x1="-66.03000000000003" y1="-31.94999999999999" x2="-63.90000000000003" y2="-34.07999999999999" stroke-width="1" stroke="black" />
	<line x1="-63.90000000000003" y1="-34.07999999999999" x2="-61.770000000000024" y2="-36.209999999999994" stroke-width="1" stroke="black" />
	<line x1="-61.770000000000024" y1="-36.209999999999994" x2="-59.64000000000002" y2="-34.07999999999999" stroke-width="1" stroke="black" />
	<line x1="-59.64000000000002" y1="-34.07999999999999" x2="-61.770000000000024" y2="-36.209999999999994" stroke-width="1" stroke="black" />
	<line x1="-61.770000000000024" y1="-36.209999999999994" x2="-59.64000000000002" y2="-38.339999999999996" stroke-width="1" stroke="black" />
	<line x1="-59.64000000000002" y1="-38.339999999999996" x2="-57.51000000000002" y2="-40.47" stroke-width="1" stroke="black" />
	<line x1="-57.51000000000002" y1="-40.47" x2="-55.38000000000002" y2="-38.339999999999996" stroke-width="1" stroke="black" />
	<line x1="-55.38000000000002" y1="-38.339999999999996" x2="-53.250000000000014" y2="-40.47" stroke-width="1" stroke="black" />
	<line x1="-53.250000000000014" y1="-40.47" x2="-51.12000000000001" y2="-38.339999999999996" stroke-width="1" stroke="black" />
	<line x1="-51.12000000000001" y1="-38.339999999999996" x2="-48.99000000000001" y2="-36.209999999999994" stroke-width="1" stroke="black" />
	<line x1="-48.99000000000001" y1="-36.209999999999994" x2="-51.12000000000001" y2="-34.07999999999999" stroke-width="1" stroke="black" />
	<line x1="-51.12000000000001" y1="-34.07999999999999" x2="-53.250000000000014" y2="-31.949999999999992" stroke-width="1" stroke="black" />
	<line x1="-53.250000000000014" y1="-31.949999999999992" x2="-55.38000000000002" y2="-34.07999999999999" stroke-width="1" stroke="black" />
	<line x1="-55.38000000000002" y1="-34.07999999999999" x2="-57.51000000000002" y2="-36.209999999999994" stroke-width="1" stroke="black" />
	<line x1="-57.51000000000002" y1="-36.209999999999994" x2="-55.38000000000002" y2="-38.339999999999996" stroke-width="1" stroke="black" />
	<line x1="-55.38000000000002" y1="-38.339999999999996" x2="-57.51000000000002" y2="-40.47" stroke-width="1" stroke="black" />
	<line x1="-57.51000000000002" y1="-40.47" x2="-55.38000000000002" y2="-42.6" stroke-width="1" stroke="black" />
	<line x1="-55.38000000000002" y1="-42.6" x2="-53.250000000000014" y2="-44.730000000000004" stroke-width="1" stroke="black" />
	<line x1="-53.250000000000014" y1="-44.730000000000004" x2="-51.12000000000001" y2="-42.6" stroke-width="1" stroke="black" />
	<line x1="-51.12000000000001" y1="-42.6" x2="-53.250000000000014" y2="-44.730000000000004" stroke-width="1" stroke="black" />
	<line x1="-53.250000000000014" y1="-44.730000000000004" x2="-51.12000000000001" y2="-46.86000000000001" stroke-width="1" stroke="black" />
	<line x1="-51.12000000000001" y1="-46.86000000000001" x2="-48.99000000000001" y2="-48.99000000000001" stroke-width="1" stroke="black" />
	<line x1="-48.99000000000001" y1="-48.99000000000001" x2="-46.86000000000001" y2="-46.86000000000001" stroke-width="1" stroke="black" />
	<line x1="-46.86000000000001" y1="-46.86000000000001" x2="-44.730000000000004" y2="-48.99000000000001" stroke-width="1" stroke="black" />
	<line x1="-44.730000000000004" y1="-48.99000000000001" x2="-42.6" y2="-46.86000000000001" stroke-width="1" stroke="black" />
	<line x1="-42.6" y1="-46.86000000000001" x2="-40.47" y2="-44.730000000000004" stroke-width="1" stroke="black" />
	<line x1="-40.47" y1="-44.730000000000004" x2="-42.6" y2="-42.6" stroke-width="1" stroke="black" />
	<line x1="-42.6" y1="-42.6" x2="-44.730000000000004" y2="-44.730000000000004" stroke-width="1" stroke="black" />
	<line x1="-44.730000000000004" y1="-44.730000000000004" x2="-42.6" y2="-46.86000000000001" stroke-width="1" stroke="black" />
	<line x1="-42.6" y1="-46.86000000000001" x2="-40.47" y2="-48.99000000000001" stroke-width="1" stroke="black" />
	<line x1="-40.47" y1="-48.99000000000001" x2="-38.339999999999996" y2="-46.86000000000001" stroke-width="1" stroke="black" />
	<line x1="-38.339999999999996" y1="-46.86000000000001" x2="-36.209999999999994" y2="-48.99000000000001" stroke-width="1" stroke="black" />
	<line x1="-36.209999999999994" y1="-48.99000000000001" x2="-34.07999999999999" y2="-46.86000000000001" stroke-width="1" stroke="black" />
	<line x1="-34.07999999999999" y1="-46.86000000000001" x2="-31.949999999999992" y2="-44.730000000000004" stroke-width="1" stroke="black" />
	<line x1="-31.949999999999992" y1="-44.730000000000004" x2="-34.07999999999999" y2="-42.6" stroke-width="1" stroke="black" />
	<line x1="-34.07999999999999" y1="-42.6" x2="-31.949999999999992" y2="-44.730000000000004" stroke-width="1" stroke="black" />
	<line x1="-31.949999999999992" y1="-44.730000000000004" x2="-29.819999999999993" y2="-42.6" stroke-width="1" stroke="black" />
	<line x1="-29.819999999999993" y1="-42.6" x2="-27.689999999999994" y2="-40.47" stroke-width="1" stroke="black" />
	<line x1="-27.689999999999994" y1="-40.47" x2="-29.819999999999993" y2="-38.339999999999996" stroke-width="1" stroke="black" />
	<line x1="-29.819999999999993" y1="-38.339999999999996" x2="-27.689999999999994" y2="-36.209999999999994" stroke-width="1" stroke="black" />
	<line x1="-27.689999999999994" y1="-36.209999999999994" x2="-29.819999999999993" y2="-34.07999999999999" stroke-width="1" stroke="black" />
	<line x1="-29.819999999999993" y1="-34.07999999999999" x2="-31.949999999999992" y2="-31.949999999999992" stroke-width="1" stroke="black" />
	<line x1="-31.949999999999992" y1="-31.949999999999992" x2="-34.07999999999999" y2="-34.07999999999999" stroke-width="1" stroke="black" />
	<line x1="-34.07999999999999" y1="-34.07999999999999" x2="-31.949999999999992" y2="-36.209999999999994" stroke-width="1" stroke="black" />
	<line x1="-31.949999999999992" y1="-36.209999999999994" x2="-29.819999999999993" y2="-34.07999999999999" stroke-width="1" stroke="black" />
	<line x1="-29.819999999999993" y1="-34.07999999999999" x2="-27.689999999999994" y2="-31.949999999999992" stroke-width="1" stroke="black" />
	<line x1="-27.689999999999994" y1="-31.949999999999992" x2="-29.819999999999993" y2="-29.819999999999993" stroke-width="1" stroke="black" />
	<line x1="-29.819999999999993" y1="-29.819999999999993" x2="-27.689999999999994" y2="-27.689999999999994" stroke-width="1" stroke="black" />
	<line x1="-27.689999999999994" y1="-27.689999999999994" x2="-29.819999999999993" y2="-25.559999999999995" stroke-width="1" stroke="black" />
	<line x1="-29.819999999999993" y1="-25.559999999999995" x2="-31.949999999999992" y2="-23.429999999999996" stroke-width="1" stroke="black" />
	<line x1="-31.949999999999992" y1="-23.429999999999996" x2="-34.07999999999999" y2="-25.559999999999995" stroke-width="1" stroke="black" />
	<line x1="-34.07999999999999" y1="-25.559999999999995" x2="-31.949999999999992" y2="-23.429999999999996" stroke-width="1" stroke="black" />
	<line x1="-31.949999999999992" y1="-23.429999999999996" x2="-34.07999999999999" y2="-21.299999999999997" stroke-width="1" stroke="black" />
	<line x1="-34.07999999999999" y1="-21.299999999999997" x2="-36.209999999999994" y2="-19.169999999999998" stroke-width="1" stroke="black" />
	<line x1="-36.209999999999994" y1="-19.169999999999998" x2="-38.339999999999996" y2="-21.299999999999997" stroke-width="1" stroke="black" />
	<line x1="-38.339999999999996" y1="-21.299999999999997" x2="-40.47" y2="-19.169999999999998" stroke-width="1" stroke="black" />
	<line x1="-40.47" y1="-19.169999999999998" x2="-42.6" y2="-21.299999999999997" stroke-width="1" stroke="black" />
	<line x1="-42.6" y1="-21.299999999999997" x2="-44.730000000000004" y2="-23.429999999999996" stroke-width="1" stroke="black" />
	<line x1="-44.730000000000004" y1="-23.429999999999996" x2="-42.6" y2="-25.559999999999995" stroke-width="1" stroke="black" />
	<line x1="-42.6" y1="-25.559999999999995" x2="-40.47" y2="-23.429999999999996" stroke-width="1" stroke="black" />
	<line x1="-40.47" y1="-23.429999999999996" x2="-42.6" y2="-21.299999999999997" stroke-width="1" stroke="black" />
	<line x1="-42.6" y1="-21.299999999999997" x2="-44.730000000000004" y2="-19.169999999999998" stroke-width="1" stroke="black" />
	<line x1="-44.730000000000004" y1="-19.169999999999998" x2="-46.86000000000001" y2="-21.299999999999997" stroke-width="1" stroke="black" />
	<line x1="-46.86000000000001" y1="-21.299999999999997" x2="-48.99000000000001" y2="-19.169999999999998" stroke-width="1" stroke="black" />
	<line x1="-48.99000000000001" y1="-19.169999999999998" x2="-51.12000000000001" y2="-21.299999999999997" stroke-width="1" stroke="black" />
	<line x1="-51.12000000000001" y1="-21.299999999999997" x2="-53.250000000000014" y2="-23.429999999999996" stroke-width="1" stroke="black" />
	<line x1="-53.250000000000014" y1="-23.429999999999996" x2="-51.12000000000001" y2="-25.559999999999995" stroke-width="1" stroke="black" />
	<line x1="-51.12000000000001" y1="-25.559999999999995" x2="-53.250000000000014" y2="-23.429999999999996" stroke-width="1" stroke="black" />
	<line x1="-53.250000000000014" y1="-23.429999999999996" x2="-55.38000000000002" y2="-25.559999999999995" stroke-width="1" stroke="black" />
	<line x1="-55.38000000000002" y1="-25.559999999999995" x2="-57.51000000000002" y2="-27.689999999999994" stroke-width="1" stroke="black" />
	<line x1="-57.51000000000002" y1="-27.689999999999994" x2="-55.38000000000002" y2="-29.819999999999993" stroke-width="1" stroke="black" />
	<line x1="-55.38000000000002" y1="-29.819999999999993" x2="-57.51000000000002" y2="-31.949999999999992" stroke-width="1" stroke="black" />
	<line x1="-57.51000000000002" y1="-31.949999999999992" x2="-55.38000000000002" y2="-34.07999999999999" stroke-width="1" stroke="black" />
	<line x1="-55.38000000000002" y1="-34.07999999999999" x2="-53.250000000000014" y2="-36.209999999999994" stroke-width="1" stroke="black" />
	<line x1="-53.250000000000014" y1="-36.209999999999994" x2="-51.12000000000001" y2="-34.07999999999999" stroke-width="1" stroke="black" />
	<line x1="-51.12000000000001" y1="-34.07999999999999" x2="-48.99000000000001" y2="-31.949999999999992" stroke-width="1" stroke="black" />
	<line x1="-48.99000000000001" y1="-31.949999999999992" x2="-51.12000000000001" y2="-29.819999999999993" stroke-width="1" stroke="black" />
	<line x1="-51.12000000000001" y1="-29.819999999999993" x2="-53.250000000000014" y2="-27.689999999999994" stroke-width="1" stroke="black" />
	<line x1="-53.250000000000014" y1="-27.689999999999994" x2="-55.38000000000002" y2="-29.819999999999993" stroke-width="1" stroke="black" />
	<line x1="-55.38000000000002" y1="-29.819999999999993" x2="-57.51000000000002" y2="-27.689999999999994" stroke-width="1" stroke="black" />
	<line x1="-57.51000000000002" y1="-27.689999999999994" x2="-59.64000000000002" y2="-29.819999999999993" stroke-width="1" stroke="black" />
	<line x1="-59.64000000000002" y1="-29.819999999999993" x2="-61.770000000000024" y2="-31.949999999999992" stroke-width="1" stroke="black" />
	<line x1="-61.770000000000024" y1="-31.949999999999992" x2="-59.64000000000002" y2="-34.07999999999999" stroke-width="1" stroke="black" />
	<line x1="-59.64000000000002" y1="-34.07999999999999" x2="-61.770000000000024" y2="-31.949999999999992" stroke-width="1" stroke="black" />
	<line x1="-61.770000000000024" y1="-31.949999999999992" x2="-63.90000000000003" y2="-34.07999999999999" stroke-width="1" stroke="black" />
	<line x1="-63.90000000000003" y1="-34.07999999999999" x2="-66.03000000000003" y2="-36.209999999999994" stroke-width="1" stroke="black" />
	<line x1="-66.03000000000003" y1="-36.209999999999994" x2="-63.90000000000003" y2="-38.339999999999996" stroke-width="1" stroke="black" />
	<line x1="-63.90000000000003" y1="-38.339999999999996" x2="-66.03000000000003" y2="-40.47" stroke-width="1" stroke="black" />
	<line x1="-66.03000000000003" y1="-40.47" x2="-63.90000000000003" y2="-42.6" stroke-width="1" stroke="black" />
	<line x1="-63.90000000000003" y1="-42.6" x2="-61.770000000000024" y2="-44.730000000000004" stroke-width="1" stroke="black" />
	<line x1="-61.770000000000024" y1="-44.730000000000004" x2="-59.64000000000002" y2="-42.6" stroke-width="1" stroke="black" />
	<line x1="-59.64000000000002" y1="-42.6" x2="-61.770000000000024" y2="-40.47" stroke-width="1" stroke="black" />
	<line x1="-61.770000000000024" y1="-40.47" x2="-63.90000000000003" y2="-42.6" stroke-width="1" stroke="black" />
	<line x1="-63.90000000000003" y1="-42.6" x2="-66.03000000000003" y2="-44.730000000000004" stroke-width="1" stroke="black" />
	<line x1="-66.03000000000003" y1="-44.730000000000004" x2="-63.90000000000003" y2="-46.86000000000001" stroke-width="1" stroke="black" />
	<line x1="-63.90000000000003" y1="-46.86000000000001" x2="-66.03000000000003" y2="-48.99000000000001" stroke-width="1" stroke="black" />
	<line x1="-66.03000000000003" y1="-48.99000000000001" x2="-63.90000000000003" y2="-51.12000000000001" stroke-width="1" stroke="black" />
	<line x1="-63.90000000000003" y1="-51.12000000000001" x2="-61.770000000000024" y2="-53.250000000000014" stroke-width="1" stroke="black" />
	<line x1="-61.770000000000024" y1="-53.250000000000014" x2="-59.64000000000002" y2="-51.12000000000001" stroke-width="1" stroke="black" />
	<line x1="-59.64000000000002" y1="-51.12000000000001" x2="-61.770000000000024" y2="-53.250000000000014" stroke-width="1" stroke="black" />
	<line x1="-61.770000000000024" y1="-53.250000000000014" x2="-59.64000000000002" y2="-55.38000000000002" stroke-width="1" stroke="black" />
	<line x1="-59.64000000000002" y1="-55.38000000000002" x2="-57.51000000000002" y2="-57.51000000000002" stroke-width="1" stroke="black" />
	<line x1="-57.51000000000002" y1="-57.51000000000002" x2="-55.38000000000002" y2="-55.38000000000002" stroke-width="1" stroke="black" />
	<line x1="-55.38000000000002" y1="-55.38000000000002" x2="-53.250000000000014" y2="-57.51000000000002" stroke-width="1" stroke="black" />
	<line x1="-53.250000000000014" y1="-57.51000000000002" x2="-51.12000000000001" y2="-55.38000000000002" stroke-width="1" stroke="black" />
	<line x1="-51.12000000000001" y1="-55.38000000000002" x2="-48.99000000000001" y2="-53.250000000000014" stroke-width="1" stroke="black" />
	<line x1="-48.99000000000001" y1="-53.250000000000014" x2="-51.12000000000001" y2="-51.12000000000001" stroke-width="1" stroke="black" />
	<line x1="-51.12000000000001" y1="-51.12000000000001" x2="-48.99000000000001" y2="-48.99000000000001" stroke-width="1" stroke="black" />
	<line x1="-48.99000000000001" y1="-48.99000000000001" x2="-51.12000000000001" y2="-46.86000000000001" stroke-width="1" stroke="black" />
	<line x1="-51.12000000000001" y1="-46.86000000000001" x2="-53.250000000000014" y2="-44.730000000000004" stroke-width="1" stroke="black" />
	<line x1="-53.250000000000014" y1="-44.730000000000004" x2="-55.38000000000002" y2="-46.86000000000001" stroke-width="1" stroke="black" />
	<line x1="-55.38000000000002" y1="-46.86000000000001" x2="-57.51000000000002" y2="-44.730000000000004" stroke-width="1" stroke="black" />
	<line x1="-57.51000000000002" y1="-44.730000000000004" x2="-59.64000000000002" y2="-46.86000000000001" stroke-width="1" stroke="black" />
	<line x1="-59.64000000000002" y1="-46.86000000000001" x2="-61.770000000000024" y2="-48.99000000000001" stroke-width="1" stroke="black" />
	<line x1="-61.770000000000024" y1="-48.99000000000001" x2="-59.64000000000002" y2="-51.12000000000001" stroke-width="1" stroke="black" />
	<line x1="-59.64000000000002" y1="-51.12000000000001" x2="-61.770000000000024" y2="-48.99000000000001" stroke-width="1" stroke="black" />
	<line x1="-61.770000000000024" y1="-48.99000000000001" x2="-63.90000000000003" y2="-51.12000000000001" stroke-width="1" stroke="black" />
	<line x1="-63.90000000000003" y1="-51.12000000000001" x2="-66.03000000000003" y2="-53.250000000000014" stroke-width="1" stroke="black" />
	<line x1="-66.03000000000003" y1="-53.250000000000014" x2="-63.90000000000003" y2="-55.38000000000002" stroke-width="1" stroke="black" />
	<line x1="-63.90000000000003" y1="-55.38000000000002" x2="-66.03000000000003" y2="-57.51000000000002" stroke-width="1" stroke="black" />
	<line x1="-66.03000000000003" y1="-57.51000000000002" x2="-63.90000000000003" y2="-59.64000000000002" stroke-width="1" stroke="black" />
	<line x1="-63.90000000000003" y1="-59.64000000000002" x2="-61.770000000000024" y2="-61.770000000000024" stroke-width="1" stroke="black" />
	<line x1="-61.770000000000024" y1="-61.770000000000024" x2="-59.64000000000002" y2="-59.64000000000002" stroke-width="1" stroke="black" />
	<line x1="-59.64000000000002" y1="-59.64000000000002" x2="-61.770000000000024" y2="-57.51000000000002" stroke-width="1" stroke="black" />
	<line x1="-61.770000000000024" y1="-57.51000000000002" x2="-63.90000000000003" y2="-59.64000000000002" stroke-width="1" stroke="black" />
	<line x1="-63.90000000000003" y1="-59.64000000000002" x2="-66.03000000000003" y2="-61.770000000000024" stroke-width="1" stroke="black" />
	<line x1="-66.03000000000003" y1="-61.770000000000024" x2="-63.90000000000003" y2="-63.90000000000003" stroke-width="1" stroke="black" />
	<line x1="-63.90000000000003" y1="-63.90000000000003" x2="-66.03000000000003" y2="-66.03000000000003" stroke-width="1" stroke="black" />
	<line x1="-66.03000000000003" y1="-66.03000000000003" x2="-63.90000000000003" y2="-68.16000000000003" stroke-width="1" stroke="black" />
	<line x1="-63.90000000000003" y1="-68.16000000000003" x2="-61.770000000000024" y2="-70.29000000000002" stroke-width="1" stroke="black" />
	<line x1="-61.770000000000024" y1="-70.29000000000002" x2="-59.64000000000002" y2="-68.16000000000003" stroke-width="1" stroke="black" />
	<line x1="-59.64000000000002" y1="-68.16000000000003" x2="-61.770000000000024" y2="-70.29000000000002" stroke-width="1" stroke="black" />
	<line x1="-61.770000000000024" y1="-70.29000000000002" x2="-59.64000000000002" y2="-72.42000000000002" stroke-width="1" stroke="black" />
	<line x1="-59.64000000000002" y1="-72.42000000000002" x2="-57.51000000000002" y2="-74.55000000000001" stroke-width="1" stroke="black" />
	<line x1="-57.51000000000002" y1="-74.55000000000001" x2="-55.38000000000002" y2="-72.42000000000002" stroke-width="1" stroke="black" />
	<line x1="-55.38000000000002" y1="-72.42000000000002" x2="-53.250000000000014" y2="-74.55000000000001" stroke-width="1" stroke="black" />
	<line x1="-53.250000000000014" y1="-74.55000000000001" x2="-51.12000000000001" y2="-72.42000000000002" stroke-width="1" stroke="black" />
	<line x1="-51.12000000000001" y1="-72.42000000000002" x2="-48.99000000000001" y2="-70.29000000000002" stroke-width="1" stroke="black" />
	<line x1="-48.99000000000001" y1="-70.29000000000002" x2="-51.12000000000001" y2="-68.16000000000003" stroke-width="1" stroke="black" />
	<line x1="-51.12000000000001" y1="-68.16000000000003" x2="-53.250000000000014" y2="-66.03000000000003" stroke-width="1" stroke="black" />
	<line x1="-53.250000000000014" y1="-66.03000000000003" x2="-55.38000000000002" y2="-68.16000000000003" stroke-width="1" stroke="black" />
	<line x1="-55.38000000000002" y1="-68.16000000000003" x2="-57.51000000000002" y2="-70.29000000000002" stroke-width="1" stroke="black" />
	<line x1="-57.51000000000002" y1="-70.29000000000002" x2="-55.38000000000002" y2="-72.42000000000002" stroke-width="1" stroke="black" />
	<line x1="-55.38000000000002" y1="-72.42000000000002" x2="-57.51000000000002" y2="-74.55000000000001" stroke-width="1" stroke="black" />
	<line x1="-57.51000000000002" y1="-74.55000000000001" x2="-55.38000000000002" y2="-76.68" stroke-width="1" stroke="black" />
	<line x1="-55.38000000000002" y1="-76.68" x2="-53.250000000000014" y2="-78.81" stroke-width="1" stroke="black" />
	<line x1="-53.250000000000014" y1="-78.81" x2="-51.12000000000001" y2="-76.68" stroke-width="1" stroke="black" />
	<line x1="-51.12000000000001" y1="-76.68" x2="-53.250000000000014" y2="-78.81" stroke-width="1" stroke="black" />
	<line x1="-53.250000000000014" y1="-78.81" x2="-51.12000000000001" y2="-80.94" stroke-width="1" stroke="black" />
	<line x1="-51.12000000000001" y1="-80.94" x2="-48.99000000000001" y2="-83.07" stroke-width="1" stroke="black" />
	<line x1="-48.99000000000001" y1="-83.07" x2="-46.86000000000001" y2="-80.94" stroke-width="1" stroke="black" />
	<line x1="-46.86000000000001" y1="-80.94" x2="-44.730000000000004" y2="-83.07" stroke-width="1" stroke="black" />
	<line x1="-44.730000000000004" y1="-83.07" x2="-42.6" y2="-80.94" stroke-width="1" stroke="black" />
	<line x1="-42.6" y1="-80.94" x2="-40.47" y2="-78.81" stroke-width="1" stroke="black" />
	<line x1="-40.47" y1="-78.81" x2="-42.6" y2="-76.68" stroke-width="1" stroke="black" />
	<line x1="-42.6" y1="-76.68" x2="-44.730000000000004" y2="-78.81" stroke-width="1" stroke="black" />
	<line x1="-44.730000000000004" y1="-78.81" x2="-42.6" y2="-80.94" stroke-width="1" stroke="black" />
	<line x1="-42.6" y1="-80.94" x2="-40.47" y2="-83.07" stroke-width="1" stroke="black" />
	<line x1="-40.47" y1="-83.07" x2="-38.339999999999996" y2="-80.94" stroke-width="1" stroke="black" />
	<line x1="-38.339999999999996" y1="-80.94" x2="-36.209999999999994" y2="-83.07" stroke-width="1" stroke="black" />
	<line x1="-36.209999999999994" y1="-83.07" x2="-34.07999999999999" y2="-80.94" stroke-width="1" stroke="black" />
	<line x1="-34.07999999999999" y1="-80.94" x2="-31.949999999999992" y2="-78.81" stroke-width="1" stroke="black" />
	<line x1="-31.949999999999992" y1="-78.81" x2="-34.07999999999999" y2="-76.68" stroke-width="1" stroke="black" />
	<line x1="-34.07999999999999" y1="-76.68" x2="-31.949999999999992" y2="-78.81" stroke-width="1" stroke="black" />
	<line x1="-31.949999999999992" y1="-78.81" x2="-29.819999999999993" y2="-76.68" stroke-width="1" stroke="black" />
	<line x1="-29.819999999999993" y1="-76.68" x2="-27.689999999999994" y2="-74.55000000000001" stroke-width="1" stroke="black" />
	<line x1="-27.689999999999994" y1="-74.55000000000001" x2="-29.819999999999993" y2="-72.42000000000002" stroke-width="1" stroke="black" />
	<line x1="-29.819999999999993" y1="-72.42000000000002" x2="-27.689999999999994" y2="-70.29000000000002" stroke-width="1" stroke="black" />
	<line x1="-27.689999999999994" y1="-70.29000000000002" x2="-29.819999999999993" y2="-68.16000000000003" stroke-width="1" stroke="black" />
	<line x1="-29.819999999999993" y1="-68.16000000000003" x2="-31.949999999999992" y2="-66.03000000000003" stroke-width="1" stroke="black" />
	<line x1="-31.949999999999992" y1="-66.03000000000003" x2="-34.07999999999999" y2="-68.16000000000003" stroke-width="1" stroke="black" />
	<line x1="-34.07999999999999" y1="-68.16000000000003" x2="-31.949999999999992" y2="-66.03000000000003" stroke-width="1" stroke="black" />
	<line x1="-31.949999999999992" y1="-66.03000000000003" x2="-34.07999999999999" y2="-63.90000000000003" stroke-width="1" stroke="black" />
	<line x1="-34.07999999999999" y1="-63.90000000000003" x2="-36.209999999999994" y2="-61.770000000000024" stroke-width="1" stroke="black" />
	<line x1="-36.209999999999994" y1="-61.770000000000024" x2="-38.339999999999996" y2="-63.90000000000003" stroke-width="1" stroke="black" />
	<line x1="-38.339999999999996" y1="-63.90000000000003" x2="-40.47" y2="-61.770000000000024" stroke-width="1" stroke="black" />
	<line x1="-40.47" y1="-61.770000000000024" x2="-42.6" y2="-63.90000000000003" stroke-width="1" stroke="black" />
	<line x1="-42.6" y1="-63.90000000000003" x2="-44.730000000000004" y2="-66.03000000000003" stroke-width="1" stroke="black" />
	<line x1="-44.730000000000004" y1="-66.03000000000003" x2="-42.6" y2="-68.16000000000003" stroke-width="1" stroke="black" />
	<line x1="-42.6" y1="-68.16000000000003" x2="-44.730000000000004" y2="-66.03000000000003" stroke-width="1" stroke="black" />
	<line x1="-44.730000000000004" y1="-66.03000000000003" x2="-46.86000000000001" y2="-68.16000000000003" stroke-width="1" stroke="black" />
	<line x1="-46.86000000000001" y1="-68.16000000000003" x2="-48.99000000000001" y2="-70.29000000000002" stroke-width="1" stroke="black" />
	<line x1="-48.99000000000001" y1="-70.29000000000002" x2="-46.86000000000001" y2="-72.42000000000002" stroke-width="1" stroke="black" />
	<line x1="-46.86000000000001" y1="-72.42000000000002" x2="-48.99000000000001" y2="-74.55000000000001" stroke-width="1" stroke="black" />
	<line x1="-48.99000000000001" y1="-74.55000000000001" x2="-46.86000000000001" y2="-76.68" stroke-width="1" stroke="black" />
	<line x1="-46.86000000000001" y1="-76.68" x2="-44.730000000000004" y2="-78.81" stroke-width="1" stroke="black" />
	<line x1="-44.730000000000004" y1="-78.81" x2="-42.6" y2="-76.68" stroke-width="1" stroke="black" />
	<line x1="-42.6" y1="-76.68" x2="-44.730000000000004" y2="-74.55000000000001" stroke-width="1" stroke="black" />
	<line x1="-44.730000000000004" y1="-74.55000000000001" x2="-46.86000000000001" y2="-76.68" stroke-width="1" stroke="black" />
	<line x1="-46.86000000000001" y1="-76.68" x2="-48.99000000000001" y2="-78.81" stroke-width="1" stroke="black" />
	<line x1="-48.99000000000001" y1="-78.81" x2="-46.86000000000001" y2="-80.94" stroke-width="1" stroke="black" />
	<line x1="-46.86000000000001" y1="-80.94" x2="-48.99000000000001" y2="-83.07" stroke-width="1" stroke="black" />
	<line x1="-48.99000000000001" y1="-83.07" x2="-46.86000000000001" y2="-85.19999999999999" stroke-width="1" stroke="black" />
	<line x1="-46.86000000000001" y1="-85.19999999999999" x2="-44.730000000000004" y2="-87.32999999999998" stroke-width="1" stroke="black" />
	<line x1="-44.730000000000004" y1="-87.32999999999998" x2="-42.6" y2="-85.19999999999999" stroke-width="1" stroke="black" />
	<line x1="-42.6" y1="-85.19999999999999" x2="-44.730000000000004" y2="-87.32999999999998" stroke-width="1" stroke="black" />
	<line x1="-44.730000000000004" y1="-87.32999999999998" x2="-42.6" y2="-89.45999999999998" stroke-width="1" stroke="black" />
	<line x1="-42.6" y1="-89.45999999999998" x2="-40.47" y2="-91.58999999999997" stroke-width="1" stroke="black" />
	<line x1="-40.47" y1="-91.58999999999997" x2="-38.339999999999996" y2="-89.45999999999998" stroke-width="1" stroke="black" />
	<line x1="-38.339999999999996" y1="-89.45999999999998" x2="-36.209999999999994" y2="-91.58999999999997" stroke-width="1" stroke="black" />
	<line x1="-36.209999999999994" y1="-91.58999999999997" x2="-34.07999999999999" y2="-89.45999999999998" stroke-width="1" stroke="black" />
	<line x1="-34.07999999999999" y1="-89.45999999999998" x2="-31.949999999999992" y2="-87.32999999999998" stroke-width="1" stroke="black" />
	<line x1="-31.949999999999992" y1="-87.32999999999998" x2="-34.07999999999999" y2="-85.19999999999999" stroke-width="1" stroke="black" />
	<line x1="-34.07999999999999" y1="-85.19999999999999" x2="-36.209999999999994" y2="-83.07" stroke-width="1" stroke="black" />
	<line x1="-36.209999999999994" y1="-83.07" x2="-38.339999999999996" y2="-85.19999999999999" stroke-width="1" stroke="black" />
	<line x1="-38.339999999999996" y1="-85.19999999999999" x2="-40.47" y2="-87.32999999999998" stroke-width="1" stroke="black" />
	<line x1="-40.47" y1="-87.32999999999998" x2="-38.339999999999996" y2="-89.45999999999998" stroke-width="1" stroke="black" />
	<line x1="-38.339999999999996" y1="-89.45999999999998" x2="-40.47" y2="-91.58999999999997" stroke-width="1" stroke="black" />
	<line x1="-40.47" y1="-91.58999999999997" x2="-38.339999999999996" y2="-93.71999999999997" stroke-width="1" stroke="black" />
	<line x1="-38.339999999999996" y1="-93.71999999999997" x2="-36.209999999999994" y2="-95.84999999999997" stroke-width="1" stroke="black" />
	<line x1="-36.209999999999994" y1="-95.84999999999997" x2="-34.07999999999999" y2="-93.71999999999997" stroke-width="1" stroke="black" />
	<line x1="-34.07999999999999" y1="-93.71999999999997" x2="-36.209999999999994" y2="-95.84999999999997" stroke-width="1" stroke="black" />
	<line x1="-36.209999999999994" y1="-95.84999999999997" x2="-34.07999999999999" y2="-97.97999999999996" stroke-width="1" stroke="black" />
	<line x1="-34.07999999999999" y1="-97.97999999999996" x2="-31.949999999999992" y2="-100.10999999999996" stroke-width="1" stroke="black" />
	<line x1="-31.949999999999992" y1="-100.10999999999996" x2="-29.819999999999993" y2="-97.97999999999996" stroke-width="1" stroke="black" />
	<line x1="-29.819999999999993" y1="-97.97999999999996" x2="-27.689999999999994" y2="-100.10999999999996" stroke-width="1" stroke="black" />
	<line x1="-27.689999999999994" y1="-100.10999999999996" x2="-25.559999999999995" y2="-97.97999999999996" stroke-width="1" stroke="black" />
	<line x1="-25.559999999999995" y1="-97.97999999999996" x2="-23.429999999999996" y2="-95.84999999999997" stroke-width="1" stroke="black" />
	<line x1="-23.429999999999996" y1="-95.84999999999997" x2="-25.559999999999995" y2="-93.71999999999997" stroke-width="1" stroke="black" />
	<line x1="-25.559999999999995" y1="-93.71999999999997" x2="-27.689999999999994" y2="-95.84999999999997" stroke-width="1" stroke="black" />
	<line x1="-27.689999999999994" y1="-95.84999999999997" x2="-25.559999999999995" y2="-97.97999999999996" stroke-width="1" stroke="black" />
	<line x1="-25.559999999999995" y1="-97.97999999999996" x2="-23.429999999999996" y2="-100.10999999999996" stroke-width="1" stroke="black" />
	<line x1="-23.429999999999996" y1="-100.10999999999996" x2="-21.299999999999997" y2="-97.97999999999996" stroke-width="1" stroke="black" />
	<line x1="-21.299999999999997" y1="-97.97999999999996" x2="-19.169999999999998" y2="-100.10999999999996" stroke-width="1" stroke="black" />
	<line x1="-19.169999999999998" y1="-100.10999999999996" x2="-17.04" y2="-97.97999999999996" stroke-width="1" stroke="black" />
	<line x1="-17.04" y1="-97.97999999999996" x2="-14.91" y2="-95.84999999999997" stroke-width="1" stroke="black" />
	<line x1="-14.91" y1="-95.84999999999997" x2="-17.04" y2="-93.71999999999997" stroke-width="1" stroke="black" />
	<line x1="-17.04" y1="-93.71999999999997" x2="-14.91" y2="-95.84999999999997" stroke-width="1" stroke="black" />
	<line x1="-14.91" y1="-95.84999999999997" x2="-12.780000000000001" y2="-93.71999999999997" stroke-width="1" stroke="black" />
	<line x1="-12.780000000000001" y1="-93.71999999999997" x2="-10.650000000000002" y2="-91.58999999999997" stroke-width="1" stroke="black" />
	<line x1="-10.650000000000002" y1="-91.58999999999997" x2="-12.780000000000001" y2="-89.45999999999998" stroke-width="1" stroke="black" />
	<line x1="-12.780000000000001" y1="-89.45999999999998" x2="-10.650000000000002" y2="-87.32999999999998" stroke-width="1" stroke="black" />
	<line x1="-10.650000000000002" y1="-87.32999999999998" x2="-12.780000000000001" y2="-85.19999999999999" stroke-width="1" stroke="black" />
	<line x1="-12.780000000000001" y1="-85.19999999999999" x2="-14.91" y2="-83.07" stroke-width="1" stroke="black" />
	<line x1="-14.91" y1="-83.07" x2="-17.04" y2="-85.19999999999999" stroke-width="1" stroke="black" />
	<line x1="-17.04" y1="-85.19999999999999" x2="-19.169999999999998" y2="-83.07" stroke-width="1" stroke="black" />
	<line x1="-19.169999999999998" y1="-83.07" x2="-21.299999999999997" y2="-85.19999999999999" stroke-width="1" stroke="black" />
	<line x1="-21.299999999999997" y1="-85.19999999999999" x2="-23.429999999999996" y2="-87.32999999999998" stroke-width="1" stroke="black" />
	<line x1="-23.429999999999996" y1="-87.32999999999998" x2="-21.299999999999997" y2="-89.45999999999998" stroke-width="1" stroke="black" />
	<line x1="-21.299999999999997" y1="-89.45999999999998" x2="-23.429999999999996" y2="-91.58999999999997" stroke-width="1" stroke="black" />
	<line x1="-23.429999999999996" y1="-91.58999999999997" x2="-21.299999999999997" y2="-93.71999999999997" stroke-width="1" stroke="black" />
	<line x1="-21.299999999999997" y1="-93.71999999999997" x2="-19.169999999999998" y2="-95.84999999999997" stroke-width="1" stroke="black" />
	<line x1="-19.169999999999998" y1="-95.84999999999997" x2="-17.04" y2="-93.71999999999997" stroke-width="1" stroke="black" />
	<line x1="-17.04" y1="-93.71999999999997" x2="-19.169999999999998" y2="-95.84999999999997" stroke-width="1" stroke="black" />
	<line x1="-19.169999999999998" y1="-95.84999999999997" x2="-17.04" y2="-97.97999999999996" stroke-width="1" stroke="black" />
	<line x1="-17.04" y1="-97.97999999999996" x2="-14.91" y2="-100.10999999999996" stroke-width="1" stroke="black" />
	<line x1="-14.91" y1="-100.10999999999996" x2="-12.780000000000001" y2="-97.97999999999996" stroke-width="1" stroke="black" />
	<line x1="-12.780000000000001" y1="-97.97999999999996" x2="-10.650000000000002" y2="-100.10999999999996" stroke-width="1" stroke="black" />
	<line x1="-10.650000000000002" y1="-100.10999999999996" x2="-8.520000000000003" y2="-97.97999999999996" stroke-width="1" stroke="black" />
	<line x1="-8.520000000000003" y1="-97.97999999999996" x2="-6.390000000000003" y2="-95.84999999999997" stroke-width="1" stroke="black" />
	<line x1="-6.390000000000003" y1="-95.84999999999997" x2="-8.520000000000003" y2="-93.71999999999997" stroke-width="1" stroke="black" />
	<line x1="-8.520000000000003" y1="-93.71999999999997" x2="-10.650000000000002" y2="-95.84999999999997" stroke-width="1" stroke="black" />
	<line x1="-10.650000000000002" y1="-95.84999999999997" x2="-8.520000000000003" y2="-97.97999999999996" stroke-width="1" stroke="black" />
	<line x1="-8.520000000000003" y1="-97.97999999999996" x2="-6.390000000000003" y2="-100.10999999999996" stroke-width="1" stroke="black" />
	<line x1="-6.390000000000003" y1="-100.10999999999996" x2="-4.260000000000003" y2="-97.97999999999996" stroke-width="1" stroke="black" />
	<line x1="-4.260000000000003" y1="-97.97999999999996" x2="-2.1300000000000034" y2="-100.10999999999996" stroke-width="1" stroke="black" />
	<line x1="-2.1300000000000034" y1="-100.10999999999996" x2="-3.552713678800501e-15" y2="-97.97999999999996" stroke-width="1" stroke="black" />
	<line x1="-3.552713678800501e-15" y1="-97.97999999999996" x2="2.1299999999999963" y2="-95.84999999999997" stroke-width="1" stroke="black" />
	<line x1="2.1299999999999963" y1="-95.84999999999997" x2="-3.552713678800501e-15" y2="-93.71999999999997" stroke-width="1" stroke="black" />
	<line x1="-3.552713678800501e-15" y1="-93.71999999999997" x2="2.1299999999999963" y2="-95.84999999999997" stroke-width="1" stroke="black" />
	<line x1="2.1299999999999963" y1="-95.84999999999997" x2="4.259999999999996" y2="-93.71999999999997" stroke-width="1" stroke="black" />
	<line x1="4.259999999999996" y1="-93.71999999999997" x2="6.389999999999996" y2="-91.58999999999997" stroke-width="1" stroke="black" />
	<line x1="6.389999999999996" y1="-91.58999999999997" x2="4.259999999999996" y2="-89.45999999999998" stroke-width="1" stroke="black" />
	<line x1="4.259999999999996" y1="-89.45999999999998" x2="6.389999999999996" y2="-87.32999999999998" stroke-width="1" stroke="black" />
	<line x1="6.389999999999996" y1="-87.32999999999998" x2="4.259999999999996" y2="-85.19999999999999" stroke-width="1" stroke="black" />
	<line x1="4.259999999999996" y1="-85.19999999999999" x2="2.1299999999999963" y2="-83.07" stroke-width="1" stroke="black" />
	<line x1="2.1299999999999963" y1="-83.07" x2="-3.552713678800501e-15" y2="-85.19999999999999" stroke-width="1" stroke="black" />
	<line x1="-3.552713678800501e-15" y1="-85.19999999999999" x2="-2.1300000000000034" y2="-87.32999999999998" stroke-width="1" stroke="black" />
	<line x1="-2.1300000000000034" y1="-87.32999999999998" x2="-3.552713678800501e-15" y2="-89.45999999999998" stroke-width="1" stroke="black" />
	<line x1="-3.552713678800501e-15" y1="-89.45999999999998" x2="2.1299999999999963" y2="-91.58999999999997" stroke-width="1" stroke="black" />
	<line x1="2.1299999999999963" y1="-91.58999999999997" x2="4.259999999999996" y2="-89.45999999999998" stroke-width="1" stroke="black" />
	<line x1="4.259999999999996" y1="-89.45999999999998" x2="6.389999999999996" y2="-91.58999999999997" stroke-width="1" stroke="black" />
	<line x1="6.389999999999996" y1="-91.58999999999997" x2="8.519999999999996" y2="-89.45999999999998" stroke-width="1" stroke="black" />
	<line x1="8.519999999999996" y1="-89.45999999999998" x2="10.649999999999995" y2="-87.32999999999998" stroke-width="1" stroke="black" />
	<line x1="10.649999999999995" y1="-87.32999999999998" x2="8.519999999999996" y2="-85.19999999999999" stroke-width="1" stroke="black" />
	<line x1="8.519999999999996" y1="-85.19999999999999" x2="10.649999999999995" y2="-87.32999999999998" stroke-width="1" stroke="black" />
	<line x1="10.649999999999995" y1="-87.32999999999998" x2="12.779999999999994" y2="-85.19999999999999" stroke-width="1" stroke="black" />
	<line x1="12.779999999999994" y1="-85.19999999999999" x2="14.909999999999993" y2="-83.07" stroke-width="1" stroke="black" />
	<line x1="14.909999999999993" y1="-83.07" x2="12.779999999999994" y2="-80.94" stroke-width="1" stroke="black" />
	<line x1="12.779999999999994" y1="-80.94" x2="14.909999999999993" y2="-78.81" stroke-width="1" stroke="black" />
	<line x1="14.909999999999993" y1="-78.81" x2="12.779999999999994" y2="-76.68" stroke-width="1" stroke="black" />
	<line x1="12.779999999999994" y1="-76.68" x2="10.649999999999995" y2="-74.55000000000001" stroke-width="1" stroke="black" />
	<line x1="10.649999999999995" y1="-74.55000000000001" x2="8.519999999999996" y2="-76.68" stroke-width="1" stroke="black" />
	<line x1="8.519999999999996" y1="-76.68" x2="10.649999999999995" y2="-78.81" stroke-width="1" stroke="black" />
	<line x1="10.649999999999995" y1="-78.81" x2="12.779999999999994" y2="-76.68" stroke-width="1" stroke="black" />
	<line x1="12.779999999999994" y1="-76.68" x2="14.909999999999993" y2="-74.55000000000001" stroke-width="1" stroke="black" />
	<line x1="14.909999999999993" y1="-74.55000000000001" x2="12.779999999999994" y2="-72.42000000000002" stroke-width="1" stroke="black" />
	<line x1="12.779999999999994" y1="-72.42000000000002" x2="14.909999999999993" y2="-70.29000000000002" stroke-width="1" stroke="black" />
	<line x1="14.909999999999993" y1="-70.29000000000002" x2="12.779999999999994" y2="-68.16000000000003" stroke-width="1" stroke="black" />
	<line x1="12.779999999999994" y1="-68.16000000000003" x2="10.649999999999995" y2="-66.03000000000003" stroke-width="1" stroke="black" />
	<line x1="10.649999999999995" y1="-66.03000000000003" x2="8.519999999999996" y2="-68.16000000000003" stroke-width="1" stroke="black" />
	<line x1="8.519999999999996" y1="-68.16000000000003" x2="10.649999999999995" y2="-66.03000000000003" stroke-width="1" stroke="black" />
	<line x1="10.649999999999995" y1="-66.03000000000003" x2="8.519999999999996" y2="-63.90000000000003" stroke-width="1" stroke="black" />
	<line x1="8.519999999999996" y1="-63.90000000000003" x2="6.389999999999996" y2="-61.770000000000024" stroke-width="1" stroke="black" />
	<line x1="6.389999999999996" y1="-61.770000000000024" x2="4.259999999999996" y2="-63.90000000000003" stroke-width="1" stroke="black" />
	<line x1="4.259999999999996" y1="-63.90000000000003" x2="2.1299999999999963" y2="-61.770000000000024" stroke-width="1" stroke="black" />
	<line x1="2.1299999999999963" y1="-61.770000000000024" x2="-3.552713678800501e-15" y2="-63.90000000000003" stroke-width="1" stroke="black" />
	<line x1="-3.552713678800501e-15" y1="-63.90000000000003" x2="-2.1300000000000034" y2="-66.03000000000003" stroke-width="1" stroke="black" />
	<line x1="-2.1300000000000034" y1="-66.03000000000003" x2="-3.552713678800501e-15" y2="-68.16000000000003" stroke-width="1" stroke="black" />
</svg>
