<svg viewBox="-500 -500 1024 768" xmlns="http://www.w3.org/2000/svg">
	<line x1="0" y1="0" x2="0.0" y2="-3.0" stroke-width="1" stroke="black" />
	<line x1="0.0" y1="-3.0" x2="-2.61" y2="-4.5" stroke-width="1" stroke="black" />
	<line x1="-2.61" y1="-4.5" x2="0.0" y2="-6.0" stroke-width="1" stroke="black" />
	<line x1="0.0" y1="-6.0" x2="0.0" y2="-9.0" stroke-width="1" stroke="black" />
	<line x1="0.0" y1="-9.0" x2="-2.61" y2="-10.5" stroke-width="1" stroke="black" />
	<line x1="-2.61" y1="-10.5" x2="-5.22" y2="-9.0" stroke-width="1" stroke="black" />
	<line x1="-5.22" y1="-9.0" x2="-5.22" y2="-12.0" stroke-width="1" stroke="black" />
	<line x1="-5.22" y1="-12.0" x2="-7.83" y2="-13.5" stroke-width="1" stroke="black" />
	<line x1="-7.83" y1="-13.5" x2="-5.220000000000001" y2="-15.0" stroke-width="1" stroke="black" />
	<line x1="-5.220000000000001" y1="-15.0" x2="-5.220000000000001" y2="-18.0" stroke-width="1" stroke="black" />
	<line x1="-5.220000000000001" y1="-18.0" x2="-2.6100000000000008" y2="-16.5" stroke-width="1" stroke="black" />
	<line x1="-2.6100000000000008" y1="-16.5" x2="-8.881784197001252e-16" y2="-18.0" stroke-width="1" stroke="black" />
	<line x1="-8.881784197001252e-16" y1="-18.0" x2="-8.881784197001252e-16" y2="-21.0" stroke-width="1" stroke="black" />
	<line x1="-8.881784197001252e-16" y1="-21.0" x2="-2.6100000000000008" y2="-22.5" stroke-width="1" stroke="black" />
	<line x1="-2.6100000000000008" y1="-22.5" x2="-8.881784197001252e-16" y2="-24.0" stroke-width="1" stroke="black" />
	<line x1="-8.881784197001252e-16" y1="-24.0" x2="-8.881784197001252e-16" y2="-27.0" stroke-width="1" stroke="black" />
	<line x1="-8.881784197001252e-16" y1="-27.0" x2="-2.6100000000000008" y2="-28.5" stroke-width="1" stroke="black" />
	<line x1="-2.6100000000000008" y1="-28.5" x2="-5.220000000000001" y2="-27.0" stroke-width="1" stroke="black" />
	<line x1="-5.220000000000001" y1="-27.0" x2="-5.220000000000001" y2="-30.0" stroke-width="1" stroke="black" />
	<line x1="-5.220000000000001" y1="-30.0" x2="-7.83" y2="-31.5" stroke-width="1" stroke="black" />
	<line x1="-7.83" y1="-31.5" x2="-10.44" y2="-30.0" stroke-width="1" stroke="black" />
	<line x1="-10.44" y1="-30.0" x2="-10.44" y2="-27.0" stroke-width="1" stroke="black" />
	<line x1="-10.44" y1="-27.0" x2="-13.049999999999999" y2="-28.5" stroke-width="1" stroke="black" />
	<line x1="-13.049999999999999" y1="-28.5" x2="-15.659999999999998" y2="-27.0" stroke-width="1" stroke="black" />
	<line x1="-15.659999999999998" y1="-27.0" x2="-15.659999999999998" y2="-30.0" stroke-width="1" stroke="black" />
	<line x1="-15.659999999999998" y1="-30.0" x2="-18.27" y2="-31.5" stroke-width="1" stroke="black" />
	<line x1="-18.27" y1="-31.5" x2="-15.66" y2="-33.0" stroke-width="1" stroke="black" />
	<line x1="-15.66" y1="-33.0" x2="-15.66" y2="-36.0" stroke-width="1" stroke="black" />
	<line x1="-15.66" y1="-36.0" x2="-18.27" y2="-37.5" stroke-width="1" stroke="black" />
	<line x1="-18.27" y1="-37.5" x2="-20.88" y2="-36.0" stroke-width="1" stroke="black" />
	<line x1="-20.88" y1="-36.0" x2="-20.88" y2="-39.0" stroke-width="1" stroke="black" />
	<line x1="-20.88" y1="-39.0" x2="-23.49" y2="-40.5" stroke-width="1" stroke="black" />
	<line x1="-23.49" y1="-40.5" x2="-20.88" y2="-42.0" stroke-width="1" stroke="black" />
	<line x1="-20.88" y1="-42.0" x2="-20.88" y2="-45.0" stroke-width="1" stroke="black" />
	<line x1="-20.88" y1="-45.0" x2="-18.27" y2="-43.5" stroke-width="1" stroke="black" />
	<line x1="-18.27" y1="-43.5" x2="-15.66" y2="-45.0" stroke-width="1" stroke="black" />
	<line x1="-15.66" y1="-45.0" x2="-15.66" y2="-48.0" stroke-width="1" stroke="black" />
	<line x1="-15.66" y1="-48.0" x2="-18.27" y2="-49.5" stroke-width="1" stroke="black" />
	<line x1="-18.27" y1="-49.5" x2="-15.66" y2="-51.0" stroke-width="1" stroke="black" />
	<line x1="-15.66" y1="-51.0" x2="-15.66" y2="-54.0" stroke-width="1" stroke="black" />
	<line x1="-15.66" y1="-54.0" x2="-13.05" y2="-52.5" stroke-width="1" stroke="black" />
	<line x1="-13.05" y1="-52.5" x2="-10.440000000000001" y2="-54.0" stroke-width="1" stroke="black" />
	<line x1="-10.440000000000001" y1="-54.0" x2="-10.440000000000001" y2="-51.0" stroke-width="1" stroke="black" />
	<line x1="-10.440000000000001" y1="-51.0" x2="-7.830000000000002" y2="-49.5" stroke-width="1" stroke="black" />
	<line x1="-7.830000000000002" y1="-49.5" x2="-5.220000000000002" y2="-51.0" stroke-width="1" stroke="black" />
	<line x1="-5.220000000000002" y1="-51.0" x2="-5.220000000000002" y2="-54.0" stroke-width="1" stroke="black" />
	<line x1="-5.220000000000002" y1="-54.0" x2="-2.6100000000000025" y2="-52.5" stroke-width="1" stroke="black" />
	<line x1="-2.6100000000000025" y1="-52.5" x2="-2.6645352591003757e-15" y2="-54.0" stroke-width="1" stroke="black" />
	<line x1="-2.6645352591003757e-15" y1="-54.0" x2="-2.6645352591003757e-15" y2="-57.0" stroke-width="1" stroke="black" />
	<line x1="-2.6645352591003757e-15" y1="-57.0" x2="-2.6100000000000025" y2="-58.5" stroke-width="1" stroke="black" />
	<line x1="-2.6100000000000025" y1="-58.5" x2="-2.6645352591003757e-15" y2="-60.0" stroke-width="1" stroke="black" />
	<line x1="-2.6645352591003757e-15" y1="-60.0" x2="-2.6645352591003757e-15" y2="-63.0" stroke-width="1" stroke="black" />
	<line x1="-2.6645352591003757e-15" y1="-63.0" x2="-2.6100000000000025" y2="-64.5" stroke-width="1" stroke="black" />
	<line x1="-2.6100000000000025" y1="-64.5" x2="-5.220000000000002" y2="-63.0" stroke-width="1" stroke="black" />
	<line x1="-5.220000000000002" y1="-63.0" x2="-5.220000000000002" y2="-66.0" stroke-width="1" stroke="black" />
	<line x1="-5.220000000000002" y1="-66.0" x2="-7.830000000000002" y2="-67.5" stroke-width="1" stroke="black" />
	<line x1="-7.830000000000002" y1="-67.5" x2="-5.220000000000002" y2="-69.0" stroke-width="1" stroke="black" />
	<line x1="-5.220000000000002" y1="-69.0" x2="-5.220000000000002" y2="-72.0" stroke-width="1" stroke="black" />
	<line x1="-5.220000000000002" y1="-72.0" x2="-2.6100000000000025" y2="-70.5" stroke-width="1" stroke="black" />
	<line x1="-2.6100000000000025" y1="-70.5" x2="-2.6645352591003757e-15" y2="-72.0" stroke-width="1" stroke="black" />
	<line x1="-2.6645352591003757e-15" y1="-72.0" x2="-2.6645352591003757e-15" y2="-75.0" stroke-width="1" stroke="black" />
	<line x1="-2.6645352591003757e-15" y1="-75.0" x2="-2.6100000000000025" y2="-76.5" stroke-width="1" stroke="black" />
	<line x1="-2.6100000000000025" y1="-76.5" x2="-2.6645352591003757e-15" y2="-78.0" stroke-width="1" stroke="black" />
	<line x1="-2.6645352591003757e-15" y1="-78.0" x2="-2.6645352591003757e-15" y2="-81.0" stroke-width="1" stroke="black" />
	<line x1="-2.6645352591003757e-15" y1="-81.0" x2="-2.6100000000000025" y2="-82.5" stroke-width="1" stroke="black" />
	<line x1="-2.6100000000000025" y1="-82.5" x2="-5.220000000000002" y2="-81.0" stroke-width="1" stroke="black" />
	<line x1="-5.220000000000002" y1="-81.0" x2="-5.220000000000002" y2="-84.0" stroke-width="1" stroke="black" />
	<line x1="-5.220000000000002" y1="-84.0" x2="-7.830000000000002" y2="-85.5" stroke-width="1" stroke="black" />
	<line x1="-7.830000000000002" y1="-85.5" x2="-10.440000000000001" y2="-84.0" stroke-width="1" stroke="black" />
	<line x1="-10.440000000000001" y1="-84.0" x2="-10.440000000000001" y2="-81.0" stroke-width="1" stroke="black" />
	<line x1="-10.440000000000001" y1="-81.0" x2="-13.05" y2="-82.5" stroke-width="1" stroke="black" />
	<line x1="-13.05" y1="-82.5" x2="-15.66" y2="-81.0" stroke-width="1" stroke="black" />
	<line x1="-15.66" y1="-81.0" x2="-15.66" y2="-84.0" stroke-width="1" stroke="black" />
	<line x1="-15.66" y1="-84.0" x2="-18.27" y2="-85.5" stroke-width="1" stroke="black" />
	<line x1="-18.27" y1="-85.5" x2="-15.66" y2="-87.0" stroke-width="1" stroke="black" />
	<line x1="-15.66" y1="-87.0" x2="-15.66" y2="-90.0" stroke-width="1" stroke="black" />
	<line x1="-15.66" y1="-90.0" x2="-18.27" y2="-91.5" stroke-width="1" stroke="black" />
	<line x1="-18.27" y1="-91.5" x2="-20.88" y2="-90.0" stroke-width="1" stroke="black" />
	<line x1="-20.88" y1="-90.0" x2="-20.88" y2="-93.0" stroke-width="1" stroke="black" />
	<line x1="-20.88" y1="-93.0" x2="-23.49" y2="-94.5" stroke-width="1" stroke="black" />
	<line x1="-23.49" y1="-94.5" x2="-26.099999999999998" y2="-93.0" stroke-width="1" stroke="black" />
	<line x1="-26.099999999999998" y1="-93.0" x2="-26.099999999999998" y2="-90.0" stroke-width="1" stroke="black" />
	<line x1="-26.099999999999998" y1="-90.0" x2="-28.709999999999997" y2="-91.5" stroke-width="1" stroke="black" />
	<line x1="-28.709999999999997" y1="-91.5" x2="-31.319999999999997" y2="-90.0" stroke-width="1" stroke="black" />
	<line x1="-31.319999999999997" y1="-90.0" x2="-31.319999999999997" y2="-87.0" stroke-width="1" stroke="black" />
	<line x1="-31.319999999999997" y1="-87.0" x2="-28.709999999999997" y2="-85.5" stroke-width="1" stroke="black" />
	<line x1="-28.709999999999997" y1="-85.5" x2="-31.319999999999997" y2="-84.0" stroke-width="1" stroke="black" />
	<line x1="-31.319999999999997" y1="-84.0" x2="-31.319999999999997" y2="-81.0" stroke-width="1" stroke="black" />
	<line x1="-31.319999999999997" y1="-81.0" x2="-33.93" y2="-82.5" stroke-width="1" stroke="black" />
	<line x1="-33.93" y1="-82.5" x2="-36.54" y2="-81.0" stroke-width="1" stroke="black" />
	<line x1="-36.54" y1="-81.0" x2="-36.54" y2="-84.0" stroke-width="1" stroke="black" />
	<line x1="-36.54" y1="-84.0" x2="-39.15" y2="-85.5" stroke-width="1" stroke="black" />
	<line x1="-39.15" y1="-85.5" x2="-41.76" y2="-84.0" stroke-width="1" stroke="black" />
	<line x1="-41.76" y1="-84.0" x2="-41.76" y2="-81.0" stroke-width="1" stroke="black" />
	<line x1="-41.76" y1="-81.0" x2="-44.37" y2="-82.5" stroke-width="1" stroke="black" />
	<line x1="-44.37" y1="-82.5" x2="-46.98" y2="-81.0" stroke-width="1" stroke="black" />
	<line x1="-46.98" y1="-81.0" x2="-46.98" y2="-84.0" stroke-width="1" stroke="black" />
	<line x1="-46.98" y1="-84.0" x2="-49.589999999999996" y2="-85.5" stroke-width="1" stroke="black" />
	<line x1="-49.589999999999996" y1="-85.5" x2="-46.98" y2="-87.0" stroke-width="1" stroke="black" />
	<line x1="-46.98" y1="-87.0" x2="-46.98" y2="-90.0" stroke-width="1" stroke="black" />
	<line x1="-46.98" y1="-90.0" x2="-49.589999999999996" y2="-91.5" stroke-width="1" stroke="black" />
	<line x1="-49.589999999999996" y1="-91.5" x2="-52.199999999999996" y2="-90.0" stroke-width="1" stroke="black" />
	<line x1="-52.199999999999996" y1="-90.0" x2="-52.199999999999996" y2="-93.0" stroke-width="1" stroke="black" />
	<line x1="-52.199999999999996" y1="-93.0" x2="-54.809999999999995" y2="-94.5" stroke-width="1" stroke="black" />
	<line x1="-54.809999999999995" y1="-94.5" x2="-52.199999999999996" y2="-96.0" stroke-width="1" stroke="black" />
	<line x1="-52.199999999999996" y1="-96.0" x2="-52.199999999999996" y2="-99.0" stroke-width="1" stroke="black" />
	<line x1="-52.199999999999996" y1="-99.0" x2="-49.589999999999996" y2="-97.5" stroke-width="1" stroke="black" />
	<line x1="-49.589999999999996" y1="-97.5" x2="-46.98" y2="-99.0" stroke-width="1" stroke="black" />
	<line x1="-46.98" y1="-99.0" x2="-46.98" y2="-102.0" stroke-width="1" stroke="black" />
	<line x1="-46.98" y1="-102.0" x2="-49.589999999999996" y2="-103.5" stroke-width="1" stroke="black" />
	<line x1="-49.589999999999996" y1="-103.5" x2="-46.98" y2="-105.0" stroke-width="1" stroke="black" />
	<line x1="-46.98" y1="-105.0" x2="-46.98" y2="-108.0" stroke-width="1" stroke="black" />
	<line x1="-46.98" y1="-108.0" x2="-49.589999999999996" y2="-109.5" stroke-width="1" stroke="black" />
	<line x1="-49.589999999999996" y1="-109.5" x2="-52.199999999999996" y2="-108.0" stroke-width="1" stroke="black" />
	<line x1="-52.199999999999996" y1="-108.0" x2="-52.199999999999996" y2="-111.0" stroke-width="1" stroke="black" />
	<line x1="-52.199999999999996" y1="-111.0" x2="-54.809999999999995" y2="-112.5" stroke-width="1" stroke="black" />
	<line x1="-54.809999999999995" y1="-112.5" x2="-57.419999999999995" y2="-111.0" stroke-width="1" stroke="black" />
	<line x1="-57.419999999999995" y1="-111.0" x2="-57.419999999999995" y2="-108.0" stroke-width="1" stroke="black" />
	<line x1="-57.419999999999995" y1="-108.0" x2="-60.029999999999994" y2="-109.5" stroke-width="1" stroke="black" />
	<line x1="-60.029999999999994" y1="-109.5" x2="-62.63999999999999" y2="-108.0" stroke-width="1" stroke="black" />
	<line x1="-62.63999999999999" y1="-108.0" x2="-62.63999999999999" y2="-111.0" stroke-width="1" stroke="black" />
	<line x1="-62.63999999999999" y1="-111.0" x2="-65.25" y2="-112.5" stroke-width="1" stroke="black" />
	<line x1="-65.25" y1="-112.5" x2="-62.64" y2="-114.0" stroke-width="1" stroke="black" />
	<line x1="-62.64" y1="-114.0" x2="-62.64" y2="-117.0" stroke-width="1" stroke="black" />
	<line x1="-62.64" y1="-117.0" x2="-65.25" y2="-118.5" stroke-width="1" stroke="black" />
	<line x1="-65.25" y1="-118.5" x2="-67.86" y2="-117.0" stroke-width="1" stroke="black" />
	<line x1="-67.86" y1="-117.0" x2="-67.86" y2="-120.0" stroke-width="1" stroke="black" />
	<line x1="-67.86" y1="-120.0" x2="-70.47" y2="-121.5" stroke-width="1" stroke="black" />
	<line x1="-70.47" y1="-121.5" x2="-67.86" y2="-123.0" stroke-width="1" stroke="black" />
	<line x1="-67.86" y1="-123.0" x2="-67.86" y2="-126.0" stroke-width="1" stroke="black" />
	<line x1="-67.86" y1="-126.0" x2="-65.25" y2="-124.5" stroke-width="1" stroke="black" />
	<line x1="-65.25" y1="-124.5" x2="-62.64" y2="-126.0" stroke-width="1" stroke="black" />
	<line x1="-62.64" y1="-126.0" x2="-62.64" y2="-129.0" stroke-width="1" stroke="black" />
	<line x1="-62.64" y1="-129.0" x2="-65.25" y2="-130.5" stroke-width="1" stroke="black" />
	<line x1="-65.25" y1="-130.5" x2="-62.64" y2="-132.0" stroke-width="1" stroke="black" />
	<line x1="-62.64" y1="-132.0" x2="-62.64" y2="-135.0" stroke-width="1" stroke="black" />
	<line x1="-62.64" y1="-135.0" x2="-60.03" y2="-133.5" stroke-width="1" stroke="black" />
	<line x1="-60.03" y1="-133.5" x2="-57.42" y2="-135.0" stroke-width="1" stroke="black" />
	<line x1="-57.42" y1="-135.0" x2="-57.42" y2="-132.0" stroke-width="1" stroke="black" />
	<line x1="-57.42" y1="-132.0" x2="-54.81" y2="-130.5" stroke-width="1" stroke="black" />
	<line x1="-54.81" y1="-130.5" x2="-52.2" y2="-132.0" stroke-width="1" stroke="black" />
	<line x1="-52.2" y1="-132.0" x2="-52.2" y2="-135.0" stroke-width="1" stroke="black" />
	<line x1="-52.2" y1="-135.0" x2="-49.59" y2="-133.5" stroke-width="1" stroke="black" />
	<line x1="-49.59" y1="-133.5" x2="-46.980000000000004" y2="-135.0" stroke-width="1" stroke="black" />
	<line x1="-46.980000000000004" y1="-135.0" x2="-46.980000000000004" y2="-138.0" stroke-width="1" stroke="black" />
	<line x1="-46.980000000000004" y1="-138.0" x2="-49.59" y2="-139.5" stroke-width="1" stroke="black" />
	<line x1="-49.59" y1="-139.5" x2="-46.980000000000004" y2="-141.0" stroke-width="1" stroke="black" />
	<line x1="-46.980000000000004" y1="-141.0" x2="-46.980000000000004" y2="-144.0" stroke-width="1" stroke="black" />
	<line x1="-46.980000000000004" y1="-144.0" x2="-49.59" y2="-145.5" stroke-width="1" stroke="black" />
	<line x1="-49.59" y1="-145.5" x2="-52.2" y2="-144.0" stroke-width="1" stroke="black" />
	<line x1="-52.2" y1="-144.0" x2="-52.2" y2="-147.0" stroke-width="1" stroke="black" />
	<line x1="-52.2" y1="-147.0" x2="-54.81" y2="-148.5" stroke-width="1" stroke="black" />
	<line x1="-54.81" y1="-148.5" x2="-52.2" y2="-150.0" stroke-width="1" stroke="black" />
	<line x1="-52.2" y1="-150.0" x2="-52.2" y2="-153.0" stroke-width="1" stroke="black" />
	<line x1="-52.2" y1="-153.0" x2="-49.59" y2="-151.5" stroke-width="1" stroke="black" />
	<line x1="-49.59" y1="-151.5" x2="-46.980000000000004" y2="-153.0" stroke-width="1" stroke="black" />
	<line x1="-46.980000000000004" y1="-153.0" x2="-46.980000000000004" y2="-156.0" stroke-width="1" stroke="black" />
	<line x1="-46.980000000000004" y1="-156.0" x2="-49.59" y2="-157.5" stroke-width="1" stroke="black" />
	<line x1="-49.59" y1="-157.5" x2="-46.980000000000004" y2="-159.0" stroke-width="1" stroke="black" />
	<line x1="-46.980000000000004" y1="-159.0" x2="-46.980000000000004" y2="-162.0" stroke-width="1" stroke="black" />
	<line x1="-46.980000000000004" y1="-162.0" x2="-44.370000000000005" y2="-160.5" stroke-width="1" stroke="black" />
	<line x1="-44.370000000000005" y1="-160.5" x2="-41.760000000000005" y2="-162.0" stroke-width="1" stroke="black" />
	<line x1="-41.760000000000005" y1="-162.0" x2="-41.760000000000005" y2="-159.0" stroke-width="1" stroke="black" />
	<line x1="-41.760000000000005" y1="-159.0" x2="-39.150000000000006" y2="-157.5" stroke-width="1" stroke="black" />
	<line x1="-39.150000000000006" y1="-157.5" x2="-36.540000000000006" y2="-159.0" stroke-width="1" stroke="black" />
	<line x1="-36.540000000000006" y1="-159.0" x2="-36.540000000000006" y2="-162.0" stroke-width="1" stroke="black" />
	<line x1="-36.540000000000006" y1="-162.0" x2="-33.93000000000001" y2="-160.5" stroke-width="1" stroke="black" />
	<line x1="-33.93000000000001" y1="-160.5" x2="-31.320000000000007" y2="-162.0" stroke-width="1" stroke="black" />
	<line x1="-31.320000000000007" y1="-162.0" x2="-31.320000000000007" y2="-159.0" stroke-width="1" stroke="black" />
	<line x1="-31.320000000000007" y1="-159.0" x2="-28.710000000000008" y2="-157.5" stroke-width="1" stroke="black" />
	<line x1="-28.710000000000008" y1="-157.5" x2="-31.320000000000007" y2="-156.0" stroke-width="1" stroke="black" />
	<line x1="-31.320000000000007" y1="-156.0" x2="-31.320000000000007" y2="-153.0" stroke-width="1" stroke="black" />
	<line x1="-31.320000000000007" y1="-153.0" x2="-28.710000000000008" y2="-151.5" stroke-width="1" stroke="black" />
	<line x1="-28.710000000000008" y1="-151.5" x2="-26.10000000000001" y2="-153.0" stroke-width="1" stroke="black" />
	<line x1="-26.10000000000001" y1="-153.0" x2="-26.10000000000001" y2="-150.0" stroke-width="1" stroke="black" />
	<line x1="-26.10000000000001" y1="-150.0" x2="-23.49000000000001" y2="-148.5" stroke-width="1" stroke="black" />
	<line x1="-23.49000000000001" y1="-148.5" x2="-20.88000000000001" y2="-150.0" stroke-width="1" stroke="black" />
	<line x1="-20.88000000000001" y1="-150.0" x2="-20.88000000000001" y2="-153.0" stroke-width="1" stroke="black" />
	<line x1="-20.88000000000001" y1="-153.0" x2="-18.27000000000001" y2="-151.5" stroke-width="1" stroke="black" />
	<line x1="-18.27000000000001" y1="-151.5" x2="-15.66000000000001" y2="-153.0" stroke-width="1" stroke="black" />
	<line x1="-15.66000000000001" y1="-153.0" x2="-15.66000000000001" y2="-156.0" stroke-width="1" stroke="black" />
	<line x1="-15.66000000000001" y1="-156.0" x2="-18.27000000000001" y2="-157.5" stroke-width="1" stroke="black" />
	<line x1="-18.27000000000001" y1="-157.5" x2="-15.66000000000001" y2="-159.0" stroke-width="1" stroke="black" />
	<line x1="-15.66000000000001" y1="-159.0" x2="-15.66000000000001" y2="-162.0" stroke-width="1" stroke="black" />
	<line x1="-15.66000000000001" y1="-162.0" x2="-13.050000000000011" y2="-160.5" stroke-width="1" stroke="black" />
	<line x1="-13.050000000000011" y1="-160.5" x2="-10.440000000000012" y2="-162.0" stroke-width="1" stroke="black" />
	<line x1="-10.440000000000012" y1="-162.0" x2="-10.440000000000012" y2="-159.0" stroke-width="1" stroke="black" />
	<line x1="-10.440000000000012" y1="-159.0" x2="-7.8300000000000125" y2="-157.5" stroke-width="1" stroke="black" />
	<line x1="-7.8300000000000125" y1="-157.5" x2="-5.220000000000013" y2="-159.0" stroke-width="1" stroke="black" />
	<line x1="-5.220000000000013" y1="-159.0" x2="-5.220000000000013" y2="-162.0" stroke-width="1" stroke="black" />
	<line x1="-5.220000000000013" y1="-162.0" x2="-2.610000000000013" y2="-160.5" stroke-width="1" stroke="black" />
	<line x1="-2.610000000000013" y1="-160.5" x2="-1.3322676295501878e-14" y2="-162.0" stroke-width="1" stroke="black" />
	<line x1="-1.3322676295501878e-14" y1="-162.0" x2="-1.3322676295501878e-14" y2="-165.0" stroke-width="1" stroke="black" />
	<line x1="-1.3322676295501878e-14" y1="-165.0" x2="-2.610000000000013" y2="-166.5" stroke-width="1" stroke="black" />
	<line x1="-2.610000000000013" y1="-166.5" x2="-1.3322676295501878e-14" y2="-168.0" stroke-width="1" stroke="black" />
	<line x1="-1.3322676295501878e-14" y1="-168.0" x2="-1.3322676295501878e-14" y2="-171.0" stroke-width="1" stroke="black" />
	<line x1="-1.3322676295501878e-14" y1="-171.0" x2="-2.610000000000013" y2="-172.5" stroke-width="1" stroke="black" />
	<line x1="-2.610000000000013" y1="-172.5" x2="-5.220000000000013" y2="-171.0" stroke-width="1" stroke="black" />
	<line x1="-5.220000000000013" y1="-171.0" x2="-5.220000000000013" y2="-174.0" stroke-width="1" stroke="black" />
	<line x1="-5.220000000000013" y1="-174.0" x2="-7.8300000000000125" y2="-175.5" stroke-width="1" stroke="black" />
	<line x1="-7.8300000000000125" y1="-175.5" x2="-5.220000000000013" y2="-177.0" stroke-width="1" stroke="black" />
	<line x1="-5.220000000000013" y1="-177.0" x2="-5.220000000000013" y2="-180.0" stroke-width="1" stroke="black" />
	<line x1="-5.220000000000013" y1="-180.0" x2="-2.610000000000013" y2="-178.5" stroke-width="1" stroke="black" />
	<line x1="-2.610000000000013" y1="-178.5" x2="-1.3322676295501878e-14" y2="-180.0" stroke-width="1" stroke="black" />
	<line x1="-1.3322676295501878e-14" y1="-180.0" x2="-1.3322676295501878e-14" y2="-183.0" stroke-width="1" stroke="black" />
	<line x1="-1.3322676295501878e-14" y1="-183.0" x2="-2.610000000000013" y2="-184.5" stroke-width="1" stroke="black" />
	<line x1="-2.610000000000013" y1="-184.5" x2="-1.3322676295501878e-14" y2="-186.0" stroke-width="1" stroke="black" />
	<line x1="-1.3322676295501878e-14" y1="-186.0" x2="-1.3322676295501878e-14" y2="-189.0" stroke-width="1" stroke="black" />
	<line x1="-1.3322676295501878e-14" y1="-189.0" x2="-2.610000000000013" y2="-190.5" stroke-width="1" stroke="black" />
	<line x1="-2.610000000000013" y1="-190.5" x2="-5.220000000000013" y2="-189.0" stroke-width="1" stroke="black" />
	<line x1="-5.220000000000013" y1="-189.0" x2="-5.220000000000013" y2="-192.0" stroke-width="1" stroke="black" />
	<line x1="-5.220000000000013" y1="-192.0" x2="-7.8300000000000125" y2="-193.5" stroke-width="1" stroke="black" />
	<line x1="-7.8300000000000125" y1="-193.5" x2="-10.440000000000012" y2="-192.0" stroke-width="1" stroke="black" />
	<line x1="-10.440000000000012" y1="-192.0" x2="-10.440000000000012" y2="-189.0" stroke-width="1" stroke="black" />
	<line x1="-10.440000000000012" y1="-189.0" x2="-13.050000000000011" y2="-190.5" stroke-width="1" stroke="black" />
	<line x1="-13.050000000000011" y1="-190.5" x2="-15.66000000000001" y2="-189.0" stroke-width="1" stroke="black" />
	<line x1="-15.66000000000001" y1="-189.0" x2="-15.66000000000001" y2="-192.0" stroke-width="1" stroke="black" />
	<line x1="-15.66000000000001" y1="-192.0" x2="-18.27000000000001" y2="-193.5" stroke-width="1" stroke="black" />
	<line x1="-18.27000000000001" y1="-193.5" x2="-15.66000000000001" y2="-195.0" stroke-width="1" stroke="black" />
	<line x1="-15.66000000000001" y1="-195.0" x2="-15.66000000000001" y2="-198.0" stroke-width="1" stroke="black" />
	<line x1="-15.66000000000001" y1="-198.0" x2="-18.27000000000001" y2="-199.5" stroke-width="1" stroke="black" />
	<line x1="-18.27000000000001" y1="-199.5" x2="-20.88000000000001" y2="-198.0" stroke-width="1" stroke="black" />
	<line x1="-20.88000000000001" y1="-198.0" x2="-20.88000000000001" y2="-201.0" stroke-width="1" stroke="black" />
	<line x1="-20.88000000000001" y1="-201.0" x2="-23.49000000000001" y2="-202.5" stroke-width="1" stroke="black" />
	<line x1="-23.49000000000001" y1="-202.5" x2="-20.88000000000001" y2="-204.0" stroke-width="1" stroke="black" />
	<line x1="-20.88000000000001" y1="-204.0" x2="-20.88000000000001" y2="-207.0" stroke-width="1" stroke="black" />
	<line x1="-20.88000000000001" y1="-207.0" x2="-18.27000000000001" y2="-205.5" stroke-width="1" stroke="black" />
	<line x1="-18.27000000000001" y1="-205.5" x2="-15.66000000000001" y2="-207.0" stroke-width="1" stroke="black" />
	<line x1="-15.66000000000001" y1="-207.0" x2="-15.66000000000001" y2="-210.0" stroke-width="1" stroke="black" />
	<line x1="-15.66000000000001" y1="-210.0" x2="-18.27000000000001" y2="-211.5" stroke-width="1" stroke="black" />
	<line x1="-18.27000000000001" y1="-211.5" x2="-15.66000000000001" y2="-213.0" stroke-width="1" stroke="black" />
	<line x1="-15.66000000000001" y1="-213.0" x2="-15.66000000000001" y2="-216.0" stroke-width="1" stroke="black" />
	<line x1="-15.66000000000001" y1="-216.0" x2="-13.050000000000011" y2="-214.5" stroke-width="1" stroke="black" />
	<line x1="-13.050000000000011" y1="-214.5" x2="-10.440000000000012" y2="-216.0" stroke-width="1" stroke="black" />
	<line x1="-10.440000000000012" y1="-216.0" x2="-10.440000000000012" y2="-213.0" stroke-width="1" stroke="black" />
	<line x1="-10.440000000000012" y1="-213.0" x2="-7.8300000000000125" y2="-211.5" stroke-width="1" stroke="black" />
	<line x1="-7.8300000000000125" y1="-211.5" x2="-5.220000000000013" y2="-213.0" stroke-width="1" stroke="black" />
	<line x1="-5.220000000000013" y1="-213.0" x2="-5.220000000000013" y2="-216.0" stroke-width="1" stroke="black" />
	<line x1="-5.220000000000013" y1="-216.0" x2="-2.610000000000013" y2="-214.5" stroke-width="1" stroke="black" />
	<line x1="-2.610000000000013" y1="-214.5" x2="-1.3322676295501878e-14" y2="-216.0" stroke-width="1" stroke="black" />
	<line x1="-1.3322676295501878e-14" y1="-216.0" x2="-1.3322676295501878e-14" y2="-219.0" stroke-width="1" stroke="black" />
	<line x1="-1.3322676295501878e-14" y1="-219.0" x2="-2.610000000000013" y2="-220.5" stroke-width="1" stroke="black" />
	<line x1="-2.610000000000013" y1="-220.5" x2="-1.3322676295501878e-14" y2="-222.0" stroke-width="1" stroke="black" />
	<line x1="-1.3322676295501878e-14" y1="-222.0" x2="-1.3322676295501878e-14" y2="-225.0" stroke-width="1" stroke="black" />
	<line x1="-1.3322676295501878e-14" y1="-225.0" x2="-2.610000000000013" y2="-226.5" stroke-width="1" stroke="black" />
	<line x1="-2.610000000000013" y1="-226.5" x2="-5.220000000000013" y2="-225.0" stroke-width="1" stroke="black" />
	<line x1="-5.220000000000013" y1="-225.0" x2="-5.220000000000013" y2="-228.0" stroke-width="1" stroke="black" />
	<line x1="-5.220000000000013" y1="-228.0" x2="-7.8300000000000125" y2="-229.5" stroke-width="1" stroke="black" />
	<line x1="-7.8300000000000125" y1="-229.5" x2="-5.220000000000013" y2="-231.0" stroke-width="1" stroke="black" />
	<line x1="-5.220000000000013" y1="-231.0" x2="-5.220000000000013" y2="-234.0" stroke-width="1" stroke="black" />
	<line x1="-5.220000000000013" y1="-234.0" x2="-2.610000000000013" y2="-232.5" stroke-width="1" stroke="black" />
	<line x1="-2.610000000000013" y1="-232.5" x2="-1.3322676295501878e-14" y2="-234.0" stroke-width="1" stroke="black" />
	<line x1="-1.3322676295501878e-14" y1="-234.0" x2="-1.3322676295501878e-14" y2="-237.0" stroke-width="1" stroke="black" />
	<line x1="-1.3322676295501878e-14" y1="-237.0" x2="-2.610000000000013" y2="-238.5" stroke-width="1" stroke="black" />
	<line x1="-2.610000000000013" y1="-238.5" x2="-1.3322676295501878e-14" y2="-240.0" stroke-width="1" stroke="black" />
	<line x1="-1.3322676295501878e-14" y1="-240.0" x2="-1.3322676295501878e-14" y2="-243.0" stroke-width="1" stroke="black" />
	<line x1="-1.3322676295501878e-14" y1="-243.0" x2="2.6099999999999866" y2="-241.5" stroke-width="1" stroke="black" />
	<line x1="2.6099999999999866" y1="-241.5" x2="5.219999999999986" y2="-243.0" stroke-width="1" stroke="black" />
	<line x1="5.219999999999986" y1="-243.0" x2="5.219999999999986" y2="-240.0" stroke-width="1" stroke="black" />
	<line x1="5.219999999999986" y1="-240.0" x2="7.829999999999986" y2="-238.5" stroke-width="1" stroke="black" />
	<line x1="7.829999999999986" y1="-238.5" x2="10.439999999999985" y2="-240.0" stroke-width="1" stroke="black" />
	<line x1="10.439999999999985" y1="-240.0" x2="10.439999999999985" y2="-243.0" stroke-width="1" stroke="black" />
	<line x1="10.439999999999985" y1="-243.0" x2="13.049999999999985" y2="-241.5" stroke-width="1" stroke="black" />
	<line x1="13.049999999999985" y1="-241.5" x2="15.659999999999984" y2="-243.0" stroke-width="1" stroke="black" />
	<line x1="15.659999999999984" y1="-243.0" x2="15.659999999999984" y2="-240.0" stroke-width="1" stroke="black" />
	<line x1="15.659999999999984" y1="-240.0" x2="18.269999999999985" y2="-238.5" stroke-width="1" stroke="black" />
	<line x1="18.269999999999985" y1="-238.5" x2="15.659999999999986" y2="-237.0" stroke-width="1" stroke="black" />
	<line x1="15.659999999999986" y1="-237.0" x2="15.659999999999986" y2="-234.0" stroke-width="1" stroke="black" />
	<line x1="15.659999999999986" y1="-234.0" x2="18.269999999999985" y2="-232.5" stroke-width="1" stroke="black" />
	<line x1="18.269999999999985" y1="-232.5" x2="20.879999999999985" y2="-234.0" stroke-width="1" stroke="black" />
	<line x1="20.879999999999985" y1="-234.0" x2="20.879999999999985" y2="-231.0" stroke-width="1" stroke="black" />
	<line x1="20.879999999999985" y1="-231.0" x2="23.489999999999984" y2="-229.5" stroke-width="1" stroke="black" />
	<line x1="23.489999999999984" y1="-229.5" x2="26.099999999999984" y2="-231.0" stroke-width="1" stroke="black" />
	<line x1="26.099999999999984" y1="-231.0" x2="26.099999999999984" y2="-234.0" stroke-width="1" stroke="black" />
	<line x1="26.099999999999984" y1="-234.0" x2="28.709999999999983" y2="-232.5" stroke-width="1" stroke="black" />
	<line x1="28.709999999999983" y1="-232.5" x2="31.319999999999983" y2="-234.0" stroke-width="1" stroke="black" />
	<line x1="31.319999999999983" y1="-234.0" x2="31.319999999999983" y2="-237.0" stroke-width="1" stroke="black" />
	<line x1="31.319999999999983" y1="-237.0" x2="28.709999999999983" y2="-238.5" stroke-width="1" stroke="black" />
	<line x1="28.709999999999983" y1="-238.5" x2="31.319999999999983" y2="-240.0" stroke-width="1" stroke="black" />
	<line x1="31.319999999999983" y1="-240.0" x2="31.319999999999983" y2="-243.0" stroke-width="1" stroke="black" />
	<line x1="31.319999999999983" y1="-243.0" x2="33.929999999999986" y2="-241.5" stroke-width="1" stroke="black" />
	<line x1="33.929999999999986" y1="-241.5" x2="36.539999999999985" y2="-243.0" stroke-width="1" stroke="black" />
	<line x1="36.539999999999985" y1="-243.0" x2="36.539999999999985" y2="-240.0" stroke-width="1" stroke="black" />
	<line x1="36.539999999999985" y1="-240.0" x2="39.149999999999984" y2="-238.5" stroke-width="1" stroke="black" />
	<line x1="39.149999999999984" y1="-238.5" x2="41.759999999999984" y2="-240.0" stroke-width="1" stroke="black" />
	<line x1="41.759999999999984" y1="-240.0" x2="41.759999999999984" y2="-243.0" stroke-width="1" stroke="black" />
	<line x1="41.759999999999984" y1="-243.0" x2="44.36999999999998" y2="-241.5" stroke-width="1" stroke="black" />
	<line x1="44.36999999999998" y1="-241.5" x2="46.97999999999998" y2="-243.0" stroke-width="1" stroke="black" />
	<line x1="46.97999999999998" y1="-243.0" x2="46.97999999999998" y2="-240.0" stroke-width="1" stroke="black" />
	<line x1="46.97999999999998" y1="-240.0" x2="49.58999999999998" y2="-238.5" stroke-width="1" stroke="black" />
	<line x1="49.58999999999998" y1="-238.5" x2="46.97999999999998" y2="-237.0" stroke-width="1" stroke="black" />
	<line x1="46.97999999999998" y1="-237.0" x2="46.97999999999998" y2="-234.0" stroke-width="1" stroke="black" />
	<line x1="46.97999999999998" y1="-234.0" x2="49.58999999999998" y2="-232.5" stroke-width="1" stroke="black" />
	<line x1="49.58999999999998" y1="-232.5" x2="52.19999999999998" y2="-234.0" stroke-width="1" stroke="black" />
	<line x1="52.19999999999998" y1="-234.0" x2="52.19999999999998" y2="-231.0" stroke-width="1" stroke="black" />
	<line x1="52.19999999999998" y1="-231.0" x2="54.80999999999998" y2="-229.5" stroke-width="1" stroke="black" />
	<line x1="54.80999999999998" y1="-229.5" x2="52.19999999999998" y2="-228.0" stroke-width="1" stroke="black" />
	<line x1="52.19999999999998" y1="-228.0" x2="52.19999999999998" y2="-225.0" stroke-width="1" stroke="black" />
	<line x1="52.19999999999998" y1="-225.0" x2="49.58999999999998" y2="-226.5" stroke-width="1" stroke="black" />
	<line x1="49.58999999999998" y1="-226.5" x2="46.97999999999998" y2="-225.0" stroke-width="1" stroke="black" />
	<line x1="46.97999999999998" y1="-225.0" x2="46.97999999999998" y2="-222.0" stroke-width="1" stroke="black" />
	<line x1="46.97999999999998" y1="-222.0" x2="49.58999999999998" y2="-220.5" stroke-width="1" stroke="black" />
	<line x1="49.58999999999998" y1="-220.5" x2="46.97999999999998" y2="-219.0" stroke-width="1" stroke="black" />
	<line x1="46.97999999999998" y1="-219.0" x2="46.97999999999998" y2="-216.0" stroke-width="1" stroke="black" />
	<line x1="46.97999999999998" y1="-216.0" x2="49.58999999999998" y2="-214.5" stroke-width="1" stroke="black" />
	<line x1="49.58999999999998" y1="-214.5" x2="52.19999999999998" y2="-216.0" stroke-width="1" stroke="black" />
	<line x1="52.19999999999998" y1="-216.0" x2="52.19999999999998" y2="-213.0" stroke-width="1" stroke="black" />
	<line x1="52.19999999999998" y1="-213.0" x2="54.80999999999998" y2="-211.5" stroke-width="1" stroke="black" />
	<line x1="54.80999999999998" y1="-211.5" x2="57.41999999999998" y2="-213.0" stroke-width="1" stroke="black" />
	<line x1="57.41999999999998" y1="-213.0" x2="57.41999999999998" y2="-216.0" stroke-width="1" stroke="black" />
	<line x1="57.41999999999998" y1="-216.0" x2="60.02999999999998" y2="-214.5" stroke-width="1" stroke="black" />
	<line x1="60.02999999999998" y1="-214.5" x2="62.63999999999998" y2="-216.0" stroke-width="1" stroke="black" />
	<line x1="62.63999999999998" y1="-216.0" x2="62.63999999999998" y2="-213.0" stroke-width="1" stroke="black" />
	<line x1="62.63999999999998" y1="-213.0" x2="65.24999999999999" y2="-211.5" stroke-width="1" stroke="black" />
	<line x1="65.24999999999999" y1="-211.5" x2="62.639999999999986" y2="-210.0" stroke-width="1" stroke="black" />
	<line x1="62.639999999999986" y1="-210.0" x2="62.639999999999986" y2="-207.0" stroke-width="1" stroke="black" />
	<line x1="62.639999999999986" y1="-207.0" x2="65.24999999999999" y2="-205.5" stroke-width="1" stroke="black" />
	<line x1="65.24999999999999" y1="-205.5" x2="67.85999999999999" y2="-207.0" stroke-width="1" stroke="black" />
	<line x1="67.85999999999999" y1="-207.0" x2="67.85999999999999" y2="-204.0" stroke-width="1" stroke="black" />
	<line x1="67.85999999999999" y1="-204.0" x2="70.46999999999998" y2="-202.5" stroke-width="1" stroke="black" />
	<line x1="70.46999999999998" y1="-202.5" x2="73.07999999999998" y2="-204.0" stroke-width="1" stroke="black" />
	<line x1="73.07999999999998" y1="-204.0" x2="73.07999999999998" y2="-207.0" stroke-width="1" stroke="black" />
	<line x1="73.07999999999998" y1="-207.0" x2="75.68999999999998" y2="-205.5" stroke-width="1" stroke="black" />
	<line x1="75.68999999999998" y1="-205.5" x2="78.29999999999998" y2="-207.0" stroke-width="1" stroke="black" />
	<line x1="78.29999999999998" y1="-207.0" x2="78.29999999999998" y2="-210.0" stroke-width="1" stroke="black" />
	<line x1="78.29999999999998" y1="-210.0" x2="75.68999999999998" y2="-211.5" stroke-width="1" stroke="black" />
	<line x1="75.68999999999998" y1="-211.5" x2="78.29999999999998" y2="-213.0" stroke-width="1" stroke="black" />
	<line x1="78.29999999999998" y1="-213.0" x2="78.29999999999998" y2="-216.0" stroke-width="1" stroke="black" />
	<line x1="78.29999999999998" y1="-216.0" x2="80.90999999999998" y2="-214.5" stroke-width="1" stroke="black" />
	<line x1="80.90999999999998" y1="-214.5" x2="83.51999999999998" y2="-216.0" stroke-width="1" stroke="black" />
	<line x1="83.51999999999998" y1="-216.0" x2="83.51999999999998" y2="-213.0" stroke-width="1" stroke="black" />
	<line x1="83.51999999999998" y1="-213.0" x2="86.12999999999998" y2="-211.5" stroke-width="1" stroke="black" />
	<line x1="86.12999999999998" y1="-211.5" x2="88.73999999999998" y2="-213.0" stroke-width="1" stroke="black" />
	<line x1="88.73999999999998" y1="-213.0" x2="88.73999999999998" y2="-216.0" stroke-width="1" stroke="black" />
	<line x1="88.73999999999998" y1="-216.0" x2="91.34999999999998" y2="-214.5" stroke-width="1" stroke="black" />
	<line x1="91.34999999999998" y1="-214.5" x2="93.95999999999998" y2="-216.0" stroke-width="1" stroke="black" />
	<line x1="93.95999999999998" y1="-216.0" x2="93.95999999999998" y2="-219.0" stroke-width="1" stroke="black" />
	<line x1="93.95999999999998" y1="-219.0" x2="91.34999999999998" y2="-220.5" stroke-width="1" stroke="black" />
	<line x1="91.34999999999998" y1="-220.5" x2="93.95999999999998" y2="-222.0" stroke-width="1" stroke="black" />
	<line x1="93.95999999999998" y1="-222.0" x2="93.95999999999998" y2="-225.0" stroke-width="1" stroke="black" />
	<line x1="93.95999999999998" y1="-225.0" x2="91.34999999999998" y2="-226.5" stroke-width="1" stroke="black" />
	<line x1="91.34999999999998" y1="-226.5" x2="88.73999999999998" y2="-225.0" stroke-width="1" stroke="black" />
	<line x1="88.73999999999998" y1="-225.0" x2="88.73999999999998" y2="-228.0" stroke-width="1" stroke="black" />
	<line x1="88.73999999999998" y1="-228.0" x2="86.12999999999998" y2="-229.5" stroke-width="1" stroke="black" />
	<line x1="86.12999999999998" y1="-229.5" x2="88.73999999999998" y2="-231.0" stroke-width="1" stroke="black" />
	<line x1="88.73999999999998" y1="-231.0" x2="88.73999999999998" y2="-234.0" stroke-width="1" stroke="black" />
	<line x1="88.73999999999998" y1="-234.0" x2="91.34999999999998" y2="-232.5" stroke-width="1" stroke="black" />
	<line x1="91.34999999999998" y1="-232.5" x2="93.95999999999998" y2="-234.0" stroke-width="1" stroke="black" />
	<line x1="93.95999999999998" y1="-234.0" x2="93.95999999999998" y2="-237.0" stroke-width="1" stroke="black" />
	<line x1="93.95999999999998" y1="-237.0" x2="91.34999999999998" y2="-238.5" stroke-width="1" stroke="black" />
	<line x1="91.34999999999998" y1="-238.5" x2="93.95999999999998" y2="-240.0" stroke-width="1" stroke="black" />
	<line x1="93.95999999999998" y1="-240.0" x2="93.95999999999998" y2="-243.0" stroke-width="1" stroke="black" />
	<line x1="93.95999999999998" y1="-243.0" x2="96.56999999999998" y2="-241.5" stroke-width="1" stroke="black" />
	<line x1="96.56999999999998" y1="-241.5" x2="99.17999999999998" y2="-243.0" stroke-width="1" stroke="black" />
	<line x1="99.17999999999998" y1="-243.0" x2="99.17999999999998" y2="-240.0" stroke-width="1" stroke="black" />
	<line x1="99.17999999999998" y1="-240.0" x2="101.78999999999998" y2="-238.5" stroke-width="1" stroke="black" />
	<line x1="101.78999999999998" y1="-238.5" x2="104.39999999999998" y2="-240.0" stroke-width="1" stroke="black" />
	<line x1="104.39999999999998" y1="-240.0" x2="104.39999999999998" y2="-243.0" stroke-width="1" stroke="black" />
	<line x1="104.39999999999998" y1="-243.0" x2="107.00999999999998" y2="-241.5" stroke-width="1" stroke="black" />
	<line x1="107.00999999999998" y1="-241.5" x2="109.61999999999998" y2="-243.0" stroke-width="1" stroke="black" />
	<line x1="109.61999999999998" y1="-243.0" x2="109.61999999999998" y2="-240.0" stroke-width="1" stroke="black" />
	<line x1="109.61999999999998" y1="-240.0" x2="112.22999999999998" y2="-238.5" stroke-width="1" stroke="black" />
	<line x1="112.22999999999998" y1="-238.5" x2="109.61999999999998" y2="-237.0" stroke-width="1" stroke="black" />
	<line x1="109.61999999999998" y1="-237.0" x2="109.61999999999998" y2="-234.0" stroke-width="1" stroke="black" />
	<line x1="109.61999999999998" y1="-234.0" x2="112.22999999999998" y2="-232.5" stroke-width="1" stroke="black" />
	<line x1="112.22999999999998" y1="-232.5" x2="114.83999999999997" y2="-234.0" stroke-width="1" stroke="black" />
	<line x1="114.83999999999997" y1="-234.0" x2="114.83999999999997" y2="-231.0" stroke-width="1" stroke="black" />
	<line x1="114.83999999999997" y1="-231.0" x2="117.44999999999997" y2="-229.5" stroke-width="1" stroke="black" />
	<line x1="117.44999999999997" y1="-229.5" x2="120.05999999999997" y2="-231.0" stroke-width="1" stroke="black" />
	<line x1="120.05999999999997" y1="-231.0" x2="120.05999999999997" y2="-234.0" stroke-width="1" stroke="black" />
	<line x1="120.05999999999997" y1="-234.0" x2="122.66999999999997" y2="-232.5" stroke-width="1" stroke="black" />
	<line x1="122.66999999999997" y1="-232.5" x2="125.27999999999997" y2="-234.0" stroke-width="1" stroke="black" />
	<line x1="125.27999999999997" y1="-234.0" x2="125.27999999999997" y2="-237.0" stroke-width="1" stroke="black" />
	<line x1="125.27999999999997" y1="-237.0" x2="122.66999999999997" y2="-238.5" stroke-width="1" stroke="black" />
	<line x1="122.66999999999997" y1="-238.5" x2="125.27999999999997" y2="-240.0" stroke-width="1" stroke="black" />
	<line x1="125.27999999999997" y1="-240.0" x2="125.27999999999997" y2="-243.0" stroke-width="1" stroke="black" />
	<line x1="125.27999999999997" y1="-243.0" x2="127.88999999999997" y2="-241.5" stroke-width="1" stroke="black" />
	<line x1="127.88999999999997" y1="-241.5" x2="130.49999999999997" y2="-243.0" stroke-width="1" stroke="black" />
	<line x1="130.49999999999997" y1="-243.0" x2="130.49999999999997" y2="-240.0" stroke-width="1" stroke="black" />
	<line x1="130.49999999999997" y1="-240.0" x2="133.10999999999999" y2="-238.5" stroke-width="1" stroke="black" />
	<line x1="133.10999999999999" y1="-238.5" x2="135.72" y2="-240.0" stroke-width="1" stroke="black" />
	<line x1="135.72" y1="-240.0" x2="135.72" y2="-243.0" stroke-width="1" stroke="black" />
	<line x1="135.72" y1="-243.0" x2="138.33" y2="-241.5" stroke-width="1" stroke="black" />
	<line x1="138.33" y1="-241.5" x2="140.94000000000003" y2="-243.0" stroke-width="1" stroke="black" />
	<line x1="140.94000000000003" y1="-243.0" x2="140.94000000000003" y2="-240.0" stroke-width="1" stroke="black" />
	<line x1="140.94000000000003" y1="-240.0" x2="143.55000000000004" y2="-238.5" stroke-width="1" stroke="black" />
	<line x1="143.55000000000004" y1="-238.5" x2="140.94000000000003" y2="-237.0" stroke-width="1" stroke="black" />
	<line x1="140.94000000000003" y1="-237.0" x2="140.94000000000003" y2="-234.0" stroke-width="1" stroke="black" />
	<line x1="140.94000000000003" y1="-234.0" x2="143.55000000000004" y2="-232.5" stroke-width="1" stroke="black" />
	<line x1="143.55000000000004" y1="-232.5" x2="146.16000000000005" y2="-234.0" stroke-width="1" stroke="black" />
	<line x1="146.16000000000005" y1="-234.0" x2="146.16000000000005" y2="-231.0" stroke-width="1" stroke="black" />
	<line x1="146.16000000000005" y1="-231.0" x2="148.77000000000007" y2="-229.5" stroke-width="1" stroke="black" />
	<line x1="148.77000000000007" y1="-229.5" x2="146.16000000000005" y2="-228.0" stroke-width="1" stroke="black" />
	<line x1="146.16000000000005" y1="-228.0" x2="146.16000000000005" y2="-225.0" stroke-width="1" stroke="black" />
	<line x1="146.16000000000005" y1="-225.0" x2="143.55000000000004" y2="-226.5" stroke-width="1" stroke="black" />
	<line x1="143.55000000000004" y1="-226.5" x2="140.94000000000003" y2="-225.0" stroke-width="1" stroke="black" />
	<line x1="140.94000000000003" y1="-225.0" x2="140.94000000000003" y2="-222.0" stroke-width="1" stroke="black" />
	<line x1="140.94000000000003" y1="-222.0" x2="143.55000000000004" y2="-220.5" stroke-width="1" stroke="black" />
	<line x1="143.55000000000004" y1="-220.5" x2="140.94000000000003" y2="-219.0" stroke-width="1" stroke="black" />
	<line x1="140.94000000000003" y1="-219.0" x2="140.94000000000003" y2="-216.0" stroke-width="1" stroke="black" />
	<line x1="140.94000000000003" y1="-216.0" x2="143.55000000000004" y2="-214.5" stroke-width="1" stroke="black" />
	<line x1="143.55000000000004" y1="-214.5" x2="146.16000000000005" y2="-216.0" stroke-width="1" stroke="black" />
	<line x1="146.16000000000005" y1="-216.0" x2="146.16000000000005" y2="-213.0" stroke-width="1" stroke="black" />
	<line x1="146.16000000000005" y1="-213.0" x2="148.77000000000007" y2="-211.5" stroke-width="1" stroke="black" />
	<line x1="148.77000000000007" y1="-211.5" x2="151.38000000000008" y2="-213.0" stroke-width="1" stroke="black" />
	<line x1="151.38000000000008" y1="-213.0" x2="151.38000000000008" y2="-216.0" stroke-width="1" stroke="black" />
	<line x1="151.38000000000008" y1="-216.0" x2="153.9900000000001" y2="-214.5" stroke-width="1" stroke="black" />
	<line x1="153.9900000000001" y1="-214.5" x2="156.6000000000001" y2="-216.0" stroke-width="1" stroke="black" />
	<line x1="156.6000000000001" y1="-216.0" x2="156.6000000000001" y2="-213.0" stroke-width="1" stroke="black" />
	<line x1="156.6000000000001" y1="-213.0" x2="159.21000000000012" y2="-211.5" stroke-width="1" stroke="black" />
	<line x1="159.21000000000012" y1="-211.5" x2="156.6000000000001" y2="-210.0" stroke-width="1" stroke="black" />
	<line x1="156.6000000000001" y1="-210.0" x2="156.6000000000001" y2="-207.0" stroke-width="1" stroke="black" />
	<line x1="156.6000000000001" y1="-207.0" x2="159.21000000000012" y2="-205.5" stroke-width="1" stroke="black" />
	<line x1="159.21000000000012" y1="-205.5" x2="161.82000000000014" y2="-207.0" stroke-width="1" stroke="black" />
	<line x1="161.82000000000014" y1="-207.0" x2="161.82000000000014" y2="-204.0" stroke-width="1" stroke="black" />
	<line x1="161.82000000000014" y1="-204.0" x2="164.43000000000015" y2="-202.5" stroke-width="1" stroke="black" />
	<line x1="164.43000000000015" y1="-202.5" x2="161.82000000000014" y2="-201.0" stroke-width="1" stroke="black" />
	<line x1="161.82000000000014" y1="-201.0" x2="161.82000000000014" y2="-198.0" stroke-width="1" stroke="black" />
	<line x1="161.82000000000014" y1="-198.0" x2="159.21000000000012" y2="-199.5" stroke-width="1" stroke="black" />
	<line x1="159.21000000000012" y1="-199.5" x2="156.6000000000001" y2="-198.0" stroke-width="1" stroke="black" />
	<line x1="156.6000000000001" y1="-198.0" x2="156.6000000000001" y2="-195.0" stroke-width="1" stroke="black" />
	<line x1="156.6000000000001" y1="-195.0" x2="159.21000000000012" y2="-193.5" stroke-width="1" stroke="black" />
	<line x1="159.21000000000012" y1="-193.5" x2="156.6000000000001" y2="-192.0" stroke-width="1" stroke="black" />
	<line x1="156.6000000000001" y1="-192.0" x2="156.6000000000001" y2="-189.0" stroke-width="1" stroke="black" />
	<line x1="156.6000000000001" y1="-189.0" x2="153.9900000000001" y2="-190.5" stroke-width="1" stroke="black" />
	<line x1="153.9900000000001" y1="-190.5" x2="151.38000000000008" y2="-189.0" stroke-width="1" stroke="black" />
	<line x1="151.38000000000008" y1="-189.0" x2="151.38000000000008" y2="-192.0" stroke-width="1" stroke="black" />
	<line x1="151.38000000000008" y1="-192.0" x2="148.77000000000007" y2="-193.5" stroke-width="1" stroke="black" />
	<line x1="148.77000000000007" y1="-193.5" x2="146.16000000000005" y2="-192.0" stroke-width="1" stroke="black" />
	<line x1="146.16000000000005" y1="-192.0" x2="146.16000000000005" y2="-189.0" stroke-width="1" stroke="black" />
	<line x1="146.16000000000005" y1="-189.0" x2="143.55000000000004" y2="-190.5" stroke-width="1" stroke="black" />
	<line x1="143.55000000000004" y1="-190.5" x2="140.94000000000003" y2="-189.0" stroke-width="1" stroke="black" />
	<line x1="140.94000000000003" y1="-189.0" x2="140.94000000000003" y2="-186.0" stroke-width="1" stroke="black" />
	<line x1="140.94000000000003" y1="-186.0" x2="143.55000000000004" y2="-184.5" stroke-width="1" stroke="black" />
	<line x1="143.55000000000004" y1="-184.5" x2="140.94000000000003" y2="-183.0" stroke-width="1" stroke="black" />
	<line x1="140.94000000000003" y1="-183.0" x2="140.94000000000003" y2="-180.0" stroke-width="1" stroke="black" />
	<line x1="140.94000000000003" y1="-180.0" x2="143.55000000000004" y2="-178.5" stroke-width="1" stroke="black" />
	<line x1="143.55000000000004" y1="-178.5" x2="146.16000000000005" y2="-180.0" stroke-width="1" stroke="black" />
	<line x1="146.16000000000005" y1="-180.0" x2="146.16000000000005" y2="-177.0" stroke-width="1" stroke="black" />
	<line x1="146.16000000000005" y1="-177.0" x2="148.77000000000007" y2="-175.5" stroke-width="1" stroke="black" />
	<line x1="148.77000000000007" y1="-175.5" x2="146.16000000000005" y2="-174.0" stroke-width="1" stroke="black" />
	<line x1="146.16000000000005" y1="-174.0" x2="146.16000000000005" y2="-171.0" stroke-width="1" stroke="black" />
	<line x1="146.16000000000005" y1="-171.0" x2="143.55000000000004" y2="-172.5" stroke-width="1" stroke="black" />
	<line x1="143.55000000000004" y1="-172.5" x2="140.94000000000003" y2="-171.0" stroke-width="1" stroke="black" />
	<line x1="140.94000000000003" y1="-171.0" x2="140.94000000000003" y2="-168.0" stroke-width="1" stroke="black" />
	<line x1="140.94000000000003" y1="-168.0" x2="143.55000000000004" y2="-166.5" stroke-width="1" stroke="black" />
	<line x1="143.55000000000004" y1="-166.5" x2="140.94000000000003" y2="-165.0" stroke-width="1" stroke="black" />
	<line x1="140.94000000000003" y1="-165.0" x2="140.94000000000003" y2="-162.0" stroke-width="1" stroke="black" />
	<line x1="140.94000000000003" y1="-162.0" x2="143.55000000000004" y2="-160.5" stroke-width="1" stroke="black" />
	<line x1="143.55000000000004" y1="-160.5" x2="146.16000000000005" y2="-162.0" stroke-width="1" stroke="black" />
	<line x1="146.16000000000005" y1="-162.0" x2="146.16000000000005" y2="-159.0" stroke-width="1" stroke="black" />
	<line x1="146.16000000000005" y1="-159.0" x2="148.77000000000007" y2="-157.5" stroke-width="1" stroke="black" />
	<line x1="148.77000000000007" y1="-157.5" x2="151.38000000000008" y2="-159.0" stroke-width="1" stroke="black" />
	<line x1="151.38000000000008" y1="-159.0" x2="151.38000000000008" y2="-162.0" stroke-width="1" stroke="black" />
	<line x1="151.38000000000008" y1="-162.0" x2="153.9900000000001" y2="-160.5" stroke-width="1" stroke="black" />
	<line x1="153.9900000000001" y1="-160.5" x2="156.6000000000001" y2="-162.0" stroke-width="1" stroke="black" />
	<line x1="156.6000000000001" y1="-162.0" x2="156.6000000000001" y2="-159.0" stroke-width="1" stroke="black" />
	<line x1="156.6000000000001" y1="-159.0" x2="159.21000000000012" y2="-157.5" stroke-width="1" stroke="black" />
	<line x1="159.21000000000012" y1="-157.5" x2="156.6000000000001" y2="-156.0" stroke-width="1" stroke="black" />
	<line x1="156.6000000000001" y1="-156.0" x2="156.6000000000001" y2="-153.0" stroke-width="1" stroke="black" />
	<line x1="156.6000000000001" y1="-153.0" x2="159.21000000000012" y2="-151.5" stroke-width="1" stroke="black" />
	<line x1="159.21000000000012" y1="-151.5" x2="161.82000000000014" y2="-153.0" stroke-width="1" stroke="black" />
	<line x1="161.82000000000014" y1="-153.0" x2="161.82000000000014" y2="-150.0" stroke-width="1" stroke="black" />
	<line x1="161.82000000000014" y1="-150.0" x2="164.43000000000015" y2="-148.5" stroke-width="1" stroke="black" />
	<line x1="164.43000000000015" y1="-148.5" x2="167.04000000000016" y2="-150.0" stroke-width="1" stroke="black" />
	<line x1="167.04000000000016" y1="-150.0" x2="167.04000000000016" y2="-153.0" stroke-width="1" stroke="black" />
	<line x1="167.04000000000016" y1="-153.0" x2="169.65000000000018" y2="-151.5" stroke-width="1" stroke="black" />
	<line x1="169.65000000000018" y1="-151.5" x2="172.2600000000002" y2="-153.0" stroke-width="1" stroke="black" />
	<line x1="172.2600000000002" y1="-153.0" x2="172.2600000000002" y2="-156.0" stroke-width="1" stroke="black" />
	<line x1="172.2600000000002" y1="-156.0" x2="169.65000000000018" y2="-157.5" stroke-width="1" stroke="black" />
	<line x1="169.65000000000018" y1="-157.5" x2="172.2600000000002" y2="-159.0" stroke-width="1" stroke="black" />
	<line x1="172.2600000000002" y1="-159.0" x2="172.2600000000002" y2="-162.0" stroke-width="1" stroke="black" />
	<line x1="172.2600000000002" y1="-162.0" x2="174.8700000000002" y2="-160.5" stroke-width="1" stroke="black" />
	<line x1="174.8700000000002" y1="-160.5" x2="177.48000000000022" y2="-162.0" stroke-width="1" stroke="black" />
	<line x1="177.48000000000022" y1="-162.0" x2="177.48000000000022" y2="-159.0" stroke-width="1" stroke="black" />
	<line x1="177.48000000000022" y1="-159.0" x2="180.09000000000023" y2="-157.5" stroke-width="1" stroke="black" />
	<line x1="180.09000000000023" y1="-157.5" x2="182.70000000000024" y2="-159.0" stroke-width="1" stroke="black" />
	<line x1="182.70000000000024" y1="-159.0" x2="182.70000000000024" y2="-162.0" stroke-width="1" stroke="black" />
	<line x1="182.70000000000024" y1="-162.0" x2="185.31000000000026" y2="-160.5" stroke-width="1" stroke="black" />
	<line x1="185.31000000000026" y1="-160.5" x2="187.92000000000027" y2="-162.0" stroke-width="1" stroke="black" />
	<line x1="187.92000000000027" y1="-162.0" x2="187.92000000000027" y2="-159.0" stroke-width="1" stroke="black" />
	<line x1="187.92000000000027" y1="-159.0" x2="190.53000000000029" y2="-157.5" stroke-width="1" stroke="black" />
	<line x1="190.53000000000029" y1="-157.5" x2="187.92000000000027" y2="-156.0" stroke-width="1" stroke="black" />
	<line x1="187.92000000000027" y1="-156.0" x2="187.92000000000027" y2="-153.0" stroke-width="1" stroke="black" />
	<line x1="187.92000000000027" y1="-153.0" x2="190.53000000000029" y2="-151.5" stroke-width="1" stroke="black" />
	<line x1="190.53000000000029" y1="-151.5" x2="193.1400000000003" y2="-153.0" stroke-width="1" stroke="black" />
	<line x1="193.1400000000003" y1="-153.0" x2="193.1400000000003" y2="-150.0" stroke-width="1" stroke="black" />
	<line x1="193.1400000000003" y1="-150.0" x2="195.7500000000003" y2="-148.5" stroke-width="1" stroke="black" />
	<line x1="195.7500000000003" y1="-148.5" x2="193.1400000000003" y2="-147.0" stroke-width="1" stroke="black" />
	<line x1="193.1400000000003" y1="-147.0" x2="193.1400000000003" y2="-144.0" stroke-width="1" stroke="black" />
	<line x1="193.1400000000003" y1="-144.0" x2="190.53000000000029" y2="-145.5" stroke-width="1" stroke="black" />
	<line x1="190.53000000000029" y1="-145.5" x2="187.92000000000027" y2="-144.0" stroke-width="1" stroke="black" />
	<line x1="187.92000000000027" y1="-144.0" x2="187.92000000000027" y2="-141.0" stroke-width="1" stroke="black" />
	<line x1="187.92000000000027" y1="-141.0" x2="190.53000000000029" y2="-139.5" stroke-width="1" stroke="black" />
	<line x1="190.53000000000029" y1="-139.5" x2="187.92000000000027" y2="-138.0" stroke-width="1" stroke="black" />
	<line x1="187.92000000000027" y1="-138.0" x2="187.92000000000027" y2="-135.0" stroke-width="1" stroke="black" />
	<line x1="187.92000000000027" y1="-135.0" x2="190.53000000000029" y2="-133.5" stroke-width="1" stroke="black" />
	<line x1="190.53000000000029" y1="-133.5" x2="193.1400000000003" y2="-135.0" stroke-width="1" stroke="black" />
	<line x1="193.1400000000003" y1="-135.0" x2="193.1400000000003" y2="-132.0" stroke-width="1" stroke="black" />
	<line x1="193.1400000000003" y1="-132.0" x2="195.7500000000003" y2="-130.5" stroke-width="1" stroke="black" />
	<line x1="195.7500000000003" y1="-130.5" x2="198.36000000000033" y2="-132.0" stroke-width="1" stroke="black" />
	<line x1="198.36000000000033" y1="-132.0" x2="198.36000000000033" y2="-135.0" stroke-width="1" stroke="black" />
	<line x1="198.36000000000033" y1="-135.0" x2="200.97000000000034" y2="-133.5" stroke-width="1" stroke="black" />
	<line x1="200.97000000000034" y1="-133.5" x2="203.58000000000035" y2="-135.0" stroke-width="1" stroke="black" />
	<line x1="203.58000000000035" y1="-135.0" x2="203.58000000000035" y2="-132.0" stroke-width="1" stroke="black" />
	<line x1="203.58000000000035" y1="-132.0" x2="206.19000000000037" y2="-130.5" stroke-width="1" stroke="black" />
	<line x1="206.19000000000037" y1="-130.5" x2="203.58000000000035" y2="-129.0" stroke-width="1" stroke="black" />
	<line x1="203.58000000000035" y1="-129.0" x2="203.58000000000035" y2="-126.0" stroke-width="1" stroke="black" />
	<line x1="203.58000000000035" y1="-126.0" x2="206.19000000000037" y2="-124.5" stroke-width="1" stroke="black" />
	<line x1="206.19000000000037" y1="-124.5" x2="208.80000000000038" y2="-126.0" stroke-width="1" stroke="black" />
	<line x1="208.80000000000038" y1="-126.0" x2="208.80000000000038" y2="-123.0" stroke-width="1" stroke="black" />
	<line x1="208.80000000000038" y1="-123.0" x2="211.4100000000004" y2="-121.5" stroke-width="1" stroke="black" />
	<line x1="211.4100000000004" y1="-121.5" x2="208.80000000000038" y2="-120.0" stroke-width="1" stroke="black" />
	<line x1="208.80000000000038" y1="-120.0" x2="208.80000000000038" y2="-117.0" stroke-width="1" stroke="black" />
	<line x1="208.80000000000038" y1="-117.0" x2="206.19000000000037" y2="-118.5" stroke-width="1" stroke="black" />
	<line x1="206.19000000000037" y1="-118.5" x2="203.58000000000035" y2="-117.0" stroke-width="1" stroke="black" />
	<line x1="203.58000000000035" y1="-117.0" x2="203.58000000000035" y2="-114.0" stroke-width="1" stroke="black" />
	<line x1="203.58000000000035" y1="-114.0" x2="206.19000000000037" y2="-112.5" stroke-width="1" stroke="black" />
	<line x1="206.19000000000037" y1="-112.5" x2="203.58000000000035" y2="-111.0" stroke-width="1" stroke="black" />
	<line x1="203.58000000000035" y1="-111.0" x2="203.58000000000035" y2="-108.0" stroke-width="1" stroke="black" />
	<line x1="203.58000000000035" y1="-108.0" x2="200.97000000000034" y2="-109.5" stroke-width="1" stroke="black" />
	<line x1="200.97000000000034" y1="-109.5" x2="198.36000000000033" y2="-108.0" stroke-width="1" stroke="black" />
	<line x1="198.36000000000033" y1="-108.0" x2="198.36000000000033" y2="-111.0" stroke-width="1" stroke="black" />
	<line x1="198.36000000000033" y1="-111.0" x2="195.7500000000003" y2="-112.5" stroke-width="1" stroke="black" />
	<line x1="195.7500000000003" y1="-112.5" x2="193.1400000000003" y2="-111.0" stroke-width="1" stroke="black" />
	<line x1="193.1400000000003" y1="-111.0" x2="193.1400000000003" y2="-108.0" stroke-width="1" stroke="black" />
	<line x1="193.1400000000003" y1="-108.0" x2="190.53000000000029" y2="-109.5" stroke-width="1" stroke="black" />
	<line x1="190.53000000000029" y1="-109.5" x2="187.92000000000027" y2="-108.0" stroke-width="1" stroke="black" />
	<line x1="187.92000000000027" y1="-108.0" x2="187.92000000000027" y2="-105.0" stroke-width="1" stroke="black" />
	<line x1="187.92000000000027" y1="-105.0" x2="190.53000000000029" y2="-103.5" stroke-width="1" stroke="black" />
	<line x1="190.53000000000029" y1="-103.5" x2="187.92000000000027" y2="-102.0" stroke-width="1" stroke="black" />
	<line x1="187.92000000000027" y1="-102.0" x2="187.92000000000027" y2="-99.0" stroke-width="1" stroke="black" />
	<line x1="187.92000000000027" y1="-99.0" x2="190.53000000000029" y2="-97.5" stroke-width="1" stroke="black" />
	<line x1="190.53000000000029" y1="-97.5" x2="193.1400000000003" y2="-99.0" stroke-width="1" stroke="black" />
	<line x1="193.1400000000003" y1="-99.0" x2="193.1400000000003" y2="-96.0" stroke-width="1" stroke="black" />
	<line x1="193.1400000000003" y1="-96.0" x2="195.7500000000003" y2="-94.5" stroke-width="1" stroke="black" />
	<line x1="195.7500000000003" y1="-94.5" x2="193.1400000000003" y2="-93.0" stroke-width="1" stroke="black" />
	<line x1="193.1400000000003" y1="-93.0" x2="193.1400000000003" y2="-90.0" stroke-width="1" stroke="black" />
	<line x1="193.1400000000003" y1="-90.0" x2="190.53000000000029" y2="-91.5" stroke-width="1" stroke="black" />
	<line x1="190.53000000000029" y1="-91.5" x2="187.92000000000027" y2="-90.0" stroke-width="1" stroke="black" />
	<line x1="187.92000000000027" y1="-90.0" x2="187.92000000000027" y2="-87.0" stroke-width="1" stroke="black" />
	<line x1="187.92000000000027" y1="-87.0" x2="190.53000000000029" y2="-85.5" stroke-width="1" stroke="black" />
	<line x1="190.53000000000029" y1="-85.5" x2="187.92000000000027" y2="-84.0" stroke-width="1" stroke="black" />
	<line x1="187.92000000000027" y1="-84.0" x2="187.92000000000027" y2="-81.0" stroke-width="1" stroke="black" />
	<line x1="187.92000000000027" y1="-81.0" x2="185.31000000000026" y2="-82.5" stroke-width="1" stroke="black" />
	<line x1="185.31000000000026" y1="-82.5" x2="182.70000000000024" y2="-81.0" stroke-width="1" stroke="black" />
	<line x1="182.70000000000024" y1="-81.0" x2="182.70000000000024" y2="-84.0" stroke-width="1" stroke="black" />
	<line x1="182.70000000000024" y1="-84.0" x2="180.09000000000023" y2="-85.5" stroke-width="1" stroke="black" />
	<line x1="180.09000000000023" y1="-85.5" x2="177.48000000000022" y2="-84.0" stroke-width="1" stroke="black" />
	<line x1="177.48000000000022" y1="-84.0" x2="177.48000000000022" y2="-81.0" stroke-width="1" stroke="black" />
	<line x1="177.48000000000022" y1="-81.0" x2="174.8700000000002" y2="-82.5" stroke-width="1" stroke="black" />
	<line x1="174.8700000000002" y1="-82.5" x2="172.2600000000002" y2="-81.0" stroke-width="1" stroke="black" />
	<line x1="172.2600000000002" y1="-81.0" x2="172.2600000000002" y2="-84.0" stroke-width="1" stroke="black" />
	<line x1="172.2600000000002" y1="-84.0" x2="169.65000000000018" y2="-85.5" stroke-width="1" stroke="black" />
	<line x1="169.65000000000018" y1="-85.5" x2="172.2600000000002" y2="-87.0" stroke-width="1" stroke="black" />
	<line x1="172.2600000000002" y1="-87.0" x2="172.2600000000002" y2="-90.0" stroke-width="1" stroke="black" />
	<line x1="172.2600000000002" y1="-90.0" x2="169.65000000000018" y2="-91.5" stroke-width="1" stroke="black" />
	<line x1="169.65000000000018" y1="-91.5" x2="167.04000000000016" y2="-90.0" stroke-width="1" stroke="black" />
	<line x1="167.04000000000016" y1="-90.0" x2="167.04000000000016" y2="-93.0" stroke-width="1" stroke="black" />
	<line x1="167.04000000000016" y1="-93.0" x2="164.43000000000015" y2="-94.5" stroke-width="1" stroke="black" />
	<line x1="164.43000000000015" y1="-94.5" x2="161.82000000000014" y2="-93.0" stroke-width="1" stroke="black" />
	<line x1="161.82000000000014" y1="-93.0" x2="161.82000000000014" y2="-90.0" stroke-width="1" stroke="black" />
	<line x1="161.82000000000014" y1="-90.0" x2="159.21000000000012" y2="-91.5" stroke-width="1" stroke="black" />
	<line x1="159.21000000000012" y1="-91.5" x2="156.6000000000001" y2="-90.0" stroke-width="1" stroke="black" />
	<line x1="156.6000000000001" y1="-90.0" x2="156.6000000000001" y2="-87.0" stroke-width="1" stroke="black" />
	<line x1="156.6000000000001" y1="-87.0" x2="159.21000000000012" y2="-85.5" stroke-width="1" stroke="black" />
	<line x1="159.21000000000012" y1="-85.5" x2="156.6000000000001" y2="-84.0" stroke-width="1" stroke="black" />
	<line x1="156.6000000000001" y1="-84.0" x2="156.6000000000001" y2="-81.0" stroke-width="1" stroke="black" />
	<line x1="156.6000000000001" y1="-81.0" x2="153.9900000000001" y2="-82.5" stroke-width="1" stroke="black" />
	<line x1="153.9900000000001" y1="-82.5" x2="151.38000000000008" y2="-81.0" stroke-width="1" stroke="black" />
	<line x1="151.38000000000008" y1="-81.0" x2="151.38000000000008" y2="-84.0" stroke-width="1" stroke="black" />
	<line x1="151.38000000000008" y1="-84.0" x2="148.77000000000007" y2="-85.5" stroke-width="1" stroke="black" />
	<line x1="148.77000000000007" y1="-85.5" x2="146.16000000000005" y2="-84.0" stroke-width="1" stroke="black" />
	<line x1="146.16000000000005" y1="-84.0" x2="146.16000000000005" y2="-81.0" stroke-width="1" stroke="black" />
	<line x1="146.16000000000005" y1="-81.0" x2="143.55000000000004" y2="-82.5" stroke-width="1" stroke="black" />
	<line x1="143.55000000000004" y1="-82.5" x2="140.94000000000003" y2="-81.0" stroke-width="1" stroke="black" />
	<line x1="140.94000000000003" y1="-81.0" x2="140.94000000000003" y2="-78.0" stroke-width="1" stroke="black" />
	<line x1="140.94000000000003" y1="-78.0" x2="143.55000000000004" y2="-76.5" stroke-width="1" stroke="black" />
	<line x1="143.55000000000004" y1="-76.5" x2="140.94000000000003" y2="-75.0" stroke-width="1" stroke="black" />
	<line x1="140.94000000000003" y1="-75.0" x2="140.94000000000003" y2="-72.0" stroke-width="1" stroke="black" />
	<line x1="140.94000000000003" y1="-72.0" x2="143.55000000000004" y2="-70.5" stroke-width="1" stroke="black" />
	<line x1="143.55000000000004" y1="-70.5" x2="146.16000000000005" y2="-72.0" stroke-width="1" stroke="black" />
	<line x1="146.16000000000005" y1="-72.0" x2="146.16000000000005" y2="-69.0" stroke-width="1" stroke="black" />
	<line x1="146.16000000000005" y1="-69.0" x2="148.77000000000007" y2="-67.5" stroke-width="1" stroke="black" />
	<line x1="148.77000000000007" y1="-67.5" x2="146.16000000000005" y2="-66.0" stroke-width="1" stroke="black" />
	<line x1="146.16000000000005" y1="-66.0" x2="146.16000000000005" y2="-63.0" stroke-width="1" stroke="black" />
	<line x1="146.16000000000005" y1="-63.0" x2="143.55000000000004" y2="-64.5" stroke-width="1" stroke="black" />
	<line x1="143.55000000000004" y1="-64.5" x2="140.94000000000003" y2="-63.0" stroke-width="1" stroke="black" />
	<line x1="140.94000000000003" y1="-63.0" x2="140.94000000000003" y2="-60.0" stroke-width="1" stroke="black" />
	<line x1="140.94000000000003" y1="-60.0" x2="143.55000000000004" y2="-58.5" stroke-width="1" stroke="black" />
	<line x1="143.55000000000004" y1="-58.5" x2="140.94000000000003" y2="-57.0" stroke-width="1" stroke="black" />
	<line x1="140.94000000000003" y1="-57.0" x2="140.94000000000003" y2="-54.0" stroke-width="1" stroke="black" />
	<line x1="140.94000000000003" y1="-54.0" x2="143.55000000000004" y2="-52.5" stroke-width="1" stroke="black" />
	<line x1="143.55000000000004" y1="-52.5" x2="146.16000000000005" y2="-54.0" stroke-width="1" stroke="black" />
	<line x1="146.16000000000005" y1="-54.0" x2="146.16000000000005" y2="-51.0" stroke-width="1" stroke="black" />
	<line x1="146.16000000000005" y1="-51.0" x2="148.77000000000007" y2="-49.5" stroke-width="1" stroke="black" />
	<line x1="148.77000000000007" y1="-49.5" x2="151.38000000000008" y2="-51.0" stroke-width="1" stroke="black" />
	<line x1="151.38000000000008" y1="-51.0" x2="151.38000000000008" y2="-54.0" stroke-width="1" stroke="black" />
	<line x1="151.38000000000008" y1="-54.0" x2="153.9900000000001" y2="-52.5" stroke-width="1" stroke="black" />
	<line x1="153.9900000000001" y1="-52.5" x2="156.6000000000001" y2="-54.0" stroke-width="1" stroke="black" />
	<line x1="156.6000000000001" y1="-54.0" x2="156.6000000000001" y2="-51.0" stroke-width="1" stroke="black" />
	<line x1="156.6000000000001" y1="-51.0" x2="159.21000000000012" y2="-49.5" stroke-width="1" stroke="black" />
	<line x1="159.21000000000012" y1="-49.5" x2="156.6000000000001" y2="-48.0" stroke-width="1" stroke="black" />
	<line x1="156.6000000000001" y1="-48.0" x2="156.6000000000001" y2="-45.0" stroke-width="1" stroke="black" />
	<line x1="156.6000000000001" y1="-45.0" x2="159.21000000000012" y2="-43.5" stroke-width="1" stroke="black" />
	<line x1="159.21000000000012" y1="-43.5" x2="161.82000000000014" y2="-45.0" stroke-width="1" stroke="black" />
	<line x1="161.82000000000014" y1="-45.0" x2="161.82000000000014" y2="-42.0" stroke-width="1" stroke="black" />
	<line x1="161.82000000000014" y1="-42.0" x2="164.43000000000015" y2="-40.5" stroke-width="1" stroke="black" />
	<line x1="164.43000000000015" y1="-40.5" x2="161.82000000000014" y2="-39.0" stroke-width="1" stroke="black" />
	<line x1="161.82000000000014" y1="-39.0" x2="161.82000000000014" y2="-36.0" stroke-width="1" stroke="black" />
	<line x1="161.82000000000014" y1="-36.0" x2="159.21000000000012" y2="-37.5" stroke-width="1" stroke="black" />
	<line x1="159.21000000000012" y1="-37.5" x2="156.6000000000001" y2="-36.0" stroke-width="1" stroke="black" />
	<line x1="156.6000000000001" y1="-36.0" x2="156.6000000000001" y2="-33.0" stroke-width="1" stroke="black" />
	<line x1="156.6000000000001" y1="-33.0" x2="159.21000000000012" y2="-31.5" stroke-width="1" stroke="black" />
	<line x1="159.21000000000012" y1="-31.5" x2="156.6000000000001" y2="-30.0" stroke-width="1" stroke="black" />
	<line x1="156.6000000000001" y1="-30.0" x2="156.6000000000001" y2="-27.0" stroke-width="1" stroke="black" />
	<line x1="156.6000000000001" y1="-27.0" x2="153.9900000000001" y2="-28.5" stroke-width="1" stroke="black" />
	<line x1="153.9900000000001" y1="-28.5" x2="151.38000000000008" y2="-27.0" stroke-width="1" stroke="black" />
	<line x1="151.38000000000008" y1="-27.0" x2="151.38000000000008" y2="-30.0" stroke-width="1" stroke="black" />
	<line x1="151.38000000000008" y1="-30.0" x2="148.77000000000007" y2="-31.5" stroke-width="1" stroke="black" />
	<line x1="148.77000000000007" y1="-31.5" x2="146.16000000000005" y2="-30.0" stroke-width="1" stroke="black" />
	<line x1="146.16000000000005" y1="-30.0" x2="146.16000000000005" y2="-27.0" stroke-width="1" stroke="black" />
	<line x1="146.16000000000005" y1="-27.0" x2="143.55000000000004" y2="-28.5" stroke-width="1" stroke="black" />
	<line x1="143.55000000000004" y1="-28.5" x2="140.94000000000003" y2="-27.0" stroke-width="1" stroke="black" />
	<line x1="140.94000000000003" y1="-27.0" x2="140.94000000000003" y2="-24.0" stroke-width="1" stroke="black" />
	<line x1="140.94000000000003" y1="-24.0" x2="143.55000000000004" y2="-22.5" stroke-width="1" stroke="black" />
	<line x1="143.55000000000004" y1="-22.5" x2="140.94000000000003" y2="-21.0" stroke-width="1" stroke="black" />
	<line x1="140.94000000000003" y1="-21.0" x2="140.94000000000003" y2="-18.0" stroke-width="1" stroke="black" />
	<line x1="140.94000000000003" y1="-18.0" x2="143.55000000000004" y2="-16.5" stroke-width="1" stroke="black" />
	<line x1="143.55000000000004" y1="-16.5" x2="146.16000000000005" y2="-18.0" stroke-width="1" stroke="black" />
	<line x1="146.16000000000005" y1="-18.0" x2="146.16000000000005" y2="-15.0" stroke-width="1" stroke="black" />
	<line x1="146.16000000000005" y1="-15.0" x2="148.77000000000007" y2="-13.5" stroke-width="1" stroke="black" />
	<line x1="148.77000000000007" y1="-13.5" x2="146.16000000000005" y2="-12.0" stroke-width="1" stroke="black" />
	<line x1="146.16000000000005" y1="-12.0" x2="146.16000000000005" y2="-9.0" stroke-width="1" stroke="black" />
	<line x1="146.16000000000005" y1="-9.0" x2="143.55000000000004" y2="-10.5" stroke-width="1" stroke="black" />
	<line x1="143.55000000000004" y1="-10.5" x2="140.94000000000003" y2="-9.0" stroke-width="1" stroke="black" />
	<line x1="140.94000000000003" y1="-9.0" x2="140.94000000000003" y2="-6.0" stroke-width="1" stroke="black" />
	<line x1="140.94000000000003" y1="-6.0" x2="143.55000000000004" y2="-4.5" stroke-width="1" stroke="black" />
	<line x1="143.55000000000004" y1="-4.5" x2="140.94000000000003" y2="-3.0" stroke-width="1" stroke="black" />
	<line x1="140.94000000000003" y1="-3.0" x2="140.94000000000003" y2="0.0" stroke-width="1" stroke="black" />
	<line x1="140.94000000000003" y1="0.0" x2="138.33" y2="-1.5" stroke-width="1" stroke="black" />
	<line x1="138.33" y1="-1.5" x2="135.72" y2="0.0" stroke-width="1" stroke="black" />
	<line x1="135.72" y1="0.0" x2="135.72" y2="-3.0" stroke-width="1" stroke="black" />
	<line x1="135.72" y1="-3.0" x2="133.10999999999999" y2="-4.5" stroke-width="1" stroke="black" />
	<line x1="133.10999999999999" y1="-4.5" x2="130.49999999999997" y2="-3.0" stroke-width="1" stroke="black" />
	<line x1="130.49999999999997" y1="-3.0" x2="130.49999999999997" y2="0.0" stroke-width="1" stroke="black" />
	<line x1="130.49999999999997" y1="0.0" x2="127.88999999999997" y2="-1.5" stroke-width="1" stroke="black" />
	<line x1="127.88999999999997" y1="-1.5" x2="125.27999999999997" y2="0.0" stroke-width="1" stroke="black" />
	<line x1="125.27999999999997" y1="0.0" x2="125.27999999999997" y2="-3.0" stroke-width="1" stroke="black" />
	<line x1="125.27999999999997" y1="-3.0" x2="122.66999999999997" y2="-4.5" stroke-width="1" stroke="black" />
	<line x1="122.66999999999997" y1="-4.5" x2="125.27999999999997" y2="-6.0" stroke-width="1" stroke="black" />
	<line x1="125.27999999999997" y1="-6.0" x2="125.27999999999997" y2="-9.0" stroke-width="1" stroke="black" />
	<line x1="125.27999999999997" y1="-9.0" x2="122.66999999999997" y2="-10.5" stroke-width="1" stroke="black" />
	<line x1="122.66999999999997" y1="-10.5" x2="120.05999999999997" y2="-9.0" stroke-width="1" stroke="black" />
	<line x1="120.05999999999997" y1="-9.0" x2="120.05999999999997" y2="-12.0" stroke-width="1" stroke="black" />
	<line x1="120.05999999999997" y1="-12.0" x2="117.44999999999997" y2="-13.5" stroke-width="1" stroke="black" />
	<line x1="117.44999999999997" y1="-13.5" x2="114.83999999999997" y2="-12.0" stroke-width="1" stroke="black" />
	<line x1="114.83999999999997" y1="-12.0" x2="114.83999999999997" y2="-9.0" stroke-width="1" stroke="black" />
	<line x1="114.83999999999997" y1="-9.0" x2="112.22999999999998" y2="-10.5" stroke-width="1" stroke="black" />
	<line x1="112.22999999999998" y1="-10.5" x2="109.61999999999998" y2="-9.0" stroke-width="1" stroke="black" />
	<line x1="109.61999999999998" y1="-9.0" x2="109.61999999999998" y2="-6.0" stroke-width="1" stroke="black" />
	<line x1="109.61999999999998" y1="-6.0" x2="112.22999999999998" y2="-4.5" stroke-width="1" stroke="black" />
	<line x1="112.22999999999998" y1="-4.5" x2="109.61999999999998" y2="-3.0" stroke-width="1" stroke="black" />
	<line x1="109.61999999999998" y1="-3.0" x2="109.61999999999998" y2="0.0" stroke-width="1" stroke="black" />
	<line x1="109.61999999999998" y1="0.0" x2="107.00999999999998" y2="-1.5" stroke-width="1" stroke="black" />
	<line x1="107.00999999999998" y1="-1.5" x2="104.39999999999998" y2="0.0" stroke-width="1" stroke="black" />
	<line x1="104.39999999999998" y1="0.0" x2="104.39999999999998" y2="-3.0" stroke-width="1" stroke="black" />
	<line x1="104.39999999999998" y1="-3.0" x2="101.78999999999998" y2="-4.5" stroke-width="1" stroke="black" />
	<line x1="101.78999999999998" y1="-4.5" x2="99.17999999999998" y2="-3.0" stroke-width="1" stroke="black" />
	<line x1="99.17999999999998" y1="-3.0" x2="99.17999999999998" y2="0.0" stroke-width="1" stroke="black" />
	<line x1="99.17999999999998" y1="0.0" x2="96.56999999999998" y2="-1.5" stroke-width="1" stroke="black" />
	<line x1="96.56999999999998" y1="-1.5" x2="93.95999999999998" y2="0.0" stroke-width="1" stroke="black" />
	<line x1="93.95999999999998" y1="0.0" x2="93.95999999999998" y2="-3.0" stroke-width="1" stroke="black" />
	<line x1="93.95999999999998" y1="-3.0" x2="91.34999999999998" y2="-4.5" stroke-width="1" stroke="black" />
	<line x1="91.34999999999998" y1="-4.5" x2="93.95999999999998" y2="-6.0" stroke-width="1" stroke="black" />
	<line x1="93.95999999999998" y1="-6.0" x2="93.95999999999998" y2="-9.0" stroke-width="1" stroke="black" />
	<line x1="93.95999999999998" y1="-9.0" x2="91.34999999999998" y2="-10.5" stroke-width="1" stroke="black" />
	<line x1="91.34999999999998" y1="-10.5" x2="88.73999999999998" y2="-9.0" stroke-width="1" stroke="black" />
	<line x1="88.73999999999998" y1="-9.0" x2="88.73999999999998" y2="-12.0" stroke-width="1" stroke="black" />
	<line x1="88.73999999999998" y1="-12.0" x2="86.12999999999998" y2="-13.5" stroke-width="1" stroke="black" />
	<line x1="86.12999999999998" y1="-13.5" x2="88.73999999999998" y2="-15.0" stroke-width="1" stroke="black" />
	<line x1="88.73999999999998" y1="-15.0" x2="88.73999999999998" y2="-18.0" stroke-width="1" stroke="black" />
	<line x1="88.73999999999998" y1="-18.0" x2="91.34999999999998" y2="-16.5" stroke-width="1" stroke="black" />
	<line x1="91.34999999999998" y1="-16.5" x2="93.95999999999998" y2="-18.0" stroke-width="1" stroke="black" />
	<line x1="93.95999999999998" y1="-18.0" x2="93.95999999999998" y2="-21.0" stroke-width="1" stroke="black" />
	<line x1="93.95999999999998" y1="-21.0" x2="91.34999999999998" y2="-22.5" stroke-width="1" stroke="black" />
	<line x1="91.34999999999998" y1="-22.5" x2="93.95999999999998" y2="-24.0" stroke-width="1" stroke="black" />
	<line x1="93.95999999999998" y1="-24.0" x2="93.95999999999998" y2="-27.0" stroke-width="1" stroke="black" />
	<line x1="93.95999999999998" y1="-27.0" x2="91.34999999999998" y2="-28.5" stroke-width="1" stroke="black" />
	<line x1="91.34999999999998" y1="-28.5" x2="88.73999999999998" y2="-27.0" stroke-width="1" stroke="black" />
	<line x1="88.73999999999998" y1="-27.0" x2="88.73999999999998" y2="-30.0" stroke-width="1" stroke="black" />
	<line x1="88.73999999999998" y1="-30.0" x2="86.12999999999998" y2="-31.5" stroke-width="1" stroke="black" />
	<line x1="86.12999999999998" y1="-31.5" x2="83.51999999999998" y2="-30.0" stroke-width="1" stroke="black" />
	<line x1="83.51999999999998" y1="-30.0" x2="83.51999999999998" y2="-27.0" stroke-width="1" stroke="black" />
	<line x1="83.51999999999998" y1="-27.0" x2="80.90999999999998" y2="-28.5" stroke-width="1" stroke="black" />
	<line x1="80.90999999999998" y1="-28.5" x2="78.29999999999998" y2="-27.0" stroke-width="1" stroke="black" />
	<line x1="78.29999999999998" y1="-27.0" x2="78.29999999999998" y2="-30.0" stroke-width="1" stroke="black" />
	<line x1="78.29999999999998" y1="-30.0" x2="75.68999999999998" y2="-31.5" stroke-width="1" stroke="black" />
	<line x1="75.68999999999998" y1="-31.5" x2="78.29999999999998" y2="-33.0" stroke-width="1" stroke="black" />
	<line x1="78.29999999999998" y1="-33.0" x2="78.29999999999998" y2="-36.0" stroke-width="1" stroke="black" />
	<line x1="78.29999999999998" y1="-36.0" x2="75.68999999999998" y2="-37.5" stroke-width="1" stroke="black" />
	<line x1="75.68999999999998" y1="-37.5" x2="73.07999999999998" y2="-36.0" stroke-width="1" stroke="black" />
	<line x1="73.07999999999998" y1="-36.0" x2="73.07999999999998" y2="-39.0" stroke-width="1" stroke="black" />
	<line x1="73.07999999999998" y1="-39.0" x2="70.46999999999998" y2="-40.5" stroke-width="1" stroke="black" />
	<line x1="70.46999999999998" y1="-40.5" x2="67.85999999999999" y2="-39.0" stroke-width="1" stroke="black" />
	<line x1="67.85999999999999" y1="-39.0" x2="67.85999999999999" y2="-36.0" stroke-width="1" stroke="black" />
	<line x1="67.85999999999999" y1="-36.0" x2="65.24999999999999" y2="-37.5" stroke-width="1" stroke="black" />
	<line x1="65.24999999999999" y1="-37.5" x2="62.639999999999986" y2="-36.0" stroke-width="1" stroke="black" />
	<line x1="62.639999999999986" y1="-36.0" x2="62.639999999999986" y2="-33.0" stroke-width="1" stroke="black" />
	<line x1="62.639999999999986" y1="-33.0" x2="65.24999999999999" y2="-31.5" stroke-width="1" stroke="black" />
	<line x1="65.24999999999999" y1="-31.5" x2="62.639999999999986" y2="-30.0" stroke-width="1" stroke="black" />
	<line x1="62.639999999999986" y1="-30.0" x2="62.639999999999986" y2="-27.0" stroke-width="1" stroke="black" />
	<line x1="62.639999999999986" y1="-27.0" x2="60.02999999999999" y2="-28.5" stroke-width="1" stroke="black" />
	<line x1="60.02999999999999" y1="-28.5" x2="57.41999999999999" y2="-27.0" stroke-width="1" stroke="black" />
	<line x1="57.41999999999999" y1="-27.0" x2="57.41999999999999" y2="-30.0" stroke-width="1" stroke="black" />
	<line x1="57.41999999999999" y1="-30.0" x2="54.80999999999999" y2="-31.5" stroke-width="1" stroke="black" />
	<line x1="54.80999999999999" y1="-31.5" x2="52.19999999999999" y2="-30.0" stroke-width="1" stroke="black" />
	<line x1="52.19999999999999" y1="-30.0" x2="52.19999999999999" y2="-27.0" stroke-width="1" stroke="black" />
	<line x1="52.19999999999999" y1="-27.0" x2="49.58999999999999" y2="-28.5" stroke-width="1" stroke="black" />
	<line x1="49.58999999999999" y1="-28.5" x2="46.97999999999999" y2="-27.0" stroke-width="1" stroke="black" />
	<line x1="46.97999999999999" y1="-27.0" x2="46.97999999999999" y2="-24.0" stroke-width="1" stroke="black" />
	<line x1="46.97999999999999" y1="-24.0" x2="49.58999999999999" y2="-22.5" stroke-width="1" stroke="black" />
	<line x1="49.58999999999999" y1="-22.5" x2="46.97999999999999" y2="-21.0" stroke-width="1" stroke="black" />
	<line x1="46.97999999999999" y1="-21.0" x2="46.97999999999999" y2="-18.0" stroke-width="1" stroke="black" />
	<line x1="46.97999999999999" y1="-18.0" x2="49.58999999999999" y2="-16.5" stroke-width="1" stroke="black" />
	<line x1="49.58999999999999" y1="-16.5" x2="52.19999999999999" y2="-18.0" stroke-width="1" stroke="black" />
	<line x1="52.19999999999999" y1="-18.0" x2="52.19999999999999" y2="-15.0" stroke-width="1" stroke="black" />
	<line x1="52.19999999999999" y1="-15.0" x2="54.80999999999999" y2="-13.5" stroke-width="1" stroke="black" />
	<line x1="54.80999999999999" y1="-13.5" x2="52.19999999999999" y2="-12.0" stroke-width="1" stroke="black" />
	<line x1="52.19999999999999" y1="-12.0" x2="52.19999999999999" y2="-9.0" stroke-width="1" stroke="black" />
	<line x1="52.19999999999999" y1="-9.0" x2="49.58999999999999" y2="-10.5" stroke-width="1" stroke="black" />
	<line x1="49.58999999999999" y1="-10.5" x2="46.97999999999999" y2="-9.0" stroke-width="1" stroke="black" />
	<line x1="46.97999999999999" y1="-9.0" x2="46.97999999999999" y2="-6.0" stroke-width="1" stroke="black" />
	<line x1="46.97999999999999" y1="-6.0" x2="49.58999999999999" y2="-4.5" stroke-width="1" stroke="black" />
	<line x1="49.58999999999999" y1="-4.5" x2="46.97999999999999" y2="-3.0" stroke-width="1" stroke="black" />
	<line x1="46.97999999999999" y1="-3.0" x2="46.97999999999999" y2="0.0" stroke-width="1" stroke="black" />
	<line x1="46.97999999999999" y1="0.0" x2="44.36999999999999" y2="-1.5" stroke-width="1" stroke="black" />
	<line x1="44.36999999999999" y1="-1.5" x2="41.75999999999999" y2="0.0" stroke-width="1" stroke="black" />
	<line x1="41.75999999999999" y1="0.0" x2="41.75999999999999" y2="-3.0" stroke-width="1" stroke="black" />
	<line x1="41.75999999999999" y1="-3.0" x2="39.14999999999999" y2="-4.5" stroke-width="1" stroke="black" />
	<line x1="39.14999999999999" y1="-4.5" x2="36.53999999999999" y2="-3.0" stroke-width="1" stroke="black" />
	<line x1="36.53999999999999" y1="-3.0" x2="36.53999999999999" y2="0.0" stroke-width="1" stroke="black" />
	<line x1="36.53999999999999" y1="0.0" x2="33.92999999999999" y2="-1.5" stroke-width="1" stroke="black" />
	<line x1="33.92999999999999" y1="-1.5" x2="31.319999999999993" y2="0.0" stroke-width="1" stroke="black" />
	<line x1="31.319999999999993" y1="0.0" x2="31.319999999999993" y2="-3.0" stroke-width="1" stroke="black" />
	<line x1="31.319999999999993" y1="-3.0" x2="28.709999999999994" y2="-4.5" stroke-width="1" stroke="black" />
	<line x1="28.709999999999994" y1="-4.5" x2="31.319999999999993" y2="-6.0" stroke-width="1" stroke="black" />
	<line x1="31.319999999999993" y1="-6.0" x2="31.319999999999993" y2="-9.0" stroke-width="1" stroke="black" />
	<line x1="31.319999999999993" y1="-9.0" x2="28.709999999999994" y2="-10.5" stroke-width="1" stroke="black" />
	<line x1="28.709999999999994" y1="-10.5" x2="26.099999999999994" y2="-9.0" stroke-width="1" stroke="black" />
	<line x1="26.099999999999994" y1="-9.0" x2="26.099999999999994" y2="-12.0" stroke-width="1" stroke="black" />
	<line x1="26.099999999999994" y1="-12.0" x2="23.489999999999995" y2="-13.5" stroke-width="1" stroke="black" />
	<line x1="23.489999999999995" y1="-13.5" x2="20.879999999999995" y2="-12.0" stroke-width="1" stroke="black" />
	<line x1="20.879999999999995" y1="-12.0" x2="20.879999999999995" y2="-9.0" stroke-width="1" stroke="black" />
	<line x1="20.879999999999995" y1="-9.0" x2="18.269999999999996" y2="-10.5" stroke-width="1" stroke="black" />
	<line x1="18.269999999999996" y1="-10.5" x2="15.659999999999997" y2="-9.0" stroke-width="1" stroke="black" />
	<line x1="15.659999999999997" y1="-9.0" x2="15.659999999999997" y2="-6.0" stroke-width="1" stroke="black" />
	<line x1="15.659999999999997" y1="-6.0" x2="18.269999999999996" y2="-4.5" stroke-width="1" stroke="black" />
	<line x1="18.269999999999996" y1="-4.5" x2="15.659999999999997" y2="-3.0" stroke-width="1" stroke="black" />
	<line x1="15.659999999999997" y1="-3.0" x2="15.659999999999997" y2="0.0" stroke-width="1" stroke="black" />
	<line x1="15.659999999999997" y1="0.0" x2="13.049999999999997" y2="-1.5" stroke-width="1" stroke="black" />
	<line x1="13.049999999999997" y1="-1.5" x2="10.439999999999998" y2="0.0" stroke-width="1" stroke="black" />
	<line x1="10.439999999999998" y1="0.0" x2="10.439999999999998" y2="-3.0" stroke-width="1" stroke="black" />
	<line x1="10.439999999999998" y1="-3.0" x2="7.829999999999998" y2="-4.5" stroke-width="1" stroke="black" />
	<line x1="7.829999999999998" y1="-4.5" x2="5.219999999999999" y2="-3.0" stroke-width="1" stroke="black" />
	<line x1="5.219999999999999" y1="-3.0" x2="5.219999999999999" y2="0.0" stroke-width="1" stroke="black" />
	<line x1="5.219999999999999" y1="0.0" x2="2.609999999999999" y2="-1.5" stroke-width="1" stroke="black" />
	<line x1="2.609999999999999" y1="-1.5" x2="-8.881784197001252e-16" y2="0.0" stroke-width="1" stroke="black" />
</svg>
