<svg viewBox="-500 -500 1024 768" xmlns="http://www.w3.org/2000/svg">
	<line x1="0" y1="0" x2="0.0" y2="-3.0" stroke-width="1" stroke="black" />
	<line x1="0.0" y1="-3.0" x2="2.61" y2="-4.5" stroke-width="1" stroke="black" />
	<line x1="2.61" y1="-4.5" x2="5.22" y2="-3.0" stroke-width="1" stroke="black" />
	<line x1="5.22" y1="-3.0" x2="7.83" y2="-4.5" stroke-width="1" stroke="black" />
	<line x1="7.83" y1="-4.5" x2="7.83" y2="-7.5" stroke-width="1" stroke="black" />
	<line x1="7.83" y1="-7.5" x2="5.220000000000001" y2="-9.0" stroke-width="1" stroke="black" />
	<line x1="5.220000000000001" y1="-9.0" x2="2.6100000000000008" y2="-7.5" stroke-width="1" stroke="black" />
	<line x1="2.6100000000000008" y1="-7.5" x2="8.881784197001252e-16" y2="-9.0" stroke-width="1" stroke="black" />
	<line x1="8.881784197001252e-16" y1="-9.0" x2="8.881784197001252e-16" y2="-12.0" stroke-width="1" stroke="black" />
	<line x1="8.881784197001252e-16" y1="-12.0" x2="2.6100000000000008" y2="-13.5" stroke-width="1" stroke="black" />
	<line x1="2.6100000000000008" y1="-13.5" x2="2.6100000000000008" y2="-16.5" stroke-width="1" stroke="black" />
	<line x1="2.6100000000000008" y1="-16.5" x2="8.881784197001252e-16" y2="-18.0" stroke-width="1" stroke="black" />
	<line x1="8.881784197001252e-16" y1="-18.0" x2="8.881784197001252e-16" y2="-21.0" stroke-width="1" stroke="black" />
	<line x1="8.881784197001252e-16" y1="-21.0" x2="2.6100000000000008" y2="-22.5" stroke-width="1" stroke="black" />
	<line x1="2.6100000000000008" y1="-22.5" x2="5.220000000000001" y2="-21.0" stroke-width="1" stroke="black" />
	<line x1="5.220000000000001" y1="-21.0" x2="5.220000000000001" y2="-18.0" stroke-width="1" stroke="black" />
	<line x1="5.220000000000001" y1="-18.0" x2="7.83" y2="-16.5" stroke-width="1" stroke="black" />
	<line x1="7.83" y1="-16.5" x2="10.44" y2="-18.0" stroke-width="1" stroke="black" />
	<line x1="10.44" y1="-18.0" x2="13.049999999999999" y2="-16.5" stroke-width="1" stroke="black" />
	<line x1="13.049999999999999" y1="-16.5" x2="13.049999999999999" y2="-13.5" stroke-width="1" stroke="black" />
	<line x1="13.049999999999999" y1="-13.5" x2="10.44" y2="-12.0" stroke-width="1" stroke="black" />
	<line x1="10.44" y1="-12.0" x2="10.44" y2="-9.0" stroke-width="1" stroke="black" />
	<line x1="10.44" y1="-9.0" x2="13.049999999999999" y2="-7.5" stroke-width="1" stroke="black" />
	<line x1="13.049999999999999" y1="-7.5" x2="15.659999999999998" y2="-9.0" stroke-width="1" stroke="black" />
	<line x1="15.659999999999998" y1="-9.0" x2="15.659999999999998" y2="-12.0" stroke-width="1" stroke="black" />
	<line x1="15.659999999999998" y1="-12.0" x2="18.27" y2="-13.5" stroke-width="1" stroke="black" />
	<line x1="18.27" y1="-13.5" x2="20.88" y2="-12.0" stroke-width="1" stroke="black" />
	<line x1="20.88" y1="-12.0" x2="23.49" y2="-13.5" stroke-width="1" stroke="black" />
	<line x1="23.49" y1="-13.5" x2="23.49" y2="-16.5" stroke-width="1" stroke="black" />
	<line x1="23.49" y1="-16.5" x2="20.88" y2="-18.0" stroke-width="1" stroke="black" />
	<line x1="20.88" y1="-18.0" x2="20.88" y2="-21.0" stroke-width="1" stroke="black" />
	<line x1="20.88" y1="-21.0" x2="23.49" y2="-22.5" stroke-width="1" stroke="black" />
	<line x1="23.49" y1="-22.5" x2="26.099999999999998" y2="-21.0" stroke-width="1" stroke="black" />
	<line x1="26.099999999999998" y1="-21.0" x2="26.099999999999998" y2="-18.0" stroke-width="1" stroke="black" />
	<line x1="26.099999999999998" y1="-18.0" x2="28.709999999999997" y2="-16.5" stroke-width="1" stroke="black" />
	<line x1="28.709999999999997" y1="-16.5" x2="31.319999999999997" y2="-18.0" stroke-width="1" stroke="black" />
	<line x1="31.319999999999997" y1="-18.0" x2="31.319999999999997" y2="-21.0" stroke-width="1" stroke="black" />
	<line x1="31.319999999999997" y1="-21.0" x2="33.93" y2="-22.5" stroke-width="1" stroke="black" />
	<line x1="33.93" y1="-22.5" x2="36.54" y2="-21.0" stroke-width="1" stroke="black" />
	<line x1="36.54" y1="-21.0" x2="39.15" y2="-22.5" stroke-width="1" stroke="black" />
	<line x1="39.15" y1="-22.5" x2="39.15" y2="-25.5" stroke-width="1" stroke="black" />
	<line x1="39.15" y1="-25.5" x2="36.54" y2="-27.0" stroke-width="1" stroke="black" />
	<line x1="36.54" y1="-27.0" x2="33.93" y2="-25.5" stroke-width="1" stroke="black" />
	<line x1="33.93" y1="-25.5" x2="31.32" y2="-27.0" stroke-width="1" stroke="black" />
	<line x1="31.32" y1="-27.0" x2="31.32" y2="-30.0" stroke-width="1" stroke="black" />
	<line x1="31.32" y1="-30.0" x2="28.71" y2="-31.5" stroke-width="1" stroke="black" />
	<line x1="28.71" y1="-31.5" x2="26.1" y2="-30.0" stroke-width="1" stroke="black" />
	<line x1="26.1" y1="-30.0" x2="26.1" y2="-27.0" stroke-width="1" stroke="black" />
	<line x1="26.1" y1="-27.0" x2="23.490000000000002" y2="-25.5" stroke-width="1" stroke="black" />
	<line x1="23.490000000000002" y1="-25.5" x2="20.880000000000003" y2="-27.0" stroke-width="1" stroke="black" />
	<line x1="20.880000000000003" y1="-27.0" x2="20.880000000000003" y2="-30.0" stroke-width="1" stroke="black" />
	<line x1="20.880000000000003" y1="-30.0" x2="23.490000000000002" y2="-31.5" stroke-width="1" stroke="black" />
	<line x1="23.490000000000002" y1="-31.5" x2="23.490000000000002" y2="-34.5" stroke-width="1" stroke="black" />
	<line x1="23.490000000000002" y1="-34.5" x2="20.880000000000003" y2="-36.0" stroke-width="1" stroke="black" />
	<line x1="20.880000000000003" y1="-36.0" x2="18.270000000000003" y2="-34.5" stroke-width="1" stroke="black" />
	<line x1="18.270000000000003" y1="-34.5" x2="15.660000000000004" y2="-36.0" stroke-width="1" stroke="black" />
	<line x1="15.660000000000004" y1="-36.0" x2="15.660000000000004" y2="-39.0" stroke-width="1" stroke="black" />
	<line x1="15.660000000000004" y1="-39.0" x2="13.050000000000004" y2="-40.5" stroke-width="1" stroke="black" />
	<line x1="13.050000000000004" y1="-40.5" x2="10.440000000000005" y2="-39.0" stroke-width="1" stroke="black" />
	<line x1="10.440000000000005" y1="-39.0" x2="10.440000000000005" y2="-36.0" stroke-width="1" stroke="black" />
	<line x1="10.440000000000005" y1="-36.0" x2="13.050000000000004" y2="-34.5" stroke-width="1" stroke="black" />
	<line x1="13.050000000000004" y1="-34.5" x2="13.050000000000004" y2="-31.5" stroke-width="1" stroke="black" />
	<line x1="13.050000000000004" y1="-31.5" x2="10.440000000000005" y2="-30.0" stroke-width="1" stroke="black" />
	<line x1="10.440000000000005" y1="-30.0" x2="7.830000000000005" y2="-31.5" stroke-width="1" stroke="black" />
	<line x1="7.830000000000005" y1="-31.5" x2="5.220000000000006" y2="-30.0" stroke-width="1" stroke="black" />
	<line x1="5.220000000000006" y1="-30.0" x2="5.220000000000006" y2="-27.0" stroke-width="1" stroke="black" />
	<line x1="5.220000000000006" y1="-27.0" x2="2.610000000000006" y2="-25.5" stroke-width="1" stroke="black" />
	<line x1="2.610000000000006" y1="-25.5" x2="6.217248937900877e-15" y2="-27.0" stroke-width="1" stroke="black" />
	<line x1="6.217248937900877e-15" y1="-27.0" x2="6.217248937900877e-15" y2="-30.0" stroke-width="1" stroke="black" />
	<line x1="6.217248937900877e-15" y1="-30.0" x2="2.610000000000006" y2="-31.5" stroke-width="1" stroke="black" />
	<line x1="2.610000000000006" y1="-31.5" x2="2.610000000000006" y2="-34.5" stroke-width="1" stroke="black" />
	<line x1="2.610000000000006" y1="-34.5" x2="6.217248937900877e-15" y2="-36.0" stroke-width="1" stroke="black" />
	<line x1="6.217248937900877e-15" y1="-36.0" x2="6.217248937900877e-15" y2="-39.0" stroke-width="1" stroke="black" />
	<line x1="6.217248937900877e-15" y1="-39.0" x2="2.610000000000006" y2="-40.5" stroke-width="1" stroke="black" />
	<line x1="2.610000000000006" y1="-40.5" x2="5.220000000000006" y2="-39.0" stroke-width="1" stroke="black" />
	<line x1="5.220000000000006" y1="-39.0" x2="7.830000000000005" y2="-40.5" stroke-width="1" stroke="black" />
	<line x1="7.830000000000005" y1="-40.5" x2="7.830000000000005" y2="-43.5" stroke-width="1" stroke="black" />
	<line x1="7.830000000000005" y1="-43.5" x2="5.220000000000006" y2="-45.0" stroke-width="1" stroke="black" />
	<line x1="5.220000000000006" y1="-45.0" x2="2.610000000000006" y2="-43.5" stroke-width="1" stroke="black" />
	<line x1="2.610000000000006" y1="-43.5" x2="6.217248937900877e-15" y2="-45.0" stroke-width="1" stroke="black" />
	<line x1="6.217248937900877e-15" y1="-45.0" x2="6.217248937900877e-15" y2="-48.0" stroke-width="1" stroke="black" />
	<line x1="6.217248937900877e-15" y1="-48.0" x2="2.610000000000006" y2="-49.5" stroke-width="1" stroke="black" />
	<line x1="2.610000000000006" y1="-49.5" x2="2.610000000000006" y2="-52.5" stroke-width="1" stroke="black" />
	<line x1="2.610000000000006" y1="-52.5" x2="6.217248937900877e-15" y2="-54.0" stroke-width="1" stroke="black" />
	<line x1="6.217248937900877e-15" y1="-54.0" x2="6.217248937900877e-15" y2="-57.0" stroke-width="1" stroke="black" />
	<line x1="6.217248937900877e-15" y1="-57.0" x2="2.610000000000006" y2="-58.5" stroke-width="1" stroke="black" />
	<line x1="2.610000000000006" y1="-58.5" x2="5.220000000000006" y2="-57.0" stroke-width="1" stroke="black" />
	<line x1="5.220000000000006" y1="-57.0" x2="5.220000000000006" y2="-54.0" stroke-width="1" stroke="black" />
	<line x1="5.220000000000006" y1="-54.0" x2="7.830000000000005" y2="-52.5" stroke-width="1" stroke="black" />
	<line x1="7.830000000000005" y1="-52.5" x2="10.440000000000005" y2="-54.0" stroke-width="1" stroke="black" />
	<line x1="10.440000000000005" y1="-54.0" x2="10.440000000000005" y2="-57.0" stroke-width="1" stroke="black" />
	<line x1="10.440000000000005" y1="-57.0" x2="13.050000000000004" y2="-58.5" stroke-width="1" stroke="black" />
	<line x1="13.050000000000004" y1="-58.5" x2="15.660000000000004" y2="-57.0" stroke-width="1" stroke="black" />
	<line x1="15.660000000000004" y1="-57.0" x2="18.270000000000003" y2="-58.5" stroke-width="1" stroke="black" />
	<line x1="18.270000000000003" y1="-58.5" x2="18.270000000000003" y2="-61.5" stroke-width="1" stroke="black" />
	<line x1="18.270000000000003" y1="-61.5" x2="15.660000000000004" y2="-63.0" stroke-width="1" stroke="black" />
	<line x1="15.660000000000004" y1="-63.0" x2="13.050000000000004" y2="-61.5" stroke-width="1" stroke="black" />
	<line x1="13.050000000000004" y1="-61.5" x2="10.440000000000005" y2="-63.0" stroke-width="1" stroke="black" />
	<line x1="10.440000000000005" y1="-63.0" x2="10.440000000000005" y2="-66.0" stroke-width="1" stroke="black" />
	<line x1="10.440000000000005" y1="-66.0" x2="7.830000000000005" y2="-67.5" stroke-width="1" stroke="black" />
	<line x1="7.830000000000005" y1="-67.5" x2="5.220000000000006" y2="-66.0" stroke-width="1" stroke="black" />
	<line x1="5.220000000000006" y1="-66.0" x2="5.220000000000006" y2="-63.0" stroke-width="1" stroke="black" />
	<line x1="5.220000000000006" y1="-63.0" x2="2.610000000000006" y2="-61.5" stroke-width="1" stroke="black" />
	<line x1="2.610000000000006" y1="-61.5" x2="6.217248937900877e-15" y2="-63.0" stroke-width="1" stroke="black" />
	<line x1="6.217248937900877e-15" y1="-63.0" x2="6.217248937900877e-15" y2="-66.0" stroke-width="1" stroke="black" />
	<line x1="6.217248937900877e-15" y1="-66.0" x2="2.610000000000006" y2="-67.5" stroke-width="1" stroke="black" />
	<line x1="2.610000000000006" y1="-67.5" x2="2.610000000000006" y2="-70.5" stroke-width="1" stroke="black" />
	<line x1="2.610000000000006" y1="-70.5" x2="6.217248937900877e-15" y2="-72.0" stroke-width="1" stroke="black" />
	<line x1="6.217248937900877e-15" y1="-72.0" x2="6.217248937900877e-15" y2="-75.0" stroke-width="1" stroke="black" />
	<line x1="6.217248937900877e-15" y1="-75.0" x2="2.610000000000006" y2="-76.5" stroke-width="1" stroke="black" />
	<line x1="2.610000000000006" y1="-76.5" x2="5.220000000000006" y2="-75.0" stroke-width="1" stroke="black" />
	<line x1="5.220000000000006" y1="-75.0" x2="7.830000000000005" y2="-76.5" stroke-width="1" stroke="black" />
	<line x1="7.830000000000005" y1="-76.5" x2="7.830000000000005" y2="-79.5" stroke-width="1" stroke="black" />
	<line x1="7.830000000000005" y1="-79.5" x2="5.220000000000006" y2="-81.0" stroke-width="1" stroke="black" />
	<line x1="5.220000000000006" y1="-81.0" x2="2.610000000000006" y2="-79.5" stroke-width="1" stroke="black" />
	<line x1="2.610000000000006" y1="-79.5" x2="6.217248937900877e-15" y2="-81.0" stroke-width="1" stroke="black" />
	<line x1="6.217248937900877e-15" y1="-81.0" x2="6.217248937900877e-15" y2="-84.0" stroke-width="1" stroke="black" />
	<line x1="6.217248937900877e-15" y1="-84.0" x2="2.610000000000006" y2="-85.5" stroke-width="1" stroke="black" />
	<line x1="2.610000000000006" y1="-85.5" x2="2.610000000000006" y2="-88.5" stroke-width="1" stroke="black" />
	<line x1="2.610000000000006" y1="-88.5" x2="6.217248937900877e-15" y2="-90.0" stroke-width="1" stroke="black" />
	<line x1="6.217248937900877e-15" y1="-90.0" x2="6.217248937900877e-15" y2="-93.0" stroke-width="1" stroke="black" />
	<line x1="6.217248937900877e-15" y1="-93.0" x2="2.610000000000006" y2="-94.5" stroke-width="1" stroke="black" />
	<line x1="2.610000000000006" y1="-94.5" x2="5.220000000000006" y2="-93.0" stroke-width="1" stroke="black" />
	<line x1="5.220000000000006" y1="-93.0" x2="5.220000000000006" y2="-90.0" stroke-width="1" stroke="black" />
	<line x1="5.220000000000006" y1="-90.0" x2="7.830000000000005" y2="-88.5" stroke-width="1" stroke="black" />
	<line x1="7.830000000000005" y1="-88.5" x2="10.440000000000005" y2="-90.0" stroke-width="1" stroke="black" />
	<line x1="10.440000000000005" y1="-90.0" x2="13.050000000000004" y2="-88.5" stroke-width="1" stroke="black" />
	<line x1="13.050000000000004" y1="-88.5" x2="13.050000000000004" y2="-85.5" stroke-width="1" stroke="black" />
	<line x1="13.050000000000004" y1="-85.5" x2="10.440000000000005" y2="-84.0" stroke-width="1" stroke="black" />
	<line x1="10.440000000000005" y1="-84.0" x2="10.440000000000005" y2="-81.0" stroke-width="1" stroke="black" />
	<line x1="10.440000000000005" y1="-81.0" x2="13.050000000000004" y2="-79.5" stroke-width="1" stroke="black" />
	<line x1="13.050000000000004" y1="-79.5" x2="15.660000000000004" y2="-81.0" stroke-width="1" stroke="black" />
	<line x1="15.660000000000004" y1="-81.0" x2="15.660000000000004" y2="-84.0" stroke-width="1" stroke="black" />
	<line x1="15.660000000000004" y1="-84.0" x2="18.270000000000003" y2="-85.5" stroke-width="1" stroke="black" />
	<line x1="18.270000000000003" y1="-85.5" x2="20.880000000000003" y2="-84.0" stroke-width="1" stroke="black" />
	<line x1="20.880000000000003" y1="-84.0" x2="20.880000000000003" y2="-81.0" stroke-width="1" stroke="black" />
	<line x1="20.880000000000003" y1="-81.0" x2="23.490000000000002" y2="-79.5" stroke-width="1" stroke="black" />
	<line x1="23.490000000000002" y1="-79.5" x2="26.1" y2="-81.0" stroke-width="1" stroke="black" />
	<line x1="26.1" y1="-81.0" x2="28.71" y2="-79.5" stroke-width="1" stroke="black" />
	<line x1="28.71" y1="-79.5" x2="28.71" y2="-76.5" stroke-width="1" stroke="black" />
	<line x1="28.71" y1="-76.5" x2="26.1" y2="-75.0" stroke-width="1" stroke="black" />
	<line x1="26.1" y1="-75.0" x2="23.490000000000002" y2="-76.5" stroke-width="1" stroke="black" />
	<line x1="23.490000000000002" y1="-76.5" x2="20.880000000000003" y2="-75.0" stroke-width="1" stroke="black" />
	<line x1="20.880000000000003" y1="-75.0" x2="20.880000000000003" y2="-72.0" stroke-width="1" stroke="black" />
	<line x1="20.880000000000003" y1="-72.0" x2="23.490000000000002" y2="-70.5" stroke-width="1" stroke="black" />
	<line x1="23.490000000000002" y1="-70.5" x2="23.490000000000002" y2="-67.5" stroke-width="1" stroke="black" />
	<line x1="23.490000000000002" y1="-67.5" x2="20.880000000000003" y2="-66.0" stroke-width="1" stroke="black" />
	<line x1="20.880000000000003" y1="-66.0" x2="20.880000000000003" y2="-63.0" stroke-width="1" stroke="black" />
	<line x1="20.880000000000003" y1="-63.0" x2="23.490000000000002" y2="-61.5" stroke-width="1" stroke="black" />
	<line x1="23.490000000000002" y1="-61.5" x2="26.1" y2="-63.0" stroke-width="1" stroke="black" />
	<line x1="26.1" y1="-63.0" x2="26.1" y2="-66.0" stroke-width="1" stroke="black" />
	<line x1="26.1" y1="-66.0" x2="28.71" y2="-67.5" stroke-width="1" stroke="black" />
	<line x1="28.71" y1="-67.5" x2="31.32" y2="-66.0" stroke-width="1" stroke="black" />
	<line x1="31.32" y1="-66.0" x2="33.93" y2="-67.5" stroke-width="1" stroke="black" />
	<line x1="33.93" y1="-67.5" x2="33.93" y2="-70.5" stroke-width="1" stroke="black" />
	<line x1="33.93" y1="-70.5" x2="31.32" y2="-72.0" stroke-width="1" stroke="black" />
	<line x1="31.32" y1="-72.0" x2="31.32" y2="-75.0" stroke-width="1" stroke="black" />
	<line x1="31.32" y1="-75.0" x2="33.93" y2="-76.5" stroke-width="1" stroke="black" />
	<line x1="33.93" y1="-76.5" x2="36.54" y2="-75.0" stroke-width="1" stroke="black" />
	<line x1="36.54" y1="-75.0" x2="36.54" y2="-72.0" stroke-width="1" stroke="black" />
	<line x1="36.54" y1="-72.0" x2="39.15" y2="-70.5" stroke-width="1" stroke="black" />
	<line x1="39.15" y1="-70.5" x2="41.76" y2="-72.0" stroke-width="1" stroke="black" />
	<line x1="41.76" y1="-72.0" x2="44.37" y2="-70.5" stroke-width="1" stroke="black" />
	<line x1="44.37" y1="-70.5" x2="44.37" y2="-67.5" stroke-width="1" stroke="black" />
	<line x1="44.37" y1="-67.5" x2="41.76" y2="-66.0" stroke-width="1" stroke="black" />
	<line x1="41.76" y1="-66.0" x2="41.76" y2="-63.0" stroke-width="1" stroke="black" />
	<line x1="41.76" y1="-63.0" x2="44.37" y2="-61.5" stroke-width="1" stroke="black" />
	<line x1="44.37" y1="-61.5" x2="46.98" y2="-63.0" stroke-width="1" stroke="black" />
	<line x1="46.98" y1="-63.0" x2="46.98" y2="-66.0" stroke-width="1" stroke="black" />
	<line x1="46.98" y1="-66.0" x2="49.589999999999996" y2="-67.5" stroke-width="1" stroke="black" />
	<line x1="49.589999999999996" y1="-67.5" x2="52.199999999999996" y2="-66.0" stroke-width="1" stroke="black" />
	<line x1="52.199999999999996" y1="-66.0" x2="52.199999999999996" y2="-63.0" stroke-width="1" stroke="black" />
	<line x1="52.199999999999996" y1="-63.0" x2="54.809999999999995" y2="-61.5" stroke-width="1" stroke="black" />
	<line x1="54.809999999999995" y1="-61.5" x2="57.419999999999995" y2="-63.0" stroke-width="1" stroke="black" />
	<line x1="57.419999999999995" y1="-63.0" x2="60.029999999999994" y2="-61.5" stroke-width="1" stroke="black" />
	<line x1="60.029999999999994" y1="-61.5" x2="60.029999999999994" y2="-58.5" stroke-width="1" stroke="black" />
	<line x1="60.029999999999994" y1="-58.5" x2="57.419999999999995" y2="-57.0" stroke-width="1" stroke="black" />
	<line x1="57.419999999999995" y1="-57.0" x2="54.809999999999995" y2="-58.5" stroke-width="1" stroke="black" />
	<line x1="54.809999999999995" y1="-58.5" x2="52.199999999999996" y2="-57.0" stroke-width="1" stroke="black" />
	<line x1="52.199999999999996" y1="-57.0" x2="52.199999999999996" y2="-54.0" stroke-width="1" stroke="black" />
	<line x1="52.199999999999996" y1="-54.0" x2="49.589999999999996" y2="-52.5" stroke-width="1" stroke="black" />
	<line x1="49.589999999999996" y1="-52.5" x2="46.98" y2="-54.0" stroke-width="1" stroke="black" />
	<line x1="46.98" y1="-54.0" x2="46.98" y2="-57.0" stroke-width="1" stroke="black" />
	<line x1="46.98" y1="-57.0" x2="44.37" y2="-58.5" stroke-width="1" stroke="black" />
	<line x1="44.37" y1="-58.5" x2="41.76" y2="-57.0" stroke-width="1" stroke="black" />
	<line x1="41.76" y1="-57.0" x2="41.76" y2="-54.0" stroke-width="1" stroke="black" />
	<line x1="41.76" y1="-54.0" x2="44.37" y2="-52.5" stroke-width="1" stroke="black" />
	<line x1="44.37" y1="-52.5" x2="44.37" y2="-49.5" stroke-width="1" stroke="black" />
	<line x1="44.37" y1="-49.5" x2="41.76" y2="-48.0" stroke-width="1" stroke="black" />
	<line x1="41.76" y1="-48.0" x2="41.76" y2="-45.0" stroke-width="1" stroke="black" />
	<line x1="41.76" y1="-45.0" x2="44.37" y2="-43.5" stroke-width="1" stroke="black" />
	<line x1="44.37" y1="-43.5" x2="46.98" y2="-45.0" stroke-width="1" stroke="black" />
	<line x1="46.98" y1="-45.0" x2="49.589999999999996" y2="-43.5" stroke-width="1" stroke="black" />
	<line x1="49.589999999999996" y1="-43.5" x2="49.589999999999996" y2="-40.5" stroke-width="1" stroke="black" />
	<line x1="49.589999999999996" y1="-40.5" x2="46.98" y2="-39.0" stroke-width="1" stroke="black" />
	<line x1="46.98" y1="-39.0" x2="44.37" y2="-40.5" stroke-width="1" stroke="black" />
	<line x1="44.37" y1="-40.5" x2="41.76" y2="-39.0" stroke-width="1" stroke="black" />
	<line x1="41.76" y1="-39.0" x2="41.76" y2="-36.0" stroke-width="1" stroke="black" />
	<line x1="41.76" y1="-36.0" x2="44.37" y2="-34.5" stroke-width="1" stroke="black" />
	<line x1="44.37" y1="-34.5" x2="44.37" y2="-31.5" stroke-width="1" stroke="black" />
	<line x1="44.37" y1="-31.5" x2="41.76" y2="-30.0" stroke-width="1" stroke="black" />
	<line x1="41.76" y1="-30.0" x2="41.76" y2="-27.0" stroke-width="1" stroke="black" />
	<line x1="41.76" y1="-27.0" x2="44.37" y2="-25.5" stroke-width="1" stroke="black" />
	<line x1="44.37" y1="-25.5" x2="46.98" y2="-27.0" stroke-width="1" stroke="black" />
	<line x1="46.98" y1="-27.0" x2="46.98" y2="-30.0" stroke-width="1" stroke="black" />
	<line x1="46.98" y1="-30.0" x2="49.589999999999996" y2="-31.5" stroke-width="1" stroke="black" />
	<line x1="49.589999999999996" y1="-31.5" x2="52.199999999999996" y2="-30.0" stroke-width="1" stroke="black" />
	<line x1="52.199999999999996" y1="-30.0" x2="54.809999999999995" y2="-31.5" stroke-width="1" stroke="black" />
	<line x1="54.809999999999995" y1="-31.5" x2="54.809999999999995" y2="-34.5" stroke-width="1" stroke="black" />
	<line x1="54.809999999999995" y1="-34.5" x2="52.199999999999996" y2="-36.0" stroke-width="1" stroke="black" />
	<line x1="52.199999999999996" y1="-36.0" x2="52.199999999999996" y2="-39.0" stroke-width="1" stroke="black" />
	<line x1="52.199999999999996" y1="-39.0" x2="54.809999999999995" y2="-40.5" stroke-width="1" stroke="black" />
	<line x1="54.809999999999995" y1="-40.5" x2="57.419999999999995" y2="-39.0" stroke-width="1" stroke="black" />
	<line x1="57.419999999999995" y1="-39.0" x2="57.419999999999995" y2="-36.0" stroke-width="1" stroke="black" />
	<line x1="57.419999999999995" y1="-36.0" x2="60.029999999999994" y2="-34.5" stroke-width="1" stroke="black" />
	<line x1="60.029999999999994" y1="-34.5" x2="62.63999999999999" y2="-36.0" stroke-width="1" stroke="black" />
	<line x1="62.63999999999999" y1="-36.0" x2="62.63999999999999" y2="-39.0" stroke-width="1" stroke="black" />
	<line x1="62.63999999999999" y1="-39.0" x2="65.25" y2="-40.5" stroke-width="1" stroke="black" />
	<line x1="65.25" y1="-40.5" x2="67.86" y2="-39.0" stroke-width="1" stroke="black" />
	<line x1="67.86" y1="-39.0" x2="70.47" y2="-40.5" stroke-width="1" stroke="black" />
	<line x1="70.47" y1="-40.5" x2="70.47" y2="-43.5" stroke-width="1" stroke="black" />
	<line x1="70.47" y1="-43.5" x2="67.86" y2="-45.0" stroke-width="1" stroke="black" />
	<line x1="67.86" y1="-45.0" x2="65.25" y2="-43.5" stroke-width="1" stroke="black" />
	<line x1="65.25" y1="-43.5" x2="62.64" y2="-45.0" stroke-width="1" stroke="black" />
	<line x1="62.64" y1="-45.0" x2="62.64" y2="-48.0" stroke-width="1" stroke="black" />
	<line x1="62.64" y1="-48.0" x2="65.25" y2="-49.5" stroke-width="1" stroke="black" />
	<line x1="65.25" y1="-49.5" x2="65.25" y2="-52.5" stroke-width="1" stroke="black" />
	<line x1="65.25" y1="-52.5" x2="62.64" y2="-54.0" stroke-width="1" stroke="black" />
	<line x1="62.64" y1="-54.0" x2="62.64" y2="-57.0" stroke-width="1" stroke="black" />
	<line x1="62.64" y1="-57.0" x2="65.25" y2="-58.5" stroke-width="1" stroke="black" />
	<line x1="65.25" y1="-58.5" x2="67.86" y2="-57.0" stroke-width="1" stroke="black" />
	<line x1="67.86" y1="-57.0" x2="67.86" y2="-54.0" stroke-width="1" stroke="black" />
	<line x1="67.86" y1="-54.0" x2="70.47" y2="-52.5" stroke-width="1" stroke="black" />
	<line x1="70.47" y1="-52.5" x2="73.08" y2="-54.0" stroke-width="1" stroke="black" />
	<line x1="73.08" y1="-54.0" x2="75.69" y2="-52.5" stroke-width="1" stroke="black" />
	<line x1="75.69" y1="-52.5" x2="75.69" y2="-49.5" stroke-width="1" stroke="black" />
	<line x1="75.69" y1="-49.5" x2="73.08" y2="-48.0" stroke-width="1" stroke="black" />
	<line x1="73.08" y1="-48.0" x2="73.08" y2="-45.0" stroke-width="1" stroke="black" />
	<line x1="73.08" y1="-45.0" x2="75.69" y2="-43.5" stroke-width="1" stroke="black" />
	<line x1="75.69" y1="-43.5" x2="78.3" y2="-45.0" stroke-width="1" stroke="black" />
	<line x1="78.3" y1="-45.0" x2="78.3" y2="-48.0" stroke-width="1" stroke="black" />
	<line x1="78.3" y1="-48.0" x2="80.91" y2="-49.5" stroke-width="1" stroke="black" />
	<line x1="80.91" y1="-49.5" x2="83.52" y2="-48.0" stroke-width="1" stroke="black" />
	<line x1="83.52" y1="-48.0" x2="86.13" y2="-49.5" stroke-width="1" stroke="black" />
	<line x1="86.13" y1="-49.5" x2="86.13" y2="-52.5" stroke-width="1" stroke="black" />
	<line x1="86.13" y1="-52.5" x2="83.52" y2="-54.0" stroke-width="1" stroke="black" />
	<line x1="83.52" y1="-54.0" x2="83.52" y2="-57.0" stroke-width="1" stroke="black" />
	<line x1="83.52" y1="-57.0" x2="86.13" y2="-58.5" stroke-width="1" stroke="black" />
	<line x1="86.13" y1="-58.5" x2="88.74" y2="-57.0" stroke-width="1" stroke="black" />
	<line x1="88.74" y1="-57.0" x2="88.74" y2="-54.0" stroke-width="1" stroke="black" />
	<line x1="88.74" y1="-54.0" x2="91.35" y2="-52.5" stroke-width="1" stroke="black" />
	<line x1="91.35" y1="-52.5" x2="93.96" y2="-54.0" stroke-width="1" stroke="black" />
	<line x1="93.96" y1="-54.0" x2="93.96" y2="-57.0" stroke-width="1" stroke="black" />
	<line x1="93.96" y1="-57.0" x2="96.57" y2="-58.5" stroke-width="1" stroke="black" />
	<line x1="96.57" y1="-58.5" x2="99.17999999999999" y2="-57.0" stroke-width="1" stroke="black" />
	<line x1="99.17999999999999" y1="-57.0" x2="101.78999999999999" y2="-58.5" stroke-width="1" stroke="black" />
	<line x1="101.78999999999999" y1="-58.5" x2="101.78999999999999" y2="-61.5" stroke-width="1" stroke="black" />
	<line x1="101.78999999999999" y1="-61.5" x2="99.17999999999999" y2="-63.0" stroke-width="1" stroke="black" />
	<line x1="99.17999999999999" y1="-63.0" x2="96.57" y2="-61.5" stroke-width="1" stroke="black" />
	<line x1="96.57" y1="-61.5" x2="93.96" y2="-63.0" stroke-width="1" stroke="black" />
	<line x1="93.96" y1="-63.0" x2="93.96" y2="-66.0" stroke-width="1" stroke="black" />
	<line x1="93.96" y1="-66.0" x2="91.35" y2="-67.5" stroke-width="1" stroke="black" />
	<line x1="91.35" y1="-67.5" x2="88.74" y2="-66.0" stroke-width="1" stroke="black" />
	<line x1="88.74" y1="-66.0" x2="88.74" y2="-63.0" stroke-width="1" stroke="black" />
	<line x1="88.74" y1="-63.0" x2="86.13" y2="-61.5" stroke-width="1" stroke="black" />
	<line x1="86.13" y1="-61.5" x2="83.52" y2="-63.0" stroke-width="1" stroke="black" />
	<line x1="83.52" y1="-63.0" x2="83.52" y2="-66.0" stroke-width="1" stroke="black" />
	<line x1="83.52" y1="-66.0" x2="86.13" y2="-67.5" stroke-width="1" stroke="black" />
	<line x1="86.13" y1="-67.5" x2="86.13" y2="-70.5" stroke-width="1" stroke="black" />
	<line x1="86.13" y1="-70.5" x2="83.52" y2="-72.0" stroke-width="1" stroke="black" />
	<line x1="83.52" y1="-72.0" x2="83.52" y2="-75.0" stroke-width="1" stroke="black" />
	<line x1="83.52" y1="-75.0" x2="86.13" y2="-76.5" stroke-width="1" stroke="black" />
	<line x1="86.13" y1="-76.5" x2="88.74" y2="-75.0" stroke-width="1" stroke="black" />
	<line x1="88.74" y1="-75.0" x2="91.35" y2="-76.5" stroke-width="1" stroke="black" />
	<line x1="91.35" y1="-76.5" x2="91.35" y2="-79.5" stroke-width="1" stroke="black" />
	<line x1="91.35" y1="-79.5" x2="88.74" y2="-81.0" stroke-width="1" stroke="black" />
	<line x1="88.74" y1="-81.0" x2="86.13" y2="-79.5" stroke-width="1" stroke="black" />
	<line x1="86.13" y1="-79.5" x2="83.52" y2="-81.0" stroke-width="1" stroke="black" />
	<line x1="83.52" y1="-81.0" x2="83.52" y2="-84.0" stroke-width="1" stroke="black" />
	<line x1="83.52" y1="-84.0" x2="86.13" y2="-85.5" stroke-width="1" stroke="black" />
	<line x1="86.13" y1="-85.5" x2="86.13" y2="-88.5" stroke-width="1" stroke="black" />
	<line x1="86.13" y1="-88.5" x2="83.52" y2="-90.0" stroke-width="1" stroke="black" />
	<line x1="83.52" y1="-90.0" x2="83.52" y2="-93.0" stroke-width="1" stroke="black" />
	<line x1="83.52" y1="-93.0" x2="86.13" y2="-94.5" stroke-width="1" stroke="black" />
	<line x1="86.13" y1="-94.5" x2="88.74" y2="-93.0" stroke-width="1" stroke="black" />
	<line x1="88.74" y1="-93.0" x2="88.74" y2="-90.0" stroke-width="1" stroke="black" />
	<line x1="88.74" y1="-90.0" x2="91.35" y2="-88.5" stroke-width="1" stroke="black" />
	<line x1="91.35" y1="-88.5" x2="93.96" y2="-90.0" stroke-width="1" stroke="black" />
	<line x1="93.96" y1="-90.0" x2="96.57" y2="-88.5" stroke-width="1" stroke="black" />
	<line x1="96.57" y1="-88.5" x2="96.57" y2="-85.5" stroke-width="1" stroke="black" />
	<line x1="96.57" y1="-85.5" x2="93.96" y2="-84.0" stroke-width="1" stroke="black" />
	<line x1="93.96" y1="-84.0" x2="93.96" y2="-81.0" stroke-width="1" stroke="black" />
	<line x1="93.96" y1="-81.0" x2="96.57" y2="-79.5" stroke-width="1" stroke="black" />
	<line x1="96.57" y1="-79.5" x2="99.17999999999999" y2="-81.0" stroke-width="1" stroke="black" />
	<line x1="99.17999999999999" y1="-81.0" x2="99.17999999999999" y2="-84.0" stroke-width="1" stroke="black" />
	<line x1="99.17999999999999" y1="-84.0" x2="101.78999999999999" y2="-85.5" stroke-width="1" stroke="black" />
	<line x1="101.78999999999999" y1="-85.5" x2="104.39999999999999" y2="-84.0" stroke-width="1" stroke="black" />
	<line x1="104.39999999999999" y1="-84.0" x2="104.39999999999999" y2="-81.0" stroke-width="1" stroke="black" />
	<line x1="104.39999999999999" y1="-81.0" x2="107.00999999999999" y2="-79.5" stroke-width="1" stroke="black" />
	<line x1="107.00999999999999" y1="-79.5" x2="109.61999999999999" y2="-81.0" stroke-width="1" stroke="black" />
	<line x1="109.61999999999999" y1="-81.0" x2="112.22999999999999" y2="-79.5" stroke-width="1" stroke="black" />
	<line x1="112.22999999999999" y1="-79.5" x2="112.22999999999999" y2="-76.5" stroke-width="1" stroke="black" />
	<line x1="112.22999999999999" y1="-76.5" x2="109.61999999999999" y2="-75.0" stroke-width="1" stroke="black" />
	<line x1="109.61999999999999" y1="-75.0" x2="107.00999999999999" y2="-76.5" stroke-width="1" stroke="black" />
	<line x1="107.00999999999999" y1="-76.5" x2="104.39999999999999" y2="-75.0" stroke-width="1" stroke="black" />
	<line x1="104.39999999999999" y1="-75.0" x2="104.39999999999999" y2="-72.0" stroke-width="1" stroke="black" />
	<line x1="104.39999999999999" y1="-72.0" x2="107.00999999999999" y2="-70.5" stroke-width="1" stroke="black" />
	<line x1="107.00999999999999" y1="-70.5" x2="107.00999999999999" y2="-67.5" stroke-width="1" stroke="black" />
	<line x1="107.00999999999999" y1="-67.5" x2="104.39999999999999" y2="-66.0" stroke-width="1" stroke="black" />
	<line x1="104.39999999999999" y1="-66.0" x2="104.39999999999999" y2="-63.0" stroke-width="1" stroke="black" />
	<line x1="104.39999999999999" y1="-63.0" x2="107.00999999999999" y2="-61.5" stroke-width="1" stroke="black" />
	<line x1="107.00999999999999" y1="-61.5" x2="109.61999999999999" y2="-63.0" stroke-width="1" stroke="black" />
	<line x1="109.61999999999999" y1="-63.0" x2="109.61999999999999" y2="-66.0" stroke-width="1" stroke="black" />
	<line x1="109.61999999999999" y1="-66.0" x2="112.22999999999999" y2="-67.5" stroke-width="1" stroke="black" />
	<line x1="112.22999999999999" y1="-67.5" x2="114.83999999999999" y2="-66.0" stroke-width="1" stroke="black" />
	<line x1="114.83999999999999" y1="-66.0" x2="117.44999999999999" y2="-67.5" stroke-width="1" stroke="black" />
	<line x1="117.44999999999999" y1="-67.5" x2="117.44999999999999" y2="-70.5" stroke-width="1" stroke="black" />
	<line x1="117.44999999999999" y1="-70.5" x2="114.83999999999999" y2="-72.0" stroke-width="1" stroke="black" />
	<line x1="114.83999999999999" y1="-72.0" x2="114.83999999999999" y2="-75.0" stroke-width="1" stroke="black" />
	<line x1="114.83999999999999" y1="-75.0" x2="117.44999999999999" y2="-76.5" stroke-width="1" stroke="black" />
	<line x1="117.44999999999999" y1="-76.5" x2="120.05999999999999" y2="-75.0" stroke-width="1" stroke="black" />
	<line x1="120.05999999999999" y1="-75.0" x2="120.05999999999999" y2="-72.0" stroke-width="1" stroke="black" />
	<line x1="120.05999999999999" y1="-72.0" x2="122.66999999999999" y2="-70.5" stroke-width="1" stroke="black" />
	<line x1="122.66999999999999" y1="-70.5" x2="125.27999999999999" y2="-72.0" stroke-width="1" stroke="black" />
	<line x1="125.27999999999999" y1="-72.0" x2="125.27999999999999" y2="-75.0" stroke-width="1" stroke="black" />
	<line x1="125.27999999999999" y1="-75.0" x2="127.88999999999999" y2="-76.5" stroke-width="1" stroke="black" />
	<line x1="127.88999999999999" y1="-76.5" x2="130.5" y2="-75.0" stroke-width="1" stroke="black" />
	<line x1="130.5" y1="-75.0" x2="133.11" y2="-76.5" stroke-width="1" stroke="black" />
	<line x1="133.11" y1="-76.5" x2="133.11" y2="-79.5" stroke-width="1" stroke="black" />
	<line x1="133.11" y1="-79.5" x2="130.5" y2="-81.0" stroke-width="1" stroke="black" />
	<line x1="130.5" y1="-81.0" x2="127.89" y2="-79.5" stroke-width="1" stroke="black" />
	<line x1="127.89" y1="-79.5" x2="125.28" y2="-81.0" stroke-width="1" stroke="black" />
	<line x1="125.28" y1="-81.0" x2="125.28" y2="-84.0" stroke-width="1" stroke="black" />
	<line x1="125.28" y1="-84.0" x2="127.89" y2="-85.5" stroke-width="1" stroke="black" />
	<line x1="127.89" y1="-85.5" x2="127.89" y2="-88.5" stroke-width="1" stroke="black" />
	<line x1="127.89" y1="-88.5" x2="125.28" y2="-90.0" stroke-width="1" stroke="black" />
	<line x1="125.28" y1="-90.0" x2="125.28" y2="-93.0" stroke-width="1" stroke="black" />
	<line x1="125.28" y1="-93.0" x2="127.89" y2="-94.5" stroke-width="1" stroke="black" />
	<line x1="127.89" y1="-94.5" x2="130.5" y2="-93.0" stroke-width="1" stroke="black" />
	<line x1="130.5" y1="-93.0" x2="130.5" y2="-90.0" stroke-width="1" stroke="black" />
	<line x1="130.5" y1="-90.0" x2="133.11" y2="-88.5" stroke-width="1" stroke="black" />
	<line x1="133.11" y1="-88.5" x2="135.72000000000003" y2="-90.0" stroke-width="1" stroke="black" />
	<line x1="135.72000000000003" y1="-90.0" x2="138.33000000000004" y2="-88.5" stroke-width="1" stroke="black" />
	<line x1="138.33000000000004" y1="-88.5" x2="138.33000000000004" y2="-85.5" stroke-width="1" stroke="black" />
	<line x1="138.33000000000004" y1="-85.5" x2="135.72000000000003" y2="-84.0" stroke-width="1" stroke="black" />
	<line x1="135.72000000000003" y1="-84.0" x2="135.72000000000003" y2="-81.0" stroke-width="1" stroke="black" />
	<line x1="135.72000000000003" y1="-81.0" x2="138.33000000000004" y2="-79.5" stroke-width="1" stroke="black" />
	<line x1="138.33000000000004" y1="-79.5" x2="140.94000000000005" y2="-81.0" stroke-width="1" stroke="black" />
	<line x1="140.94000000000005" y1="-81.0" x2="140.94000000000005" y2="-84.0" stroke-width="1" stroke="black" />
	<line x1="140.94000000000005" y1="-84.0" x2="143.55000000000007" y2="-85.5" stroke-width="1" stroke="black" />
	<line x1="143.55000000000007" y1="-85.5" x2="146.16000000000008" y2="-84.0" stroke-width="1" stroke="black" />
	<line x1="146.16000000000008" y1="-84.0" x2="148.7700000000001" y2="-85.5" stroke-width="1" stroke="black" />
	<line x1="148.7700000000001" y1="-85.5" x2="148.7700000000001" y2="-88.5" stroke-width="1" stroke="black" />
	<line x1="148.7700000000001" y1="-88.5" x2="146.16000000000008" y2="-90.0" stroke-width="1" stroke="black" />
	<line x1="146.16000000000008" y1="-90.0" x2="146.16000000000008" y2="-93.0" stroke-width="1" stroke="black" />
	<line x1="146.16000000000008" y1="-93.0" x2="148.7700000000001" y2="-94.5" stroke-width="1" stroke="black" />
	<line x1="148.7700000000001" y1="-94.5" x2="151.3800000000001" y2="-93.0" stroke-width="1" stroke="black" />
	<line x1="151.3800000000001" y1="-93.0" x2="151.3800000000001" y2="-90.0" stroke-width="1" stroke="black" />
	<line x1="151.3800000000001" y1="-90.0" x2="153.99000000000012" y2="-88.5" stroke-width="1" stroke="black" />
	<line x1="153.99000000000012" y1="-88.5" x2="156.60000000000014" y2="-90.0" stroke-width="1" stroke="black" />
	<line x1="156.60000000000014" y1="-90.0" x2="156.60000000000014" y2="-93.0" stroke-width="1" stroke="black" />
	<line x1="156.60000000000014" y1="-93.0" x2="159.21000000000015" y2="-94.5" stroke-width="1" stroke="black" />
	<line x1="159.21000000000015" y1="-94.5" x2="161.82000000000016" y2="-93.0" stroke-width="1" stroke="black" />
	<line x1="161.82000000000016" y1="-93.0" x2="164.43000000000018" y2="-94.5" stroke-width="1" stroke="black" />
	<line x1="164.43000000000018" y1="-94.5" x2="164.43000000000018" y2="-97.5" stroke-width="1" stroke="black" />
	<line x1="164.43000000000018" y1="-97.5" x2="161.82000000000016" y2="-99.0" stroke-width="1" stroke="black" />
	<line x1="161.82000000000016" y1="-99.0" x2="159.21000000000015" y2="-97.5" stroke-width="1" stroke="black" />
	<line x1="159.21000000000015" y1="-97.5" x2="156.60000000000014" y2="-99.0" stroke-width="1" stroke="black" />
	<line x1="156.60000000000014" y1="-99.0" x2="156.60000000000014" y2="-102.0" stroke-width="1" stroke="black" />
	<line x1="156.60000000000014" y1="-102.0" x2="153.99000000000012" y2="-103.5" stroke-width="1" stroke="black" />
	<line x1="153.99000000000012" y1="-103.5" x2="151.3800000000001" y2="-102.0" stroke-width="1" stroke="black" />
	<line x1="151.3800000000001" y1="-102.0" x2="151.3800000000001" y2="-99.0" stroke-width="1" stroke="black" />
	<line x1="151.3800000000001" y1="-99.0" x2="148.7700000000001" y2="-97.5" stroke-width="1" stroke="black" />
	<line x1="148.7700000000001" y1="-97.5" x2="146.16000000000008" y2="-99.0" stroke-width="1" stroke="black" />
	<line x1="146.16000000000008" y1="-99.0" x2="146.16000000000008" y2="-102.0" stroke-width="1" stroke="black" />
	<line x1="146.16000000000008" y1="-102.0" x2="148.7700000000001" y2="-103.5" stroke-width="1" stroke="black" />
	<line x1="148.7700000000001" y1="-103.5" x2="148.7700000000001" y2="-106.5" stroke-width="1" stroke="black" />
	<line x1="148.7700000000001" y1="-106.5" x2="146.16000000000008" y2="-108.0" stroke-width="1" stroke="black" />
	<line x1="146.16000000000008" y1="-108.0" x2="143.55000000000007" y2="-106.5" stroke-width="1" stroke="black" />
	<line x1="143.55000000000007" y1="-106.5" x2="140.94000000000005" y2="-108.0" stroke-width="1" stroke="black" />
	<line x1="140.94000000000005" y1="-108.0" x2="140.94000000000005" y2="-111.0" stroke-width="1" stroke="black" />
	<line x1="140.94000000000005" y1="-111.0" x2="138.33000000000004" y2="-112.5" stroke-width="1" stroke="black" />
	<line x1="138.33000000000004" y1="-112.5" x2="135.72000000000003" y2="-111.0" stroke-width="1" stroke="black" />
	<line x1="135.72000000000003" y1="-111.0" x2="135.72000000000003" y2="-108.0" stroke-width="1" stroke="black" />
	<line x1="135.72000000000003" y1="-108.0" x2="138.33000000000004" y2="-106.5" stroke-width="1" stroke="black" />
	<line x1="138.33000000000004" y1="-106.5" x2="138.33000000000004" y2="-103.5" stroke-width="1" stroke="black" />
	<line x1="138.33000000000004" y1="-103.5" x2="135.72000000000003" y2="-102.0" stroke-width="1" stroke="black" />
	<line x1="135.72000000000003" y1="-102.0" x2="133.11" y2="-103.5" stroke-width="1" stroke="black" />
	<line x1="133.11" y1="-103.5" x2="130.5" y2="-102.0" stroke-width="1" stroke="black" />
	<line x1="130.5" y1="-102.0" x2="130.5" y2="-99.0" stroke-width="1" stroke="black" />
	<line x1="130.5" y1="-99.0" x2="127.89" y2="-97.5" stroke-width="1" stroke="black" />
	<line x1="127.89" y1="-97.5" x2="125.28" y2="-99.0" stroke-width="1" stroke="black" />
	<line x1="125.28" y1="-99.0" x2="125.28" y2="-102.0" stroke-width="1" stroke="black" />
	<line x1="125.28" y1="-102.0" x2="127.89" y2="-103.5" stroke-width="1" stroke="black" />
	<line x1="127.89" y1="-103.5" x2="127.89" y2="-106.5" stroke-width="1" stroke="black" />
	<line x1="127.89" y1="-106.5" x2="125.28" y2="-108.0" stroke-width="1" stroke="black" />
	<line x1="125.28" y1="-108.0" x2="125.28" y2="-111.0" stroke-width="1" stroke="black" />
	<line x1="125.28" y1="-111.0" x2="127.89" y2="-112.5" stroke-width="1" stroke="black" />
	<line x1="127.89" y1="-112.5" x2="130.5" y2="-111.0" stroke-width="1" stroke="black" />
	<line x1="130.5" y1="-111.0" x2="133.11" y2="-112.5" stroke-width="1" stroke="black" />
	<line x1="133.11" y1="-112.5" x2="133.11" y2="-115.5" stroke-width="1" stroke="black" />
	<line x1="133.11" y1="-115.5" x2="130.5" y2="-117.0" stroke-width="1" stroke="black" />
	<line x1="130.5" y1="-117.0" x2="127.89" y2="-115.5" stroke-width="1" stroke="black" />
	<line x1="127.89" y1="-115.5" x2="125.28" y2="-117.0" stroke-width="1" stroke="black" />
	<line x1="125.28" y1="-117.0" x2="125.28" y2="-120.0" stroke-width="1" stroke="black" />
	<line x1="125.28" y1="-120.0" x2="122.67" y2="-121.5" stroke-width="1" stroke="black" />
	<line x1="122.67" y1="-121.5" x2="120.06" y2="-120.0" stroke-width="1" stroke="black" />
	<line x1="120.06" y1="-120.0" x2="120.06" y2="-117.0" stroke-width="1" stroke="black" />
	<line x1="120.06" y1="-117.0" x2="117.45" y2="-115.5" stroke-width="1" stroke="black" />
	<line x1="117.45" y1="-115.5" x2="114.84" y2="-117.0" stroke-width="1" stroke="black" />
	<line x1="114.84" y1="-117.0" x2="114.84" y2="-120.0" stroke-width="1" stroke="black" />
	<line x1="114.84" y1="-120.0" x2="117.45" y2="-121.5" stroke-width="1" stroke="black" />
	<line x1="117.45" y1="-121.5" x2="117.45" y2="-124.5" stroke-width="1" stroke="black" />
	<line x1="117.45" y1="-124.5" x2="114.84" y2="-126.0" stroke-width="1" stroke="black" />
	<line x1="114.84" y1="-126.0" x2="112.23" y2="-124.5" stroke-width="1" stroke="black" />
	<line x1="112.23" y1="-124.5" x2="109.62" y2="-126.0" stroke-width="1" stroke="black" />
	<line x1="109.62" y1="-126.0" x2="109.62" y2="-129.0" stroke-width="1" stroke="black" />
	<line x1="109.62" y1="-129.0" x2="107.01" y2="-130.5" stroke-width="1" stroke="black" />
	<line x1="107.01" y1="-130.5" x2="104.4" y2="-129.0" stroke-width="1" stroke="black" />
	<line x1="104.4" y1="-129.0" x2="104.4" y2="-126.0" stroke-width="1" stroke="black" />
	<line x1="104.4" y1="-126.0" x2="107.01" y2="-124.5" stroke-width="1" stroke="black" />
	<line x1="107.01" y1="-124.5" x2="107.01" y2="-121.5" stroke-width="1" stroke="black" />
	<line x1="107.01" y1="-121.5" x2="104.4" y2="-120.0" stroke-width="1" stroke="black" />
	<line x1="104.4" y1="-120.0" x2="104.4" y2="-117.0" stroke-width="1" stroke="black" />
	<line x1="104.4" y1="-117.0" x2="107.01" y2="-115.5" stroke-width="1" stroke="black" />
	<line x1="107.01" y1="-115.5" x2="109.62" y2="-117.0" stroke-width="1" stroke="black" />
	<line x1="109.62" y1="-117.0" x2="112.23" y2="-115.5" stroke-width="1" stroke="black" />
	<line x1="112.23" y1="-115.5" x2="112.23" y2="-112.5" stroke-width="1" stroke="black" />
	<line x1="112.23" y1="-112.5" x2="109.62" y2="-111.0" stroke-width="1" stroke="black" />
	<line x1="109.62" y1="-111.0" x2="107.01" y2="-112.5" stroke-width="1" stroke="black" />
	<line x1="107.01" y1="-112.5" x2="104.4" y2="-111.0" stroke-width="1" stroke="black" />
	<line x1="104.4" y1="-111.0" x2="104.4" y2="-108.0" stroke-width="1" stroke="black" />
	<line x1="104.4" y1="-108.0" x2="101.79" y2="-106.5" stroke-width="1" stroke="black" />
	<line x1="101.79" y1="-106.5" x2="99.18" y2="-108.0" stroke-width="1" stroke="black" />
	<line x1="99.18" y1="-108.0" x2="99.18" y2="-111.0" stroke-width="1" stroke="black" />
	<line x1="99.18" y1="-111.0" x2="96.57000000000001" y2="-112.5" stroke-width="1" stroke="black" />
	<line x1="96.57000000000001" y1="-112.5" x2="93.96000000000001" y2="-111.0" stroke-width="1" stroke="black" />
	<line x1="93.96000000000001" y1="-111.0" x2="93.96000000000001" y2="-108.0" stroke-width="1" stroke="black" />
	<line x1="93.96000000000001" y1="-108.0" x2="96.57000000000001" y2="-106.5" stroke-width="1" stroke="black" />
	<line x1="96.57000000000001" y1="-106.5" x2="96.57000000000001" y2="-103.5" stroke-width="1" stroke="black" />
	<line x1="96.57000000000001" y1="-103.5" x2="93.96000000000001" y2="-102.0" stroke-width="1" stroke="black" />
	<line x1="93.96000000000001" y1="-102.0" x2="91.35000000000001" y2="-103.5" stroke-width="1" stroke="black" />
	<line x1="91.35000000000001" y1="-103.5" x2="88.74000000000001" y2="-102.0" stroke-width="1" stroke="black" />
	<line x1="88.74000000000001" y1="-102.0" x2="88.74000000000001" y2="-99.0" stroke-width="1" stroke="black" />
	<line x1="88.74000000000001" y1="-99.0" x2="86.13000000000001" y2="-97.5" stroke-width="1" stroke="black" />
	<line x1="86.13000000000001" y1="-97.5" x2="83.52000000000001" y2="-99.0" stroke-width="1" stroke="black" />
	<line x1="83.52000000000001" y1="-99.0" x2="83.52000000000001" y2="-102.0" stroke-width="1" stroke="black" />
	<line x1="83.52000000000001" y1="-102.0" x2="86.13000000000001" y2="-103.5" stroke-width="1" stroke="black" />
	<line x1="86.13000000000001" y1="-103.5" x2="86.13000000000001" y2="-106.5" stroke-width="1" stroke="black" />
	<line x1="86.13000000000001" y1="-106.5" x2="83.52000000000001" y2="-108.0" stroke-width="1" stroke="black" />
	<line x1="83.52000000000001" y1="-108.0" x2="83.52000000000001" y2="-111.0" stroke-width="1" stroke="black" />
	<line x1="83.52000000000001" y1="-111.0" x2="86.13000000000001" y2="-112.5" stroke-width="1" stroke="black" />
	<line x1="86.13000000000001" y1="-112.5" x2="88.74000000000001" y2="-111.0" stroke-width="1" stroke="black" />
	<line x1="88.74000000000001" y1="-111.0" x2="91.35000000000001" y2="-112.5" stroke-width="1" stroke="black" />
	<line x1="91.35000000000001" y1="-112.5" x2="91.35000000000001" y2="-115.5" stroke-width="1" stroke="black" />
	<line x1="91.35000000000001" y1="-115.5" x2="88.74000000000001" y2="-117.0" stroke-width="1" stroke="black" />
	<line x1="88.74000000000001" y1="-117.0" x2="86.13000000000001" y2="-115.5" stroke-width="1" stroke="black" />
	<line x1="86.13000000000001" y1="-115.5" x2="83.52000000000001" y2="-117.0" stroke-width="1" stroke="black" />
	<line x1="83.52000000000001" y1="-117.0" x2="83.52000000000001" y2="-120.0" stroke-width="1" stroke="black" />
	<line x1="83.52000000000001" y1="-120.0" x2="86.13000000000001" y2="-121.5" stroke-width="1" stroke="black" />
	<line x1="86.13000000000001" y1="-121.5" x2="86.13000000000001" y2="-124.5" stroke-width="1" stroke="black" />
	<line x1="86.13000000000001" y1="-124.5" x2="83.52000000000001" y2="-126.0" stroke-width="1" stroke="black" />
	<line x1="83.52000000000001" y1="-126.0" x2="83.52000000000001" y2="-129.0" stroke-width="1" stroke="black" />
	<line x1="83.52000000000001" y1="-129.0" x2="86.13000000000001" y2="-130.5" stroke-width="1" stroke="black" />
	<line x1="86.13000000000001" y1="-130.5" x2="88.74000000000001" y2="-129.0" stroke-width="1" stroke="black" />
	<line x1="88.74000000000001" y1="-129.0" x2="88.74000000000001" y2="-126.0" stroke-width="1" stroke="black" />
	<line x1="88.74000000000001" y1="-126.0" x2="91.35000000000001" y2="-124.5" stroke-width="1" stroke="black" />
	<line x1="91.35000000000001" y1="-124.5" x2="93.96000000000001" y2="-126.0" stroke-width="1" stroke="black" />
	<line x1="93.96000000000001" y1="-126.0" x2="93.96000000000001" y2="-129.0" stroke-width="1" stroke="black" />
	<line x1="93.96000000000001" y1="-129.0" x2="96.57000000000001" y2="-130.5" stroke-width="1" stroke="black" />
	<line x1="96.57000000000001" y1="-130.5" x2="99.18" y2="-129.0" stroke-width="1" stroke="black" />
	<line x1="99.18" y1="-129.0" x2="101.79" y2="-130.5" stroke-width="1" stroke="black" />
	<line x1="101.79" y1="-130.5" x2="101.79" y2="-133.5" stroke-width="1" stroke="black" />
	<line x1="101.79" y1="-133.5" x2="99.18" y2="-135.0" stroke-width="1" stroke="black" />
	<line x1="99.18" y1="-135.0" x2="96.57000000000001" y2="-133.5" stroke-width="1" stroke="black" />
	<line x1="96.57000000000001" y1="-133.5" x2="93.96000000000001" y2="-135.0" stroke-width="1" stroke="black" />
	<line x1="93.96000000000001" y1="-135.0" x2="93.96000000000001" y2="-138.0" stroke-width="1" stroke="black" />
	<line x1="93.96000000000001" y1="-138.0" x2="91.35000000000001" y2="-139.5" stroke-width="1" stroke="black" />
	<line x1="91.35000000000001" y1="-139.5" x2="88.74000000000001" y2="-138.0" stroke-width="1" stroke="black" />
	<line x1="88.74000000000001" y1="-138.0" x2="88.74000000000001" y2="-135.0" stroke-width="1" stroke="black" />
	<line x1="88.74000000000001" y1="-135.0" x2="86.13000000000001" y2="-133.5" stroke-width="1" stroke="black" />
	<line x1="86.13000000000001" y1="-133.5" x2="83.52000000000001" y2="-135.0" stroke-width="1" stroke="black" />
	<line x1="83.52000000000001" y1="-135.0" x2="83.52000000000001" y2="-138.0" stroke-width="1" stroke="black" />
	<line x1="83.52000000000001" y1="-138.0" x2="86.13000000000001" y2="-139.5" stroke-width="1" stroke="black" />
	<line x1="86.13000000000001" y1="-139.5" x2="86.13000000000001" y2="-142.5" stroke-width="1" stroke="black" />
	<line x1="86.13000000000001" y1="-142.5" x2="83.52000000000001" y2="-144.0" stroke-width="1" stroke="black" />
	<line x1="83.52000000000001" y1="-144.0" x2="80.91000000000001" y2="-142.5" stroke-width="1" stroke="black" />
	<line x1="80.91000000000001" y1="-142.5" x2="78.30000000000001" y2="-144.0" stroke-width="1" stroke="black" />
	<line x1="78.30000000000001" y1="-144.0" x2="78.30000000000001" y2="-147.0" stroke-width="1" stroke="black" />
	<line x1="78.30000000000001" y1="-147.0" x2="75.69000000000001" y2="-148.5" stroke-width="1" stroke="black" />
	<line x1="75.69000000000001" y1="-148.5" x2="73.08000000000001" y2="-147.0" stroke-width="1" stroke="black" />
	<line x1="73.08000000000001" y1="-147.0" x2="73.08000000000001" y2="-144.0" stroke-width="1" stroke="black" />
	<line x1="73.08000000000001" y1="-144.0" x2="75.69000000000001" y2="-142.5" stroke-width="1" stroke="black" />
	<line x1="75.69000000000001" y1="-142.5" x2="75.69000000000001" y2="-139.5" stroke-width="1" stroke="black" />
	<line x1="75.69000000000001" y1="-139.5" x2="73.08000000000001" y2="-138.0" stroke-width="1" stroke="black" />
	<line x1="73.08000000000001" y1="-138.0" x2="70.47000000000001" y2="-139.5" stroke-width="1" stroke="black" />
	<line x1="70.47000000000001" y1="-139.5" x2="67.86000000000001" y2="-138.0" stroke-width="1" stroke="black" />
	<line x1="67.86000000000001" y1="-138.0" x2="67.86000000000001" y2="-135.0" stroke-width="1" stroke="black" />
	<line x1="67.86000000000001" y1="-135.0" x2="65.25000000000001" y2="-133.5" stroke-width="1" stroke="black" />
	<line x1="65.25000000000001" y1="-133.5" x2="62.640000000000015" y2="-135.0" stroke-width="1" stroke="black" />
	<line x1="62.640000000000015" y1="-135.0" x2="62.640000000000015" y2="-138.0" stroke-width="1" stroke="black" />
	<line x1="62.640000000000015" y1="-138.0" x2="65.25000000000001" y2="-139.5" stroke-width="1" stroke="black" />
	<line x1="65.25000000000001" y1="-139.5" x2="65.25000000000001" y2="-142.5" stroke-width="1" stroke="black" />
	<line x1="65.25000000000001" y1="-142.5" x2="62.640000000000015" y2="-144.0" stroke-width="1" stroke="black" />
	<line x1="62.640000000000015" y1="-144.0" x2="62.640000000000015" y2="-147.0" stroke-width="1" stroke="black" />
	<line x1="62.640000000000015" y1="-147.0" x2="65.25000000000001" y2="-148.5" stroke-width="1" stroke="black" />
	<line x1="65.25000000000001" y1="-148.5" x2="67.86000000000001" y2="-147.0" stroke-width="1" stroke="black" />
	<line x1="67.86000000000001" y1="-147.0" x2="70.47000000000001" y2="-148.5" stroke-width="1" stroke="black" />
	<line x1="70.47000000000001" y1="-148.5" x2="70.47000000000001" y2="-151.5" stroke-width="1" stroke="black" />
	<line x1="70.47000000000001" y1="-151.5" x2="67.86000000000001" y2="-153.0" stroke-width="1" stroke="black" />
	<line x1="67.86000000000001" y1="-153.0" x2="65.25000000000001" y2="-151.5" stroke-width="1" stroke="black" />
	<line x1="65.25000000000001" y1="-151.5" x2="62.640000000000015" y2="-153.0" stroke-width="1" stroke="black" />
	<line x1="62.640000000000015" y1="-153.0" x2="62.640000000000015" y2="-156.0" stroke-width="1" stroke="black" />
	<line x1="62.640000000000015" y1="-156.0" x2="60.030000000000015" y2="-157.5" stroke-width="1" stroke="black" />
	<line x1="60.030000000000015" y1="-157.5" x2="57.420000000000016" y2="-156.0" stroke-width="1" stroke="black" />
	<line x1="57.420000000000016" y1="-156.0" x2="57.420000000000016" y2="-153.0" stroke-width="1" stroke="black" />
	<line x1="57.420000000000016" y1="-153.0" x2="54.81000000000002" y2="-151.5" stroke-width="1" stroke="black" />
	<line x1="54.81000000000002" y1="-151.5" x2="52.20000000000002" y2="-153.0" stroke-width="1" stroke="black" />
	<line x1="52.20000000000002" y1="-153.0" x2="52.20000000000002" y2="-156.0" stroke-width="1" stroke="black" />
	<line x1="52.20000000000002" y1="-156.0" x2="54.81000000000002" y2="-157.5" stroke-width="1" stroke="black" />
	<line x1="54.81000000000002" y1="-157.5" x2="54.81000000000002" y2="-160.5" stroke-width="1" stroke="black" />
	<line x1="54.81000000000002" y1="-160.5" x2="52.20000000000002" y2="-162.0" stroke-width="1" stroke="black" />
	<line x1="52.20000000000002" y1="-162.0" x2="49.59000000000002" y2="-160.5" stroke-width="1" stroke="black" />
	<line x1="49.59000000000002" y1="-160.5" x2="46.98000000000002" y2="-162.0" stroke-width="1" stroke="black" />
	<line x1="46.98000000000002" y1="-162.0" x2="46.98000000000002" y2="-165.0" stroke-width="1" stroke="black" />
	<line x1="46.98000000000002" y1="-165.0" x2="44.37000000000002" y2="-166.5" stroke-width="1" stroke="black" />
	<line x1="44.37000000000002" y1="-166.5" x2="41.76000000000002" y2="-165.0" stroke-width="1" stroke="black" />
	<line x1="41.76000000000002" y1="-165.0" x2="41.76000000000002" y2="-162.0" stroke-width="1" stroke="black" />
	<line x1="41.76000000000002" y1="-162.0" x2="44.37000000000002" y2="-160.5" stroke-width="1" stroke="black" />
	<line x1="44.37000000000002" y1="-160.5" x2="44.37000000000002" y2="-157.5" stroke-width="1" stroke="black" />
	<line x1="44.37000000000002" y1="-157.5" x2="41.76000000000002" y2="-156.0" stroke-width="1" stroke="black" />
	<line x1="41.76000000000002" y1="-156.0" x2="41.76000000000002" y2="-153.0" stroke-width="1" stroke="black" />
	<line x1="41.76000000000002" y1="-153.0" x2="44.37000000000002" y2="-151.5" stroke-width="1" stroke="black" />
	<line x1="44.37000000000002" y1="-151.5" x2="46.98000000000002" y2="-153.0" stroke-width="1" stroke="black" />
	<line x1="46.98000000000002" y1="-153.0" x2="49.59000000000002" y2="-151.5" stroke-width="1" stroke="black" />
	<line x1="49.59000000000002" y1="-151.5" x2="49.59000000000002" y2="-148.5" stroke-width="1" stroke="black" />
	<line x1="49.59000000000002" y1="-148.5" x2="46.98000000000002" y2="-147.0" stroke-width="1" stroke="black" />
	<line x1="46.98000000000002" y1="-147.0" x2="44.37000000000002" y2="-148.5" stroke-width="1" stroke="black" />
	<line x1="44.37000000000002" y1="-148.5" x2="41.76000000000002" y2="-147.0" stroke-width="1" stroke="black" />
	<line x1="41.76000000000002" y1="-147.0" x2="41.76000000000002" y2="-144.0" stroke-width="1" stroke="black" />
	<line x1="41.76000000000002" y1="-144.0" x2="44.37000000000002" y2="-142.5" stroke-width="1" stroke="black" />
	<line x1="44.37000000000002" y1="-142.5" x2="44.37000000000002" y2="-139.5" stroke-width="1" stroke="black" />
	<line x1="44.37000000000002" y1="-139.5" x2="41.76000000000002" y2="-138.0" stroke-width="1" stroke="black" />
	<line x1="41.76000000000002" y1="-138.0" x2="41.76000000000002" y2="-135.0" stroke-width="1" stroke="black" />
	<line x1="41.76000000000002" y1="-135.0" x2="44.37000000000002" y2="-133.5" stroke-width="1" stroke="black" />
	<line x1="44.37000000000002" y1="-133.5" x2="46.98000000000002" y2="-135.0" stroke-width="1" stroke="black" />
	<line x1="46.98000000000002" y1="-135.0" x2="46.98000000000002" y2="-138.0" stroke-width="1" stroke="black" />
	<line x1="46.98000000000002" y1="-138.0" x2="49.59000000000002" y2="-139.5" stroke-width="1" stroke="black" />
	<line x1="49.59000000000002" y1="-139.5" x2="52.20000000000002" y2="-138.0" stroke-width="1" stroke="black" />
	<line x1="52.20000000000002" y1="-138.0" x2="52.20000000000002" y2="-135.0" stroke-width="1" stroke="black" />
	<line x1="52.20000000000002" y1="-135.0" x2="54.81000000000002" y2="-133.5" stroke-width="1" stroke="black" />
	<line x1="54.81000000000002" y1="-133.5" x2="57.420000000000016" y2="-135.0" stroke-width="1" stroke="black" />
	<line x1="57.420000000000016" y1="-135.0" x2="60.030000000000015" y2="-133.5" stroke-width="1" stroke="black" />
	<line x1="60.030000000000015" y1="-133.5" x2="60.030000000000015" y2="-130.5" stroke-width="1" stroke="black" />
	<line x1="60.030000000000015" y1="-130.5" x2="57.420000000000016" y2="-129.0" stroke-width="1" stroke="black" />
	<line x1="57.420000000000016" y1="-129.0" x2="54.81000000000002" y2="-130.5" stroke-width="1" stroke="black" />
	<line x1="54.81000000000002" y1="-130.5" x2="52.20000000000002" y2="-129.0" stroke-width="1" stroke="black" />
	<line x1="52.20000000000002" y1="-129.0" x2="52.20000000000002" y2="-126.0" stroke-width="1" stroke="black" />
	<line x1="52.20000000000002" y1="-126.0" x2="49.59000000000002" y2="-124.5" stroke-width="1" stroke="black" />
	<line x1="49.59000000000002" y1="-124.5" x2="46.98000000000002" y2="-126.0" stroke-width="1" stroke="black" />
	<line x1="46.98000000000002" y1="-126.0" x2="46.98000000000002" y2="-129.0" stroke-width="1" stroke="black" />
	<line x1="46.98000000000002" y1="-129.0" x2="44.37000000000002" y2="-130.5" stroke-width="1" stroke="black" />
	<line x1="44.37000000000002" y1="-130.5" x2="41.76000000000002" y2="-129.0" stroke-width="1" stroke="black" />
	<line x1="41.76000000000002" y1="-129.0" x2="41.76000000000002" y2="-126.0" stroke-width="1" stroke="black" />
	<line x1="41.76000000000002" y1="-126.0" x2="44.37000000000002" y2="-124.5" stroke-width="1" stroke="black" />
	<line x1="44.37000000000002" y1="-124.5" x2="44.37000000000002" y2="-121.5" stroke-width="1" stroke="black" />
	<line x1="44.37000000000002" y1="-121.5" x2="41.76000000000002" y2="-120.0" stroke-width="1" stroke="black" />
	<line x1="41.76000000000002" y1="-120.0" x2="39.15000000000002" y2="-121.5" stroke-width="1" stroke="black" />
	<line x1="39.15000000000002" y1="-121.5" x2="36.54000000000002" y2="-120.0" stroke-width="1" stroke="black" />
	<line x1="36.54000000000002" y1="-120.0" x2="36.54000000000002" y2="-117.0" stroke-width="1" stroke="black" />
	<line x1="36.54000000000002" y1="-117.0" x2="33.93000000000002" y2="-115.5" stroke-width="1" stroke="black" />
	<line x1="33.93000000000002" y1="-115.5" x2="31.32000000000002" y2="-117.0" stroke-width="1" stroke="black" />
	<line x1="31.32000000000002" y1="-117.0" x2="31.32000000000002" y2="-120.0" stroke-width="1" stroke="black" />
	<line x1="31.32000000000002" y1="-120.0" x2="33.93000000000002" y2="-121.5" stroke-width="1" stroke="black" />
	<line x1="33.93000000000002" y1="-121.5" x2="33.93000000000002" y2="-124.5" stroke-width="1" stroke="black" />
	<line x1="33.93000000000002" y1="-124.5" x2="31.32000000000002" y2="-126.0" stroke-width="1" stroke="black" />
	<line x1="31.32000000000002" y1="-126.0" x2="28.710000000000022" y2="-124.5" stroke-width="1" stroke="black" />
	<line x1="28.710000000000022" y1="-124.5" x2="26.100000000000023" y2="-126.0" stroke-width="1" stroke="black" />
	<line x1="26.100000000000023" y1="-126.0" x2="26.100000000000023" y2="-129.0" stroke-width="1" stroke="black" />
	<line x1="26.100000000000023" y1="-129.0" x2="23.490000000000023" y2="-130.5" stroke-width="1" stroke="black" />
	<line x1="23.490000000000023" y1="-130.5" x2="20.880000000000024" y2="-129.0" stroke-width="1" stroke="black" />
	<line x1="20.880000000000024" y1="-129.0" x2="20.880000000000024" y2="-126.0" stroke-width="1" stroke="black" />
	<line x1="20.880000000000024" y1="-126.0" x2="23.490000000000023" y2="-124.5" stroke-width="1" stroke="black" />
	<line x1="23.490000000000023" y1="-124.5" x2="23.490000000000023" y2="-121.5" stroke-width="1" stroke="black" />
	<line x1="23.490000000000023" y1="-121.5" x2="20.880000000000024" y2="-120.0" stroke-width="1" stroke="black" />
	<line x1="20.880000000000024" y1="-120.0" x2="20.880000000000024" y2="-117.0" stroke-width="1" stroke="black" />
	<line x1="20.880000000000024" y1="-117.0" x2="23.490000000000023" y2="-115.5" stroke-width="1" stroke="black" />
	<line x1="23.490000000000023" y1="-115.5" x2="26.100000000000023" y2="-117.0" stroke-width="1" stroke="black" />
	<line x1="26.100000000000023" y1="-117.0" x2="28.710000000000022" y2="-115.5" stroke-width="1" stroke="black" />
	<line x1="28.710000000000022" y1="-115.5" x2="28.710000000000022" y2="-112.5" stroke-width="1" stroke="black" />
	<line x1="28.710000000000022" y1="-112.5" x2="26.100000000000023" y2="-111.0" stroke-width="1" stroke="black" />
	<line x1="26.100000000000023" y1="-111.0" x2="23.490000000000023" y2="-112.5" stroke-width="1" stroke="black" />
	<line x1="23.490000000000023" y1="-112.5" x2="20.880000000000024" y2="-111.0" stroke-width="1" stroke="black" />
	<line x1="20.880000000000024" y1="-111.0" x2="20.880000000000024" y2="-108.0" stroke-width="1" stroke="black" />
	<line x1="20.880000000000024" y1="-108.0" x2="18.270000000000024" y2="-106.5" stroke-width="1" stroke="black" />
	<line x1="18.270000000000024" y1="-106.5" x2="15.660000000000025" y2="-108.0" stroke-width="1" stroke="black" />
	<line x1="15.660000000000025" y1="-108.0" x2="15.660000000000025" y2="-111.0" stroke-width="1" stroke="black" />
	<line x1="15.660000000000025" y1="-111.0" x2="13.050000000000026" y2="-112.5" stroke-width="1" stroke="black" />
	<line x1="13.050000000000026" y1="-112.5" x2="10.440000000000026" y2="-111.0" stroke-width="1" stroke="black" />
	<line x1="10.440000000000026" y1="-111.0" x2="10.440000000000026" y2="-108.0" stroke-width="1" stroke="black" />
	<line x1="10.440000000000026" y1="-108.0" x2="13.050000000000026" y2="-106.5" stroke-width="1" stroke="black" />
	<line x1="13.050000000000026" y1="-106.5" x2="13.050000000000026" y2="-103.5" stroke-width="1" stroke="black" />
	<line x1="13.050000000000026" y1="-103.5" x2="10.440000000000026" y2="-102.0" stroke-width="1" stroke="black" />
	<line x1="10.440000000000026" y1="-102.0" x2="7.830000000000027" y2="-103.5" stroke-width="1" stroke="black" />
	<line x1="7.830000000000027" y1="-103.5" x2="5.220000000000027" y2="-102.0" stroke-width="1" stroke="black" />
	<line x1="5.220000000000027" y1="-102.0" x2="5.220000000000027" y2="-99.0" stroke-width="1" stroke="black" />
	<line x1="5.220000000000027" y1="-99.0" x2="2.6100000000000274" y2="-97.5" stroke-width="1" stroke="black" />
	<line x1="2.6100000000000274" y1="-97.5" x2="2.7533531010703882e-14" y2="-99.0" stroke-width="1" stroke="black" />
	<line x1="2.7533531010703882e-14" y1="-99.0" x2="2.7533531010703882e-14" y2="-102.0" stroke-width="1" stroke="black" />
	<line x1="2.7533531010703882e-14" y1="-102.0" x2="2.6100000000000274" y2="-103.5" stroke-width="1" stroke="black" />
	<line x1="2.6100000000000274" y1="-103.5" x2="2.6100000000000274" y2="-106.5" stroke-width="1" stroke="black" />
	<line x1="2.6100000000000274" y1="-106.5" x2="2.7533531010703882e-14" y2="-108.0" stroke-width="1" stroke="black" />
	<line x1="2.7533531010703882e-14" y1="-108.0" x2="2.7533531010703882e-14" y2="-111.0" stroke-width="1" stroke="black" />
	<line x1="2.7533531010703882e-14" y1="-111.0" x2="2.6100000000000274" y2="-112.5" stroke-width="1" stroke="black" />
	<line x1="2.6100000000000274" y1="-112.5" x2="5.220000000000027" y2="-111.0" stroke-width="1" stroke="black" />
	<line x1="5.220000000000027" y1="-111.0" x2="7.830000000000027" y2="-112.5" stroke-width="1" stroke="black" />
	<line x1="7.830000000000027" y1="-112.5" x2="7.830000000000027" y2="-115.5" stroke-width="1" stroke="black" />
	<line x1="7.830000000000027" y1="-115.5" x2="5.220000000000027" y2="-117.0" stroke-width="1" stroke="black" />
	<line x1="5.220000000000027" y1="-117.0" x2="2.6100000000000274" y2="-115.5" stroke-width="1" stroke="black" />
	<line x1="2.6100000000000274" y1="-115.5" x2="2.7533531010703882e-14" y2="-117.0" stroke-width="1" stroke="black" />
	<line x1="2.7533531010703882e-14" y1="-117.0" x2="2.7533531010703882e-14" y2="-120.0" stroke-width="1" stroke="black" />
	<line x1="2.7533531010703882e-14" y1="-120.0" x2="2.6100000000000274" y2="-121.5" stroke-width="1" stroke="black" />
	<line x1="2.6100000000000274" y1="-121.5" x2="2.6100000000000274" y2="-124.5" stroke-width="1" stroke="black" />
	<line x1="2.6100000000000274" y1="-124.5" x2="2.7533531010703882e-14" y2="-126.0" stroke-width="1" stroke="black" />
	<line x1="2.7533531010703882e-14" y1="-126.0" x2="2.7533531010703882e-14" y2="-129.0" stroke-width="1" stroke="black" />
	<line x1="2.7533531010703882e-14" y1="-129.0" x2="2.6100000000000274" y2="-130.5" stroke-width="1" stroke="black" />
	<line x1="2.6100000000000274" y1="-130.5" x2="5.220000000000027" y2="-129.0" stroke-width="1" stroke="black" />
	<line x1="5.220000000000027" y1="-129.0" x2="5.220000000000027" y2="-126.0" stroke-width="1" stroke="black" />
	<line x1="5.220000000000027" y1="-126.0" x2="7.830000000000027" y2="-124.5" stroke-width="1" stroke="black" />
	<line x1="7.830000000000027" y1="-124.5" x2="10.440000000000026" y2="-126.0" stroke-width="1" stroke="black" />
	<line x1="10.440000000000026" y1="-126.0" x2="10.440000000000026" y2="-129.0" stroke-width="1" stroke="black" />
	<line x1="10.440000000000026" y1="-129.0" x2="13.050000000000026" y2="-130.5" stroke-width="1" stroke="black" />
	<line x1="13.050000000000026" y1="-130.5" x2="15.660000000000025" y2="-129.0" stroke-width="1" stroke="black" />
	<line x1="15.660000000000025" y1="-129.0" x2="18.270000000000024" y2="-130.5" stroke-width="1" stroke="black" />
	<line x1="18.270000000000024" y1="-130.5" x2="18.270000000000024" y2="-133.5" stroke-width="1" stroke="black" />
	<line x1="18.270000000000024" y1="-133.5" x2="15.660000000000025" y2="-135.0" stroke-width="1" stroke="black" />
	<line x1="15.660000000000025" y1="-135.0" x2="13.050000000000026" y2="-133.5" stroke-width="1" stroke="black" />
	<line x1="13.050000000000026" y1="-133.5" x2="10.440000000000026" y2="-135.0" stroke-width="1" stroke="black" />
	<line x1="10.440000000000026" y1="-135.0" x2="10.440000000000026" y2="-138.0" stroke-width="1" stroke="black" />
	<line x1="10.440000000000026" y1="-138.0" x2="7.830000000000027" y2="-139.5" stroke-width="1" stroke="black" />
	<line x1="7.830000000000027" y1="-139.5" x2="5.220000000000027" y2="-138.0" stroke-width="1" stroke="black" />
	<line x1="5.220000000000027" y1="-138.0" x2="5.220000000000027" y2="-135.0" stroke-width="1" stroke="black" />
	<line x1="5.220000000000027" y1="-135.0" x2="2.6100000000000274" y2="-133.5" stroke-width="1" stroke="black" />
	<line x1="2.6100000000000274" y1="-133.5" x2="2.7533531010703882e-14" y2="-135.0" stroke-width="1" stroke="black" />
	<line x1="2.7533531010703882e-14" y1="-135.0" x2="2.7533531010703882e-14" y2="-138.0" stroke-width="1" stroke="black" />
	<line x1="2.7533531010703882e-14" y1="-138.0" x2="2.6100000000000274" y2="-139.5" stroke-width="1" stroke="black" />
	<line x1="2.6100000000000274" y1="-139.5" x2="2.6100000000000274" y2="-142.5" stroke-width="1" stroke="black" />
	<line x1="2.6100000000000274" y1="-142.5" x2="2.7533531010703882e-14" y2="-144.0" stroke-width="1" stroke="black" />
	<line x1="2.7533531010703882e-14" y1="-144.0" x2="2.7533531010703882e-14" y2="-147.0" stroke-width="1" stroke="black" />
	<line x1="2.7533531010703882e-14" y1="-147.0" x2="2.6100000000000274" y2="-148.5" stroke-width="1" stroke="black" />
	<line x1="2.6100000000000274" y1="-148.5" x2="5.220000000000027" y2="-147.0" stroke-width="1" stroke="black" />
	<line x1="5.220000000000027" y1="-147.0" x2="7.830000000000027" y2="-148.5" stroke-width="1" stroke="black" />
	<line x1="7.830000000000027" y1="-148.5" x2="7.830000000000027" y2="-151.5" stroke-width="1" stroke="black" />
	<line x1="7.830000000000027" y1="-151.5" x2="5.220000000000027" y2="-153.0" stroke-width="1" stroke="black" />
	<line x1="5.220000000000027" y1="-153.0" x2="2.6100000000000274" y2="-151.5" stroke-width="1" stroke="black" />
	<line x1="2.6100000000000274" y1="-151.5" x2="2.7533531010703882e-14" y2="-153.0" stroke-width="1" stroke="black" />
	<line x1="2.7533531010703882e-14" y1="-153.0" x2="2.7533531010703882e-14" y2="-156.0" stroke-width="1" stroke="black" />
	<line x1="2.7533531010703882e-14" y1="-156.0" x2="2.6100000000000274" y2="-157.5" stroke-width="1" stroke="black" />
	<line x1="2.6100000000000274" y1="-157.5" x2="2.6100000000000274" y2="-160.5" stroke-width="1" stroke="black" />
	<line x1="2.6100000000000274" y1="-160.5" x2="2.7533531010703882e-14" y2="-162.0" stroke-width="1" stroke="black" />
	<line x1="2.7533531010703882e-14" y1="-162.0" x2="2.7533531010703882e-14" y2="-165.0" stroke-width="1" stroke="black" />
	<line x1="2.7533531010703882e-14" y1="-165.0" x2="2.6100000000000274" y2="-166.5" stroke-width="1" stroke="black" />
	<line x1="2.6100000000000274" y1="-166.5" x2="5.220000000000027" y2="-165.0" stroke-width="1" stroke="black" />
	<line x1="5.220000000000027" y1="-165.0" x2="5.220000000000027" y2="-162.0" stroke-width="1" stroke="black" />
	<line x1="5.220000000000027" y1="-162.0" x2="7.830000000000027" y2="-160.5" stroke-width="1" stroke="black" />
	<line x1="7.830000000000027" y1="-160.5" x2="10.440000000000026" y2="-162.0" stroke-width="1" stroke="black" />
	<line x1="10.440000000000026" y1="-162.0" x2="13.050000000000026" y2="-160.5" stroke-width="1" stroke="black" />
	<line x1="13.050000000000026" y1="-160.5" x2="13.050000000000026" y2="-157.5" stroke-width="1" stroke="black" />
	<line x1="13.050000000000026" y1="-157.5" x2="10.440000000000026" y2="-156.0" stroke-width="1" stroke="black" />
	<line x1="10.440000000000026" y1="-156.0" x2="10.440000000000026" y2="-153.0" stroke-width="1" stroke="black" />
	<line x1="10.440000000000026" y1="-153.0" x2="13.050000000000026" y2="-151.5" stroke-width="1" stroke="black" />
	<line x1="13.050000000000026" y1="-151.5" x2="15.660000000000025" y2="-153.0" stroke-width="1" stroke="black" />
	<line x1="15.660000000000025" y1="-153.0" x2="15.660000000000025" y2="-156.0" stroke-width="1" stroke="black" />
	<line x1="15.660000000000025" y1="-156.0" x2="18.270000000000024" y2="-157.5" stroke-width="1" stroke="black" />
	<line x1="18.270000000000024" y1="-157.5" x2="20.880000000000024" y2="-156.0" stroke-width="1" stroke="black" />
	<line x1="20.880000000000024" y1="-156.0" x2="23.490000000000023" y2="-157.5" stroke-width="1" stroke="black" />
	<line x1="23.490000000000023" y1="-157.5" x2="23.490000000000023" y2="-160.5" stroke-width="1" stroke="black" />
	<line x1="23.490000000000023" y1="-160.5" x2="20.880000000000024" y2="-162.0" stroke-width="1" stroke="black" />
	<line x1="20.880000000000024" y1="-162.0" x2="20.880000000000024" y2="-165.0" stroke-width="1" stroke="black" />
	<line x1="20.880000000000024" y1="-165.0" x2="23.490000000000023" y2="-166.5" stroke-width="1" stroke="black" />
	<line x1="23.490000000000023" y1="-166.5" x2="26.100000000000023" y2="-165.0" stroke-width="1" stroke="black" />
	<line x1="26.100000000000023" y1="-165.0" x2="26.100000000000023" y2="-162.0" stroke-width="1" stroke="black" />
	<line x1="26.100000000000023" y1="-162.0" x2="28.710000000000022" y2="-160.5" stroke-width="1" stroke="black" />
	<line x1="28.710000000000022" y1="-160.5" x2="31.32000000000002" y2="-162.0" stroke-width="1" stroke="black" />
	<line x1="31.32000000000002" y1="-162.0" x2="31.32000000000002" y2="-165.0" stroke-width="1" stroke="black" />
	<line x1="31.32000000000002" y1="-165.0" x2="33.93000000000002" y2="-166.5" stroke-width="1" stroke="black" />
	<line x1="33.93000000000002" y1="-166.5" x2="36.54000000000002" y2="-165.0" stroke-width="1" stroke="black" />
	<line x1="36.54000000000002" y1="-165.0" x2="39.15000000000002" y2="-166.5" stroke-width="1" stroke="black" />
	<line x1="39.15000000000002" y1="-166.5" x2="39.15000000000002" y2="-169.5" stroke-width="1" stroke="black" />
	<line x1="39.15000000000002" y1="-169.5" x2="36.54000000000002" y2="-171.0" stroke-width="1" stroke="black" />
	<line x1="36.54000000000002" y1="-171.0" x2="33.93000000000002" y2="-169.5" stroke-width="1" stroke="black" />
	<line x1="33.93000000000002" y1="-169.5" x2="31.32000000000002" y2="-171.0" stroke-width="1" stroke="black" />
	<line x1="31.32000000000002" y1="-171.0" x2="31.32000000000002" y2="-174.0" stroke-width="1" stroke="black" />
	<line x1="31.32000000000002" y1="-174.0" x2="28.710000000000022" y2="-175.5" stroke-width="1" stroke="black" />
	<line x1="28.710000000000022" y1="-175.5" x2="26.100000000000023" y2="-174.0" stroke-width="1" stroke="black" />
	<line x1="26.100000000000023" y1="-174.0" x2="26.100000000000023" y2="-171.0" stroke-width="1" stroke="black" />
	<line x1="26.100000000000023" y1="-171.0" x2="23.490000000000023" y2="-169.5" stroke-width="1" stroke="black" />
	<line x1="23.490000000000023" y1="-169.5" x2="20.880000000000024" y2="-171.0" stroke-width="1" stroke="black" />
	<line x1="20.880000000000024" y1="-171.0" x2="20.880000000000024" y2="-174.0" stroke-width="1" stroke="black" />
	<line x1="20.880000000000024" y1="-174.0" x2="23.490000000000023" y2="-175.5" stroke-width="1" stroke="black" />
	<line x1="23.490000000000023" y1="-175.5" x2="23.490000000000023" y2="-178.5" stroke-width="1" stroke="black" />
	<line x1="23.490000000000023" y1="-178.5" x2="20.880000000000024" y2="-180.0" stroke-width="1" stroke="black" />
	<line x1="20.880000000000024" y1="-180.0" x2="18.270000000000024" y2="-178.5" stroke-width="1" stroke="black" />
	<line x1="18.270000000000024" y1="-178.5" x2="15.660000000000025" y2="-180.0" stroke-width="1" stroke="black" />
	<line x1="15.660000000000025" y1="-180.0" x2="15.660000000000025" y2="-183.0" stroke-width="1" stroke="black" />
	<line x1="15.660000000000025" y1="-183.0" x2="13.050000000000026" y2="-184.5" stroke-width="1" stroke="black" />
	<line x1="13.050000000000026" y1="-184.5" x2="10.440000000000026" y2="-183.0" stroke-width="1" stroke="black" />
	<line x1="10.440000000000026" y1="-183.0" x2="10.440000000000026" y2="-180.0" stroke-width="1" stroke="black" />
	<line x1="10.440000000000026" y1="-180.0" x2="13.050000000000026" y2="-178.5" stroke-width="1" stroke="black" />
	<line x1="13.050000000000026" y1="-178.5" x2="13.050000000000026" y2="-175.5" stroke-width="1" stroke="black" />
	<line x1="13.050000000000026" y1="-175.5" x2="10.440000000000026" y2="-174.0" stroke-width="1" stroke="black" />
	<line x1="10.440000000000026" y1="-174.0" x2="7.830000000000027" y2="-175.5" stroke-width="1" stroke="black" />
	<line x1="7.830000000000027" y1="-175.5" x2="5.220000000000027" y2="-174.0" stroke-width="1" stroke="black" />
	<line x1="5.220000000000027" y1="-174.0" x2="5.220000000000027" y2="-171.0" stroke-width="1" stroke="black" />
	<line x1="5.220000000000027" y1="-171.0" x2="2.6100000000000274" y2="-169.5" stroke-width="1" stroke="black" />
	<line x1="2.6100000000000274" y1="-169.5" x2="2.7533531010703882e-14" y2="-171.0" stroke-width="1" stroke="black" />
	<line x1="2.7533531010703882e-14" y1="-171.0" x2="2.7533531010703882e-14" y2="-174.0" stroke-width="1" stroke="black" />
	<line x1="2.7533531010703882e-14" y1="-174.0" x2="2.6100000000000274" y2="-175.5" stroke-width="1" stroke="black" />
	<line x1="2.6100000000000274" y1="-175.5" x2="2.6100000000000274" y2="-178.5" stroke-width="1" stroke="black" />
	<line x1="2.6100000000000274" y1="-178.5" x2="2.7533531010703882e-14" y2="-180.0" stroke-width="1" stroke="black" />
	<line x1="2.7533531010703882e-14" y1="-180.0" x2="2.7533531010703882e-14" y2="-183.0" stroke-width="1" stroke="black" />
	<line x1="2.7533531010703882e-14" y1="-183.0" x2="2.6100000000000274" y2="-184.5" stroke-width="1" stroke="black" />
	<line x1="2.6100000000000274" y1="-184.5" x2="5.220000000000027" y2="-183.0" stroke-width="1" stroke="black" />
	<line x1="5.220000000000027" y1="-183.0" x2="7.830000000000027" y2="-184.5" stroke-width="1" stroke="black" />
	<line x1="7.830000000000027" y1="-184.5" x2="7.830000000000027" y2="-187.5" stroke-width="1" stroke="black" />
	<line x1="7.830000000000027" y1="-187.5" x2="5.220000000000027" y2="-189.0" stroke-width="1" stroke="black" />
	<line x1="5.220000000000027" y1="-189.0" x2="2.6100000000000274" y2="-187.5" stroke-width="1" stroke="black" />
	<line x1="2.6100000000000274" y1="-187.5" x2="2.7533531010703882e-14" y2="-189.0" stroke-width="1" stroke="black" />
	<line x1="2.7533531010703882e-14" y1="-189.0" x2="2.7533531010703882e-14" y2="-192.0" stroke-width="1" stroke="black" />
</svg>
