<svg viewBox="-400 -500 800 600" xmlns="http://www.w3.org/2000/svg">
	<line x1="0" y1="0" x2="0.0" y2="-3.0" stroke-width="1" stroke="black" />
	<line x1="0.0" y1="-3.0" x2="0.0" y2="-6.0" stroke-width="1" stroke="black" />
	<line x1="0.0" y1="-6.0" x2="0.0" y2="-9.0" stroke-width="1" stroke="black" />
	<line x1="0.0" y1="-9.0" x2="0.0" y2="-12.0" stroke-width="1" stroke="black" />
	<line x1="0.0" y1="-12.0" x2="0.0" y2="-15.0" stroke-width="1" stroke="black" />
	<line x1="0.0" y1="-15.0" x2="0.0" y2="-18.0" stroke-width="1" stroke="black" />
	<line x1="0.0" y1="-18.0" x2="0.0" y2="-21.0" stroke-width="1" stroke="black" />
	<line x1="0.0" y1="-21.0" x2="0.0" y2="-24.0" stroke-width="1" stroke="black" />
	<line x1="0.0" y1="-24.0" x2="1.1400000000000001" y2="-26.76" stroke-width="1" stroke="black" />
	<line x1="1.1400000000000001" y1="-26.76" x2="2.2800000000000002" y2="-29.520000000000003" stroke-width="1" stroke="black" />
	<line x1="2.2800000000000002" y1="-29.520000000000003" x2="3.4200000000000004" y2="-32.28" stroke-width="1" stroke="black" />
	<line x1="3.4200000000000004" y1="-32.28" x2="4.5600000000000005" y2="-35.04" stroke-width="1" stroke="black" />
	<line x1="4.5600000000000005" y1="-35.04" x2="6.69" y2="-37.17" stroke-width="1" stroke="black" />
	<line x1="6.69" y1="-37.17" x2="8.82" y2="-39.300000000000004" stroke-width="1" stroke="black" />
	<line x1="8.82" y1="-39.300000000000004" x2="11.58" y2="-40.440000000000005" stroke-width="1" stroke="black" />
	<line x1="11.58" y1="-40.440000000000005" x2="14.58" y2="-40.440000000000005" stroke-width="1" stroke="black" />
	<line x1="11.58" y1="-40.440000000000005" x2="14.34" y2="-41.580000000000005" stroke-width="1" stroke="black" />
	<line x1="11.58" y1="-40.440000000000005" x2="14.34" y2="-41.580000000000005" stroke-width="1" stroke="black" />
	<line x1="14.34" y1="-41.580000000000005" x2="16.47" y2="-43.71000000000001" stroke-width="1" stroke="black" />
	<line x1="16.47" y1="-43.71000000000001" x2="18.599999999999998" y2="-45.84000000000001" stroke-width="1" stroke="black" />
	<line x1="14.34" y1="-41.580000000000005" x2="17.34" y2="-41.580000000000005" stroke-width="1" stroke="black" />
	<line x1="8.82" y1="-39.300000000000004" x2="10.95" y2="-41.43000000000001" stroke-width="1" stroke="black" />
	<line x1="10.95" y1="-41.43000000000001" x2="13.709999999999999" y2="-42.57000000000001" stroke-width="1" stroke="black" />
	<line x1="10.95" y1="-41.43000000000001" x2="13.079999999999998" y2="-43.56000000000001" stroke-width="1" stroke="black" />
	<line x1="10.95" y1="-41.43000000000001" x2="13.079999999999998" y2="-43.56000000000001" stroke-width="1" stroke="black" />
	<line x1="13.079999999999998" y1="-43.56000000000001" x2="14.219999999999999" y2="-46.32000000000001" stroke-width="1" stroke="black" />
	<line x1="14.219999999999999" y1="-46.32000000000001" x2="15.36" y2="-49.080000000000005" stroke-width="1" stroke="black" />
	<line x1="13.079999999999998" y1="-43.56000000000001" x2="15.839999999999998" y2="-44.70000000000001" stroke-width="1" stroke="black" />
	<line x1="8.82" y1="-39.300000000000004" x2="10.95" y2="-41.43000000000001" stroke-width="1" stroke="black" />
	<line x1="10.95" y1="-41.43000000000001" x2="13.079999999999998" y2="-43.56000000000001" stroke-width="1" stroke="black" />
	<line x1="13.079999999999998" y1="-43.56000000000001" x2="14.219999999999999" y2="-46.32000000000001" stroke-width="1" stroke="black" />
	<line x1="14.219999999999999" y1="-46.32000000000001" x2="15.36" y2="-49.080000000000005" stroke-width="1" stroke="black" />
	<line x1="15.36" y1="-49.080000000000005" x2="16.5" y2="-51.84" stroke-width="1" stroke="black" />
	<line x1="16.5" y1="-51.84" x2="18.63" y2="-53.970000000000006" stroke-width="1" stroke="black" />
	<line x1="16.5" y1="-51.84" x2="17.64" y2="-54.6" stroke-width="1" stroke="black" />
	<line x1="16.5" y1="-51.84" x2="17.64" y2="-54.6" stroke-width="1" stroke="black" />
	<line x1="17.64" y1="-54.6" x2="17.64" y2="-57.6" stroke-width="1" stroke="black" />
	<line x1="17.64" y1="-57.6" x2="17.64" y2="-60.6" stroke-width="1" stroke="black" />
	<line x1="17.64" y1="-54.6" x2="19.77" y2="-56.730000000000004" stroke-width="1" stroke="black" />
	<line x1="13.079999999999998" y1="-43.56000000000001" x2="15.839999999999998" y2="-44.70000000000001" stroke-width="1" stroke="black" />
	<line x1="15.839999999999998" y1="-44.70000000000001" x2="18.839999999999996" y2="-44.70000000000001" stroke-width="1" stroke="black" />
	<line x1="15.839999999999998" y1="-44.70000000000001" x2="18.599999999999998" y2="-45.84000000000001" stroke-width="1" stroke="black" />
	<line x1="15.839999999999998" y1="-44.70000000000001" x2="18.599999999999998" y2="-45.84000000000001" stroke-width="1" stroke="black" />
	<line x1="18.599999999999998" y1="-45.84000000000001" x2="20.729999999999997" y2="-47.97000000000001" stroke-width="1" stroke="black" />
	<line x1="20.729999999999997" y1="-47.97000000000001" x2="22.859999999999996" y2="-50.100000000000016" stroke-width="1" stroke="black" />
	<line x1="18.599999999999998" y1="-45.84000000000001" x2="21.599999999999998" y2="-45.84000000000001" stroke-width="1" stroke="black" />
	<line x1="4.5600000000000005" y1="-35.04" x2="5.700000000000001" y2="-37.8" stroke-width="1" stroke="black" />
	<line x1="5.700000000000001" y1="-37.8" x2="6.840000000000002" y2="-40.559999999999995" stroke-width="1" stroke="black" />
	<line x1="6.840000000000002" y1="-40.559999999999995" x2="8.970000000000002" y2="-42.69" stroke-width="1" stroke="black" />
	<line x1="8.970000000000002" y1="-42.69" x2="11.730000000000002" y2="-43.83" stroke-width="1" stroke="black" />
	<line x1="8.970000000000002" y1="-42.69" x2="11.100000000000001" y2="-44.82" stroke-width="1" stroke="black" />
	<line x1="8.970000000000002" y1="-42.69" x2="11.100000000000001" y2="-44.82" stroke-width="1" stroke="black" />
	<line x1="11.100000000000001" y1="-44.82" x2="12.240000000000002" y2="-47.58" stroke-width="1" stroke="black" />
	<line x1="12.240000000000002" y1="-47.58" x2="13.380000000000003" y2="-50.339999999999996" stroke-width="1" stroke="black" />
	<line x1="11.100000000000001" y1="-44.82" x2="13.860000000000001" y2="-45.96" stroke-width="1" stroke="black" />
	<line x1="6.840000000000002" y1="-40.559999999999995" x2="7.980000000000002" y2="-43.31999999999999" stroke-width="1" stroke="black" />
	<line x1="7.980000000000002" y1="-43.31999999999999" x2="10.110000000000003" y2="-45.449999999999996" stroke-width="1" stroke="black" />
	<line x1="7.980000000000002" y1="-43.31999999999999" x2="9.120000000000003" y2="-46.07999999999999" stroke-width="1" stroke="black" />
	<line x1="7.980000000000002" y1="-43.31999999999999" x2="9.120000000000003" y2="-46.07999999999999" stroke-width="1" stroke="black" />
	<line x1="9.120000000000003" y1="-46.07999999999999" x2="9.120000000000003" y2="-49.07999999999999" stroke-width="1" stroke="black" />
	<line x1="9.120000000000003" y1="-49.07999999999999" x2="9.120000000000003" y2="-52.07999999999999" stroke-width="1" stroke="black" />
	<line x1="9.120000000000003" y1="-46.07999999999999" x2="11.250000000000004" y2="-48.209999999999994" stroke-width="1" stroke="black" />
	<line x1="6.840000000000002" y1="-40.559999999999995" x2="7.980000000000002" y2="-43.31999999999999" stroke-width="1" stroke="black" />
	<line x1="7.980000000000002" y1="-43.31999999999999" x2="9.120000000000003" y2="-46.07999999999999" stroke-width="1" stroke="black" />
	<line x1="9.120000000000003" y1="-46.07999999999999" x2="9.120000000000003" y2="-49.07999999999999" stroke-width="1" stroke="black" />
	<line x1="9.120000000000003" y1="-49.07999999999999" x2="9.120000000000003" y2="-52.07999999999999" stroke-width="1" stroke="black" />
	<line x1="9.120000000000003" y1="-52.07999999999999" x2="9.120000000000003" y2="-55.07999999999999" stroke-width="1" stroke="black" />
	<line x1="9.120000000000003" y1="-55.07999999999999" x2="10.260000000000003" y2="-57.83999999999999" stroke-width="1" stroke="black" />
	<line x1="9.120000000000003" y1="-55.07999999999999" x2="9.120000000000003" y2="-58.07999999999999" stroke-width="1" stroke="black" />
	<line x1="9.120000000000003" y1="-55.07999999999999" x2="9.120000000000003" y2="-58.07999999999999" stroke-width="1" stroke="black" />
	<line x1="9.120000000000003" y1="-58.07999999999999" x2="7.980000000000002" y2="-60.83999999999999" stroke-width="1" stroke="black" />
	<line x1="7.980000000000002" y1="-60.83999999999999" x2="6.840000000000002" y2="-63.59999999999999" stroke-width="1" stroke="black" />
	<line x1="9.120000000000003" y1="-58.07999999999999" x2="10.260000000000003" y2="-60.83999999999999" stroke-width="1" stroke="black" />
	<line x1="9.120000000000003" y1="-46.07999999999999" x2="11.250000000000004" y2="-48.209999999999994" stroke-width="1" stroke="black" />
	<line x1="11.250000000000004" y1="-48.209999999999994" x2="14.010000000000003" y2="-49.349999999999994" stroke-width="1" stroke="black" />
	<line x1="11.250000000000004" y1="-48.209999999999994" x2="13.380000000000003" y2="-50.339999999999996" stroke-width="1" stroke="black" />
	<line x1="11.250000000000004" y1="-48.209999999999994" x2="13.380000000000003" y2="-50.339999999999996" stroke-width="1" stroke="black" />
	<line x1="13.380000000000003" y1="-50.339999999999996" x2="14.520000000000003" y2="-53.099999999999994" stroke-width="1" stroke="black" />
	<line x1="14.520000000000003" y1="-53.099999999999994" x2="15.660000000000004" y2="-55.85999999999999" stroke-width="1" stroke="black" />
	<line x1="13.380000000000003" y1="-50.339999999999996" x2="16.140000000000004" y2="-51.48" stroke-width="1" stroke="black" />
	<line x1="4.5600000000000005" y1="-35.04" x2="5.700000000000001" y2="-37.8" stroke-width="1" stroke="black" />
	<line x1="5.700000000000001" y1="-37.8" x2="6.840000000000002" y2="-40.559999999999995" stroke-width="1" stroke="black" />
	<line x1="6.840000000000002" y1="-40.559999999999995" x2="7.980000000000002" y2="-43.31999999999999" stroke-width="1" stroke="black" />
	<line x1="7.980000000000002" y1="-43.31999999999999" x2="9.120000000000003" y2="-46.07999999999999" stroke-width="1" stroke="black" />
	<line x1="9.120000000000003" y1="-46.07999999999999" x2="9.120000000000003" y2="-49.07999999999999" stroke-width="1" stroke="black" />
	<line x1="9.120000000000003" y1="-49.07999999999999" x2="9.120000000000003" y2="-52.07999999999999" stroke-width="1" stroke="black" />
	<line x1="9.120000000000003" y1="-52.07999999999999" x2="9.120000000000003" y2="-55.07999999999999" stroke-width="1" stroke="black" />
	<line x1="9.120000000000003" y1="-55.07999999999999" x2="9.120000000000003" y2="-58.07999999999999" stroke-width="1" stroke="black" />
	<line x1="9.120000000000003" y1="-58.07999999999999" x2="9.120000000000003" y2="-61.07999999999999" stroke-width="1" stroke="black" />
	<line x1="9.120000000000003" y1="-61.07999999999999" x2="9.120000000000003" y2="-64.07999999999998" stroke-width="1" stroke="black" />
	<line x1="9.120000000000003" y1="-64.07999999999998" x2="10.260000000000003" y2="-66.83999999999999" stroke-width="1" stroke="black" />
	<line x1="10.260000000000003" y1="-66.83999999999999" x2="12.390000000000004" y2="-68.96999999999998" stroke-width="1" stroke="black" />
	<line x1="10.260000000000003" y1="-66.83999999999999" x2="11.400000000000004" y2="-69.6" stroke-width="1" stroke="black" />
	<line x1="10.260000000000003" y1="-66.83999999999999" x2="11.400000000000004" y2="-69.6" stroke-width="1" stroke="black" />
	<line x1="11.400000000000004" y1="-69.6" x2="11.400000000000004" y2="-72.6" stroke-width="1" stroke="black" />
	<line x1="11.400000000000004" y1="-72.6" x2="11.400000000000004" y2="-75.6" stroke-width="1" stroke="black" />
	<line x1="11.400000000000004" y1="-69.6" x2="13.530000000000005" y2="-71.72999999999999" stroke-width="1" stroke="black" />
	<line x1="9.120000000000003" y1="-64.07999999999998" x2="9.120000000000003" y2="-67.07999999999998" stroke-width="1" stroke="black" />
	<line x1="9.120000000000003" y1="-67.07999999999998" x2="10.260000000000003" y2="-69.83999999999999" stroke-width="1" stroke="black" />
	<line x1="9.120000000000003" y1="-67.07999999999998" x2="9.120000000000003" y2="-70.07999999999998" stroke-width="1" stroke="black" />
	<line x1="9.120000000000003" y1="-67.07999999999998" x2="9.120000000000003" y2="-70.07999999999998" stroke-width="1" stroke="black" />
	<line x1="9.120000000000003" y1="-70.07999999999998" x2="7.980000000000002" y2="-72.83999999999999" stroke-width="1" stroke="black" />
	<line x1="7.980000000000002" y1="-72.83999999999999" x2="6.840000000000002" y2="-75.6" stroke-width="1" stroke="black" />
	<line x1="9.120000000000003" y1="-70.07999999999998" x2="10.260000000000003" y2="-72.83999999999999" stroke-width="1" stroke="black" />
	<line x1="9.120000000000003" y1="-64.07999999999998" x2="9.120000000000003" y2="-67.07999999999998" stroke-width="1" stroke="black" />
	<line x1="9.120000000000003" y1="-67.07999999999998" x2="9.120000000000003" y2="-70.07999999999998" stroke-width="1" stroke="black" />
	<line x1="9.120000000000003" y1="-70.07999999999998" x2="7.980000000000002" y2="-72.83999999999999" stroke-width="1" stroke="black" />
	<line x1="7.980000000000002" y1="-72.83999999999999" x2="6.840000000000002" y2="-75.6" stroke-width="1" stroke="black" />
	<line x1="6.840000000000002" y1="-75.6" x2="5.700000000000001" y2="-78.36" stroke-width="1" stroke="black" />
	<line x1="5.700000000000001" y1="-78.36" x2="5.700000000000001" y2="-81.36" stroke-width="1" stroke="black" />
	<line x1="5.700000000000001" y1="-78.36" x2="4.5600000000000005" y2="-81.12" stroke-width="1" stroke="black" />
	<line x1="5.700000000000001" y1="-78.36" x2="4.5600000000000005" y2="-81.12" stroke-width="1" stroke="black" />
	<line x1="4.5600000000000005" y1="-81.12" x2="2.4300000000000006" y2="-83.25" stroke-width="1" stroke="black" />
	<line x1="2.4300000000000006" y1="-83.25" x2="0.3000000000000007" y2="-85.38" stroke-width="1" stroke="black" />
	<line x1="4.5600000000000005" y1="-81.12" x2="4.5600000000000005" y2="-84.12" stroke-width="1" stroke="black" />
	<line x1="9.120000000000003" y1="-70.07999999999998" x2="10.260000000000003" y2="-72.83999999999999" stroke-width="1" stroke="black" />
	<line x1="10.260000000000003" y1="-72.83999999999999" x2="12.390000000000004" y2="-74.96999999999998" stroke-width="1" stroke="black" />
	<line x1="10.260000000000003" y1="-72.83999999999999" x2="11.400000000000004" y2="-75.6" stroke-width="1" stroke="black" />
	<line x1="10.260000000000003" y1="-72.83999999999999" x2="11.400000000000004" y2="-75.6" stroke-width="1" stroke="black" />
	<line x1="11.400000000000004" y1="-75.6" x2="11.400000000000004" y2="-78.6" stroke-width="1" stroke="black" />
	<line x1="11.400000000000004" y1="-78.6" x2="11.400000000000004" y2="-81.6" stroke-width="1" stroke="black" />
	<line x1="11.400000000000004" y1="-75.6" x2="13.530000000000005" y2="-77.72999999999999" stroke-width="1" stroke="black" />
	<line x1="9.120000000000003" y1="-46.07999999999999" x2="11.250000000000004" y2="-48.209999999999994" stroke-width="1" stroke="black" />
	<line x1="11.250000000000004" y1="-48.209999999999994" x2="13.380000000000003" y2="-50.339999999999996" stroke-width="1" stroke="black" />
	<line x1="13.380000000000003" y1="-50.339999999999996" x2="16.140000000000004" y2="-51.48" stroke-width="1" stroke="black" />
	<line x1="16.140000000000004" y1="-51.48" x2="19.140000000000004" y2="-51.48" stroke-width="1" stroke="black" />
	<line x1="16.140000000000004" y1="-51.48" x2="18.900000000000006" y2="-52.62" stroke-width="1" stroke="black" />
	<line x1="16.140000000000004" y1="-51.48" x2="18.900000000000006" y2="-52.62" stroke-width="1" stroke="black" />
	<line x1="18.900000000000006" y1="-52.62" x2="21.030000000000005" y2="-54.75" stroke-width="1" stroke="black" />
	<line x1="21.030000000000005" y1="-54.75" x2="23.160000000000004" y2="-56.88" stroke-width="1" stroke="black" />
	<line x1="18.900000000000006" y1="-52.62" x2="21.900000000000006" y2="-52.62" stroke-width="1" stroke="black" />
	<line x1="13.380000000000003" y1="-50.339999999999996" x2="15.510000000000002" y2="-52.47" stroke-width="1" stroke="black" />
	<line x1="15.510000000000002" y1="-52.47" x2="18.270000000000003" y2="-53.61" stroke-width="1" stroke="black" />
	<line x1="15.510000000000002" y1="-52.47" x2="17.64" y2="-54.6" stroke-width="1" stroke="black" />
	<line x1="15.510000000000002" y1="-52.47" x2="17.64" y2="-54.6" stroke-width="1" stroke="black" />
	<line x1="17.64" y1="-54.6" x2="18.78" y2="-57.36" stroke-width="1" stroke="black" />
	<line x1="18.78" y1="-57.36" x2="19.92" y2="-60.12" stroke-width="1" stroke="black" />
	<line x1="17.64" y1="-54.6" x2="20.400000000000002" y2="-55.74" stroke-width="1" stroke="black" />
	<line x1="13.380000000000003" y1="-50.339999999999996" x2="15.510000000000002" y2="-52.47" stroke-width="1" stroke="black" />
	<line x1="15.510000000000002" y1="-52.47" x2="17.64" y2="-54.6" stroke-width="1" stroke="black" />
	<line x1="17.64" y1="-54.6" x2="18.78" y2="-57.36" stroke-width="1" stroke="black" />
	<line x1="18.78" y1="-57.36" x2="19.92" y2="-60.12" stroke-width="1" stroke="black" />
	<line x1="19.92" y1="-60.12" x2="21.060000000000002" y2="-62.879999999999995" stroke-width="1" stroke="black" />
	<line x1="21.060000000000002" y1="-62.879999999999995" x2="23.19" y2="-65.00999999999999" stroke-width="1" stroke="black" />
	<line x1="21.060000000000002" y1="-62.879999999999995" x2="22.200000000000003" y2="-65.64" stroke-width="1" stroke="black" />
	<line x1="21.060000000000002" y1="-62.879999999999995" x2="22.200000000000003" y2="-65.64" stroke-width="1" stroke="black" />
	<line x1="22.200000000000003" y1="-65.64" x2="22.200000000000003" y2="-68.64" stroke-width="1" stroke="black" />
	<line x1="22.200000000000003" y1="-68.64" x2="22.200000000000003" y2="-71.64" stroke-width="1" stroke="black" />
	<line x1="22.200000000000003" y1="-65.64" x2="24.330000000000002" y2="-67.77" stroke-width="1" stroke="black" />
	<line x1="17.64" y1="-54.6" x2="20.400000000000002" y2="-55.74" stroke-width="1" stroke="black" />
	<line x1="20.400000000000002" y1="-55.74" x2="23.400000000000002" y2="-55.74" stroke-width="1" stroke="black" />
	<line x1="20.400000000000002" y1="-55.74" x2="23.160000000000004" y2="-56.88" stroke-width="1" stroke="black" />
	<line x1="20.400000000000002" y1="-55.74" x2="23.160000000000004" y2="-56.88" stroke-width="1" stroke="black" />
	<line x1="23.160000000000004" y1="-56.88" x2="25.290000000000003" y2="-59.010000000000005" stroke-width="1" stroke="black" />
	<line x1="25.290000000000003" y1="-59.010000000000005" x2="27.42" y2="-61.14000000000001" stroke-width="1" stroke="black" />
	<line x1="23.160000000000004" y1="-56.88" x2="26.160000000000004" y2="-56.88" stroke-width="1" stroke="black" />
	<line x1="0.0" y1="-24.0" x2="0.0" y2="-27.0" stroke-width="1" stroke="black" />
	<line x1="0.0" y1="-27.0" x2="0.0" y2="-30.0" stroke-width="1" stroke="black" />
	<line x1="0.0" y1="-30.0" x2="0.0" y2="-33.0" stroke-width="1" stroke="black" />
	<line x1="0.0" y1="-33.0" x2="0.0" y2="-36.0" stroke-width="1" stroke="black" />
	<line x1="0.0" y1="-36.0" x2="1.1400000000000001" y2="-38.76" stroke-width="1" stroke="black" />
	<line x1="1.1400000000000001" y1="-38.76" x2="2.2800000000000002" y2="-41.519999999999996" stroke-width="1" stroke="black" />
	<line x1="2.2800000000000002" y1="-41.519999999999996" x2="4.41" y2="-43.65" stroke-width="1" stroke="black" />
	<line x1="4.41" y1="-43.65" x2="7.17" y2="-44.79" stroke-width="1" stroke="black" />
	<line x1="4.41" y1="-43.65" x2="6.54" y2="-45.78" stroke-width="1" stroke="black" />
	<line x1="4.41" y1="-43.65" x2="6.54" y2="-45.78" stroke-width="1" stroke="black" />
	<line x1="6.54" y1="-45.78" x2="7.68" y2="-48.54" stroke-width="1" stroke="black" />
	<line x1="7.68" y1="-48.54" x2="8.82" y2="-51.3" stroke-width="1" stroke="black" />
	<line x1="6.54" y1="-45.78" x2="9.3" y2="-46.92" stroke-width="1" stroke="black" />
	<line x1="2.2800000000000002" y1="-41.519999999999996" x2="3.4200000000000004" y2="-44.279999999999994" stroke-width="1" stroke="black" />
	<line x1="3.4200000000000004" y1="-44.279999999999994" x2="5.550000000000001" y2="-46.41" stroke-width="1" stroke="black" />
	<line x1="3.4200000000000004" y1="-44.279999999999994" x2="4.5600000000000005" y2="-47.03999999999999" stroke-width="1" stroke="black" />
	<line x1="3.4200000000000004" y1="-44.279999999999994" x2="4.5600000000000005" y2="-47.03999999999999" stroke-width="1" stroke="black" />
	<line x1="4.5600000000000005" y1="-47.03999999999999" x2="4.5600000000000005" y2="-50.03999999999999" stroke-width="1" stroke="black" />
	<line x1="4.5600000000000005" y1="-50.03999999999999" x2="4.5600000000000005" y2="-53.03999999999999" stroke-width="1" stroke="black" />
	<line x1="4.5600000000000005" y1="-47.03999999999999" x2="6.69" y2="-49.169999999999995" stroke-width="1" stroke="black" />
	<line x1="2.2800000000000002" y1="-41.519999999999996" x2="3.4200000000000004" y2="-44.279999999999994" stroke-width="1" stroke="black" />
	<line x1="3.4200000000000004" y1="-44.279999999999994" x2="4.5600000000000005" y2="-47.03999999999999" stroke-width="1" stroke="black" />
	<line x1="4.5600000000000005" y1="-47.03999999999999" x2="4.5600000000000005" y2="-50.03999999999999" stroke-width="1" stroke="black" />
	<line x1="4.5600000000000005" y1="-50.03999999999999" x2="4.5600000000000005" y2="-53.03999999999999" stroke-width="1" stroke="black" />
	<line x1="4.5600000000000005" y1="-53.03999999999999" x2="4.5600000000000005" y2="-56.03999999999999" stroke-width="1" stroke="black" />
	<line x1="4.5600000000000005" y1="-56.03999999999999" x2="5.700000000000001" y2="-58.79999999999999" stroke-width="1" stroke="black" />
	<line x1="4.5600000000000005" y1="-56.03999999999999" x2="4.5600000000000005" y2="-59.03999999999999" stroke-width="1" stroke="black" />
	<line x1="4.5600000000000005" y1="-56.03999999999999" x2="4.5600000000000005" y2="-59.03999999999999" stroke-width="1" stroke="black" />
	<line x1="4.5600000000000005" y1="-59.03999999999999" x2="3.4200000000000004" y2="-61.79999999999999" stroke-width="1" stroke="black" />
	<line x1="3.4200000000000004" y1="-61.79999999999999" x2="2.2800000000000002" y2="-64.55999999999999" stroke-width="1" stroke="black" />
	<line x1="4.5600000000000005" y1="-59.03999999999999" x2="5.700000000000001" y2="-61.79999999999999" stroke-width="1" stroke="black" />
	<line x1="4.5600000000000005" y1="-47.03999999999999" x2="6.69" y2="-49.169999999999995" stroke-width="1" stroke="black" />
	<line x1="6.69" y1="-49.169999999999995" x2="9.450000000000001" y2="-50.309999999999995" stroke-width="1" stroke="black" />
	<line x1="6.69" y1="-49.169999999999995" x2="8.82" y2="-51.3" stroke-width="1" stroke="black" />
	<line x1="6.69" y1="-49.169999999999995" x2="8.82" y2="-51.3" stroke-width="1" stroke="black" />
	<line x1="8.82" y1="-51.3" x2="9.96" y2="-54.059999999999995" stroke-width="1" stroke="black" />
	<line x1="9.96" y1="-54.059999999999995" x2="11.100000000000001" y2="-56.81999999999999" stroke-width="1" stroke="black" />
	<line x1="8.82" y1="-51.3" x2="11.58" y2="-52.44" stroke-width="1" stroke="black" />
	<line x1="0.0" y1="-36.0" x2="0.0" y2="-39.0" stroke-width="1" stroke="black" />
	<line x1="0.0" y1="-39.0" x2="0.0" y2="-42.0" stroke-width="1" stroke="black" />
	<line x1="0.0" y1="-42.0" x2="1.1400000000000001" y2="-44.76" stroke-width="1" stroke="black" />
	<line x1="1.1400000000000001" y1="-44.76" x2="3.27" y2="-46.89" stroke-width="1" stroke="black" />
	<line x1="1.1400000000000001" y1="-44.76" x2="2.2800000000000002" y2="-47.519999999999996" stroke-width="1" stroke="black" />
	<line x1="1.1400000000000001" y1="-44.76" x2="2.2800000000000002" y2="-47.519999999999996" stroke-width="1" stroke="black" />
	<line x1="2.2800000000000002" y1="-47.519999999999996" x2="2.2800000000000002" y2="-50.519999999999996" stroke-width="1" stroke="black" />
	<line x1="2.2800000000000002" y1="-50.519999999999996" x2="2.2800000000000002" y2="-53.519999999999996" stroke-width="1" stroke="black" />
	<line x1="2.2800000000000002" y1="-47.519999999999996" x2="4.41" y2="-49.65" stroke-width="1" stroke="black" />
	<line x1="0.0" y1="-42.0" x2="0.0" y2="-45.0" stroke-width="1" stroke="black" />
	<line x1="0.0" y1="-45.0" x2="1.1400000000000001" y2="-47.76" stroke-width="1" stroke="black" />
	<line x1="0.0" y1="-45.0" x2="0.0" y2="-48.0" stroke-width="1" stroke="black" />
	<line x1="0.0" y1="-45.0" x2="0.0" y2="-48.0" stroke-width="1" stroke="black" />
	<line x1="0.0" y1="-48.0" x2="-1.1400000000000001" y2="-50.76" stroke-width="1" stroke="black" />
	<line x1="-1.1400000000000001" y1="-50.76" x2="-2.2800000000000002" y2="-53.519999999999996" stroke-width="1" stroke="black" />
	<line x1="0.0" y1="-48.0" x2="1.1400000000000001" y2="-50.76" stroke-width="1" stroke="black" />
	<line x1="0.0" y1="-42.0" x2="0.0" y2="-45.0" stroke-width="1" stroke="black" />
	<line x1="0.0" y1="-45.0" x2="0.0" y2="-48.0" stroke-width="1" stroke="black" />
	<line x1="0.0" y1="-48.0" x2="-1.1400000000000001" y2="-50.76" stroke-width="1" stroke="black" />
	<line x1="-1.1400000000000001" y1="-50.76" x2="-2.2800000000000002" y2="-53.519999999999996" stroke-width="1" stroke="black" />
	<line x1="-2.2800000000000002" y1="-53.519999999999996" x2="-3.4200000000000004" y2="-56.279999999999994" stroke-width="1" stroke="black" />
	<line x1="-3.4200000000000004" y1="-56.279999999999994" x2="-3.4200000000000004" y2="-59.279999999999994" stroke-width="1" stroke="black" />
	<line x1="-3.4200000000000004" y1="-56.279999999999994" x2="-4.5600000000000005" y2="-59.03999999999999" stroke-width="1" stroke="black" />
	<line x1="-3.4200000000000004" y1="-56.279999999999994" x2="-4.5600000000000005" y2="-59.03999999999999" stroke-width="1" stroke="black" />
	<line x1="-4.5600000000000005" y1="-59.03999999999999" x2="-6.69" y2="-61.169999999999995" stroke-width="1" stroke="black" />
	<line x1="-6.69" y1="-61.169999999999995" x2="-8.82" y2="-63.3" stroke-width="1" stroke="black" />
	<line x1="-4.5600000000000005" y1="-59.03999999999999" x2="-4.5600000000000005" y2="-62.03999999999999" stroke-width="1" stroke="black" />
	<line x1="0.0" y1="-48.0" x2="1.1400000000000001" y2="-50.76" stroke-width="1" stroke="black" />
	<line x1="1.1400000000000001" y1="-50.76" x2="3.27" y2="-52.89" stroke-width="1" stroke="black" />
	<line x1="1.1400000000000001" y1="-50.76" x2="2.2800000000000002" y2="-53.519999999999996" stroke-width="1" stroke="black" />
	<line x1="1.1400000000000001" y1="-50.76" x2="2.2800000000000002" y2="-53.519999999999996" stroke-width="1" stroke="black" />
	<line x1="2.2800000000000002" y1="-53.519999999999996" x2="2.2800000000000002" y2="-56.519999999999996" stroke-width="1" stroke="black" />
	<line x1="2.2800000000000002" y1="-56.519999999999996" x2="2.2800000000000002" y2="-59.519999999999996" stroke-width="1" stroke="black" />
	<line x1="2.2800000000000002" y1="-53.519999999999996" x2="4.41" y2="-55.65" stroke-width="1" stroke="black" />
	<line x1="0.0" y1="-36.0" x2="0.0" y2="-39.0" stroke-width="1" stroke="black" />
	<line x1="0.0" y1="-39.0" x2="0.0" y2="-42.0" stroke-width="1" stroke="black" />
	<line x1="0.0" y1="-42.0" x2="0.0" y2="-45.0" stroke-width="1" stroke="black" />
	<line x1="0.0" y1="-45.0" x2="0.0" y2="-48.0" stroke-width="1" stroke="black" />
	<line x1="0.0" y1="-48.0" x2="-1.1400000000000001" y2="-50.76" stroke-width="1" stroke="black" />
	<line x1="-1.1400000000000001" y1="-50.76" x2="-2.2800000000000002" y2="-53.519999999999996" stroke-width="1" stroke="black" />
	<line x1="-2.2800000000000002" y1="-53.519999999999996" x2="-3.4200000000000004" y2="-56.279999999999994" stroke-width="1" stroke="black" />
	<line x1="-3.4200000000000004" y1="-56.279999999999994" x2="-4.5600000000000005" y2="-59.03999999999999" stroke-width="1" stroke="black" />
	<line x1="-4.5600000000000005" y1="-59.03999999999999" x2="-5.700000000000001" y2="-61.79999999999999" stroke-width="1" stroke="black" />
	<line x1="-5.700000000000001" y1="-61.79999999999999" x2="-6.840000000000002" y2="-64.55999999999999" stroke-width="1" stroke="black" />
	<line x1="-6.840000000000002" y1="-64.55999999999999" x2="-6.840000000000002" y2="-67.55999999999999" stroke-width="1" stroke="black" />
	<line x1="-6.840000000000002" y1="-67.55999999999999" x2="-5.700000000000001" y2="-70.32" stroke-width="1" stroke="black" />
	<line x1="-6.840000000000002" y1="-67.55999999999999" x2="-6.840000000000002" y2="-70.55999999999999" stroke-width="1" stroke="black" />
	<line x1="-6.840000000000002" y1="-67.55999999999999" x2="-6.840000000000002" y2="-70.55999999999999" stroke-width="1" stroke="black" />
	<line x1="-6.840000000000002" y1="-70.55999999999999" x2="-7.980000000000002" y2="-73.32" stroke-width="1" stroke="black" />
	<line x1="-7.980000000000002" y1="-73.32" x2="-9.120000000000003" y2="-76.08" stroke-width="1" stroke="black" />
	<line x1="-6.840000000000002" y1="-70.55999999999999" x2="-5.700000000000001" y2="-73.32" stroke-width="1" stroke="black" />
	<line x1="-6.840000000000002" y1="-64.55999999999999" x2="-7.980000000000002" y2="-67.32" stroke-width="1" stroke="black" />
	<line x1="-7.980000000000002" y1="-67.32" x2="-7.980000000000002" y2="-70.32" stroke-width="1" stroke="black" />
	<line x1="-7.980000000000002" y1="-67.32" x2="-9.120000000000003" y2="-70.08" stroke-width="1" stroke="black" />
	<line x1="-7.980000000000002" y1="-67.32" x2="-9.120000000000003" y2="-70.08" stroke-width="1" stroke="black" />
	<line x1="-9.120000000000003" y1="-70.08" x2="-11.250000000000004" y2="-72.21" stroke-width="1" stroke="black" />
	<line x1="-11.250000000000004" y1="-72.21" x2="-13.380000000000003" y2="-74.33999999999999" stroke-width="1" stroke="black" />
	<line x1="-9.120000000000003" y1="-70.08" x2="-9.120000000000003" y2="-73.08" stroke-width="1" stroke="black" />
	<line x1="-6.840000000000002" y1="-64.55999999999999" x2="-7.980000000000002" y2="-67.32" stroke-width="1" stroke="black" />
	<line x1="-7.980000000000002" y1="-67.32" x2="-9.120000000000003" y2="-70.08" stroke-width="1" stroke="black" />
	<line x1="-9.120000000000003" y1="-70.08" x2="-11.250000000000004" y2="-72.21" stroke-width="1" stroke="black" />
	<line x1="-11.250000000000004" y1="-72.21" x2="-13.380000000000003" y2="-74.33999999999999" stroke-width="1" stroke="black" />
	<line x1="-13.380000000000003" y1="-74.33999999999999" x2="-15.510000000000002" y2="-76.46999999999998" stroke-width="1" stroke="black" />
	<line x1="-15.510000000000002" y1="-76.46999999999998" x2="-16.650000000000002" y2="-79.22999999999999" stroke-width="1" stroke="black" />
	<line x1="-15.510000000000002" y1="-76.46999999999998" x2="-17.64" y2="-78.59999999999998" stroke-width="1" stroke="black" />
	<line x1="-15.510000000000002" y1="-76.46999999999998" x2="-17.64" y2="-78.59999999999998" stroke-width="1" stroke="black" />
	<line x1="-17.64" y1="-78.59999999999998" x2="-20.400000000000002" y2="-79.73999999999998" stroke-width="1" stroke="black" />
	<line x1="-20.400000000000002" y1="-79.73999999999998" x2="-23.160000000000004" y2="-80.87999999999998" stroke-width="1" stroke="black" />
	<line x1="-17.64" y1="-78.59999999999998" x2="-18.78" y2="-81.35999999999999" stroke-width="1" stroke="black" />
	<line x1="-9.120000000000003" y1="-70.08" x2="-9.120000000000003" y2="-73.08" stroke-width="1" stroke="black" />
	<line x1="-9.120000000000003" y1="-73.08" x2="-7.980000000000002" y2="-75.84" stroke-width="1" stroke="black" />
	<line x1="-9.120000000000003" y1="-73.08" x2="-9.120000000000003" y2="-76.08" stroke-width="1" stroke="black" />
	<line x1="-9.120000000000003" y1="-73.08" x2="-9.120000000000003" y2="-76.08" stroke-width="1" stroke="black" />
	<line x1="-9.120000000000003" y1="-76.08" x2="-10.260000000000003" y2="-78.84" stroke-width="1" stroke="black" />
	<line x1="-10.260000000000003" y1="-78.84" x2="-11.400000000000004" y2="-81.60000000000001" stroke-width="1" stroke="black" />
	<line x1="-9.120000000000003" y1="-76.08" x2="-7.980000000000002" y2="-78.84" stroke-width="1" stroke="black" />
	<line x1="0.0" y1="-48.0" x2="1.1400000000000001" y2="-50.76" stroke-width="1" stroke="black" />
	<line x1="1.1400000000000001" y1="-50.76" x2="2.2800000000000002" y2="-53.519999999999996" stroke-width="1" stroke="black" />
	<line x1="2.2800000000000002" y1="-53.519999999999996" x2="4.41" y2="-55.65" stroke-width="1" stroke="black" />
	<line x1="4.41" y1="-55.65" x2="7.17" y2="-56.79" stroke-width="1" stroke="black" />
	<line x1="4.41" y1="-55.65" x2="6.54" y2="-57.78" stroke-width="1" stroke="black" />
	<line x1="4.41" y1="-55.65" x2="6.54" y2="-57.78" stroke-width="1" stroke="black" />
	<line x1="6.54" y1="-57.78" x2="7.68" y2="-60.54" stroke-width="1" stroke="black" />
	<line x1="7.68" y1="-60.54" x2="8.82" y2="-63.3" stroke-width="1" stroke="black" />
	<line x1="6.54" y1="-57.78" x2="9.3" y2="-58.92" stroke-width="1" stroke="black" />
	<line x1="2.2800000000000002" y1="-53.519999999999996" x2="3.4200000000000004" y2="-56.279999999999994" stroke-width="1" stroke="black" />
	<line x1="3.4200000000000004" y1="-56.279999999999994" x2="5.550000000000001" y2="-58.41" stroke-width="1" stroke="black" />
	<line x1="3.4200000000000004" y1="-56.279999999999994" x2="4.5600000000000005" y2="-59.03999999999999" stroke-width="1" stroke="black" />
	<line x1="3.4200000000000004" y1="-56.279999999999994" x2="4.5600000000000005" y2="-59.03999999999999" stroke-width="1" stroke="black" />
	<line x1="4.5600000000000005" y1="-59.03999999999999" x2="4.5600000000000005" y2="-62.03999999999999" stroke-width="1" stroke="black" />
	<line x1="4.5600000000000005" y1="-62.03999999999999" x2="4.5600000000000005" y2="-65.03999999999999" stroke-width="1" stroke="black" />
	<line x1="4.5600000000000005" y1="-59.03999999999999" x2="6.69" y2="-61.169999999999995" stroke-width="1" stroke="black" />
	<line x1="2.2800000000000002" y1="-53.519999999999996" x2="3.4200000000000004" y2="-56.279999999999994" stroke-width="1" stroke="black" />
	<line x1="3.4200000000000004" y1="-56.279999999999994" x2="4.5600000000000005" y2="-59.03999999999999" stroke-width="1" stroke="black" />
	<line x1="4.5600000000000005" y1="-59.03999999999999" x2="4.5600000000000005" y2="-62.03999999999999" stroke-width="1" stroke="black" />
	<line x1="4.5600000000000005" y1="-62.03999999999999" x2="4.5600000000000005" y2="-65.03999999999999" stroke-width="1" stroke="black" />
	<line x1="4.5600000000000005" y1="-65.03999999999999" x2="4.5600000000000005" y2="-68.03999999999999" stroke-width="1" stroke="black" />
	<line x1="4.5600000000000005" y1="-68.03999999999999" x2="5.700000000000001" y2="-70.8" stroke-width="1" stroke="black" />
	<line x1="4.5600000000000005" y1="-68.03999999999999" x2="4.5600000000000005" y2="-71.03999999999999" stroke-width="1" stroke="black" />
	<line x1="4.5600000000000005" y1="-68.03999999999999" x2="4.5600000000000005" y2="-71.03999999999999" stroke-width="1" stroke="black" />
	<line x1="4.5600000000000005" y1="-71.03999999999999" x2="3.4200000000000004" y2="-73.8" stroke-width="1" stroke="black" />
	<line x1="3.4200000000000004" y1="-73.8" x2="2.2800000000000002" y2="-76.56" stroke-width="1" stroke="black" />
	<line x1="4.5600000000000005" y1="-71.03999999999999" x2="5.700000000000001" y2="-73.8" stroke-width="1" stroke="black" />
	<line x1="4.5600000000000005" y1="-59.03999999999999" x2="6.69" y2="-61.169999999999995" stroke-width="1" stroke="black" />
	<line x1="6.69" y1="-61.169999999999995" x2="9.450000000000001" y2="-62.309999999999995" stroke-width="1" stroke="black" />
	<line x1="6.69" y1="-61.169999999999995" x2="8.82" y2="-63.3" stroke-width="1" stroke="black" />
	<line x1="6.69" y1="-61.169999999999995" x2="8.82" y2="-63.3" stroke-width="1" stroke="black" />
	<line x1="8.82" y1="-63.3" x2="9.96" y2="-66.06" stroke-width="1" stroke="black" />
	<line x1="9.96" y1="-66.06" x2="11.100000000000001" y2="-68.82000000000001" stroke-width="1" stroke="black" />
	<line x1="8.82" y1="-63.3" x2="11.58" y2="-64.44" stroke-width="1" stroke="black" />
	<line x1="0.0" y1="-24.0" x2="0.0" y2="-27.0" stroke-width="1" stroke="black" />
	<line x1="0.0" y1="-27.0" x2="0.0" y2="-30.0" stroke-width="1" stroke="black" />
	<line x1="0.0" y1="-30.0" x2="0.0" y2="-33.0" stroke-width="1" stroke="black" />
	<line x1="0.0" y1="-33.0" x2="0.0" y2="-36.0" stroke-width="1" stroke="black" />
	<line x1="0.0" y1="-36.0" x2="0.0" y2="-39.0" stroke-width="1" stroke="black" />
	<line x1="0.0" y1="-39.0" x2="0.0" y2="-42.0" stroke-width="1" stroke="black" />
	<line x1="0.0" y1="-42.0" x2="0.0" y2="-45.0" stroke-width="1" stroke="black" />
	<line x1="0.0" y1="-45.0" x2="0.0" y2="-48.0" stroke-width="1" stroke="black" />
	<line x1="0.0" y1="-48.0" x2="-1.1400000000000001" y2="-50.76" stroke-width="1" stroke="black" />
	<line x1="-1.1400000000000001" y1="-50.76" x2="-2.2800000000000002" y2="-53.519999999999996" stroke-width="1" stroke="black" />
	<line x1="-2.2800000000000002" y1="-53.519999999999996" x2="-3.4200000000000004" y2="-56.279999999999994" stroke-width="1" stroke="black" />
	<line x1="-3.4200000000000004" y1="-56.279999999999994" x2="-4.5600000000000005" y2="-59.03999999999999" stroke-width="1" stroke="black" />
	<line x1="-4.5600000000000005" y1="-59.03999999999999" x2="-5.700000000000001" y2="-61.79999999999999" stroke-width="1" stroke="black" />
	<line x1="-5.700000000000001" y1="-61.79999999999999" x2="-6.840000000000002" y2="-64.55999999999999" stroke-width="1" stroke="black" />
	<line x1="-6.840000000000002" y1="-64.55999999999999" x2="-7.980000000000002" y2="-67.32" stroke-width="1" stroke="black" />
	<line x1="-7.980000000000002" y1="-67.32" x2="-9.120000000000003" y2="-70.08" stroke-width="1" stroke="black" />
	<line x1="-9.120000000000003" y1="-70.08" x2="-10.260000000000003" y2="-72.84" stroke-width="1" stroke="black" />
	<line x1="-10.260000000000003" y1="-72.84" x2="-11.400000000000004" y2="-75.60000000000001" stroke-width="1" stroke="black" />
	<line x1="-11.400000000000004" y1="-75.60000000000001" x2="-12.540000000000004" y2="-78.36000000000001" stroke-width="1" stroke="black" />
	<line x1="-12.540000000000004" y1="-78.36000000000001" x2="-13.680000000000005" y2="-81.12000000000002" stroke-width="1" stroke="black" />
	<line x1="-13.680000000000005" y1="-81.12000000000002" x2="-13.680000000000005" y2="-84.12000000000002" stroke-width="1" stroke="black" />
	<line x1="-13.680000000000005" y1="-84.12000000000002" x2="-13.680000000000005" y2="-87.12000000000002" stroke-width="1" stroke="black" />
	<line x1="-13.680000000000005" y1="-87.12000000000002" x2="-12.540000000000004" y2="-89.88000000000002" stroke-width="1" stroke="black" />
	<line x1="-12.540000000000004" y1="-89.88000000000002" x2="-10.410000000000004" y2="-92.01000000000002" stroke-width="1" stroke="black" />
	<line x1="-12.540000000000004" y1="-89.88000000000002" x2="-11.400000000000004" y2="-92.64000000000003" stroke-width="1" stroke="black" />
	<line x1="-12.540000000000004" y1="-89.88000000000002" x2="-11.400000000000004" y2="-92.64000000000003" stroke-width="1" stroke="black" />
	<line x1="-11.400000000000004" y1="-92.64000000000003" x2="-11.400000000000004" y2="-95.64000000000003" stroke-width="1" stroke="black" />
	<line x1="-11.400000000000004" y1="-95.64000000000003" x2="-11.400000000000004" y2="-98.64000000000003" stroke-width="1" stroke="black" />
	<line x1="-11.400000000000004" y1="-92.64000000000003" x2="-9.270000000000003" y2="-94.77000000000002" stroke-width="1" stroke="black" />
	<line x1="-13.680000000000005" y1="-87.12000000000002" x2="-13.680000000000005" y2="-90.12000000000002" stroke-width="1" stroke="black" />
	<line x1="-13.680000000000005" y1="-90.12000000000002" x2="-12.540000000000004" y2="-92.88000000000002" stroke-width="1" stroke="black" />
	<line x1="-13.680000000000005" y1="-90.12000000000002" x2="-13.680000000000005" y2="-93.12000000000002" stroke-width="1" stroke="black" />
	<line x1="-13.680000000000005" y1="-90.12000000000002" x2="-13.680000000000005" y2="-93.12000000000002" stroke-width="1" stroke="black" />
	<line x1="-13.680000000000005" y1="-93.12000000000002" x2="-14.820000000000006" y2="-95.88000000000002" stroke-width="1" stroke="black" />
	<line x1="-14.820000000000006" y1="-95.88000000000002" x2="-15.960000000000006" y2="-98.64000000000003" stroke-width="1" stroke="black" />
	<line x1="-13.680000000000005" y1="-93.12000000000002" x2="-12.540000000000004" y2="-95.88000000000002" stroke-width="1" stroke="black" />
	<line x1="-13.680000000000005" y1="-87.12000000000002" x2="-13.680000000000005" y2="-90.12000000000002" stroke-width="1" stroke="black" />
	<line x1="-13.680000000000005" y1="-90.12000000000002" x2="-13.680000000000005" y2="-93.12000000000002" stroke-width="1" stroke="black" />
	<line x1="-13.680000000000005" y1="-93.12000000000002" x2="-14.820000000000006" y2="-95.88000000000002" stroke-width="1" stroke="black" />
	<line x1="-14.820000000000006" y1="-95.88000000000002" x2="-15.960000000000006" y2="-98.64000000000003" stroke-width="1" stroke="black" />
	<line x1="-15.960000000000006" y1="-98.64000000000003" x2="-17.100000000000005" y2="-101.40000000000003" stroke-width="1" stroke="black" />
	<line x1="-17.100000000000005" y1="-101.40000000000003" x2="-17.100000000000005" y2="-104.40000000000003" stroke-width="1" stroke="black" />
	<line x1="-17.100000000000005" y1="-101.40000000000003" x2="-18.240000000000006" y2="-104.16000000000004" stroke-width="1" stroke="black" />
	<line x1="-17.100000000000005" y1="-101.40000000000003" x2="-18.240000000000006" y2="-104.16000000000004" stroke-width="1" stroke="black" />
	<line x1="-18.240000000000006" y1="-104.16000000000004" x2="-20.370000000000005" y2="-106.29000000000003" stroke-width="1" stroke="black" />
	<line x1="-20.370000000000005" y1="-106.29000000000003" x2="-22.500000000000004" y2="-108.42000000000003" stroke-width="1" stroke="black" />
	<line x1="-18.240000000000006" y1="-104.16000000000004" x2="-18.240000000000006" y2="-107.16000000000004" stroke-width="1" stroke="black" />
	<line x1="-13.680000000000005" y1="-93.12000000000002" x2="-12.540000000000004" y2="-95.88000000000002" stroke-width="1" stroke="black" />
	<line x1="-12.540000000000004" y1="-95.88000000000002" x2="-10.410000000000004" y2="-98.01000000000002" stroke-width="1" stroke="black" />
	<line x1="-12.540000000000004" y1="-95.88000000000002" x2="-11.400000000000004" y2="-98.64000000000003" stroke-width="1" stroke="black" />
	<line x1="-12.540000000000004" y1="-95.88000000000002" x2="-11.400000000000004" y2="-98.64000000000003" stroke-width="1" stroke="black" />
	<line x1="-11.400000000000004" y1="-98.64000000000003" x2="-11.400000000000004" y2="-101.64000000000003" stroke-width="1" stroke="black" />
	<line x1="-11.400000000000004" y1="-101.64000000000003" x2="-11.400000000000004" y2="-104.64000000000003" stroke-width="1" stroke="black" />
	<line x1="-11.400000000000004" y1="-98.64000000000003" x2="-9.270000000000003" y2="-100.77000000000002" stroke-width="1" stroke="black" />
	<line x1="-13.680000000000005" y1="-81.12000000000002" x2="-14.820000000000006" y2="-83.88000000000002" stroke-width="1" stroke="black" />
	<line x1="-14.820000000000006" y1="-83.88000000000002" x2="-15.960000000000006" y2="-86.64000000000003" stroke-width="1" stroke="black" />
	<line x1="-15.960000000000006" y1="-86.64000000000003" x2="-15.960000000000006" y2="-89.64000000000003" stroke-width="1" stroke="black" />
	<line x1="-15.960000000000006" y1="-89.64000000000003" x2="-14.820000000000006" y2="-92.40000000000003" stroke-width="1" stroke="black" />
	<line x1="-15.960000000000006" y1="-89.64000000000003" x2="-15.960000000000006" y2="-92.64000000000003" stroke-width="1" stroke="black" />
	<line x1="-15.960000000000006" y1="-89.64000000000003" x2="-15.960000000000006" y2="-92.64000000000003" stroke-width="1" stroke="black" />
	<line x1="-15.960000000000006" y1="-92.64000000000003" x2="-17.100000000000005" y2="-95.40000000000003" stroke-width="1" stroke="black" />
	<line x1="-17.100000000000005" y1="-95.40000000000003" x2="-18.240000000000006" y2="-98.16000000000004" stroke-width="1" stroke="black" />
	<line x1="-15.960000000000006" y1="-92.64000000000003" x2="-14.820000000000006" y2="-95.40000000000003" stroke-width="1" stroke="black" />
	<line x1="-15.960000000000006" y1="-86.64000000000003" x2="-17.100000000000005" y2="-89.40000000000003" stroke-width="1" stroke="black" />
	<line x1="-17.100000000000005" y1="-89.40000000000003" x2="-17.100000000000005" y2="-92.40000000000003" stroke-width="1" stroke="black" />
	<line x1="-17.100000000000005" y1="-89.40000000000003" x2="-18.240000000000006" y2="-92.16000000000004" stroke-width="1" stroke="black" />
	<line x1="-17.100000000000005" y1="-89.40000000000003" x2="-18.240000000000006" y2="-92.16000000000004" stroke-width="1" stroke="black" />
	<line x1="-18.240000000000006" y1="-92.16000000000004" x2="-20.370000000000005" y2="-94.29000000000003" stroke-width="1" stroke="black" />
	<line x1="-20.370000000000005" y1="-94.29000000000003" x2="-22.500000000000004" y2="-96.42000000000003" stroke-width="1" stroke="black" />
	<line x1="-18.240000000000006" y1="-92.16000000000004" x2="-18.240000000000006" y2="-95.16000000000004" stroke-width="1" stroke="black" />
	<line x1="-15.960000000000006" y1="-86.64000000000003" x2="-17.100000000000005" y2="-89.40000000000003" stroke-width="1" stroke="black" />
	<line x1="-17.100000000000005" y1="-89.40000000000003" x2="-18.240000000000006" y2="-92.16000000000004" stroke-width="1" stroke="black" />
	<line x1="-18.240000000000006" y1="-92.16000000000004" x2="-20.370000000000005" y2="-94.29000000000003" stroke-width="1" stroke="black" />
	<line x1="-20.370000000000005" y1="-94.29000000000003" x2="-22.500000000000004" y2="-96.42000000000003" stroke-width="1" stroke="black" />
	<line x1="-22.500000000000004" y1="-96.42000000000003" x2="-24.630000000000003" y2="-98.55000000000003" stroke-width="1" stroke="black" />
	<line x1="-24.630000000000003" y1="-98.55000000000003" x2="-25.770000000000003" y2="-101.31000000000003" stroke-width="1" stroke="black" />
	<line x1="-24.630000000000003" y1="-98.55000000000003" x2="-26.76" y2="-100.68000000000002" stroke-width="1" stroke="black" />
	<line x1="-24.630000000000003" y1="-98.55000000000003" x2="-26.76" y2="-100.68000000000002" stroke-width="1" stroke="black" />
	<line x1="-26.76" y1="-100.68000000000002" x2="-29.520000000000003" y2="-101.82000000000002" stroke-width="1" stroke="black" />
	<line x1="-29.520000000000003" y1="-101.82000000000002" x2="-32.28" y2="-102.96000000000002" stroke-width="1" stroke="black" />
	<line x1="-26.76" y1="-100.68000000000002" x2="-27.900000000000002" y2="-103.44000000000003" stroke-width="1" stroke="black" />
	<line x1="-18.240000000000006" y1="-92.16000000000004" x2="-18.240000000000006" y2="-95.16000000000004" stroke-width="1" stroke="black" />
	<line x1="-18.240000000000006" y1="-95.16000000000004" x2="-17.100000000000005" y2="-97.92000000000004" stroke-width="1" stroke="black" />
	<line x1="-18.240000000000006" y1="-95.16000000000004" x2="-18.240000000000006" y2="-98.16000000000004" stroke-width="1" stroke="black" />
	<line x1="-18.240000000000006" y1="-95.16000000000004" x2="-18.240000000000006" y2="-98.16000000000004" stroke-width="1" stroke="black" />
	<line x1="-18.240000000000006" y1="-98.16000000000004" x2="-19.380000000000006" y2="-100.92000000000004" stroke-width="1" stroke="black" />
	<line x1="-19.380000000000006" y1="-100.92000000000004" x2="-20.520000000000007" y2="-103.68000000000005" stroke-width="1" stroke="black" />
	<line x1="-18.240000000000006" y1="-98.16000000000004" x2="-17.100000000000005" y2="-100.92000000000004" stroke-width="1" stroke="black" />
	<line x1="-13.680000000000005" y1="-81.12000000000002" x2="-14.820000000000006" y2="-83.88000000000002" stroke-width="1" stroke="black" />
	<line x1="-14.820000000000006" y1="-83.88000000000002" x2="-15.960000000000006" y2="-86.64000000000003" stroke-width="1" stroke="black" />
	<line x1="-15.960000000000006" y1="-86.64000000000003" x2="-17.100000000000005" y2="-89.40000000000003" stroke-width="1" stroke="black" />
	<line x1="-17.100000000000005" y1="-89.40000000000003" x2="-18.240000000000006" y2="-92.16000000000004" stroke-width="1" stroke="black" />
	<line x1="-18.240000000000006" y1="-92.16000000000004" x2="-20.370000000000005" y2="-94.29000000000003" stroke-width="1" stroke="black" />
	<line x1="-20.370000000000005" y1="-94.29000000000003" x2="-22.500000000000004" y2="-96.42000000000003" stroke-width="1" stroke="black" />
	<line x1="-22.500000000000004" y1="-96.42000000000003" x2="-24.630000000000003" y2="-98.55000000000003" stroke-width="1" stroke="black" />
	<line x1="-24.630000000000003" y1="-98.55000000000003" x2="-26.76" y2="-100.68000000000002" stroke-width="1" stroke="black" />
	<line x1="-26.76" y1="-100.68000000000002" x2="-28.89" y2="-102.81000000000002" stroke-width="1" stroke="black" />
	<line x1="-28.89" y1="-102.81000000000002" x2="-31.02" y2="-104.94000000000001" stroke-width="1" stroke="black" />
	<line x1="-31.02" y1="-104.94000000000001" x2="-32.16" y2="-107.70000000000002" stroke-width="1" stroke="black" />
	<line x1="-32.16" y1="-107.70000000000002" x2="-32.16" y2="-110.70000000000002" stroke-width="1" stroke="black" />
	<line x1="-32.16" y1="-107.70000000000002" x2="-33.3" y2="-110.46000000000002" stroke-width="1" stroke="black" />
	<line x1="-32.16" y1="-107.70000000000002" x2="-33.3" y2="-110.46000000000002" stroke-width="1" stroke="black" />
	<line x1="-33.3" y1="-110.46000000000002" x2="-35.43" y2="-112.59000000000002" stroke-width="1" stroke="black" />
	<line x1="-35.43" y1="-112.59000000000002" x2="-37.56" y2="-114.72000000000001" stroke-width="1" stroke="black" />
	<line x1="-33.3" y1="-110.46000000000002" x2="-33.3" y2="-113.46000000000002" stroke-width="1" stroke="black" />
	<line x1="-31.02" y1="-104.94000000000001" x2="-33.15" y2="-107.07000000000001" stroke-width="1" stroke="black" />
	<line x1="-33.15" y1="-107.07000000000001" x2="-34.29" y2="-109.83000000000001" stroke-width="1" stroke="black" />
	<line x1="-33.15" y1="-107.07000000000001" x2="-35.28" y2="-109.2" stroke-width="1" stroke="black" />
	<line x1="-33.15" y1="-107.07000000000001" x2="-35.28" y2="-109.2" stroke-width="1" stroke="black" />
	<line x1="-35.28" y1="-109.2" x2="-38.04" y2="-110.34" stroke-width="1" stroke="black" />
	<line x1="-38.04" y1="-110.34" x2="-40.8" y2="-111.48" stroke-width="1" stroke="black" />
	<line x1="-35.28" y1="-109.2" x2="-36.42" y2="-111.96000000000001" stroke-width="1" stroke="black" />
	<line x1="-31.02" y1="-104.94000000000001" x2="-33.15" y2="-107.07000000000001" stroke-width="1" stroke="black" />
	<line x1="-33.15" y1="-107.07000000000001" x2="-35.28" y2="-109.2" stroke-width="1" stroke="black" />
	<line x1="-35.28" y1="-109.2" x2="-38.04" y2="-110.34" stroke-width="1" stroke="black" />
	<line x1="-38.04" y1="-110.34" x2="-40.8" y2="-111.48" stroke-width="1" stroke="black" />
	<line x1="-40.8" y1="-111.48" x2="-43.559999999999995" y2="-112.62" stroke-width="1" stroke="black" />
	<line x1="-43.559999999999995" y1="-112.62" x2="-45.69" y2="-114.75" stroke-width="1" stroke="black" />
	<line x1="-43.559999999999995" y1="-112.62" x2="-46.31999999999999" y2="-113.76" stroke-width="1" stroke="black" />
	<line x1="-43.559999999999995" y1="-112.62" x2="-46.31999999999999" y2="-113.76" stroke-width="1" stroke="black" />
	<line x1="-46.31999999999999" y1="-113.76" x2="-49.31999999999999" y2="-113.76" stroke-width="1" stroke="black" />
	<line x1="-49.31999999999999" y1="-113.76" x2="-52.31999999999999" y2="-113.76" stroke-width="1" stroke="black" />
	<line x1="-46.31999999999999" y1="-113.76" x2="-48.449999999999996" y2="-115.89" stroke-width="1" stroke="black" />
	<line x1="-35.28" y1="-109.2" x2="-36.42" y2="-111.96000000000001" stroke-width="1" stroke="black" />
	<line x1="-36.42" y1="-111.96000000000001" x2="-36.42" y2="-114.96000000000001" stroke-width="1" stroke="black" />
	<line x1="-36.42" y1="-111.96000000000001" x2="-37.56" y2="-114.72000000000001" stroke-width="1" stroke="black" />
	<line x1="-36.42" y1="-111.96000000000001" x2="-37.56" y2="-114.72000000000001" stroke-width="1" stroke="black" />
	<line x1="-37.56" y1="-114.72000000000001" x2="-39.690000000000005" y2="-116.85000000000001" stroke-width="1" stroke="black" />
	<line x1="-39.690000000000005" y1="-116.85000000000001" x2="-41.82000000000001" y2="-118.98" stroke-width="1" stroke="black" />
	<line x1="-37.56" y1="-114.72000000000001" x2="-37.56" y2="-117.72000000000001" stroke-width="1" stroke="black" />
	<line x1="-18.240000000000006" y1="-92.16000000000004" x2="-18.240000000000006" y2="-95.16000000000004" stroke-width="1" stroke="black" />
	<line x1="-18.240000000000006" y1="-95.16000000000004" x2="-18.240000000000006" y2="-98.16000000000004" stroke-width="1" stroke="black" />
	<line x1="-18.240000000000006" y1="-98.16000000000004" x2="-17.100000000000005" y2="-100.92000000000004" stroke-width="1" stroke="black" />
	<line x1="-17.100000000000005" y1="-100.92000000000004" x2="-14.970000000000006" y2="-103.05000000000004" stroke-width="1" stroke="black" />
	<line x1="-17.100000000000005" y1="-100.92000000000004" x2="-15.960000000000004" y2="-103.68000000000005" stroke-width="1" stroke="black" />
	<line x1="-17.100000000000005" y1="-100.92000000000004" x2="-15.960000000000004" y2="-103.68000000000005" stroke-width="1" stroke="black" />
	<line x1="-15.960000000000004" y1="-103.68000000000005" x2="-15.960000000000004" y2="-106.68000000000005" stroke-width="1" stroke="black" />
	<line x1="-15.960000000000004" y1="-106.68000000000005" x2="-15.960000000000004" y2="-109.68000000000005" stroke-width="1" stroke="black" />
	<line x1="-15.960000000000004" y1="-103.68000000000005" x2="-13.830000000000005" y2="-105.81000000000004" stroke-width="1" stroke="black" />
	<line x1="-18.240000000000006" y1="-98.16000000000004" x2="-18.240000000000006" y2="-101.16000000000004" stroke-width="1" stroke="black" />
	<line x1="-18.240000000000006" y1="-101.16000000000004" x2="-17.100000000000005" y2="-103.92000000000004" stroke-width="1" stroke="black" />
	<line x1="-18.240000000000006" y1="-101.16000000000004" x2="-18.240000000000006" y2="-104.16000000000004" stroke-width="1" stroke="black" />
	<line x1="-18.240000000000006" y1="-101.16000000000004" x2="-18.240000000000006" y2="-104.16000000000004" stroke-width="1" stroke="black" />
	<line x1="-18.240000000000006" y1="-104.16000000000004" x2="-19.380000000000006" y2="-106.92000000000004" stroke-width="1" stroke="black" />
	<line x1="-19.380000000000006" y1="-106.92000000000004" x2="-20.520000000000007" y2="-109.68000000000005" stroke-width="1" stroke="black" />
	<line x1="-18.240000000000006" y1="-104.16000000000004" x2="-17.100000000000005" y2="-106.92000000000004" stroke-width="1" stroke="black" />
	<line x1="-18.240000000000006" y1="-98.16000000000004" x2="-18.240000000000006" y2="-101.16000000000004" stroke-width="1" stroke="black" />
	<line x1="-18.240000000000006" y1="-101.16000000000004" x2="-18.240000000000006" y2="-104.16000000000004" stroke-width="1" stroke="black" />
	<line x1="-18.240000000000006" y1="-104.16000000000004" x2="-19.380000000000006" y2="-106.92000000000004" stroke-width="1" stroke="black" />
	<line x1="-19.380000000000006" y1="-106.92000000000004" x2="-20.520000000000007" y2="-109.68000000000005" stroke-width="1" stroke="black" />
	<line x1="-20.520000000000007" y1="-109.68000000000005" x2="-21.660000000000007" y2="-112.44000000000005" stroke-width="1" stroke="black" />
	<line x1="-21.660000000000007" y1="-112.44000000000005" x2="-21.660000000000007" y2="-115.44000000000005" stroke-width="1" stroke="black" />
	<line x1="-21.660000000000007" y1="-112.44000000000005" x2="-22.800000000000008" y2="-115.20000000000006" stroke-width="1" stroke="black" />
	<line x1="-21.660000000000007" y1="-112.44000000000005" x2="-22.800000000000008" y2="-115.20000000000006" stroke-width="1" stroke="black" />
	<line x1="-22.800000000000008" y1="-115.20000000000006" x2="-24.930000000000007" y2="-117.33000000000006" stroke-width="1" stroke="black" />
	<line x1="-24.930000000000007" y1="-117.33000000000006" x2="-27.060000000000006" y2="-119.46000000000005" stroke-width="1" stroke="black" />
	<line x1="-22.800000000000008" y1="-115.20000000000006" x2="-22.800000000000008" y2="-118.20000000000006" stroke-width="1" stroke="black" />
	<line x1="-18.240000000000006" y1="-104.16000000000004" x2="-17.100000000000005" y2="-106.92000000000004" stroke-width="1" stroke="black" />
	<line x1="-17.100000000000005" y1="-106.92000000000004" x2="-14.970000000000006" y2="-109.05000000000004" stroke-width="1" stroke="black" />
	<line x1="-17.100000000000005" y1="-106.92000000000004" x2="-15.960000000000004" y2="-109.68000000000005" stroke-width="1" stroke="black" />
	<line x1="-17.100000000000005" y1="-106.92000000000004" x2="-15.960000000000004" y2="-109.68000000000005" stroke-width="1" stroke="black" />
	<line x1="-15.960000000000004" y1="-109.68000000000005" x2="-15.960000000000004" y2="-112.68000000000005" stroke-width="1" stroke="black" />
	<line x1="-15.960000000000004" y1="-112.68000000000005" x2="-15.960000000000004" y2="-115.68000000000005" stroke-width="1" stroke="black" />
	<line x1="-15.960000000000004" y1="-109.68000000000005" x2="-13.830000000000005" y2="-111.81000000000004" stroke-width="1" stroke="black" />
	<line x1="0.0" y1="-48.0" x2="1.1400000000000001" y2="-50.76" stroke-width="1" stroke="black" />
	<line x1="1.1400000000000001" y1="-50.76" x2="2.2800000000000002" y2="-53.519999999999996" stroke-width="1" stroke="black" />
	<line x1="2.2800000000000002" y1="-53.519999999999996" x2="3.4200000000000004" y2="-56.279999999999994" stroke-width="1" stroke="black" />
	<line x1="3.4200000000000004" y1="-56.279999999999994" x2="4.5600000000000005" y2="-59.03999999999999" stroke-width="1" stroke="black" />
	<line x1="4.5600000000000005" y1="-59.03999999999999" x2="6.69" y2="-61.169999999999995" stroke-width="1" stroke="black" />
	<line x1="6.69" y1="-61.169999999999995" x2="8.82" y2="-63.3" stroke-width="1" stroke="black" />
	<line x1="8.82" y1="-63.3" x2="11.58" y2="-64.44" stroke-width="1" stroke="black" />
	<line x1="11.58" y1="-64.44" x2="14.58" y2="-64.44" stroke-width="1" stroke="black" />
	<line x1="11.58" y1="-64.44" x2="14.34" y2="-65.58" stroke-width="1" stroke="black" />
	<line x1="11.58" y1="-64.44" x2="14.34" y2="-65.58" stroke-width="1" stroke="black" />
	<line x1="14.34" y1="-65.58" x2="16.47" y2="-67.71" stroke-width="1" stroke="black" />
	<line x1="16.47" y1="-67.71" x2="18.599999999999998" y2="-69.83999999999999" stroke-width="1" stroke="black" />
	<line x1="14.34" y1="-65.58" x2="17.34" y2="-65.58" stroke-width="1" stroke="black" />
	<line x1="8.82" y1="-63.3" x2="10.95" y2="-65.42999999999999" stroke-width="1" stroke="black" />
	<line x1="10.95" y1="-65.42999999999999" x2="13.709999999999999" y2="-66.57" stroke-width="1" stroke="black" />
	<line x1="10.95" y1="-65.42999999999999" x2="13.079999999999998" y2="-67.55999999999999" stroke-width="1" stroke="black" />
	<line x1="10.95" y1="-65.42999999999999" x2="13.079999999999998" y2="-67.55999999999999" stroke-width="1" stroke="black" />
	<line x1="13.079999999999998" y1="-67.55999999999999" x2="14.219999999999999" y2="-70.32" stroke-width="1" stroke="black" />
	<line x1="14.219999999999999" y1="-70.32" x2="15.36" y2="-73.08" stroke-width="1" stroke="black" />
	<line x1="13.079999999999998" y1="-67.55999999999999" x2="15.839999999999998" y2="-68.69999999999999" stroke-width="1" stroke="black" />
	<line x1="8.82" y1="-63.3" x2="10.95" y2="-65.42999999999999" stroke-width="1" stroke="black" />
	<line x1="10.95" y1="-65.42999999999999" x2="13.079999999999998" y2="-67.55999999999999" stroke-width="1" stroke="black" />
	<line x1="13.079999999999998" y1="-67.55999999999999" x2="14.219999999999999" y2="-70.32" stroke-width="1" stroke="black" />
	<line x1="14.219999999999999" y1="-70.32" x2="15.36" y2="-73.08" stroke-width="1" stroke="black" />
	<line x1="15.36" y1="-73.08" x2="16.5" y2="-75.84" stroke-width="1" stroke="black" />
	<line x1="16.5" y1="-75.84" x2="18.63" y2="-77.97" stroke-width="1" stroke="black" />
	<line x1="16.5" y1="-75.84" x2="17.64" y2="-78.60000000000001" stroke-width="1" stroke="black" />
	<line x1="16.5" y1="-75.84" x2="17.64" y2="-78.60000000000001" stroke-width="1" stroke="black" />
	<line x1="17.64" y1="-78.60000000000001" x2="17.64" y2="-81.60000000000001" stroke-width="1" stroke="black" />
	<line x1="17.64" y1="-81.60000000000001" x2="17.64" y2="-84.60000000000001" stroke-width="1" stroke="black" />
	<line x1="17.64" y1="-78.60000000000001" x2="19.77" y2="-80.73" stroke-width="1" stroke="black" />
	<line x1="13.079999999999998" y1="-67.55999999999999" x2="15.839999999999998" y2="-68.69999999999999" stroke-width="1" stroke="black" />
	<line x1="15.839999999999998" y1="-68.69999999999999" x2="18.839999999999996" y2="-68.69999999999999" stroke-width="1" stroke="black" />
	<line x1="15.839999999999998" y1="-68.69999999999999" x2="18.599999999999998" y2="-69.83999999999999" stroke-width="1" stroke="black" />
	<line x1="15.839999999999998" y1="-68.69999999999999" x2="18.599999999999998" y2="-69.83999999999999" stroke-width="1" stroke="black" />
	<line x1="18.599999999999998" y1="-69.83999999999999" x2="20.729999999999997" y2="-71.96999999999998" stroke-width="1" stroke="black" />
	<line x1="20.729999999999997" y1="-71.96999999999998" x2="22.859999999999996" y2="-74.09999999999998" stroke-width="1" stroke="black" />
	<line x1="18.599999999999998" y1="-69.83999999999999" x2="21.599999999999998" y2="-69.83999999999999" stroke-width="1" stroke="black" />
	<line x1="4.5600000000000005" y1="-59.03999999999999" x2="5.700000000000001" y2="-61.79999999999999" stroke-width="1" stroke="black" />
	<line x1="5.700000000000001" y1="-61.79999999999999" x2="6.840000000000002" y2="-64.55999999999999" stroke-width="1" stroke="black" />
	<line x1="6.840000000000002" y1="-64.55999999999999" x2="8.970000000000002" y2="-66.68999999999998" stroke-width="1" stroke="black" />
	<line x1="8.970000000000002" y1="-66.68999999999998" x2="11.730000000000002" y2="-67.82999999999998" stroke-width="1" stroke="black" />
	<line x1="8.970000000000002" y1="-66.68999999999998" x2="11.100000000000001" y2="-68.81999999999998" stroke-width="1" stroke="black" />
	<line x1="8.970000000000002" y1="-66.68999999999998" x2="11.100000000000001" y2="-68.81999999999998" stroke-width="1" stroke="black" />
	<line x1="11.100000000000001" y1="-68.81999999999998" x2="12.240000000000002" y2="-71.57999999999998" stroke-width="1" stroke="black" />
	<line x1="12.240000000000002" y1="-71.57999999999998" x2="13.380000000000003" y2="-74.33999999999999" stroke-width="1" stroke="black" />
	<line x1="11.100000000000001" y1="-68.81999999999998" x2="13.860000000000001" y2="-69.95999999999998" stroke-width="1" stroke="black" />
	<line x1="6.840000000000002" y1="-64.55999999999999" x2="7.980000000000002" y2="-67.32" stroke-width="1" stroke="black" />
	<line x1="7.980000000000002" y1="-67.32" x2="10.110000000000003" y2="-69.44999999999999" stroke-width="1" stroke="black" />
	<line x1="7.980000000000002" y1="-67.32" x2="9.120000000000003" y2="-70.08" stroke-width="1" stroke="black" />
	<line x1="7.980000000000002" y1="-67.32" x2="9.120000000000003" y2="-70.08" stroke-width="1" stroke="black" />
	<line x1="9.120000000000003" y1="-70.08" x2="9.120000000000003" y2="-73.08" stroke-width="1" stroke="black" />
	<line x1="9.120000000000003" y1="-73.08" x2="9.120000000000003" y2="-76.08" stroke-width="1" stroke="black" />
	<line x1="9.120000000000003" y1="-70.08" x2="11.250000000000004" y2="-72.21" stroke-width="1" stroke="black" />
	<line x1="6.840000000000002" y1="-64.55999999999999" x2="7.980000000000002" y2="-67.32" stroke-width="1" stroke="black" />
	<line x1="7.980000000000002" y1="-67.32" x2="9.120000000000003" y2="-70.08" stroke-width="1" stroke="black" />
	<line x1="9.120000000000003" y1="-70.08" x2="9.120000000000003" y2="-73.08" stroke-width="1" stroke="black" />
	<line x1="9.120000000000003" y1="-73.08" x2="9.120000000000003" y2="-76.08" stroke-width="1" stroke="black" />
	<line x1="9.120000000000003" y1="-76.08" x2="9.120000000000003" y2="-79.08" stroke-width="1" stroke="black" />
	<line x1="9.120000000000003" y1="-79.08" x2="10.260000000000003" y2="-81.84" stroke-width="1" stroke="black" />
	<line x1="9.120000000000003" y1="-79.08" x2="9.120000000000003" y2="-82.08" stroke-width="1" stroke="black" />
	<line x1="9.120000000000003" y1="-79.08" x2="9.120000000000003" y2="-82.08" stroke-width="1" stroke="black" />
	<line x1="9.120000000000003" y1="-82.08" x2="7.980000000000002" y2="-84.84" stroke-width="1" stroke="black" />
	<line x1="7.980000000000002" y1="-84.84" x2="6.840000000000002" y2="-87.60000000000001" stroke-width="1" stroke="black" />
	<line x1="9.120000000000003" y1="-82.08" x2="10.260000000000003" y2="-84.84" stroke-width="1" stroke="black" />
	<line x1="9.120000000000003" y1="-70.08" x2="11.250000000000004" y2="-72.21" stroke-width="1" stroke="black" />
	<line x1="11.250000000000004" y1="-72.21" x2="14.010000000000003" y2="-73.35" stroke-width="1" stroke="black" />
	<line x1="11.250000000000004" y1="-72.21" x2="13.380000000000003" y2="-74.33999999999999" stroke-width="1" stroke="black" />
	<line x1="11.250000000000004" y1="-72.21" x2="13.380000000000003" y2="-74.33999999999999" stroke-width="1" stroke="black" />
	<line x1="13.380000000000003" y1="-74.33999999999999" x2="14.520000000000003" y2="-77.1" stroke-width="1" stroke="black" />
	<line x1="14.520000000000003" y1="-77.1" x2="15.660000000000004" y2="-79.86" stroke-width="1" stroke="black" />
	<line x1="13.380000000000003" y1="-74.33999999999999" x2="16.140000000000004" y2="-75.47999999999999" stroke-width="1" stroke="black" />
	<line x1="4.5600000000000005" y1="-59.03999999999999" x2="5.700000000000001" y2="-61.79999999999999" stroke-width="1" stroke="black" />
	<line x1="5.700000000000001" y1="-61.79999999999999" x2="6.840000000000002" y2="-64.55999999999999" stroke-width="1" stroke="black" />
	<line x1="6.840000000000002" y1="-64.55999999999999" x2="7.980000000000002" y2="-67.32" stroke-width="1" stroke="black" />
	<line x1="7.980000000000002" y1="-67.32" x2="9.120000000000003" y2="-70.08" stroke-width="1" stroke="black" />
	<line x1="9.120000000000003" y1="-70.08" x2="9.120000000000003" y2="-73.08" stroke-width="1" stroke="black" />
	<line x1="9.120000000000003" y1="-73.08" x2="9.120000000000003" y2="-76.08" stroke-width="1" stroke="black" />
	<line x1="9.120000000000003" y1="-76.08" x2="9.120000000000003" y2="-79.08" stroke-width="1" stroke="black" />
	<line x1="9.120000000000003" y1="-79.08" x2="9.120000000000003" y2="-82.08" stroke-width="1" stroke="black" />
	<line x1="9.120000000000003" y1="-82.08" x2="9.120000000000003" y2="-85.08" stroke-width="1" stroke="black" />
	<line x1="9.120000000000003" y1="-85.08" x2="9.120000000000003" y2="-88.08" stroke-width="1" stroke="black" />
	<line x1="9.120000000000003" y1="-88.08" x2="10.260000000000003" y2="-90.84" stroke-width="1" stroke="black" />
	<line x1="10.260000000000003" y1="-90.84" x2="12.390000000000004" y2="-92.97" stroke-width="1" stroke="black" />
	<line x1="10.260000000000003" y1="-90.84" x2="11.400000000000004" y2="-93.60000000000001" stroke-width="1" stroke="black" />
	<line x1="10.260000000000003" y1="-90.84" x2="11.400000000000004" y2="-93.60000000000001" stroke-width="1" stroke="black" />
	<line x1="11.400000000000004" y1="-93.60000000000001" x2="11.400000000000004" y2="-96.60000000000001" stroke-width="1" stroke="black" />
	<line x1="11.400000000000004" y1="-96.60000000000001" x2="11.400000000000004" y2="-99.60000000000001" stroke-width="1" stroke="black" />
	<line x1="11.400000000000004" y1="-93.60000000000001" x2="13.530000000000005" y2="-95.73" stroke-width="1" stroke="black" />
	<line x1="9.120000000000003" y1="-88.08" x2="9.120000000000003" y2="-91.08" stroke-width="1" stroke="black" />
	<line x1="9.120000000000003" y1="-91.08" x2="10.260000000000003" y2="-93.84" stroke-width="1" stroke="black" />
	<line x1="9.120000000000003" y1="-91.08" x2="9.120000000000003" y2="-94.08" stroke-width="1" stroke="black" />
	<line x1="9.120000000000003" y1="-91.08" x2="9.120000000000003" y2="-94.08" stroke-width="1" stroke="black" />
	<line x1="9.120000000000003" y1="-94.08" x2="7.980000000000002" y2="-96.84" stroke-width="1" stroke="black" />
	<line x1="7.980000000000002" y1="-96.84" x2="6.840000000000002" y2="-99.60000000000001" stroke-width="1" stroke="black" />
	<line x1="9.120000000000003" y1="-94.08" x2="10.260000000000003" y2="-96.84" stroke-width="1" stroke="black" />
	<line x1="9.120000000000003" y1="-88.08" x2="9.120000000000003" y2="-91.08" stroke-width="1" stroke="black" />
	<line x1="9.120000000000003" y1="-91.08" x2="9.120000000000003" y2="-94.08" stroke-width="1" stroke="black" />
	<line x1="9.120000000000003" y1="-94.08" x2="7.980000000000002" y2="-96.84" stroke-width="1" stroke="black" />
	<line x1="7.980000000000002" y1="-96.84" x2="6.840000000000002" y2="-99.60000000000001" stroke-width="1" stroke="black" />
	<line x1="6.840000000000002" y1="-99.60000000000001" x2="5.700000000000001" y2="-102.36000000000001" stroke-width="1" stroke="black" />
	<line x1="5.700000000000001" y1="-102.36000000000001" x2="5.700000000000001" y2="-105.36000000000001" stroke-width="1" stroke="black" />
	<line x1="5.700000000000001" y1="-102.36000000000001" x2="4.5600000000000005" y2="-105.12000000000002" stroke-width="1" stroke="black" />
	<line x1="5.700000000000001" y1="-102.36000000000001" x2="4.5600000000000005" y2="-105.12000000000002" stroke-width="1" stroke="black" />
	<line x1="4.5600000000000005" y1="-105.12000000000002" x2="2.4300000000000006" y2="-107.25000000000001" stroke-width="1" stroke="black" />
	<line x1="2.4300000000000006" y1="-107.25000000000001" x2="0.3000000000000007" y2="-109.38000000000001" stroke-width="1" stroke="black" />
	<line x1="4.5600000000000005" y1="-105.12000000000002" x2="4.5600000000000005" y2="-108.12000000000002" stroke-width="1" stroke="black" />
	<line x1="9.120000000000003" y1="-94.08" x2="10.260000000000003" y2="-96.84" stroke-width="1" stroke="black" />
	<line x1="10.260000000000003" y1="-96.84" x2="12.390000000000004" y2="-98.97" stroke-width="1" stroke="black" />
	<line x1="10.260000000000003" y1="-96.84" x2="11.400000000000004" y2="-99.60000000000001" stroke-width="1" stroke="black" />
	<line x1="10.260000000000003" y1="-96.84" x2="11.400000000000004" y2="-99.60000000000001" stroke-width="1" stroke="black" />
	<line x1="11.400000000000004" y1="-99.60000000000001" x2="11.400000000000004" y2="-102.60000000000001" stroke-width="1" stroke="black" />
	<line x1="11.400000000000004" y1="-102.60000000000001" x2="11.400000000000004" y2="-105.60000000000001" stroke-width="1" stroke="black" />
	<line x1="11.400000000000004" y1="-99.60000000000001" x2="13.530000000000005" y2="-101.73" stroke-width="1" stroke="black" />
	<line x1="9.120000000000003" y1="-70.08" x2="11.250000000000004" y2="-72.21" stroke-width="1" stroke="black" />
	<line x1="11.250000000000004" y1="-72.21" x2="13.380000000000003" y2="-74.33999999999999" stroke-width="1" stroke="black" />
	<line x1="13.380000000000003" y1="-74.33999999999999" x2="16.140000000000004" y2="-75.47999999999999" stroke-width="1" stroke="black" />
	<line x1="16.140000000000004" y1="-75.47999999999999" x2="19.140000000000004" y2="-75.47999999999999" stroke-width="1" stroke="black" />
	<line x1="16.140000000000004" y1="-75.47999999999999" x2="18.900000000000006" y2="-76.61999999999999" stroke-width="1" stroke="black" />
	<line x1="16.140000000000004" y1="-75.47999999999999" x2="18.900000000000006" y2="-76.61999999999999" stroke-width="1" stroke="black" />
	<line x1="18.900000000000006" y1="-76.61999999999999" x2="21.030000000000005" y2="-78.74999999999999" stroke-width="1" stroke="black" />
	<line x1="21.030000000000005" y1="-78.74999999999999" x2="23.160000000000004" y2="-80.87999999999998" stroke-width="1" stroke="black" />
	<line x1="18.900000000000006" y1="-76.61999999999999" x2="21.900000000000006" y2="-76.61999999999999" stroke-width="1" stroke="black" />
	<line x1="13.380000000000003" y1="-74.33999999999999" x2="15.510000000000002" y2="-76.46999999999998" stroke-width="1" stroke="black" />
	<line x1="15.510000000000002" y1="-76.46999999999998" x2="18.270000000000003" y2="-77.60999999999999" stroke-width="1" stroke="black" />
	<line x1="15.510000000000002" y1="-76.46999999999998" x2="17.64" y2="-78.59999999999998" stroke-width="1" stroke="black" />
	<line x1="15.510000000000002" y1="-76.46999999999998" x2="17.64" y2="-78.59999999999998" stroke-width="1" stroke="black" />
	<line x1="17.64" y1="-78.59999999999998" x2="18.78" y2="-81.35999999999999" stroke-width="1" stroke="black" />
	<line x1="18.78" y1="-81.35999999999999" x2="19.92" y2="-84.11999999999999" stroke-width="1" stroke="black" />
	<line x1="17.64" y1="-78.59999999999998" x2="20.400000000000002" y2="-79.73999999999998" stroke-width="1" stroke="black" />
	<line x1="13.380000000000003" y1="-74.33999999999999" x2="15.510000000000002" y2="-76.46999999999998" stroke-width="1" stroke="black" />
	<line x1="15.510000000000002" y1="-76.46999999999998" x2="17.64" y2="-78.59999999999998" stroke-width="1" stroke="black" />
	<line x1="17.64" y1="-78.59999999999998" x2="18.78" y2="-81.35999999999999" stroke-width="1" stroke="black" />
	<line x1="18.78" y1="-81.35999999999999" x2="19.92" y2="-84.11999999999999" stroke-width="1" stroke="black" />
	<line x1="19.92" y1="-84.11999999999999" x2="21.060000000000002" y2="-86.88" stroke-width="1" stroke="black" />
	<line x1="21.060000000000002" y1="-86.88" x2="23.19" y2="-89.00999999999999" stroke-width="1" stroke="black" />
	<line x1="21.060000000000002" y1="-86.88" x2="22.200000000000003" y2="-89.64" stroke-width="1" stroke="black" />
	<line x1="21.060000000000002" y1="-86.88" x2="22.200000000000003" y2="-89.64" stroke-width="1" stroke="black" />
	<line x1="22.200000000000003" y1="-89.64" x2="22.200000000000003" y2="-92.64" stroke-width="1" stroke="black" />
	<line x1="22.200000000000003" y1="-92.64" x2="22.200000000000003" y2="-95.64" stroke-width="1" stroke="black" />
	<line x1="22.200000000000003" y1="-89.64" x2="24.330000000000002" y2="-91.77" stroke-width="1" stroke="black" />
	<line x1="17.64" y1="-78.59999999999998" x2="20.400000000000002" y2="-79.73999999999998" stroke-width="1" stroke="black" />
	<line x1="20.400000000000002" y1="-79.73999999999998" x2="23.400000000000002" y2="-79.73999999999998" stroke-width="1" stroke="black" />
	<line x1="20.400000000000002" y1="-79.73999999999998" x2="23.160000000000004" y2="-80.87999999999998" stroke-width="1" stroke="black" />
	<line x1="20.400000000000002" y1="-79.73999999999998" x2="23.160000000000004" y2="-80.87999999999998" stroke-width="1" stroke="black" />
	<line x1="23.160000000000004" y1="-80.87999999999998" x2="25.290000000000003" y2="-83.00999999999998" stroke-width="1" stroke="black" />
	<line x1="25.290000000000003" y1="-83.00999999999998" x2="27.42" y2="-85.13999999999997" stroke-width="1" stroke="black" />
	<line x1="23.160000000000004" y1="-80.87999999999998" x2="26.160000000000004" y2="-80.87999999999998" stroke-width="1" stroke="black" />
</svg>
